<svg id="Group_3268" data-name="Group 3268" xmlns="http://www.w3.org/2000/svg" width="226.4" height="74.058" viewBox="0 0 226.4 74.058">
  <path id="Path_1601" data-name="Path 1601" d="M323.041,999.874a10.008,10.008,0,0,1-10.006,10.009H106.649a10.009,10.009,0,0,1-10.008-10.009V945.833a10.009,10.009,0,0,1,10.008-10.008H313.035a10.007,10.007,0,0,1,10.006,10.008Z" transform="translate(-96.641 -935.825)"/>
  <g id="Group_3264" data-name="Group 3264" transform="translate(15.187 11.513)">
    <path id="Path_1602" data-name="Path 1602" d="M175.489,1015.377a36.675,36.675,0,0,1-3.315,6.19c-2.154,3.278-5.188,7.36-8.948,7.394-3.342.031-4.2-2.175-8.734-2.15s-5.481,2.189-8.824,2.158c-3.76-.035-6.636-3.721-8.789-7-6.021-9.166-6.65-19.922-2.937-25.64,2.639-4.064,6.8-6.443,10.716-6.443,3.985,0,6.491,2.186,9.786,2.186,3.2,0,5.145-2.189,9.752-2.189a13,13,0,0,1,9.8,5.176C165.384,999.782,166.783,1012.088,175.489,1015.377Z" transform="translate(-131.637 -977.938)" fill="#fff"/>
    <g id="Group_3263" data-name="Group 3263" transform="translate(21.077)">
      <path id="Path_1603" data-name="Path 1603" d="M188.194,970.64a11.186,11.186,0,0,0,2.484-8.285,12.087,12.087,0,0,0-7.8,4.2c-1.7,2.06-3.095,5.114-2.55,8.082A10.2,10.2,0,0,0,188.194,970.64Z" transform="translate(-180.207 -962.355)" fill="#fff"/>
    </g>
  </g>
  <g id="Group_3267" data-name="Group 3267" transform="translate(68.757 11.622)">
    <g id="Group_3265" data-name="Group 3265" transform="translate(0 17.741)">
      <path id="Path_1604" data-name="Path 1604" d="M263.707,1004.42l-8.625,25.388h3.95l2.575-7.8h8.351l2.648,7.8h4.059L268,1004.42Zm2.047,4.174c.291,1.133.605,2.31,1.009,3.582l2.324,6.732h-6.615l2.292-6.776C265.113,1011.034,265.444,1009.847,265.753,1008.594Z" transform="translate(-255.082 -1004.016)" fill="#fff"/>
      <path id="Path_1605" data-name="Path 1605" d="M317.787,1019.586a7.187,7.187,0,0,0-6.107,2.93l-.153-2.525h-3.513l.021.323c.1,1.573.147,3.3.147,5.79v19.569h3.841v-9.132a6.745,6.745,0,0,0,5.251,2.256,7.919,7.919,0,0,0,5.82-2.474,10.5,10.5,0,0,0,2.57-7.388,10.218,10.218,0,0,0-2.231-6.746A7.309,7.309,0,0,0,317.787,1019.586Zm-.957,3.18c3.424,0,4.957,3.172,4.957,6.315,0,4.054-1.955,6.572-5.1,6.572a4.657,4.657,0,0,1-4.525-3.565,4.9,4.9,0,0,1-.136-1.243v-3.089a5.783,5.783,0,0,1,.122-.948c.019-.1.04-.21.055-.312A4.864,4.864,0,0,1,316.83,1022.766Z" transform="translate(-285.044 -1012.6)" fill="#fff"/>
      <path id="Path_1606" data-name="Path 1606" d="M363.368,1019.586a7.19,7.19,0,0,0-6.107,2.93l-.153-2.525H353.6l.02.323c.1,1.575.148,3.3.148,5.79v19.569H357.6v-9.132a6.742,6.742,0,0,0,5.249,2.256,7.93,7.93,0,0,0,5.823-2.474,10.508,10.508,0,0,0,2.569-7.388,10.219,10.219,0,0,0-2.233-6.746A7.306,7.306,0,0,0,363.368,1019.586Zm-.956,3.18c3.423,0,4.955,3.172,4.955,6.315,0,4.054-1.957,6.572-5.1,6.572a4.657,4.657,0,0,1-4.525-3.565,4.906,4.906,0,0,1-.135-1.243v-3.089a5.707,5.707,0,0,1,.122-.951c.019-.1.038-.207.056-.308A4.861,4.861,0,0,1,362.412,1022.766Z" transform="translate(-310.845 -1012.6)" fill="#fff"/>
      <path id="Path_1607" data-name="Path 1607" d="M421.29,1014.65c-3.585-1.388-4.734-2.48-4.734-4.5,0-1.7,1.35-3.412,4.366-3.412a8.727,8.727,0,0,1,4.509,1.132l.325.2,1.084-3.206-.214-.125a11.133,11.133,0,0,0-5.594-1.255c-4.9,0-8.32,2.892-8.32,7.031,0,3.339,2.142,5.672,6.742,7.344,3.26,1.219,4.473,2.467,4.473,4.606,0,2.422-1.872,3.925-4.883,3.925a10.513,10.513,0,0,1-5.536-1.57l-.333-.214-1.031,3.28.19.125a13.158,13.158,0,0,0,6.492,1.669c6.6,0,8.943-4.026,8.943-7.472C427.769,1018.658,425.892,1016.466,421.29,1014.65Z" transform="translate(-343.986 -1003.488)" fill="#fff"/>
      <path id="Path_1608" data-name="Path 1608" d="M455.57,1010.439l-3.768,1.182v3.191h-2.758v3.07H451.8v9.4c0,2.273.435,3.867,1.33,4.873a4.924,4.924,0,0,0,3.716,1.459,9.055,9.055,0,0,0,2.969-.458l.215-.076-.184-3.075-.368.113a5.784,5.784,0,0,1-1.787.207c-1.488,0-2.124-.942-2.124-3.153v-9.293H460.2v-3.07H455.57Z" transform="translate(-364.873 -1007.422)" fill="#fff"/>
      <path id="Path_1609" data-name="Path 1609" d="M484.789,1019.586c-5.375,0-9.127,4.011-9.127,9.752,0,5.569,3.632,9.458,8.834,9.458h.036c4.4,0,9.127-3.063,9.127-9.789a9.7,9.7,0,0,0-2.448-6.794A8.548,8.548,0,0,0,484.789,1019.586Zm-.111,3.033c3.456,0,5.029,3.369,5.029,6.5,0,3.851-2.147,6.645-5.1,6.645h-.037c-2.913,0-5.027-2.748-5.027-6.534C479.541,1025.94,481.13,1022.618,484.678,1022.618Z" transform="translate(-379.94 -1012.6)" fill="#fff"/>
      <path id="Path_1610" data-name="Path 1610" d="M531.772,1019.764l-.23-.059a3.7,3.7,0,0,0-.955-.12,5.48,5.48,0,0,0-4.816,3.092l-.113-2.688h-3.447l.022.323c.1,1.521.145,3.227.145,5.531l-.036,12.548h3.841v-9.79a9.907,9.907,0,0,1,.106-1.489c.433-2.351,2.02-3.871,4.041-3.871a9.805,9.805,0,0,1,1.031.064l.411.042Z" transform="translate(-406.288 -1012.6)" fill="#fff"/>
      <path id="Path_1611" data-name="Path 1611" d="M552.816,1019.5c-5.113,0-8.685,4.086-8.685,9.936,0,5.634,3.553,9.275,9.053,9.275a14.729,14.729,0,0,0,6.081-1.167l.231-.1-.738-2.862-.32.129a11.905,11.905,0,0,1-4.813.861c-1.669,0-5.518-.55-5.753-5.569l12.4.037.05-.245a8.541,8.541,0,0,0,.115-1.6C560.436,1024.181,558.44,1019.5,552.816,1019.5Zm-.256,2.922a3.791,3.791,0,0,1,2.82,1.076,5.468,5.468,0,0,1,1.323,3.576h-8.761C548.3,1024.858,549.687,1022.424,552.56,1022.424Z" transform="translate(-418.696 -1012.553)" fill="#fff"/>
    </g>
    <g id="Group_3266" data-name="Group 3266">
      <path id="Path_1612" data-name="Path 1612" d="M255.082,964.13a28,28,0,0,1,3.684-.249c2.477,0,4.24.5,5.408,1.48a5.258,5.258,0,0,1,1.9,4.332,6.082,6.082,0,0,1-1.922,4.671c-1.268,1.123-3.328,1.73-5.923,1.73a26.61,26.61,0,0,1-3.15-.143Zm1.744,10.643a12.364,12.364,0,0,0,1.743.072c3.684.017,5.685-1.854,5.685-5.1.02-2.871-1.763-4.635-5.408-4.635a10.948,10.948,0,0,0-2.021.16Z" transform="translate(-255.082 -963.328)" fill="#fff"/>
      <path id="Path_1613" data-name="Path 1613" d="M288.66,980.461a4.331,4.331,0,0,1-4.6-4.439,4.451,4.451,0,0,1,4.754-4.582,4.3,4.3,0,0,1,4.615,4.421,4.467,4.467,0,0,1-4.753,4.6Zm.059-1.177a3.07,3.07,0,0,0,2.912-3.37c0-1.462-.812-3.3-2.872-3.3-2.041,0-2.932,1.712-2.932,3.352a3.021,3.021,0,0,0,2.872,3.316Z" transform="translate(-271.487 -967.607)" fill="#fff"/>
      <path id="Path_1614" data-name="Path 1614" d="M309.684,971.891l1.288,4.368c.257.963.515,1.872.693,2.763h.059c.218-.874.535-1.8.852-2.745l1.565-4.386h1.466l1.486,4.314c.356,1.017.634,1.943.851,2.817H318a23.873,23.873,0,0,1,.733-2.8l1.366-4.332h1.724l-3.09,8.628h-1.585l-1.465-4.118a28.269,28.269,0,0,1-.853-2.852h-.039a23.7,23.7,0,0,1-.872,2.87l-1.544,4.1h-1.585l-2.893-8.628Z" transform="translate(-284.979 -967.862)" fill="#fff"/>
      <path id="Path_1615" data-name="Path 1615" d="M343.908,973.971c0-.909-.02-1.622-.08-2.336h1.546l.1,1.409h.04a3.631,3.631,0,0,1,3.169-1.6c1.327,0,3.387.713,3.387,3.672v5.152h-1.742V975.29c0-1.391-.575-2.567-2.22-2.567a2.487,2.487,0,0,0-2.337,1.6,2.111,2.111,0,0,0-.119.731v5.205h-1.743Z" transform="translate(-305.316 -967.607)" fill="#fff"/>
      <path id="Path_1616" data-name="Path 1616" d="M369.346,962.607h1.743v12.657h-1.743Z" transform="translate(-319.76 -962.607)" fill="#fff"/>
      <path id="Path_1617" data-name="Path 1617" d="M383.027,980.461a4.331,4.331,0,0,1-4.6-4.439,4.45,4.45,0,0,1,4.754-4.582,4.3,4.3,0,0,1,4.615,4.421,4.467,4.467,0,0,1-4.754,4.6Zm.059-1.177a3.07,3.07,0,0,0,2.913-3.37c0-1.462-.812-3.3-2.872-3.3-2.041,0-2.933,1.712-2.933,3.352a3.021,3.021,0,0,0,2.873,3.316Z" transform="translate(-324.903 -967.607)" fill="#fff"/>
      <path id="Path_1618" data-name="Path 1618" d="M410.864,978.2a13.006,13.006,0,0,0,.139,2.067h-1.566l-.158-1.087h-.059a3.686,3.686,0,0,1-2.932,1.283c-1.941,0-2.932-1.23-2.932-2.478,0-2.086,2.06-3.227,5.764-3.209V974.6c0-.713-.217-2.014-2.178-2a5,5,0,0,0-2.516.641l-.4-1.052a6.753,6.753,0,0,1,3.17-.749c2.951,0,3.664,1.8,3.664,3.53Zm-1.7-2.336c-1.9-.036-4.061.267-4.061,1.943a1.458,1.458,0,0,0,1.624,1.5,2.417,2.417,0,0,0,2.357-1.445,1.441,1.441,0,0,0,.08-.5Z" transform="translate(-339.012 -967.607)" fill="#fff"/>
      <path id="Path_1619" data-name="Path 1619" d="M434.469,962.607v10.429c0,.766.021,1.64.079,2.228h-1.564l-.079-1.5h-.04a3.587,3.587,0,0,1-3.249,1.694,4.114,4.114,0,0,1-4.121-4.386,4.3,4.3,0,0,1,4.3-4.635,3.3,3.3,0,0,1,2.893,1.3h.039v-5.135Zm-1.743,7.541a2.609,2.609,0,0,0-.079-.677,2.52,2.52,0,0,0-2.515-1.8c-1.8,0-2.873,1.426-2.873,3.316,0,1.764.971,3.208,2.833,3.208a2.594,2.594,0,0,0,2.555-1.872,2.443,2.443,0,0,0,.079-.677Z" transform="translate(-351.543 -962.607)" fill="#fff"/>
      <path id="Path_1620" data-name="Path 1620" d="M465.516,980.461a4.331,4.331,0,0,1-4.6-4.439,4.452,4.452,0,0,1,4.754-4.582,4.3,4.3,0,0,1,4.616,4.421,4.467,4.467,0,0,1-4.753,4.6Zm.06-1.177c1.664,0,2.911-1.408,2.911-3.37,0-1.462-.811-3.3-2.872-3.3-2.041,0-2.932,1.712-2.932,3.352a3.021,3.021,0,0,0,2.872,3.316Z" transform="translate(-371.595 -967.607)" fill="#fff"/>
      <path id="Path_1621" data-name="Path 1621" d="M487.478,973.971c0-.909-.02-1.622-.08-2.336h1.545l.1,1.409h.039a3.631,3.631,0,0,1,3.169-1.6c1.328,0,3.388.713,3.388,3.672v5.152H493.9V975.29c0-1.391-.574-2.567-2.219-2.567a2.489,2.489,0,0,0-2.338,1.6,2.122,2.122,0,0,0-.118.731v5.205h-1.743Z" transform="translate(-386.583 -967.607)" fill="#fff"/>
      <path id="Path_1622" data-name="Path 1622" d="M523.274,967.127v2.067h2.5v1.194h-2.5v4.653c0,1.069.337,1.676,1.307,1.676a3.587,3.587,0,0,0,1.01-.107l.079,1.194a5.235,5.235,0,0,1-1.545.214,2.64,2.64,0,0,1-1.882-.66,3.132,3.132,0,0,1-.673-2.265v-4.706h-1.486v-1.194h1.486v-1.587Z" transform="translate(-405.084 -965.165)" fill="#fff"/>
      <path id="Path_1623" data-name="Path 1623" d="M537.705,962.607h1.743v5.384h.04a2.958,2.958,0,0,1,1.249-1.105,3.677,3.677,0,0,1,1.783-.446c1.287,0,3.347.713,3.347,3.69v5.134h-1.743v-4.956c0-1.409-.575-2.567-2.219-2.567a2.505,2.505,0,0,0-2.338,1.569,1.726,1.726,0,0,0-.119.749v5.205h-1.743Z" transform="translate(-415.059 -962.607)" fill="#fff"/>
      <path id="Path_1624" data-name="Path 1624" d="M563.126,976.194c.041,2.122,1.527,3,3.269,3a7.268,7.268,0,0,0,2.656-.429l.317,1.105a8.574,8.574,0,0,1-3.21.553c-2.933,0-4.715-1.765-4.715-4.35a4.393,4.393,0,0,1,4.516-4.671,3.777,3.777,0,0,1,3.942,4.065,3.628,3.628,0,0,1-.058.748Zm5.093-1.123a2.315,2.315,0,0,0-2.4-2.55,2.714,2.714,0,0,0-2.674,2.55Z" transform="translate(-428.495 -967.583)" fill="#fff"/>
    </g>
  </g>
</svg>
