<svg id="illustration" xmlns="http://www.w3.org/2000/svg" xmlns:xlink="http://www.w3.org/1999/xlink" viewBox="0 0 885.09 800"><defs><linearGradient id="linear-gradient" x1="434.56" y1="119.5" x2="434.56" y2="780.06" gradientUnits="userSpaceOnUse"><stop offset="0" stop-color="#4380b4"/><stop offset="1" stop-color="#fff"/></linearGradient><linearGradient id="linear-gradient-2" x1="156.07" y1="137.52" x2="156.07" y2="300.73" xlink:href="#linear-gradient"/><linearGradient id="linear-gradient-3" x1="190.31" y1="594.93" x2="236.4" y2="594.93" gradientUnits="userSpaceOnUse"><stop offset="0" stop-color="#007ac1"/><stop offset="1" stop-color="#3e4295"/></linearGradient><linearGradient id="linear-gradient-4" x1="186.9" y1="579.44" x2="234.46" y2="579.44" gradientUnits="userSpaceOnUse"><stop offset="0" stop-color="#00a0e3"/><stop offset="1" stop-color="#007ac1"/></linearGradient><linearGradient id="linear-gradient-5" x1="186.9" y1="603.22" x2="234.46" y2="603.22" gradientUnits="userSpaceOnUse"><stop offset="0" stop-color="#77bee9"/><stop offset="1" stop-color="#2aace2"/></linearGradient><linearGradient id="linear-gradient-6" x1="195" y1="576.11" x2="199.27" y2="576.11" gradientUnits="userSpaceOnUse"><stop offset="0" stop-color="#c6d6ee"/><stop offset="1" stop-color="#e1d8eb"/></linearGradient><linearGradient id="linear-gradient-7" x1="222.08" y1="576.11" x2="226.35" y2="576.11" xlink:href="#linear-gradient-6"/><linearGradient id="linear-gradient-8" x1="190.68" y1="591.25" x2="195.9" y2="591.25" xlink:href="#linear-gradient-6"/><linearGradient id="linear-gradient-9" x1="199.38" y1="591.25" x2="204.59" y2="591.25" xlink:href="#linear-gradient-6"/><linearGradient id="linear-gradient-10" x1="208.07" y1="591.25" x2="213.29" y2="591.25" xlink:href="#linear-gradient-6"/><linearGradient id="linear-gradient-11" x1="216.77" y1="591.25" x2="221.99" y2="591.25" xlink:href="#linear-gradient-6"/><linearGradient id="linear-gradient-12" x1="225.47" y1="591.25" x2="230.69" y2="591.25" xlink:href="#linear-gradient-6"/><linearGradient id="linear-gradient-13" x1="190.68" y1="599.08" x2="195.9" y2="599.08" xlink:href="#linear-gradient-6"/><linearGradient id="linear-gradient-14" x1="199.38" y1="599.08" x2="204.59" y2="599.08" xlink:href="#linear-gradient-6"/><linearGradient id="linear-gradient-15" x1="208.07" y1="599.08" x2="213.29" y2="599.08" xlink:href="#linear-gradient-6"/><linearGradient id="linear-gradient-16" x1="216.77" y1="599.08" x2="221.99" y2="599.08" xlink:href="#linear-gradient-6"/><linearGradient id="linear-gradient-17" x1="225.47" y1="599.08" x2="230.69" y2="599.08" xlink:href="#linear-gradient-6"/><linearGradient id="linear-gradient-18" x1="190.68" y1="606.91" x2="195.9" y2="606.91" xlink:href="#linear-gradient-6"/><linearGradient id="linear-gradient-19" x1="199.38" y1="606.91" x2="204.59" y2="606.91" xlink:href="#linear-gradient-6"/><linearGradient id="linear-gradient-20" x1="208.07" y1="606.91" x2="213.29" y2="606.91" xlink:href="#linear-gradient-6"/><linearGradient id="linear-gradient-21" x1="216.77" y1="606.91" x2="221.99" y2="606.91" xlink:href="#linear-gradient-6"/><linearGradient id="linear-gradient-22" x1="225.47" y1="606.91" x2="230.69" y2="606.91" xlink:href="#linear-gradient-6"/><linearGradient id="linear-gradient-23" x1="190.68" y1="614.73" x2="195.9" y2="614.73" xlink:href="#linear-gradient-6"/><linearGradient id="linear-gradient-24" x1="199.38" y1="614.73" x2="204.59" y2="614.73" xlink:href="#linear-gradient-6"/><linearGradient id="linear-gradient-25" x1="208.07" y1="614.73" x2="213.29" y2="614.73" xlink:href="#linear-gradient-6"/><linearGradient id="linear-gradient-26" x1="216.77" y1="614.73" x2="221.99" y2="614.73" xlink:href="#linear-gradient-6"/><linearGradient id="linear-gradient-27" x1="225.47" y1="614.73" x2="230.69" y2="614.73" xlink:href="#linear-gradient-6"/><linearGradient id="linear-gradient-28" x1="108.24" y1="395.09" x2="167.28" y2="395.09" xlink:href="#linear-gradient-3"/><linearGradient id="linear-gradient-29" x1="134.27" y1="410.67" x2="142.51" y2="410.67" gradientUnits="userSpaceOnUse"><stop offset="0" stop-color="#298fce"/><stop offset="1" stop-color="#0e69b2"/></linearGradient><linearGradient id="linear-gradient-30" x1="124.67" y1="416.12" x2="145.93" y2="416.12" xlink:href="#linear-gradient-29"/><linearGradient id="linear-gradient-31" x1="106.8" y1="409.2" x2="133.59" y2="409.2" gradientUnits="userSpaceOnUse"><stop offset="0" stop-color="#5eb2e3"/><stop offset="1" stop-color="#0b9dd9"/></linearGradient><linearGradient id="linear-gradient-32" x1="118.84" y1="388.95" x2="161.72" y2="388.95" xlink:href="#linear-gradient-6"/><linearGradient id="linear-gradient-33" x1="132.27" y1="379.91" x2="166.68" y2="379.91" xlink:href="#linear-gradient-31"/><linearGradient id="linear-gradient-34" x1="228.06" y1="214.42" x2="265.77" y2="214.42" xlink:href="#linear-gradient-3"/><linearGradient id="linear-gradient-35" x1="230.08" y1="214.39" x2="263.76" y2="214.39" xlink:href="#linear-gradient-5"/><linearGradient id="linear-gradient-36" x1="233.29" y1="190.47" x2="259.43" y2="190.47" xlink:href="#linear-gradient-3"/><linearGradient id="linear-gradient-37" x1="233.48" y1="214.69" x2="260.36" y2="214.69" xlink:href="#linear-gradient-6"/><linearGradient id="linear-gradient-38" x1="233.48" y1="222.93" x2="251.22" y2="222.93" xlink:href="#linear-gradient-6"/><linearGradient id="linear-gradient-39" x1="233.48" y1="231.17" x2="242.68" y2="231.17" xlink:href="#linear-gradient-6"/><linearGradient id="linear-gradient-40" x1="234.74" y1="202.21" x2="244.15" y2="202.21" xlink:href="#linear-gradient-6"/><linearGradient id="linear-gradient-41" x1="245.51" y1="203.85" x2="253.24" y2="203.85" xlink:href="#linear-gradient-6"/><linearGradient id="linear-gradient-42" x1="251.28" y1="232.82" x2="275.32" y2="232.82" gradientUnits="userSpaceOnUse"><stop offset="0" stop-color="#fff100"/><stop offset="1" stop-color="#f9a729"/></linearGradient><linearGradient id="linear-gradient-43" x1="253.84" y1="232.82" x2="272.75" y2="232.82" gradientUnits="userSpaceOnUse"><stop offset="0" stop-color="#fff9bd"/><stop offset="1" stop-color="#f8ab95"/></linearGradient><linearGradient id="linear-gradient-44" x1="257.57" y1="233.69" x2="270" y2="233.69" xlink:href="#linear-gradient-3"/><linearGradient id="linear-gradient-45" x1="427.36" y1="213.79" x2="468.01" y2="213.79" xlink:href="#linear-gradient-3"/><linearGradient id="linear-gradient-46" x1="423.8" y1="215.85" x2="465.09" y2="215.85" xlink:href="#linear-gradient-5"/><linearGradient id="linear-gradient-47" x1="428.7" y1="212.44" x2="456.98" y2="212.44" xlink:href="#linear-gradient-6"/><linearGradient id="linear-gradient-48" x1="428.7" y1="221.12" x2="447.37" y2="221.12" xlink:href="#linear-gradient-6"/><linearGradient id="linear-gradient-49" x1="428.7" y1="229.79" x2="438.38" y2="229.79" xlink:href="#linear-gradient-6"/><linearGradient id="linear-gradient-50" x1="448.87" y1="198.16" x2="465.09" y2="198.16" xlink:href="#linear-gradient-6"/><linearGradient id="linear-gradient-51" x1="453.23" y1="227.19" x2="472.81" y2="227.19" xlink:href="#linear-gradient-6"/><linearGradient id="linear-gradient-52" x1="469.41" y1="211.47" x2="474.99" y2="211.47" xlink:href="#linear-gradient-6"/></defs><title>artwork</title><g opacity="0.09"><path d="M487.84,119.5H501c4.28.67,8.55,1.88,12.84,1.92a429,429,0,0,1,86.94,10.3c41.22,9,80.66,22.69,115.49,47.1,48.42,33.94,82.21,79.84,105.72,133.55,28.83,65.87,38.4,134.79,29.94,206-5.31,44.83-20.54,86.51-42.54,125.87C779,698.66,738.25,741.2,677.58,761.45c-32.93,11-66.88,15.2-101.43,17.32-45.55,2.78-90.84,1.22-135.76-6a891.33,891.33,0,0,1-237.47-73.23C149.11,674.21,98.27,644.2,57.38,600c-19.38-21-34.78-44.35-40-73.18q-1.59-8.76-3.14-17.55v-14.8c.73-2.29,2-4.55,2.13-6.89a181.1,181.1,0,0,1,16.3-64c18.56-39.7,48.41-67.16,89.84-81.61,13.91-4.85,28.56-7.75,42.16-13.28,55.07-22.39,97.66-58.43,119.26-115.23,8.74-23,23.44-39.84,43.72-52.56,37.06-23.25,78.52-32.4,121.22-37.37C461.84,122,474.85,120.81,487.84,119.5Z" fill="url(#linear-gradient)"/><path d="M89.94,300.73c-7.39-1-14.66-1-21.32-3-11.85-3.6-15.81-13.38-8.09-22.93,8.84-10.92,19.49-20.56,30.32-29.59,7.05-5.87,15.5-10.4,23.9-14.24,20.6-9.41,35.66-24.57,49.08-42.41a297.94,297.94,0,0,1,34.29-38.35c9.64-9,22.23-14,36.15-12.35,12.77,1.52,20.2,10.11,21.13,23.07,1.52,21.25-6.64,39.87-16.84,57.38-26.05,44.69-65.94,69.55-116.38,78.22C111.45,298.36,100.57,299.36,89.94,300.73Z" fill="url(#linear-gradient-2)"/></g><rect x="494.83" y="46.84" width="104.96" height="109.41" fill="#e1e1e1"/><rect x="487.72" y="46.84" width="104.96" height="109.41" fill="#fafafa"/><path d="M592.71,156.28h-105V46.81h105Zm-105-.06H592.64V46.87H487.75Z" fill="#e1e1e1"/><rect x="501.83" y="61.55" width="76.74" height="79.99" fill="#fafafa"/><path d="M501.83,142.07a12.5,12.5,0,0,1-1.89,2.21c-1.23,1.29-2.95,3-4.88,4.94s-3.71,3.6-5,4.8a12.9,12.9,0,0,1-2.21,1.85,11.47,11.47,0,0,1,1.88-2.19c1.23-1.3,3-3.05,4.89-5s3.71-3.6,5-4.81A12.35,12.35,0,0,1,501.83,142.07Z" fill="#e1e1e1"/><path d="M578.57,141.88a12.69,12.69,0,0,1,2.2,1.89c1.29,1.23,3,2.95,5,4.88s3.59,3.71,4.79,5a12,12,0,0,1,1.85,2.22,12,12,0,0,1-2.19-1.88c-1.29-1.23-3-2.95-5-4.89s-3.6-3.72-4.8-5A11.81,11.81,0,0,1,578.57,141.88Z" fill="#e1e1e1"/><path d="M578.36,61.76a12.69,12.69,0,0,1,1.89-2.2c1.23-1.29,3-3,4.88-4.94s3.71-3.6,5-4.8A12,12,0,0,1,592.36,48a12,12,0,0,1-1.88,2.19c-1.23,1.3-3,3.05-4.89,5s-3.71,3.6-5,4.8A11.81,11.81,0,0,1,578.36,61.76Z" fill="#e1e1e1"/><path d="M501.62,62a12.69,12.69,0,0,1-2.2-1.89c-1.3-1.23-3.05-3-4.95-4.88s-3.59-3.71-4.8-5A12,12,0,0,1,487.83,48,11.84,11.84,0,0,1,490,49.84c1.29,1.22,3.05,2.95,5,4.89s3.61,3.71,4.81,5A12.35,12.35,0,0,1,501.62,62Z" fill="#e1e1e1"/><path d="M578.36,141.54a2.87,2.87,0,0,1,0-.39c0-.27,0-.64,0-1.11,0-1,0-2.45,0-4.32,0-3.79,0-9.3-.08-16.3,0-14-.09-34-.15-57.87l.3.3-76.52,0h0l.34-.34c0,29.36,0,56.83-.05,80l-.29-.29,55.41.15,15.57.08,4.11,0,1.07,0h.37a2.14,2.14,0,0,1-.34,0l-1,0-4.06,0-15.5.08-55.6.14h-.29v-.3c0-23.16,0-50.63-.05-80v-.34h.35l76.52,0h.3v.3c-.06,24-.11,44-.15,58.06,0,7-.06,12.46-.07,16.23,0,1.85,0,3.27,0,4.26,0,.47,0,.82,0,1.09S578.36,141.55,578.36,141.54Z" fill="#e1e1e1"/><rect x="527.4" y="88.74" width="25.61" height="25.61" fill="#ebebeb"/><rect x="39.9" y="48.01" width="147.56" height="153.82" fill="#e1e1e1"/><rect x="29.91" y="48.01" width="147.56" height="153.82" fill="#fafafa"/><path d="M177.52,201.88H29.87V48H177.52ZM30,201.78H177.43V48.06H30Z" fill="#e1e1e1"/><rect x="49.75" y="68.69" width="107.89" height="112.46" fill="#fafafa"/><path d="M49.75,181.9a18,18,0,0,1-2.66,3.1c-1.73,1.81-4.15,4.28-6.86,6.95s-5.21,5.05-7,6.74-3,2.7-3.12,2.6a17.87,17.87,0,0,1,2.65-3.08c1.72-1.82,4.15-4.29,6.87-7s5.22-5.06,7.06-6.76S49.66,181.8,49.75,181.9Z" fill="#e1e1e1"/><path d="M157.64,181.62a18,18,0,0,1,3.09,2.67c1.82,1.72,4.28,4.14,7,6.85s5.06,5.21,6.75,7.05a17.64,17.64,0,0,1,2.6,3.12,16.52,16.52,0,0,1-3.08-2.65c-1.82-1.72-4.29-4.15-7-6.87s-5.07-5.22-6.76-7.06S157.54,181.71,157.64,181.62Z" fill="#e1e1e1"/><path d="M157.34,69a18,18,0,0,1,2.66-3.1c1.73-1.82,4.15-4.28,6.86-7s5.21-5,7-6.75,3-2.69,3.12-2.59a17.87,17.87,0,0,1-2.65,3.08c-1.72,1.82-4.15,4.28-6.87,7s-5.23,5.06-7.07,6.75S157.43,69.09,157.34,69Z" fill="#e1e1e1"/><path d="M49.45,69.26a17.1,17.1,0,0,1-3.09-2.66c-1.82-1.72-4.28-4.14-7-6.86s-5.06-5.2-6.75-7a17.64,17.64,0,0,1-2.6-3.12,16.52,16.52,0,0,1,3.08,2.65c1.82,1.72,4.29,4.15,7,6.87s5.07,5.22,6.76,7.06A17.08,17.08,0,0,1,49.45,69.26Z" fill="#e1e1e1"/><path d="M157.34,181.15s0-.19,0-.54,0-.9,0-1.57c0-1.41,0-3.44,0-6.07,0-5.33-.07-13.08-.11-22.93,0-19.69-.13-47.75-.22-81.35l.42.41-107.58.07h0l.48-.48c0,41.28,0,79.89-.07,112.46l-.41-.41,77.9.21,21.88.11,5.79.05,1.5,0,.52,0a2.56,2.56,0,0,1-.47,0l-1.46,0-5.71.05-21.79.1-78.16.21h-.41v-.41c0-32.57,0-71.18-.07-112.46v-.48h.49l107.58.06h.42v.42c-.09,33.71-.16,61.86-.21,81.62-.05,9.8-.09,17.52-.11,22.83q0,3.9-.05,6c0,.65,0,1.15,0,1.52A2.53,2.53,0,0,1,157.34,181.15Z" fill="#e1e1e1"/><rect x="85.69" y="106.92" width="36" height="36" fill="#ebebeb"/><rect x="636.81" y="136.13" width="154.29" height="160.83" fill="#e1e1e1"/><rect x="626.36" y="136.13" width="154.29" height="160.83" fill="#fafafa"/><path d="M780.69,297H626.31V136.09H780.69Zm-154.28-.09H780.6V136.18H626.41Z" fill="#e1e1e1"/><rect x="647.1" y="157.75" width="112.8" height="117.59" fill="#fafafa"/><path d="M647.1,276.13a18.62,18.62,0,0,1-2.78,3.23c-1.8,1.9-4.34,4.48-7.17,7.27s-5.45,5.29-7.37,7.06a18.65,18.65,0,0,1-3.26,2.71c-.1-.1,1-1.32,2.77-3.22s4.34-4.48,7.18-7.29,5.46-5.3,7.39-7.06S647,276,647.1,276.13Z" fill="#e1e1e1"/><path d="M759.91,275.84a18.62,18.62,0,0,1,3.23,2.78c1.9,1.8,4.48,4.33,7.27,7.17s5.29,5.45,7.06,7.37,2.81,3.16,2.71,3.26-1.32-1-3.22-2.77-4.48-4.34-7.28-7.18-5.3-5.46-7.07-7.39S759.8,275.93,759.91,275.84Z" fill="#e1e1e1"/><path d="M759.6,158.07c-.09-.11,1-1.34,2.78-3.24s4.33-4.47,7.17-7.27,5.45-5.28,7.37-7.05,3.16-2.82,3.26-2.72-1,1.32-2.77,3.23-4.34,4.48-7.18,7.28-5.46,5.3-7.39,7.07S759.69,158.17,759.6,158.07Z" fill="#e1e1e1"/><path d="M646.79,158.36a19,19,0,0,1-3.23-2.79c-1.9-1.8-4.48-4.33-7.27-7.17S631,143,629.23,141s-2.81-3.16-2.71-3.26a18.42,18.42,0,0,1,3.22,2.77c1.9,1.8,4.48,4.34,7.28,7.19s5.3,5.46,7.07,7.38S646.9,158.27,646.79,158.36Z" fill="#e1e1e1"/><path d="M759.6,275.34a4.27,4.27,0,0,1,0-.57c0-.4,0-.94,0-1.64q0-2.2,0-6.35c0-5.57-.07-13.67-.12-24,0-20.6-.13-49.94-.22-85.07l.44.44-112.49.06h0l.5-.5c0,43.16-.05,83.54-.07,117.59l-.43-.43,81.46.22,22.88.12,6,.05,1.56,0,.55,0a2.9,2.9,0,0,1-.5,0l-1.52,0-6,.05-22.78.11-81.73.22h-.43v-.43c0-34,0-74.43-.07-117.59v-.5h.51l112.49.07H760v.43c-.09,35.25-.16,64.68-.22,85.35,0,10.24-.09,18.32-.11,23.86q0,4.08-.05,6.27c0,.68,0,1.2,0,1.59A4.55,4.55,0,0,1,759.6,275.34Z" fill="#e1e1e1"/><rect x="684.68" y="197.73" width="37.64" height="37.64" fill="#ebebeb"/><polygon points="89.05 674.23 89.05 752.98 204.23 752.98 331.26 752.98 331.26 674.23 89.05 674.23" fill="#f5f5f5"/><polygon points="78.89 652.21 78.89 674.23 339.73 674.23 339.73 652.21 204.23 652.21 78.89 652.21" fill="#e1e1e1"/><polygon points="209.31 752.98 331.26 752.98 331.26 674.23 339.73 674.23 339.73 652.21 204.23 652.21 204.23 672.19 209.31 752.98" fill="#e1e1e1"/><rect x="122.93" y="686.93" width="49.12" height="11.86" fill="#e1e1e1"/><rect x="116.61" y="713.6" width="63.07" height="25.03" fill="#fff"/><path d="M429.36,523.85s-4-17.28-20-16.42-19.92.87-26.86,0-17.66-9.2-20.69-6.6-1.34,8.23,4.29,13.24,15.31,8.42,15.31,8.42L360.9,526s-18.46-9.85-22.79-8.12-4,6.53-4,6.53-7.66-3.45-9.83-.41-2.69,5.06-.53,6.79c0,0-1.42-1.4-5.4-.23-3.4,1-3.11,7.27,0,9l1.05.61s29,16.72,29.92,16.84c5.13.68,36.42-.65,52.54-1.4a16.49,16.49,0,0,1,14.7,7.68l25.95,41.13,29.31-33.74Z" fill="#ffbe9d"/><path d="M376.71,533.3a31.52,31.52,0,0,1-4.74,1.05c-3,.56-7.23,1.31-12.15,2.15l-.12,0-.13,0-6.56-3-15.66-7.25L332.63,524A7.4,7.4,0,0,1,331,523a8,8,0,0,1,1.82.62l4.84,2,7.12,3.06,8.65,3.95,6.55,3.05-.25,0c4.93-.78,9.18-1.43,12.2-1.85A31.49,31.49,0,0,1,376.71,533.3Z" fill="#aa6550"/><path d="M369.53,541c.08.27-3.31,1.12-6.56,3.75s-4.9,5.68-5.14,5.54,1.11-3.51,4.59-6.24S369.53,540.77,369.53,541Z" fill="#aa6550"/><path d="M402.77,516.79c.11,0,.18,1.05.75,2.76a14.34,14.34,0,0,0,4,6.08l.59.53-.79.15a40.91,40.91,0,0,0-19.13,9.22c-2.57,2.19-3.92,3.81-4,3.71s.26-.47.85-1.23a29,29,0,0,1,2.78-3,37.54,37.54,0,0,1,11.24-7.2,38,38,0,0,1,8.16-2.33l-.2.68a13.73,13.73,0,0,1-3.87-6.53A6.74,6.74,0,0,1,402.77,516.79Z" fill="#aa6550"/><path d="M383.57,521.69c.08.25-4.88,1.83-11.17,3-3.15.59-6,1-8.1,1.19a12.54,12.54,0,0,1-3.4.14c0-.26,5.08-1,11.33-2.2l8-1.58A15.45,15.45,0,0,1,383.57,521.69Z" fill="#aa6550"/><path d="M356.3,544.36a42,42,0,0,1-4.86-1.94c-3-1.24-7.13-2.81-11.77-4.47s-8.83-3.22-11.81-4.49a26.39,26.39,0,0,1-4.71-2.3,36.45,36.45,0,0,1,4.94,1.72L340,537.12c4.64,1.66,8.8,3.34,11.73,4.73A23.79,23.79,0,0,1,356.3,544.36Z" fill="#aa6550"/><path d="M363.68,543.67c.08.21-2.61,1.32-6.15,1.66s-6.4-.19-6.36-.42,2.84-.11,6.27-.46S363.61,543.42,363.68,543.67Z" fill="#aa6550"/><path d="M525.26,444.34s-25.92,14.91-31.35,60.48c-2.83,23.75-13.18,67.94-13.18,67.94l-21.27-23.93-32.18,36.85s34.77,74.21,54.49,94.45,58.6,26.47,58.6,26.47l7.83-124Z" fill="#4380b4"/><path d="M721.88,423.84,662,413.35l-76.36,3.79s-63.6,26.25-60.36,27.2L512.87,567.11l30.72,59.32L536,752.75H746.72l-11-87.84L721.94,559.05l26.16,82,4,111.75h58.67c6.19-48.67,8.14-116.28,8.14-116.28L771,480.07a91.2,91.2,0,0,0-40.55-52A49.45,49.45,0,0,0,721.88,423.84Z" fill="#4380b4"/><path d="M524.58,506.27a4.65,4.65,0,0,1,.14.62c.09.46.2,1.07.35,1.85.29,1.67.7,4.06,1.23,7.11,1,6.17,2.53,15.12,4.24,26.19s3.64,24.27,5.47,39,3.56,30.91,4.54,48c.09,1.59.18,3.17.26,4.63v0c-.89,33.13-1.91,62.91-2.84,84.4-.47,10.74-.9,19.41-1.27,25.39-.2,2.95-.36,5.26-.46,6.89-.07.75-.11,1.34-.15,1.78a4.32,4.32,0,0,1-.08.61,3.55,3.55,0,0,1,0-.61c0-.45,0-1,.06-1.79.07-1.63.17-3.94.3-6.89.24-6,.58-14.7,1-25.41.77-21.49,1.68-51.26,2.57-84.4v0c-.08-1.47-.17-3.05-.26-4.63-1-17-2.7-33.25-4.47-47.94s-3.65-27.91-5.28-39-3-20-4-26.23c-.46-3.06-.82-5.45-1.07-7.13-.11-.79-.19-1.4-.26-1.86A2.81,2.81,0,0,1,524.58,506.27Z" fill="#263238"/><path d="M708.38,512.92a2.84,2.84,0,0,1-.19-.78c-.1-.62-.23-1.37-.38-2.27-.07-.51-.16-1.06-.25-1.65s-.09-1.27-.14-2a45.11,45.11,0,0,1-.16-4.83q0-1.35.06-2.82c0-1,.18-2,.28-3a62.53,62.53,0,0,1,1-6.66,67.2,67.2,0,0,1,12.94-27.73,63.41,63.41,0,0,1,4.45-5.06c.74-.74,1.42-1.51,2.15-2.16l2.12-1.85a41.26,41.26,0,0,1,3.8-3c.58-.42,1.1-.83,1.61-1.16l1.42-.87,2-1.17a2.53,2.53,0,0,1,.72-.35,3,3,0,0,1-.62.51l-1.89,1.3-1.37.92c-.49.36-1,.78-1.55,1.21a47.49,47.49,0,0,0-3.69,3.06l-2.06,1.88c-.71.65-1.36,1.42-2.09,2.17a64.43,64.43,0,0,0-4.33,5.05,69,69,0,0,0-12.8,27.4c-.43,2.31-.91,4.49-1.08,6.57-.11,1-.28,2-.32,3s-.08,1.89-.12,2.78a47.24,47.24,0,0,0,0,4.79c0,.7,0,1.36.07,2s.12,1.14.18,1.65q.12,1.35.21,2.28A3.12,3.12,0,0,1,708.38,512.92Z" fill="#263238"/><path d="M748.1,641a5.44,5.44,0,0,1-.39-1c-.25-.76-.57-1.74-1-3l-3.42-10.89c-2.88-9.2-6.84-21.91-11.39-35.9s-8.77-26.62-12.17-35.62c-1.76-4.47-3.48-8-4.53-10.46-.54-1.24-.93-2.21-1.19-2.87a4.83,4.83,0,0,1-.34-1,5.23,5.23,0,0,1,.51,1l1.33,2.8c1.14,2.44,3,5.9,4.8,10.37,3.57,9,7.87,21.59,12.44,35.58s8.41,26.74,11.14,36c1.36,4.62,2.43,8.37,3.15,11,.33,1.23.59,2.23.8,3A4.44,4.44,0,0,1,748.1,641Z" fill="#263238"/><path d="M792.29,637.1c0,.15-2.27-.51-6-1.08a55.36,55.36,0,0,0-28.6,3.12c-3.48,1.36-5.52,2.48-5.59,2.34a5.58,5.58,0,0,1,1.36-.91,35.13,35.13,0,0,1,4-2,49.66,49.66,0,0,1,29-3.16,36.23,36.23,0,0,1,4.33,1.1A5.58,5.58,0,0,1,792.29,637.1Z" fill="#263238"/><path d="M527.07,628.43a21.82,21.82,0,0,1-1.58-2.36c-1-1.51-2.58-3.66-4.63-6.21-4.06-5.13-10-11.94-16.66-19.43s-12.64-14.28-16.87-19.29c-2.12-2.51-3.81-4.55-4.95-6a17.24,17.24,0,0,1-1.7-2.29,18.48,18.48,0,0,1,2,2.07l5.16,5.8,17.07,19.11c6.63,7.49,12.53,14.38,16.48,19.64a73.71,73.71,0,0,1,4.43,6.4c.47.79.78,1.44,1,1.87A2.14,2.14,0,0,1,527.07,628.43Z" fill="#263238"/><g opacity="0.3"><path d="M538.78,706.6c1-34.34,2.74-66-.37-99.91C537,636.78,526.06,672,515,700Z"/></g><g opacity="0.3"><path d="M721.94,559.05s-9.78-21.86-9.12-21.86c-1,40.92,7.37,87.88,22.66,125.85Z"/></g><path d="M695.05,675a7.68,7.68,0,0,1-1.17.75l-3.44,2c-3,1.76-7.27,4.3-12.54,7.53s-11.52,7.08-18.64,11.11a165,165,0,0,1-24,11.36c-8.91,3.14-17.8,5.29-26.06,5.31a39.51,39.51,0,0,1-11.55-1.63,27.37,27.37,0,0,1-9-4.73,22.78,22.78,0,0,1-8.08-12.07,17.2,17.2,0,0,1-.53-4,7.79,7.79,0,0,1,.08-1.39,25.6,25.6,0,0,0,.78,5.26A23,23,0,0,0,589,706.22a26.83,26.83,0,0,0,8.83,4.51,38.67,38.67,0,0,0,11.33,1.52c8.12-.06,16.92-2.21,25.76-5.32a170.38,170.38,0,0,0,24-11.24c7.12-4,13.4-7.8,18.72-10.94s9.66-5.62,12.69-7.29l3.52-1.85A7.78,7.78,0,0,1,695.05,675Z" fill="#263238"/><path d="M694.8,625.22a21.42,21.42,0,0,1-.66,3c-.23,1-.54,2.11-1,3.42s-.88,2.84-1.57,4.45-1.34,3.41-2.24,5.26-1.91,3.8-3,5.84a94.85,94.85,0,0,1-8.5,12.41,93.74,93.74,0,0,1-10.51,10.76c-1.79,1.48-3.46,2.91-5.15,4.08s-3.24,2.3-4.72,3.24-2.85,1.71-4.05,2.4-2.27,1.23-3.16,1.64a20.41,20.41,0,0,1-2.78,1.22,19.59,19.59,0,0,1,2.62-1.53c.86-.45,1.9-1,3.07-1.76s2.55-1.49,4-2.5,3-2,4.62-3.29,3.3-2.64,5-4.11a90.78,90.78,0,0,0,18.84-23c1.1-2,2.2-3.9,3-5.76s1.67-3.57,2.33-5.17,1.19-3.08,1.68-4.38.85-2.42,1.13-3.35A20.07,20.07,0,0,1,694.8,625.22Z" fill="#263238"/><path d="M527.6,546.8c-.05.24-8.91-1.51-19.78-3.91s-19.65-4.53-19.6-4.77,8.91,1.51,19.79,3.91S527.65,546.56,527.6,546.8Z" fill="#fafafa"/><path d="M527.6,536.84a32.43,32.43,0,0,1-5.6-.64c-3.44-.52-8.17-1.36-13.38-2.35l-13.32-2.62a40.18,40.18,0,0,1-5.49-1.24,31.66,31.66,0,0,1,5.6.63c3.44.52,8.17,1.36,13.38,2.36l13.32,2.61A39.1,39.1,0,0,1,527.6,536.84Z" fill="#fafafa"/><path d="M708.7,538.12c0,.24-38.28.16-85.48-.2s-85.49-.84-85.49-1.08,38.27-.16,85.49.2S708.7,537.88,708.7,538.12Z" fill="#fafafa"/><path d="M711.54,546.8c0,.24-39.39.44-88,.44s-88-.2-88-.44,39.38-.45,88-.45S711.54,546.55,711.54,546.8Z" fill="#fafafa"/><path d="M783.22,526.6s.06,0,.2,0c-.07.19-.15.06-.26.1H783v-.17h.74l-.52.19c-3.14,1.16-16.29,5.61-31.82,11.53L728.53,547l-6.94,2.66a17.66,17.66,0,0,1-2.58.87,14.93,14.93,0,0,1,2.45-1.19c1.61-.72,3.94-1.72,6.84-2.92,5.79-2.42,13.84-5.66,22.8-9,15.55-5.92,28.83-10.1,32.09-10.87l0,.18-.19,0h0v-.17h.15c.1.06.19-.07.25.13C783.28,526.63,783.21,526.61,783.22,526.6Z" fill="#fafafa"/><path d="M781.83,515.62c.07.23-14.86,5.45-33.35,11.67s-33.55,11.06-33.62,10.83,14.84-5.46,33.34-11.67S781.75,515.38,781.83,515.62Z" fill="#fafafa"/><path d="M668.08,414.63a8.35,8.35,0,0,1,.16,1.37,33.84,33.84,0,0,1,.1,4,42.9,42.9,0,0,1-3,14.22,43.94,43.94,0,0,1-12.62,17.42,43.24,43.24,0,0,1-49.88,3,43.91,43.91,0,0,1-14.64-15.75,43,43,0,0,1-4.72-13.76,33.53,33.53,0,0,1-.38-3.94,7.58,7.58,0,0,1,0-1.38,9,9,0,0,1,.19,1.37c.06.9.25,2.21.54,3.89a44.52,44.52,0,0,0,4.93,13.51A43.77,43.77,0,0,0,603.27,454a42.77,42.77,0,0,0,48.93-3,43.84,43.84,0,0,0,12.55-17,44.56,44.56,0,0,0,3.24-14c.09-1.71.12-3,.07-3.93A7.62,7.62,0,0,1,668.08,414.63Z" fill="#fafafa"/><path d="M460.92,552.37A7.81,7.81,0,0,1,460,554c-.62,1-1.56,2.49-2.78,4.26a166.11,166.11,0,0,1-10.19,13.34c-4.25,5-8.39,9.28-11.49,12.25-1.55,1.48-2.84,2.66-3.75,3.44a7.13,7.13,0,0,1-1.48,1.15,8.4,8.4,0,0,1,1.24-1.4l3.55-3.64c3-3.07,7-7.39,11.25-12.37s7.82-9.68,10.36-13.13l3-4.09A7.16,7.16,0,0,1,460.92,552.37Z" fill="#fafafa"/><g opacity="0.3"><path d="M653,679.83c-8.59,4.88-20.17,5.65-30.5,5.93a13.27,13.27,0,0,1-5.75-.76,4.87,4.87,0,0,1-3.09-4.54c.21-2.33,2.54-3.84,4.7-4.74,8.35-3.45,17.72-3.25,26.49-5.46,14.94-3.75,30.18-14.42,41.81-24.52-8.87,15-18.63,25.08-33.66,34.09"/></g><path d="M620.87,454.83h0a38.4,38.4,0,0,1-35.32-38.59c.09-9.56.19-17.2.19-17.2s-30.79-4.78-31.17-35.56,5-101.47,5-101.47h0A107,107,0,0,1,667,275.53l4.56,3.51-9.37,140.1A38.38,38.38,0,0,1,620.87,454.83Z" fill="#ffbe9d"/><path d="M585.69,398.6s19.45,1.58,40.13-11.41c0,0-9.49,22.16-40.2,19.38Z" fill="#eb996e"/><path d="M667.79,310.92c.52-.23,21.15-6.25,20.48,14.79s-21.66,16-21.68,15.42S667.79,310.92,667.79,310.92Z" fill="#ffbe9d"/><path d="M673.27,333.37c.1-.07.36.26,1,.57a3.68,3.68,0,0,0,2.74.14c2.25-.74,4.23-4.21,4.46-8a12.16,12.16,0,0,0-.86-5.28c-.6-1.56-1.56-2.67-2.67-2.91a1.89,1.89,0,0,0-2.2.94c-.3.58-.18,1-.29,1s-.44-.37-.24-1.23a2.33,2.33,0,0,1,.87-1.3,2.78,2.78,0,0,1,2-.47c1.62.17,3,1.71,3.73,3.39a12.43,12.43,0,0,1,1.08,5.9c-.27,4.24-2.57,8.14-5.64,8.92a3.94,3.94,0,0,1-3.33-.66C673.29,333.88,673.2,333.4,673.27,333.37Z" fill="#aa6550"/><path d="M570.7,311.37a4.4,4.4,0,0,0,4.24,4.43,4.2,4.2,0,0,0,4.53-4,4.4,4.4,0,0,0-4.23-4.44A4.21,4.21,0,0,0,570.7,311.37Z" fill="#263238"/><path d="M565.35,305.32c.55.57,3.88-1.9,8.61-1.88s8.2,2.37,8.71,1.8c.25-.26-.3-1.3-1.82-2.4a12,12,0,0,0-7-2.14,11.57,11.57,0,0,0-6.85,2.21C565.58,304,565.09,305.06,565.35,305.32Z" fill="#263238"/><path d="M616.12,312.4a4.39,4.39,0,0,0,4.24,4.43,4.2,4.2,0,0,0,4.53-4,4.41,4.41,0,0,0-4.24-4.44A4.21,4.21,0,0,0,616.12,312.4Z" fill="#263238"/><path d="M611.85,306.2c.55.57,3.88-1.89,8.61-1.88s8.19,2.38,8.71,1.8c.25-.26-.3-1.29-1.82-2.39a12,12,0,0,0-7-2.15,11.52,11.52,0,0,0-6.85,2.21C612.08,304.9,611.58,305.94,611.85,306.2Z" fill="#263238"/><path d="M594.68,341.28c0-.27-2.91-.78-7.68-1.39-1.21-.12-2.35-.36-2.55-1.19s.22-2.17.8-3.58q1.71-4.38,3.57-9.2c5-13.09,8.56-23.86,8-24.05s-5,10.26-9.94,23.35q-1.8,4.84-3.42,9.26c-.46,1.37-1.25,2.92-.63,4.74a3,3,0,0,0,2,1.76,8.33,8.33,0,0,0,2.06.29C591.69,341.52,594.67,341.55,594.68,341.28Z" fill="#263238"/><path d="M610.63,287.66c.47,1.29,5.19.68,10.74,1.35s10,2.18,10.77,1c.33-.56-.45-1.77-2.26-3a17.86,17.86,0,0,0-8-2.8,18.06,18.06,0,0,0-8.4,1C611.45,286,610.43,287.05,610.63,287.66Z" fill="#263238"/><path d="M567.09,291.63c.84,1.07,4.09-.05,8-.1s7.24.72,8-.4c.34-.54-.18-1.62-1.64-2.64a11.58,11.58,0,0,0-12.89.4C567.18,290,566.73,291.1,567.09,291.63Z" fill="#263238"/><path d="M544.53,242.58c-.33-3.81,1.09-7.91,4.2-10.15s7.92-2.1,10.44.78c-1.44-5.14,2.76-11.07,8.09-11.4,5-.32,9.3,3.47,14.15,4.8s9.82.17,14.37-1.66,8.81-4.37,13.43-6A39.36,39.36,0,0,1,659.55,242c6.73-2.1,14.38,1.32,18.53,7s5.22,13.19,4.39,20.19A64.46,64.46,0,0,1,679,283c0,.39,0,.78,0,1.18-.32,16.92-2.23,36.8-9.45,36.91-12.59.19-9.59-23.52-9.59-23.52-15.44-6-9.69-29.11-13.55-32.62s-11.94-11.67-44.28,4.86c-12.56,6.42-29.25,6.22-38.37,4.15l-.8-.16-.19,0c-.1,0-.17-.08-.27-.11a29.09,29.09,0,0,1-8.29-3.52,16.4,16.4,0,0,1-6.84-7.6c-1.24-3.23-.77-7.27,1.77-9.63A19.73,19.73,0,0,1,544.53,242.58Z" fill="#263238"/><path d="M590.67,355.83a21.1,21.1,0,0,0,2.74,5.37,7.09,7.09,0,0,0,5.08,2.95,6.42,6.42,0,0,0,5.42-2.95,10.23,10.23,0,0,0,1.51-6.17c-.09-1.94-1-4.26-2.91-4.49a4.85,4.85,0,0,0-2.34.52L590,355.18" fill="#eb996e"/><path d="M594.72,364.18c.06-.32,2.28.59,5.42-.67a7.7,7.7,0,0,0,4.09-3.72,8.14,8.14,0,0,0,.14-6.64,7.58,7.58,0,0,0-.89-1.52c-.4-.42-.33-.4-.77-.33s-1.08.42-1.62.63l-1.67.68c-2.17.88-4.14,1.65-5.8,2.27-3.33,1.24-5.43,1.9-5.53,1.67s1.83-1.3,5-2.85c1.6-.77,3.52-1.66,5.65-2.62l1.65-.74a17.84,17.84,0,0,1,1.85-.76,2.38,2.38,0,0,1,1.51,0,2.81,2.81,0,0,1,1.12.89,8.85,8.85,0,0,1,1.14,1.92,9.51,9.51,0,0,1-.31,8.12,8.67,8.67,0,0,1-5.15,4.17,8.19,8.19,0,0,1-4.4.17C595.16,364.63,594.68,364.28,594.72,364.18Z" fill="#263238"/><path d="M647.41,262.12a18.19,18.19,0,0,0,0-3.72,14.47,14.47,0,0,0-4.81-8.65c-3.1-2.95-8.2-4.72-13.85-4.58s-11.75,1.92-18,4a96.23,96.23,0,0,1-9.32,2.7,48,48,0,0,1-9,1.1,48.78,48.78,0,0,1-15.16-2,46.61,46.61,0,0,1-9.49-4c-1.07-.59-1.86-1.11-2.39-1.47a3.56,3.56,0,0,1-.78-.59c0-.08,1.17.66,3.33,1.75a52.09,52.09,0,0,0,9.5,3.72,49.77,49.77,0,0,0,15,1.77,48.72,48.72,0,0,0,8.84-1.12c3-.68,6.08-1.67,9.23-2.7,6.24-2.1,12.42-4,18.28-4s11.13,1.8,14.3,4.94a14.53,14.53,0,0,1,4.72,9.07A8.54,8.54,0,0,1,647.41,262.12Z" fill="#455a64"/><path d="M671.34,314.14a2.62,2.62,0,0,1-.4-.65c-.25-.43-.57-1.1-1-2a39.46,39.46,0,0,1-2.45-7.65,42.15,42.15,0,0,1-.79-11.9c.28-4.52,1.69-9.3,2.74-14.3s1.35-9.95,0-14.15a14.36,14.36,0,0,0-3-5.36,10.76,10.76,0,0,0-4.42-2.9,10.11,10.11,0,0,0-7.6.2,14.2,14.2,0,0,0-2.36,1.65,5.91,5.91,0,0,1,2.2-2,10.25,10.25,0,0,1,8-.49,11.43,11.43,0,0,1,4.78,3,15,15,0,0,1,3.19,5.61c1.43,4.38,1.17,9.54.06,14.58s-2.48,9.77-2.8,14.19a43.35,43.35,0,0,0,.59,11.7,45.44,45.44,0,0,0,2.15,7.65A28.23,28.23,0,0,1,671.34,314.14Z" fill="#455a64"/><path d="M650.36,259.63a6.72,6.72,0,0,1,0-1.23c0-.9.07-2.07.13-3.53a41,41,0,0,0-1.42-12.79,22.78,22.78,0,0,0-4.12-7.76,15.8,15.8,0,0,0-8.25-5.45,20.74,20.74,0,0,0-11,.45,51,51,0,0,0-11,5,91.12,91.12,0,0,1-10.92,5.62,33.26,33.26,0,0,1-11.26,2.26,35.9,35.9,0,0,1-10.31-1.26,40.3,40.3,0,0,1-8.36-3.45,34.15,34.15,0,0,1-9.9-8.45,20.47,20.47,0,0,1-2-2.93,7.12,7.12,0,0,1-.6-1.08,5.42,5.42,0,0,1,.75,1,27.42,27.42,0,0,0,2.13,2.8,35.5,35.5,0,0,0,9.94,8.12,39.64,39.64,0,0,0,8.25,3.28,35.25,35.25,0,0,0,10.09,1.16,33.2,33.2,0,0,0,11-2.25,93.55,93.55,0,0,0,10.81-5.59,51.08,51.08,0,0,1,11.22-5.06,21.58,21.58,0,0,1,11.47-.4,16.65,16.65,0,0,1,8.62,5.78,23,23,0,0,1,4.14,8.06,38.9,38.9,0,0,1,1.16,13c-.09,1.54-.21,2.73-.3,3.53A6,6,0,0,1,650.36,259.63Z" fill="#455a64"/><path d="M832,752.75c0,.24-172.81.44-385.92.44s-386-.2-386-.44,172.77-.44,386-.44S832,752.5,832,752.75Z" fill="#263238"/><path d="M355.29,682.94c3.28,4.64,9.61,3.06,12.53.2s4.13-7,5.24-10.91c2.53-9,5.07-18.4,3.1-27.52a15.3,15.3,0,0,0-3.55-7.46,8,8,0,0,0-7.58-2.47c-3.19.86-5.16,4-6.57,7a65.5,65.5,0,0,0-6.32,28.17c0,4.54.57,9.29,3.15,13" fill="#83b450"/><path d="M367.63,706.43c5.31-2.78,11.58-3.17,17.5-2.23,3.18.51,6.5,1.44,8.67,3.82s2.61,6.57.14,8.63c-1.47,1.23-3.53,1.43-5.44,1.42-4.63,0-9.78-.82-13.46,2-2.1,1.6-3.49,4.25-6,5.05s-5.25-.66-6.58-2.88a10.19,10.19,0,0,1-.78-7.52A11.49,11.49,0,0,1,367.63,706.43Z" fill="#83b450"/><path d="M346.38,689.67c3.52-4.22,4.15-10.34,2.55-15.59s-5.19-9.7-9.3-13.33a49.65,49.65,0,0,0-16.58-9.66,17.82,17.82,0,0,0-7.44-1.22,7.8,7.8,0,0,0-6.21,3.81c-1.72,3.33,0,7.34,1.79,10.61a125.45,125.45,0,0,0,10.95,16.46c3.27,4.18,7,8.29,12,10.16s10.12,1.61,12.72-1.84" fill="#83b450"/><path d="M355.47,753.12a10.14,10.14,0,0,0,.29-2.12c.14-1.54.31-3.47.52-5.77s.6-5.32,1.25-8.47a65.94,65.94,0,0,1,3-10,36.91,36.91,0,0,1,5.05-9.07,19.09,19.09,0,0,1,6.42-5.4,18.22,18.22,0,0,1,5.42-1.72,10,10,0,0,0,2.1-.31,9.56,9.56,0,0,0-2.14,0,16.14,16.14,0,0,0-5.66,1.5,19.16,19.16,0,0,0-6.77,5.45,35.68,35.68,0,0,0-5.23,9.25,61.81,61.81,0,0,0-3,10.16,72.45,72.45,0,0,0-1.07,8.58c-.17,2.45-.23,4.43-.25,5.8A9.62,9.62,0,0,0,355.47,753.12Z" fill="#263238"/><path d="M355.84,748.68a4.17,4.17,0,0,0,.06-1c0-.74,0-1.67,0-2.81,0-2.43,0-6,.07-10.31.16-8.7.84-20.71,2.21-33.92s3.25-25.1,5-33.63q.61-3.21,1.2-5.75c.37-1.69.68-3.14,1-4.32s.47-2,.64-2.73a4.1,4.1,0,0,0,.17-1,3.79,3.79,0,0,0-.34.92c-.21.71-.47,1.6-.8,2.69s-.71,2.62-1.13,4.3-.88,3.6-1.32,5.73a317.48,317.48,0,0,0-5.22,33.67c-1.38,13.24-2,25.28-2,34,0,4.36.09,7.89.21,10.32.08,1.14.14,2.07.19,2.8A4.31,4.31,0,0,0,355.84,748.68Z" fill="#263238"/><path d="M355.77,725.45a19.26,19.26,0,0,0,0-2.93c-.12-1.88-.39-4.6-.94-7.94A104.56,104.56,0,0,0,352.14,703a103.17,103.17,0,0,0-4.91-13.65,72.88,72.88,0,0,0-14.33-22,37.59,37.59,0,0,0-3.36-3.09c-.52-.43-1-.86-1.44-1.2l-1.3-.88a18.89,18.89,0,0,0-2.47-1.57c-.14.19,3.5,2.31,8.12,7.17a76.94,76.94,0,0,1,14,22,108.21,108.21,0,0,1,4.94,13.53,117.23,117.23,0,0,1,2.81,11.43c.63,3.3,1,6,1.21,7.86A19.28,19.28,0,0,0,355.77,725.45Z" fill="#263238"/><polygon points="388.22 487.97 316.08 484.89 316.08 412.75 388.22 412.75 388.22 487.97" fill="#e9e9e4"/><polygon points="388.22 484.89 416.83 464.26 416.83 392.12 388.22 412.75 388.22 484.89" fill="#e8505b"/><polygon points="316.08 412.75 344.69 392.12 416.83 392.12 388.22 412.75 316.08 412.75" fill="#e8505b"/><polygon points="388.22 487.97 416.83 464.26 416.83 392.12 388.22 412.75 388.22 487.97" fill="#e8505b"/><polygon points="316.08 412.75 344.69 392.12 416.83 392.12 388.22 412.75 316.08 412.75" fill="#e9e9e4" opacity="0.3"/><polygon points="388.22 487.97 416.83 464.26 416.83 392.12 388.22 412.75 388.22 487.97" fill="#e9e9e4" opacity="0.4"/><path d="M426.92,467c.24,0,.44,1.9.44,4.25-.35.7-.1.2-.18.35h0l0,0-.05,0-.08.06-.18.13-.34.25-.65.46c-.42.29-.8.54-1.13.74-.66.4-1.11.6-1.18.5s.23-.47.8-1c.28-.26.63-.56,1-.89l.62-.5.33-.26.17-.13.09-.07,0,0,0,0h0c-.08.15.17-.36-.18.35C426.47,468.92,426.67,467,426.92,467Z" fill="#4380b4"/><path d="M426.92,448.79c.24,0,.44,2,.44,4.56s-.2,4.55-.44,4.55-.45-2-.45-4.55S426.67,448.79,426.92,448.79Z" fill="#4380b4"/><path d="M426.92,430.56c.24,0,.44,2,.44,4.56s-.2,4.55-.44,4.55-.45-2-.45-4.55S426.67,430.56,426.92,430.56Z" fill="#4380b4"/><path d="M426.92,412.33c.24,0,.44,2,.44,4.56s-.2,4.55-.44,4.55-.45-2-.45-4.55S426.67,412.33,426.92,412.33Z" fill="#4380b4"/><path d="M426.92,394.1c.24,0,.44,2,.44,4.56s-.2,4.55-.44,4.55-.45-2-.45-4.55S426.67,394.1,426.92,394.1Z" fill="#4380b4"/><path d="M422.66,380.73c0-.24,1.91-.44,4.25-.44l.45.45h0v.83c0,.25,0,.51,0,.8,0,.51-.05,1-.09,1.35-.08.77-.19,1.25-.31,1.25s-.24-.48-.32-1.25c0-.38-.07-.84-.09-1.35,0-.29,0-.55,0-.8v-.83h0l.44.44C424.57,381.18,422.66,381,422.66,380.73Z" fill="#4380b4"/><path d="M406.36,380.73c0-.24,1.82-.44,4.07-.44s4.08.2,4.08.44-1.83.45-4.08.45S406.36,381,406.36,380.73Z" fill="#4380b4"/><path d="M390.05,380.73c0-.24,1.82-.44,4.08-.44s4.07.2,4.07.44-1.82.45-4.07.45S390.05,381,390.05,380.73Z" fill="#4380b4"/><path d="M373.74,380.73c0-.24,1.83-.44,4.08-.44s4.07.2,4.07.44-1.82.45-4.07.45S373.74,381,373.74,380.73Z" fill="#4380b4"/><path d="M357.43,380.73c0-.24,1.83-.44,4.08-.44s4.08.2,4.08.44-1.83.45-4.08.45S357.43,381,357.43,380.73Z" fill="#4380b4"/><path d="M341.47,381.68c-.09-.1.27-.56.92-1.21l.07-.06.15,0c.69-.06,1.6-.1,2.59-.1,2.25,0,4.08.2,4.08.44s-1.83.45-4.08.45c-1,0-1.9,0-2.59-.11l.22-.07C342.07,381.52,341.55,381.79,341.47,381.68Z" fill="#4380b4"/><path d="M328.92,392.1c-.16-.19,1.12-1.51,2.85-3s3.27-2.45,3.42-2.26-1.12,1.51-2.85,2.94S329.07,392.29,328.92,392.1Z" fill="#4380b4"/><path d="M316.37,402.51c-.16-.19,1.12-1.51,2.85-2.94s3.27-2.45,3.42-2.27-1.12,1.51-2.85,2.95S316.52,402.7,316.37,402.51Z" fill="#4380b4"/><path d="M306.78,414.68c-.24,0-.42-1.9-.4-4.25l.16-.34h0l0,0,.09-.07.17-.13.32-.27.64-.49c.4-.31.77-.57,1.1-.79.64-.43,1.08-.65,1.15-.55s-.21.48-.75,1c-.27.28-.61.6-1,.94l-.6.53-.32.27-.17.14-.08.07,0,0,0,0h0l.16-.33C307.24,412.78,307,414.69,306.78,414.68Z" fill="#4380b4"/><path d="M306.62,431.55c-.25,0-.43-1.89-.41-4.22s.24-4.22.49-4.21.42,1.89.4,4.22S306.86,431.55,306.62,431.55Z" fill="#4380b4"/><path d="M306.45,448.42c-.24,0-.42-1.9-.4-4.22s.24-4.22.48-4.22.43,1.9.4,4.22S306.69,448.42,306.45,448.42Z" fill="#4380b4"/><path d="M306.29,465.28c-.25,0-.43-1.89-.41-4.22s.24-4.21.49-4.21.42,1.89.4,4.22S306.53,465.29,306.29,465.28Z" fill="#4380b4"/><path d="M306.12,482.15c-.24,0-.42-1.89-.4-4.22s.24-4.22.48-4.21.43,1.89.4,4.22S306.36,482.15,306.12,482.15Z" fill="#4380b4"/><path d="M310.25,494.9c0,.25-1.91.41-4.26.38-.87-.9-.24-.25-.44-.45h0V494c0-.25,0-.51,0-.8,0-.5.07-1,.11-1.35.09-.76.21-1.24.33-1.24s.23.48.3,1.25c0,.39.06.84.08,1.35,0,.29,0,.55,0,.8v.83h0l-.44-.45C308.35,494.43,310.25,494.66,310.25,494.9Z" fill="#4380b4"/><path d="M326.35,495.17c0,.24-1.81.41-4,.37s-4-.26-4-.5,1.81-.42,4-.38S326.36,494.92,326.35,495.17Z" fill="#4380b4"/><path d="M342.46,495.43c0,.25-1.81.42-4,.38s-4-.27-4-.51,1.81-.41,4-.38S342.47,495.19,342.46,495.43Z" fill="#4380b4"/><path d="M358.57,495.7c0,.24-1.81.41-4,.37s-4-.26-4-.51,1.81-.41,4-.37S358.57,495.45,358.57,495.7Z" fill="#4380b4"/><path d="M374.68,496c0,.25-1.81.41-4,.38s-4-.27-4-.51,1.81-.41,4-.38S374.68,495.72,374.68,496Z" fill="#4380b4"/><path d="M390.79,496.23c0,.24-1.81.41-4,.37s-4-.26-4-.51,1.81-.41,4-.37S390.79,496,390.79,496.23Z" fill="#4380b4"/><path d="M404.26,488.42c.15.19-1.17,1.44-2.95,2.78s-3.33,2.28-3.47,2.08,1.17-1.44,2.94-2.78S404.11,488.22,404.26,488.42Z" fill="#4380b4"/><path d="M417.1,478.7c.15.19-1.17,1.44-2.94,2.78s-3.33,2.27-3.48,2.08,1.17-1.44,2.94-2.79S417,478.5,417.1,478.7Z" fill="#4380b4"/><path d="M407.33,374.86c.24.06.23,1,0,2.17s-.66,2-.9,2-.23-1,0-2.17S407.09,374.81,407.33,374.86Z" fill="#4380b4"/><path d="M411.23,357.57c.24.06,0,2-.54,4.42s-1.17,4.28-1.41,4.23,0-2,.55-4.42S411,357.52,411.23,357.57Z" fill="#4380b4"/><path d="M415.14,340.28c.23.06,0,2-.55,4.42s-1.17,4.28-1.41,4.23,0-2,.55-4.42S414.9,340.23,415.14,340.28Z" fill="#4380b4"/><path d="M419,323c.24.05,0,2-.55,4.42s-1.17,4.27-1.4,4.22,0-2,.54-4.42S418.8,322.94,419,323Z" fill="#4380b4"/><path d="M422.94,305.71c.24.05,0,2-.55,4.42s-1.16,4.28-1.4,4.22,0-2,.54-4.42S422.7,305.65,422.94,305.71Z" fill="#4380b4"/><path d="M426.84,288.42c.24.05,0,2-.54,4.42s-1.17,4.28-1.41,4.22,0-2,.54-4.42S426.6,288.36,426.84,288.42Z" fill="#4380b4"/><path d="M429.73,275.63c.23.05.22,1,0,2.17s-.66,2-.9,2-.22-1,0-2.17S429.49,275.57,429.73,275.63Z" fill="#4380b4"/><path d="M340.7,376.94c.22-.11.82.65,1.35,1.7s.78,2,.56,2.09-.82-.65-1.35-1.7S340.48,377.05,340.7,376.94Z" fill="#4380b4"/><path d="M333.25,362.13c.21-.11,1.23,1.46,2.25,3.51s1.69,3.79,1.47,3.9-1.23-1.46-2.26-3.51S333,362.24,333.25,362.13Z" fill="#4380b4"/><path d="M325.79,347.33c.22-.11,1.23,1.46,2.26,3.5s1.69,3.79,1.47,3.9-1.23-1.45-2.26-3.5S325.57,347.44,325.79,347.33Z" fill="#4380b4"/><path d="M318.34,332.53c.22-.11,1.23,1.46,2.26,3.5s1.68,3.79,1.47,3.9-1.23-1.46-2.26-3.5S318.12,332.64,318.34,332.53Z" fill="#4380b4"/><path d="M310.88,317.73c.22-.11,1.23,1.45,2.26,3.5s1.69,3.79,1.47,3.9-1.23-1.46-2.26-3.5S310.67,317.84,310.88,317.73Z" fill="#4380b4"/><path d="M303.43,302.92c.22-.11,1.23,1.46,2.26,3.5s1.69,3.79,1.47,3.9-1.23-1.45-2.26-3.5S303.21,303,303.43,302.92Z" fill="#4380b4"/><path d="M296,288.12c.22-.11,1.23,1.46,2.26,3.5s1.68,3.79,1.46,3.9-1.22-1.46-2.25-3.5S295.76,288.23,296,288.12Z" fill="#4380b4"/><path d="M288.52,273.32c.22-.11,1.23,1.46,2.26,3.5s1.69,3.79,1.47,3.9-1.23-1.46-2.26-3.5S288.31,273.43,288.52,273.32Z" fill="#4380b4"/><path d="M282.89,262.12c.21-.11.82.65,1.35,1.7s.78,2,.56,2.1-.83-.65-1.35-1.7S282.67,262.23,282.89,262.12Z" fill="#4380b4"/><path d="M207.54,402.66c0,.24-1,.36-2.16.27s-2.1-.36-2.08-.6,1-.37,2.15-.28S207.55,402.41,207.54,402.66Z" fill="#4380b4"/><path d="M224.82,404c0,.24-2,.29-4.36.1s-4.3-.53-4.28-.78,2-.29,4.35-.1S224.84,403.77,224.82,404Z" fill="#4380b4"/><path d="M242.1,405.36c0,.25-2,.29-4.36.11s-4.3-.54-4.28-.78,2-.29,4.35-.11S242.12,405.12,242.1,405.36Z" fill="#4380b4"/><path d="M259.38,406.72c0,.24-2,.29-4.35.1s-4.31-.54-4.29-.78,2-.29,4.35-.1S259.4,406.47,259.38,406.72Z" fill="#4380b4"/><path d="M276.66,408.07c0,.24-2,.29-4.35.1s-4.31-.53-4.29-.78,2-.29,4.36-.1S276.68,407.83,276.66,408.07Z" fill="#4380b4"/><path d="M293.94,409.42c0,.25-2,.29-4.35.11s-4.31-.54-4.29-.78,2-.29,4.36-.11S294,409.18,293.94,409.42Z" fill="#4380b4"/><path d="M306.82,410.43c0,.25-1,.37-2.15.28s-2.1-.37-2.09-.61,1-.37,2.16-.27S306.84,410.19,306.82,410.43Z" fill="#4380b4"/><path d="M299.67,500.52c-.16-.18,1.12-1.6,2.87-3.17s3.29-2.7,3.46-2.52-1.12,1.61-2.87,3.18S299.84,500.7,299.67,500.52Z" fill="#4380b4"/><path d="M287,511.89c-.16-.18,1.12-1.6,2.87-3.17s3.29-2.7,3.45-2.52-1.12,1.61-2.86,3.18S287.2,512.07,287,511.89Z" fill="#4380b4"/><path d="M274.39,523.26c-.16-.18,1.12-1.6,2.86-3.17s3.3-2.7,3.46-2.51-1.12,1.6-2.86,3.17S274.55,523.44,274.39,523.26Z" fill="#4380b4"/><path d="M261.75,534.63c-.17-.18,1.12-1.6,2.86-3.17s3.29-2.7,3.46-2.51-1.12,1.6-2.87,3.17S261.91,534.81,261.75,534.63Z" fill="#4380b4"/><path d="M249.1,546c-.16-.18,1.12-1.6,2.87-3.17s3.29-2.69,3.45-2.51-1.11,1.6-2.86,3.17S249.27,546.18,249.1,546Z" fill="#4380b4"/><circle cx="212.77" cy="593.5" r="48.97" fill="#fafafa"/><circle cx="137.04" cy="393.66" r="48.97" fill="#fafafa"/><circle cx="249.09" cy="216.51" r="48.97" fill="#fafafa"/><circle cx="446.03" cy="216.51" r="48.97" fill="#fafafa"/><path d="M341.86,440.91a3.28,3.28,0,0,1,4.43,0c1.26,1.27,2.54,2.52,3.78,3.81-.49.49-1,1-1.47,1.47-.24.17.12.56.31.32.51-.47,1-1,1.49-1.46l.83.83-2.68,2.68a.23.23,0,0,0,.07.4c.15.06.26-.09.36-.18l2.58-2.56c.28.27.56.55.83.83-.49.51-1,1-1.5,1.52-.16.17.13.46.31.31.52-.48,1-1,1.52-1.5l.84.84-2.68,2.66a.24.24,0,0,0,.06.42c.16.06.27-.1.37-.19.86-.85,1.72-1.7,2.57-2.56l.84.84c-.5.51-1,1-1.5,1.51-.17.18.13.48.31.31.52-.47,1-1,1.52-1.49l.83.84c-.9.91-1.83,1.8-2.72,2.72-.21.23.21.52.37.27.9-.88,1.78-1.77,2.68-2.66l3.6,3.62a4.15,4.15,0,1,1-5.91,5.82l-9.83-9.89-2.9-2.92a4.23,4.23,0,0,0-4.37-.9,8.44,8.44,0,0,0-1.33.7C337.59,445.17,339.73,443,341.86,440.91Z" fill="#4380b4"/><path d="M354.62,440.92a3.24,3.24,0,0,1,3.74-.48,3.91,3.91,0,0,1,1,.81l13.15,13.23a4.19,4.19,0,0,1,1.22,3.22,4.14,4.14,0,0,1-7.08,2.64L351,444.56Z" fill="#83b450"/><path d="M336.8,446.62a4.23,4.23,0,0,1,4.37.9l2.9,2.92-9.35,9.4a8.72,8.72,0,0,1-1.1,1,4.15,4.15,0,0,1-5.34-6.29c2.39-2.42,4.8-4.82,7.19-7.24A8.44,8.44,0,0,1,336.8,446.62Z" fill="#1f3d73"/><rect x="190.31" y="571.88" width="46.09" height="46.09" rx="2.75" fill="url(#linear-gradient-3)"/><path d="M234.46,575.91a2.3,2.3,0,0,0-2.3-2.3h-43a2.3,2.3,0,0,0-2.3,2.3v9.35h47.56Z" fill="url(#linear-gradient-4)"/><path d="M186.9,585.26v33.62a2.3,2.3,0,0,0,2.3,2.3h43a2.3,2.3,0,0,0,2.3-2.3V585.26Z" fill="url(#linear-gradient-5)"/><rect x="195" y="570.72" width="4.28" height="10.79" rx="2.14" fill="url(#linear-gradient-6)"/><rect x="222.08" y="570.72" width="4.28" height="10.79" rx="2.14" fill="url(#linear-gradient-7)"/><rect id="Rectangle-path" x="190.68" y="589.08" width="5.22" height="4.35" rx="0.87" fill="url(#linear-gradient-8)"/><rect x="199.38" y="589.08" width="5.22" height="4.35" rx="0.87" fill="url(#linear-gradient-9)"/><rect x="208.07" y="589.08" width="5.22" height="4.35" rx="0.87" fill="url(#linear-gradient-10)"/><rect x="216.77" y="589.08" width="5.22" height="4.35" rx="0.87" fill="url(#linear-gradient-11)"/><rect x="225.47" y="589.08" width="5.22" height="4.35" rx="0.87" fill="url(#linear-gradient-12)"/><rect x="190.68" y="596.9" width="5.22" height="4.35" rx="0.87" fill="url(#linear-gradient-13)"/><rect x="199.38" y="596.9" width="5.22" height="4.35" rx="0.87" fill="url(#linear-gradient-14)"/><rect x="208.07" y="596.9" width="5.22" height="4.35" rx="0.87" fill="url(#linear-gradient-15)"/><rect x="216.77" y="596.9" width="5.22" height="4.35" rx="0.87" fill="url(#linear-gradient-16)"/><rect x="225.47" y="596.9" width="5.22" height="4.35" rx="0.87" fill="url(#linear-gradient-17)"/><rect x="190.68" y="604.73" width="5.22" height="4.35" rx="0.87" fill="url(#linear-gradient-18)"/><rect x="199.38" y="604.73" width="5.22" height="4.35" rx="0.87" fill="url(#linear-gradient-19)"/><rect x="208.07" y="604.73" width="5.22" height="4.35" rx="0.87" fill="url(#linear-gradient-20)"/><rect x="216.77" y="604.73" width="5.22" height="4.35" rx="0.87" fill="url(#linear-gradient-21)"/><rect x="225.47" y="604.73" width="5.22" height="4.35" rx="0.87" fill="url(#linear-gradient-22)"/><rect x="190.68" y="612.56" width="5.22" height="4.35" rx="0.87" fill="url(#linear-gradient-23)"/><rect x="199.38" y="612.56" width="5.22" height="4.35" rx="0.87" fill="url(#linear-gradient-24)"/><rect x="208.07" y="612.56" width="5.22" height="4.35" rx="0.87" fill="url(#linear-gradient-25)"/><rect x="216.77" y="612.56" width="5.22" height="4.35" rx="0.87" fill="url(#linear-gradient-26)"/><rect x="225.47" y="612.56" width="5.22" height="4.35" rx="0.87" fill="url(#linear-gradient-27)"/><path d="M167.28,395.09a29.47,29.47,0,0,1-29.52,29.52c-.68,0-1.35,0-2-.07a29.52,29.52,0,1,1,31.53-29.45Z" fill="url(#linear-gradient-28)"/><path d="M140.7,414.92l-2.92,2.92a2.06,2.06,0,1,1-2.91-2.92l2.91-2.91a2.06,2.06,0,0,0,0-2.92l-2.68-2.68A2.06,2.06,0,0,1,138,403.5l2.68,2.68A6.19,6.19,0,0,1,140.7,414.92Z" fill="url(#linear-gradient-29)"/><path d="M145.93,423.47a29.75,29.75,0,0,1-8.17,1.14c-.68,0-1.35,0-2-.07l-11.08-11.07,5.83-5.83,14.57,14.57A3.93,3.93,0,0,1,145.93,423.47Z" fill="url(#linear-gradient-30)"/><path d="M124.55,395.86l9,9-.18,5.65-10.2,10.2a6.24,6.24,0,0,1-8.8-.06l-5.83-5.83a6.13,6.13,0,0,1,0-8.68L118.84,396Z" fill="url(#linear-gradient-31)"/><path d="M139.24,369.74l20.41,20.41c.58.58,1.31,6.73,2.07,6.85L156,398.19a44.69,44.69,0,0,0-22.06,11.87l-.5.49L118.84,396l.49-.5a43.34,43.34,0,0,0,11.78-22.15l1.19-6Z" fill="url(#linear-gradient-32)"/><path d="M123.21,406.18a2,2,0,0,1,0,2.91L120.29,412a2.06,2.06,0,0,1-2.91-2.92l2.91-2.91A2,2,0,0,1,123.21,406.18Z" fill="#e1e3f2"/><path d="M139.24,363.91l26.24,26.24a4.14,4.14,0,0,1,0,5.83,2.37,2.37,0,0,1-.65.4,3.82,3.82,0,0,1-3.11.62,3.7,3.7,0,0,1-2.07-1l-26.24-26.24a4.21,4.21,0,0,1-.61-4.92,4.52,4.52,0,0,1,.61-.91A4.14,4.14,0,0,1,139.24,363.91Z" fill="url(#linear-gradient-33)"/><rect x="228.06" y="189.7" width="37.71" height="49.43" rx="2.32" fill="url(#linear-gradient-34)"/><rect x="230.08" y="191.58" width="33.68" height="45.62" rx="1.72" fill="url(#linear-gradient-35)"/><rect x="233.29" y="188.03" width="26.14" height="4.88" rx="1.64" fill="url(#linear-gradient-36)"/><rect x="233.48" y="212.62" width="26.88" height="4.14" rx="2.01" fill="url(#linear-gradient-37)"/><rect x="233.48" y="220.86" width="17.74" height="4.14" rx="2.05" fill="url(#linear-gradient-38)"/><rect x="233.48" y="229.1" width="9.2" height="4.14" rx="2.07" fill="url(#linear-gradient-39)"/><path d="M234.74,208.15,238,196.26h2.88l3.26,11.89h-1.3l-.86-3.06h-5.08l-.86,3.06ZM239,197.4l-1.8,6.51h4.5l-1.81-6.51Z" fill="url(#linear-gradient-40)"/><path d="M245.51,204.42v-1.17h3.24v-3.34H250v3.34h3.28v1.17H250v3.38h-1.21v-3.38Z" fill="url(#linear-gradient-41)"/><circle cx="263.3" cy="232.82" r="12.02" fill="url(#linear-gradient-42)"/><circle cx="263.3" cy="232.82" r="9.45" fill="url(#linear-gradient-43)"/><path d="M262.64,239.13l-4.9-6a.79.79,0,0,1,.11-1.1h0a.78.78,0,0,1,1.1.12l3.63,4.46,6-8a.76.76,0,0,1,1.08-.16h0a.77.77,0,0,1,.16,1.09Z" fill="url(#linear-gradient-44)"/><rect x="427.36" y="187.92" width="40.65" height="51.73" rx="3.24" fill="url(#linear-gradient-45)"/><path d="M448.87,190H426.75A3,3,0,0,0,423.8,193v45.79a3,3,0,0,0,2.95,3h35.38a3,3,0,0,0,3-3V206.33Z" fill="url(#linear-gradient-46)"/><rect x="428.7" y="210.26" width="28.28" height="4.36" rx="2.12" fill="url(#linear-gradient-47)"/><rect x="428.7" y="218.94" width="18.67" height="4.36" rx="2.16" fill="url(#linear-gradient-48)"/><rect x="428.7" y="227.61" width="9.68" height="4.36" rx="2.18" fill="url(#linear-gradient-49)"/><path d="M448.87,203.37a3,3,0,0,0,3,3h13.26L448.87,190Z" fill="url(#linear-gradient-50)"/><path d="M468.54,212.69l4.27,2.73-13.57,21.49a1.29,1.29,0,0,1-.28.33h0l-.15.12-5.57,4.33,1.55-7a1.29,1.29,0,0,1,0-.19h0a1.38,1.38,0,0,1,.18-.39Z" fill="url(#linear-gradient-51)"/><path d="M474.74,212.35l-1.09,1.73-4.24-2.77,1.09-1.73a1.53,1.53,0,0,1,2.13-.46l1.64,1.07A1.57,1.57,0,0,1,474.74,212.35Z" fill="url(#linear-gradient-52)"/></svg>