<svg xmlns="http://www.w3.org/2000/svg" xmlns:xlink="http://www.w3.org/1999/xlink" viewBox="0 0 500 500"><defs><clipPath id="clip-path"><path d="M395.68,362.14H462a0,0,0,0,1,0,0v42.5a0,0,0,0,1,0,0H395.68a18.21,18.21,0,0,1-18.21-18.21v-6.08A18.21,18.21,0,0,1,395.68,362.14Z" fill="none"/></clipPath></defs><title>artwork</title><g style="isolation:isolate"><g id="BACKGROUND"><path d="M272.08,42.55C433.33,48.1,520.92,286.54,452,380.81S307.34,391,214.14,439.22,1.27,382.76,23.75,222.15C42.74,86.46,153.05,38.46,272.08,42.55Z" fill="#dad4d5"/><rect x="198.7" y="56.26" width="33.34" height="33.34" rx="8.5" fill="#e2ddde"/><rect x="240.07" y="56.26" width="33.34" height="33.34" rx="8.5" fill="#e2ddde"/><rect x="281.45" y="56.26" width="33.34" height="33.34" rx="8.5" fill="#e2ddde"/><rect x="240.07" y="98.54" width="33.34" height="33.34" rx="8.5" fill="#e2ddde"/><rect x="281.45" y="98.54" width="33.34" height="33.34" rx="8.5" fill="#e2ddde"/></g><g id="OBJECTS"><path d="M425.64,153.12a13.44,13.44,0,0,0-13.44-13.44H64.38A13.43,13.43,0,0,0,51,153.12V388h0v7.67a12.9,12.9,0,0,0,12.9,12.9H412.73a12.89,12.89,0,0,0,12.9-12.9V388h0Z" fill="#ededf0" opacity="0.53" style="mix-blend-mode:multiply"/><path d="M437.64,139V377H63V139a10.27,10.27,0,0,1,10.27-10.27H427.37A10.27,10.27,0,0,1,437.64,139Z" fill="#fff"/><path d="M89.46,379.13h183.6c20.89-74.79,6.38-200.34-68.69-248.28H145.5C92.73,173.37,64.86,269.63,89.46,379.13Z" fill="#f3f1f2"/><path d="M437.63,138.15v6.16H63v-6.16a10.27,10.27,0,0,1,10.28-10.27H427.36A10.27,10.27,0,0,1,437.63,138.15Z" fill="#cbc3c4"/><circle cx="80.84" cy="136.09" r="4.28" fill="#e07474"/><path d="M102,136.09a4.28,4.28,0,1,1-4.28-4.27A4.27,4.27,0,0,1,102,136.09Z" fill="#ffd75f"/><circle cx="114.53" cy="136.09" r="4.28" fill="#8cb87d"/><path d="M280.73,303.72,228.3,241.14l-28.85,34.27,50.72,55.22a20.36,20.36,0,0,0,32-2.47h0A20.36,20.36,0,0,0,280.73,303.72Z" fill="#1f3d73"/><path d="M282,313a18.23,18.23,0,0,1-23.08,13.71,18.22,18.22,0,0,1-12-23.68l26.68-74,0-.1,6-1.64S291.1,267.83,282,313Z" fill="#f4d4c5"/><path d="M321.26,201.6l-5,8.49-11.88,7.09v-8.24L311,206.5l6.84-7.4a2,2,0,0,1,2.4-.39l.29.16a2,2,0,0,1,.77.79A1.93,1.93,0,0,1,321.26,201.6Z" fill="#f4d4c5"/><path d="M325.11,203l-8.53,13-1.24,1.89-12.82,7.16-6-7.36,15.92-7.47,8.5-10.32a2.58,2.58,0,0,1,2-.95,2.46,2.46,0,0,1,.89.16,2.57,2.57,0,0,1,1.35,1.13A2.61,2.61,0,0,1,325.11,203Z" fill="#f4d4c5"/><path d="M325.11,203l-8.53,13-9.35,3.49,8.72-5.91,9.21-13.34A2.61,2.61,0,0,1,325.11,203Z" fill="#ecb098"/><path d="M331.17,205.47a2.69,2.69,0,0,1-.3,1.26l-.81,1.56-4.34,8.37-5.1,5.87-9.68,11.17-17.23-9.2,23.35-8.67,9.23-12.11a2.75,2.75,0,0,1,4.88,1.75Z" fill="#f4d4c5"/><polygon points="329.47 209.44 325.72 216.66 320.62 222.53 310.76 223.59 321.3 217.74 329.47 209.44" fill="#ecb098"/><path d="M310.93,233.7l14.68-9.59,5.9-10.51a2,2,0,0,0-.8-2.7h0a2,2,0,0,0-2.52.6l-5.27,7.37-12.16,4.72Z" fill="#f4d4c5"/><path d="M306.13,198.19a3,3,0,0,1-1,2.28l-8.6,7.36v9.87l-22.87,11.22h0a26,26,0,0,1,12.16-23.48l15.68-9.82a3,3,0,0,1,4.6,1.92A2.88,2.88,0,0,1,306.13,198.19Z" fill="#f4d4c5"/><path d="M273.63,228.91c10.06-15.57,31-20,31-20l6.17,24.8-30.09,9Z" fill="#f4d4c5"/><path d="M321.3,199.66l-8.89,10.57-9.1,3.35,8.51-5.13,8.71-9.58A2,2,0,0,1,321.3,199.66Z" fill="#ecb098"/><path d="M304.34,224.41c-9.91-4.64-17.47-3.62-24.41,4.86A27,27,0,0,1,304.34,224.41Z" fill="#ecb098"/><polygon points="282.76 242.11 276.68 244.3 283.58 247.62 282.76 242.11" fill="#ecb098"/><polygon points="193.02 282.67 228.15 296.69 246.97 385.27 223.7 385.27 193.02 282.67" fill="#1f3d73"/><path d="M133.82,296.77c11.66,20.74,23.67,47.18,38.68,59.34a106.65,106.65,0,0,0,10.32,7.55l4.62-10.11,20.62-45.08,6-13.19,8.28-18.13,6.51-14.24a24.46,24.46,0,0,0-14.58-33.47,20.09,20.09,0,0,0-2.68-.77L193,224.82l-36,6.7c-.64.09-1.34.26-2,.41-21.74,4.81-32.15,12-36.05,20.49C112.24,267.19,123.77,279,133.82,296.77Z" fill="#f0c5b1"/><polygon points="199.04 236.89 206.84 262.97 216.33 264.69 199.04 236.89" fill="#ecb098"/><path d="M237.09,271.11l-9.32,14.24-4.7-7.93-33.3-56.18-2.06-3.47,5.09,2.32,12,5.48,6.81,3.09C236.07,228.1,235.26,230,237.09,271.11Z" fill="#1f3d73"/><polygon points="223.84 277.37 223.07 277.42 189.77 221.24 192.8 220.09 204.81 225.56 204.81 235.16 223.84 277.37" fill="#153159"/><path d="M212.64,229.22s33.2,27.61,17.4,76.36" fill="none" stroke="#153159" stroke-miterlimit="10"/><polygon points="200.14 201.7 198.9 241.19 164.91 233.44 168.56 179.57 200.14 201.7" fill="#f0c5b1"/><path d="M199.65,214.79l-.31,12.44A25.94,25.94,0,0,1,177.6,205.7Z" fill="#ecb098"/><path d="M215,177.78c24.4-42.09-42.26-67.47-57.93-25.22Z" fill="#260000"/><path d="M222,203c-2.06,9.22-9.95,16-19.12,14.7-2.93-.41-7.82-1.43-13-2.57a32.59,32.59,0,0,1-24.75-25.27l-3.09-15.23L160,165.8a21.64,21.64,0,0,1,11.87-24.48,22,22,0,0,1,6.94-1.9,37.82,37.82,0,0,1,7.67,0c1,.1,2.11.23,3.14.43h.06l.16,0,2.09.45h0a37.39,37.39,0,0,1,10.41,4.27,38.13,38.13,0,0,1,13.08,12.89,37.28,37.28,0,0,1,3,6.07C223.82,177.38,224.74,190.54,222,203Z" fill="#f4d4c5"/><path d="M182.6,162.47c1.49,11.22-2.81,18.17-11.34,26.63,1.93,7.18,2.5,12.62,2.12,16.6a32.59,32.59,0,0,1-8.24-15.86l-3.09-15.23L160,165.8a21.52,21.52,0,0,1,1.21-13.47c.28-.09.57-.2.85-.28,9.83-9.86,19.33-12.76,27.62-12.22l.16,0,2.09.45h0a37.39,37.39,0,0,1,10.41,4.27,38.13,38.13,0,0,1,13.08,12.89A60.65,60.65,0,0,1,182.6,162.47Z" fill="#f0c5b1"/><path d="M178.57,197l-3.1-15.24-2.07-8.81a21.53,21.53,0,0,1,18.82-26.38,37,37,0,0,1,7.66,0c1.06.09,2.11.22,3.15.41l.21.06,2.09.44,0,0c.57.14,1.14.32,1.71.48a38.58,38.58,0,0,0-4.73-3.31,37.41,37.41,0,0,0-10.41-4.28l0,0-2.09-.44-.21-.06c-1.05-.19-2.09-.32-3.15-.41a37.11,37.11,0,0,0-7.67,0A21.52,21.52,0,0,0,160,165.8l2.07,8.81,3.1,15.23a32.51,32.51,0,0,0,23.74,25A32.53,32.53,0,0,1,178.57,197Z" fill="#f0c5b1"/><path d="M145.36,180.21c5.14,12.89,1.21,22.41-5.94,27-6.93,4.48-16.9,4.39-24.59-1.65,0,0,10.4-4.7,0-25.4-9.84-19.56,5.53-35.79,30.57-26.44q2.16.81,4.41,1.87S138.3,162.51,145.36,180.21Z" fill="#260000"/><path d="M145.36,180.21c5.14,12.89,1.21,22.41-5.94,27a29.26,29.26,0,0,1-2.37-3c-9.83-14.06-14.69-40.24,8.35-50.53q2.16.81,4.41,1.87S138.3,162.51,145.36,180.21Z" fill="#260000" opacity="0.3" style="mix-blend-mode:multiply"/><path d="M140.49,169.19l11.94-17.08C140.7,150.41,135.57,160.4,140.49,169.19Z" fill="#88b950"/><path d="M176.08,149.51c6.44,16.86,6,35.36-12.35,33.66" fill="none" stroke="#260000" stroke-miterlimit="10"/><path d="M168,185.26c10.26-10.17,14.44-18.15,9.71-34,0,0-2.92-8.73-20.55-2.47-26.29,9.35-21.43,37.06-11.21,51.68C155.35,213.87,177.27,219.85,168,185.26Z" fill="#260000"/><path d="M191.59,182.5c.16,3.32-.94,6.08-2.46,6.15s-2.87-2.57-3-5.89.94-6.07,2.46-6.14S191.44,179.18,191.59,182.5Z" fill="#421a00"/><path d="M215.47,162.29c-7.06-.69-7.06-4.5-1.57-4.79C219.8,157.2,224.25,163.15,215.47,162.29Z" fill="#260000"/><path d="M215.73,179.49c.16,3.32-.94,6.07-2.46,6.14s-2.87-2.56-3-5.88.94-6.07,2.46-6.15S215.58,176.17,215.73,179.49Z" fill="#421a00"/><ellipse cx="216.33" cy="182.13" rx="8.5" ry="13.54" fill="none" stroke="#fff" stroke-miterlimit="10"/><path d="M204.19,171.2a41.92,41.92,0,0,0,7.91,13.3,7.09,7.09,0,0,1-7.3,11.31l-1.77-.45" fill="#f4d4c5" stroke="#ecb098" stroke-miterlimit="10"/><path d="M184.84,167.54c-6.52,2.81-8.35-.53-3.69-3.43C186.17,161,193,164.05,184.84,167.54Z" fill="#260000"/><path d="M156.8,150.29c29.81,18.82,58.28,1.9,58.28,1.9S187.34,116.88,156.8,150.29Z" fill="#260000"/><path d="M210.5,198.41l-11.25.8C203.24,210.21,207.63,209.93,210.5,198.41Z" fill="#fff"/><polygon points="136.04 385.27 223.7 385.27 204.81 303.96 144.34 310.62 136.04 385.27" fill="#260000"/><path d="M122.28,280.18c11.66,20.73,35.21,63.77,50.22,75.93,3.4.36,5.48.48,5.48.48l9.46-3,20.62-45.08,6-13.19L213,260.37C182.63,255.8,165,261.59,122.28,280.18Z" fill="#260000"/><path d="M213,260.37c22.7,27.42,21.41,56.91-16.08,60.12Z" fill="#260000"/><polygon points="168.18 308.27 175.31 385.27 120.86 385.27 141.28 296.69 168.18 308.27" fill="#1f3d73"/><path d="M141.28,235.78l17.44-16.64,7.26-1.25-.71,10.48c29,53.6,26.12,87.73-11.43,111.19,0,0-27-51.25-36.88-71.26C103.55,241.14,117,236.89,141.28,235.78Z" fill="#1f3d73"/><polygon points="158.72 219.14 165.27 228.37 165.98 217.89 158.72 219.14" fill="#153159"/><path d="M148.22,276.07,148.09,341l24.17,11.41s-22.37,17-48.33,19.13l12.18-56.91Z" fill="#153159"/><path d="M250.2,286.68l-29.3,5.5a3.85,3.85,0,0,0-1.86.92l-53.15,47.77a1,1,0,0,0,.89,1.8l29.87-5.61a3.81,3.81,0,0,0,1.85-.92l55.43-46.56L253,288A2.66,2.66,0,0,0,250.2,286.68Z" fill="#d8dce2"/><path d="M252.85,289,223,294.64a3.8,3.8,0,0,0-1.86.92L168,343.34a1,1,0,0,0,.89,1.79l29.87-5.61a3.8,3.8,0,0,0,1.85-.91l53.15-47.78A1,1,0,0,0,252.85,289Z" fill="#fff"/><path d="M220.61,315.91c-3.15,4.15-8.32,7.73-11.56,8s-3.3-2.86-.15-7,8.33-7.73,11.56-8S223.77,311.76,220.61,315.91Z" fill="#f3f1f2"/><path d="M252.85,289,223,294.64a3.8,3.8,0,0,0-1.86.92L168,343.34a1,1,0,0,0,.89,1.79l29.87-5.61a3.8,3.8,0,0,0,1.85-.91" fill="none" stroke="#260000" stroke-miterlimit="10" stroke-width="0.25"/><path d="M188.37,347a204.09,204.09,0,0,1-61.89,13.1c-1.65.09-3.32.17-5,.21a172.19,172.19,0,0,1-17.92-.41,18.26,18.26,0,1,1,5.55-36l18.19,4.1,11.21,2.52L186,341.19Z" fill="#f4d4c5"/><path d="M126.48,360.09c-1.65.09-3.32.17-5,.21a172.19,172.19,0,0,1-17.92-.41,18.26,18.26,0,1,1,5.55-36L136,330C137.6,344,135.15,353.62,126.48,360.09Z" fill="#f0c5b1"/><path d="M178.52,350.51C204.87,341.58,212.4,336,212.4,336l-26.31-10.81-10.78,18Z" fill="#f4d4c5"/><path d="M212.4,336l7.07-9.63a3.45,3.45,0,0,0-.86-4.92h0a3.46,3.46,0,0,0-4.24.31l-13.13,11.84Z" fill="#f4d4c5"/><polygon points="190.85 327.48 204.81 327.59 211.63 334.74 194.66 339.56 190.85 327.48" fill="#f4d4c5"/><path d="M211.63,334.74,221,321.61a3.29,3.29,0,0,0-1.76-5.07h0a3.29,3.29,0,0,0-3.13.73l-11.3,10.32Z" fill="#f4d4c5"/><path d="M176.62,341l4.69-13.26a18.71,18.71,0,0,1,7.31-9.38l5.85-3.9a2.62,2.62,0,0,1,3.71.87h0a2.61,2.61,0,0,1-.48,3.22l-5.24,4.89-.31,13Z" fill="#f4d4c5"/><path d="M123.76,345.66c10-22.23,39.1-89.77,39.1-89.77l-44.5-5.1L84.44,335.07a20.35,20.35,0,0,0,19.74,25.3h0C113.25,360.38,120,353.93,123.76,345.66Z" fill="#1f3d73"/><path d="M141.28,235.78s23.2,32.42,28.61,91" fill="none" stroke="#153159" stroke-miterlimit="10"/><ellipse cx="191.43" cy="184.87" rx="9.39" ry="13.54" fill="none" stroke="#fff" stroke-miterlimit="10"/><line x1="199.73" y1="178.52" x2="208.56" y2="176.62" fill="none" stroke="#fff" stroke-miterlimit="10"/><line x1="182.17" y1="182.63" x2="163.73" y2="183.17" fill="none" stroke="#fff" stroke-miterlimit="10"/><path d="M173.68,190c-7.63-17-18-12.47-19.68-4.39-1.57,7.61,5.72,19.51,16.57,13.58Z" fill="#f0c5b1"/><path d="M166.84,200.35a2.49,2.49,0,1,1-2.49-2.49A2.49,2.49,0,0,1,166.84,200.35Z" fill="#fff"/><path d="M96,334.48l30.26-75.17c-4.88-12.95-2-19.48,5.86-22.86-16.35,1.8-24.86,7.1-18.06,25.13L84.44,335.07a20.33,20.33,0,0,0,25.66,24.41A20.86,20.86,0,0,1,96,334.48Z" fill="#153159"/><path d="M120.21,200.74c.77-15.42-11.7-18.81-10.77-33.12s17.69-17.24,25.39-14.77" fill="none" stroke="#260000" stroke-miterlimit="10"/><path d="M63,376.16H437.63a0,0,0,0,1,0,0v11.65a9.74,9.74,0,0,1-9.74,9.74H72.69A9.74,9.74,0,0,1,63,387.81V376.16A0,0,0,0,1,63,376.16Z" fill="#260000"/><polygon points="89.25 386.85 76.92 393.02 76.92 380.69 89.25 386.85" fill="#fffffd"/><line x1="102.28" y1="386.85" x2="395.13" y2="386.85" fill="none" stroke="#fffffd" stroke-linecap="round" stroke-linejoin="round" stroke-width="2"/><line x1="102.28" y1="386.85" x2="222.77" y2="386.85" fill="none" stroke="#d84f4c" stroke-linecap="round" stroke-linejoin="round" stroke-width="2"/><path d="M229.8,386.85a7,7,0,1,1-7-7A7,7,0,0,1,229.8,386.85Z" fill="#d84f4c"/><path d="M226.23,386.85a3.46,3.46,0,1,1-3.46-3.46A3.46,3.46,0,0,1,226.23,386.85Z" fill="#fffffd"/><line x1="402.6" y1="386.85" x2="411.58" y2="386.85" fill="none" stroke="#fffffd" stroke-miterlimit="10" stroke-width="4"/><line x1="416.17" y1="386.85" x2="425.15" y2="386.85" fill="none" stroke="#fffffd" stroke-miterlimit="10" stroke-width="4"/><path d="M177.37,65.11H109.86a11,11,0,0,0-11,11v24.7a11,11,0,0,0,11,11h65.5l13,11.29V76.07A11,11,0,0,0,177.37,65.11Z" fill="#ededf0" opacity="0.53" style="mix-blend-mode:multiply"/><path d="M182,60.45H114.53a11,11,0,0,0-11,11V96.11a11,11,0,0,0,11,11H180l13,11.29V71.4A11,11,0,0,0,182,60.45Z" fill="#fff"/><circle cx="123.36" cy="89.4" r="4.9" fill="#dad4d5"/><circle cx="139.98" cy="89.4" r="4.9" fill="#dad4d5"/><path d="M161.49,89.4a4.9,4.9,0,1,1-4.9-4.9A4.9,4.9,0,0,1,161.49,89.4Z" fill="#dad4d5"/><circle cx="173.21" cy="89.4" r="4.9" fill="#dad4d5"/><g style="mix-blend-mode:multiply"><rect x="250.07" y="81.41" width="182.27" height="123.16" rx="7.34" fill="#ededf0"/></g><rect x="257.07" y="74.41" width="182.27" height="123.16" rx="7.34" fill="#fff"/><line x1="282.68" y1="96.37" x2="282.68" y2="85.51" fill="none" stroke="#260000" stroke-miterlimit="10" stroke-width="0.5"/><line x1="288.11" y1="90.94" x2="277.25" y2="90.94" fill="none" stroke="#260000" stroke-miterlimit="10" stroke-width="0.5"/><rect x="291.64" y="106.74" width="100.61" height="57.22" rx="6.94" fill="#e2ddde"/><path d="M296.8,136c6.82-22.21,16.94-35.21,30.16,7.1,8,25.62,23.69,26.75,34.28-9.54,5.39-18.48,21.9-21.77,27.9,2.93" fill="none" stroke="#fff" stroke-miterlimit="10"/><line x1="275.98" y1="135.99" x2="420.43" y2="135.99" fill="none" stroke="#260000" stroke-miterlimit="10" stroke-width="0.5"/><line x1="348.21" y1="96.37" x2="348.21" y2="175.6" fill="none" stroke="#260000" stroke-miterlimit="10" stroke-width="0.5"/><polyline points="345.77 98.82 348.21 96.37 350.65 98.82" fill="none" stroke="#260000" stroke-miterlimit="10" stroke-width="0.5"/><polyline points="417.99 133.55 420.43 135.99 417.99 138.43" fill="none" stroke="#260000" stroke-miterlimit="10" stroke-width="0.5"/><polyline points="350.65 173.16 348.21 175.6 345.77 173.16" fill="none" stroke="#260000" stroke-miterlimit="10" stroke-width="0.5"/><polyline points="279.16 138.43 276.71 135.99 279.16 133.55" fill="none" stroke="#260000" stroke-miterlimit="10" stroke-width="0.5"/><line x1="410.52" y1="114.82" x2="420.47" y2="104.87" fill="none" stroke="#260000" stroke-miterlimit="10" stroke-width="0.5"/><path d="M413.4,106.22a1.69,1.69,0,1,1-1.68-1.69A1.68,1.68,0,0,1,413.4,106.22Z" fill="none" stroke="#260000" stroke-miterlimit="10" stroke-width="0.5"/><circle cx="418.97" cy="113.47" r="1.68" fill="none" stroke="#260000" stroke-miterlimit="10" stroke-width="0.5"/><line x1="284.15" y1="169.55" x2="292.08" y2="177.48" fill="none" stroke="#260000" stroke-miterlimit="10" stroke-width="0.5"/><line x1="284.15" y1="177.48" x2="292.08" y2="169.55" fill="none" stroke="#260000" stroke-miterlimit="10" stroke-width="0.5"/><rect x="362.42" y="184.12" width="83.6" height="34.52" rx="5.25" fill="#ededf0" opacity="0.53" style="mix-blend-mode:multiply"/><rect x="369.22" y="178.36" width="83.6" height="34.52" rx="5.25" fill="#fff" stroke="#ededf0" stroke-miterlimit="10"/><path d="M393,193.49h3.65V190h2.6v3.53H403V196h-3.7v3.57h-2.6V196H393Z" fill="#ededf0"/><path d="M422.6,191.32h9.61v2.54H422.6Zm0,4.36h9.61v2.54H422.6Z" fill="#ededf0"/><path d="M384.36,189.63a1.43,1.43,0,0,1,1.43,1.44v7.4a1.44,1.44,0,0,1-1.43,1.44h-2.43a1.45,1.45,0,0,1-1.44-1.44v-7.4a1.44,1.44,0,0,1,1.44-1.44h2.43m0-2h-2.43a3.44,3.44,0,0,0-3.44,3.44v7.4a3.44,3.44,0,0,0,3.44,3.44h2.43a3.44,3.44,0,0,0,3.43-3.44v-7.4a3.44,3.44,0,0,0-3.43-3.44Z" fill="#ededf0"/><path d="M414,189.63a1.43,1.43,0,0,1,1.43,1.44v7.4a1.44,1.44,0,0,1-1.43,1.44h-2.43a1.45,1.45,0,0,1-1.44-1.44v-7.4a1.44,1.44,0,0,1,1.44-1.44H414m0-2h-2.43a3.44,3.44,0,0,0-3.44,3.44v7.4a3.44,3.44,0,0,0,3.44,3.44H414a3.44,3.44,0,0,0,3.43-3.44v-7.4a3.44,3.44,0,0,0-3.43-3.44Z" fill="#ededf0"/><path d="M442,189.63a1.44,1.44,0,0,1,1.44,1.44v7.4a1.45,1.45,0,0,1-1.44,1.44h-2.43a1.44,1.44,0,0,1-1.43-1.44v-7.4a1.43,1.43,0,0,1,1.43-1.44H442m0-2h-2.43a3.44,3.44,0,0,0-3.43,3.44v7.4a3.44,3.44,0,0,0,3.43,3.44H442a3.44,3.44,0,0,0,3.44-3.44v-7.4a3.44,3.44,0,0,0-3.44-3.44Z" fill="#ededf0"/><rect x="417.29" y="227.36" width="29.92" height="29.92" rx="3.33" fill="#e2ddde"/><rect x="435.84" y="245.9" width="18.11" height="18.11" rx="2.48" fill="#4380b9"/><rect x="315.39" y="238.95" width="82.17" height="26.08" rx="2.92" fill="none" stroke="#ffc55c" stroke-miterlimit="10" stroke-width="0.75"/><line x1="323.31" y1="247.13" x2="389.62" y2="247.13" fill="none" stroke="#ffc55c" stroke-miterlimit="10" stroke-width="0.75"/><line x1="323.31" y1="256.84" x2="389.62" y2="256.84" fill="none" stroke="#ffc55c" stroke-miterlimit="10" stroke-width="0.75"/><path d="M403.65,238.13a6.1,6.1,0,1,1-6.1-6.1A6.1,6.1,0,0,1,403.65,238.13Z" fill="#4380b9"/><rect x="303.07" y="287.83" width="122.42" height="16.49" rx="7.07" fill="#e2ddde"/><rect x="303.07" y="312.43" width="122.42" height="32.07" rx="7.07" fill="#e2ddde"/><circle cx="312.08" cy="296.07" r="5.77" fill="#fff"/><circle cx="312.08" cy="321.59" r="5.77" fill="#fff"/><line x1="345.57" y1="296.07" x2="416.17" y2="296.07" fill="none" stroke="#baaeaf" stroke-miterlimit="10" stroke-width="0.5"/><line x1="323.28" y1="296.07" x2="339.37" y2="296.07" fill="none" stroke="#baaeaf" stroke-miterlimit="10" stroke-width="0.5"/><line x1="345.57" y1="321.08" x2="416.17" y2="321.08" fill="none" stroke="#baaeaf" stroke-miterlimit="10" stroke-width="0.5"/><line x1="323.28" y1="321.08" x2="339.37" y2="321.08" fill="none" stroke="#baaeaf" stroke-miterlimit="10" stroke-width="0.5"/><line x1="385.89" y1="328.46" x2="416.17" y2="328.46" fill="none" stroke="#baaeaf" stroke-miterlimit="10" stroke-width="0.5"/><line x1="323.28" y1="328.46" x2="379.69" y2="328.46" fill="none" stroke="#baaeaf" stroke-miterlimit="10" stroke-width="0.5"/><line x1="368.3" y1="335.84" x2="416.17" y2="335.84" fill="none" stroke="#baaeaf" stroke-miterlimit="10" stroke-width="0.5"/><line x1="323.28" y1="335.84" x2="362.1" y2="335.84" fill="none" stroke="#baaeaf" stroke-miterlimit="10" stroke-width="0.5"/><path d="M462,357.83l-129.76-.06a25.62,25.62,0,0,0-25.62,25.62h0A25.63,25.63,0,0,0,332.23,409l129.76.06Z" fill="#88b950"/><path d="M462,357.83l-63.53-.06a25.62,25.62,0,0,0-25.62,25.62h0A25.63,25.63,0,0,0,398.46,409l63.53.06Z" fill="#ffd75f"/><path d="M395.68,362.14H462a0,0,0,0,1,0,0v42.5a0,0,0,0,1,0,0H395.68a18.21,18.21,0,0,1-18.21-18.21v-6.08A18.21,18.21,0,0,1,395.68,362.14Z" fill="#fff"/><path d="M398.72,362.13a21.27,21.27,0,0,0-21.26,21.26h0c0,.65,0,1.28.1,1.92A21.25,21.25,0,0,1,398.72,366h63.33v-3.82Z" fill="#ededf0"/><path d="M353.39,401.55a25.59,25.59,0,0,0,18.15,7.53h-19a25.65,25.65,0,0,1,0-51.3h19a25.65,25.65,0,0,0-18.15,43.77Z" fill="#78a340"/><path d="M329.31,401.56a25.46,25.46,0,0,0,18.12,7.51h-8.81a25.65,25.65,0,1,1,0-51.29h8.81a25.63,25.63,0,0,0-18.12,43.78Z" fill="#78a340"/><g clip-path="url(#clip-path)"><line x1="462.05" y1="364.71" x2="374.74" y2="364.71" fill="none" stroke="#ededf0" stroke-miterlimit="10"/><line x1="462.05" y1="368.45" x2="374.74" y2="368.45" fill="none" stroke="#ededf0" stroke-miterlimit="10"/><line x1="462.05" y1="372.19" x2="374.74" y2="372.19" fill="none" stroke="#ededf0" stroke-miterlimit="10"/><line x1="462.05" y1="375.93" x2="374.74" y2="375.93" fill="none" stroke="#ededf0" stroke-miterlimit="10"/><line x1="462.05" y1="379.66" x2="374.74" y2="379.66" fill="none" stroke="#ededf0" stroke-miterlimit="10"/><line x1="462.05" y1="383.4" x2="374.74" y2="383.4" fill="none" stroke="#ededf0" stroke-miterlimit="10"/><line x1="462.05" y1="387.14" x2="374.74" y2="387.14" fill="none" stroke="#ededf0" stroke-miterlimit="10"/><line x1="462.05" y1="390.88" x2="374.74" y2="390.88" fill="none" stroke="#ededf0" stroke-miterlimit="10"/><line x1="462.05" y1="394.62" x2="374.74" y2="394.62" fill="none" stroke="#ededf0" stroke-miterlimit="10"/><line x1="462.05" y1="398.36" x2="374.74" y2="398.36" fill="none" stroke="#ededf0" stroke-miterlimit="10"/><line x1="462.05" y1="402.1" x2="374.74" y2="402.1" fill="none" stroke="#ededf0" stroke-miterlimit="10"/></g><path d="M334.2,383.43a25.33,25.33,0,0,0,4.25,14.11h-3.3a25.66,25.66,0,0,1,.94-29.56h3.28A25.55,25.55,0,0,0,334.2,383.43Z" fill="#88b950"/><path d="M341.19,383.43a25.41,25.41,0,0,0,4.25,14.11h-3.29a25.66,25.66,0,0,1,.94-29.56h3.27A25.61,25.61,0,0,0,341.19,383.43Z" fill="#88b950"/><polygon points="407.09 394.81 398.73 389.06 390.36 394.81 390.36 372.7 407.09 372.69 407.09 394.81" fill="#e4e4e9" style="mix-blend-mode:multiply"/><polygon points="414.78 394.81 404.42 389.06 398.05 394.81 390.36 372.7 407.09 372.69 414.78 394.81" fill="#4380b9"/></g></g></svg>