<svg xmlns="http://www.w3.org/2000/svg" width="249.139" height="51.936" viewBox="0 0 249.139 51.936">
  <g id="Group_3484" data-name="Group 3484" transform="translate(1)">
    <g id="Group_3" data-name="Group 3" transform="translate(117.376 14.675)">
      <g id="Layer_11" data-name="Layer 11" transform="translate(107.144 0.263)">
        <path id="Path_1" data-name="Path 1" d="M672.629,568.353c4.853,0,9.7-.007,14.557,0a7.1,7.1,0,0,1,5.552,2.359,8.62,8.62,0,0,1,1.362,7.229,6.335,6.335,0,0,1-3.89,4.526q3.019,3.074,6.036,6.15c-1.655,0-3.309,0-4.964,0-1.7-1.872-3.392-3.757-5.092-5.63H678.68c0-1.04,0-2.081,0-3.121,2.831-.007,5.663.01,8.494,0a3.466,3.466,0,0,0,3.182-1.647,5.663,5.663,0,0,0,.266-4.183,3.423,3.423,0,0,0-3.443-2.136c-3.692-.015-7.384,0-11.076-.007q0,8.365,0,16.729h-3.474Q672.626,578.486,672.629,568.353Z" transform="translate(-672.628 -568.351)" fill="#fff"/>
      </g>
      <g id="Layer_10" data-name="Layer 10" transform="translate(78.42)">
        <path id="Path_2" data-name="Path 2" d="M565.628,568.12a1.771,1.771,0,0,1,3.041.017c3.941,6.539,7.829,13.108,11.748,19.661-1.41,0-2.818,0-4.226,0q-1.506-2.551-3.012-5.1-4.754,0-9.505,0c.547-.956,1.108-1.9,1.645-2.859,2.059-.017,4.115,0,6.174-.01q-2.235-3.789-4.473-7.577-4.565,7.769-9.118,15.549-2,0-4.006,0C557.812,581.24,561.687,574.659,565.628,568.12Z" transform="translate(-553.895 -567.266)" fill="#fff"/>
      </g>
      <g id="Layer_9" data-name="Layer 9" transform="translate(62.452 0.264)">
        <path id="Path_3" data-name="Path 3" d="M487.892,568.357h18.759V571.9q-3.814,0-7.626,0,0,8.361,0,16.727h-3.508q0-8.365,0-16.727-3.81,0-7.623,0C487.892,570.718,487.889,569.538,487.892,568.357Z" transform="translate(-487.891 -568.357)" fill="#fff"/>
      </g>
      <g id="Layer_8" data-name="Layer 8" transform="translate(38.973 0.264)">
        <path id="Path_4" data-name="Path 4" d="M392.99,569.526a6.919,6.919,0,0,1,4.12-1.166q7.174-.007,14.351,0V571.9q-7.178,0-14.353,0a2.628,2.628,0,0,0-1.984.694,2.857,2.857,0,0,0-.477,2.775,2.26,2.26,0,0,0,2.218,1.457c3.3.034,6.607-.022,9.907.027a5.951,5.951,0,0,1,4.563,1.94,6.741,6.741,0,0,1,1.072,4.727,5.35,5.35,0,0,1-2.591,4.258,7.371,7.371,0,0,1-3.774.849q-7.446,0-14.888,0c0-1.181,0-2.359,0-3.539q7.457,0,14.91,0a3.364,3.364,0,0,0,2.172-.6,2.882,2.882,0,0,0,.593-3.455,2.738,2.738,0,0,0-2.54-1.212c-3.145-.017-6.29.007-9.437-.01a5.954,5.954,0,0,1-5.112-2.557C390.237,574.862,390.595,571.217,392.99,569.526Z" transform="translate(-390.841 -568.357)" fill="#fff"/>
      </g>
      <g id="i" transform="translate(32.086 0.264)">
        <path id="Path_5" data-name="Path 5" d="M362.375,568.361c1.171-.007,2.339,0,3.51,0q0,10.135,0,20.268h-3.508Q362.374,578.492,362.375,568.361Z" transform="translate(-362.375 -568.355)" fill="#fff"/>
      </g>
      <g id="M" transform="translate(0 0.006)">
        <path id="Path_6" data-name="Path 6" d="M235.767,567.483a1.939,1.939,0,0,1,2.627,1.055c2.068,4.756,4.113,9.525,6.179,14.283,2.081-4.792,4.137-9.6,6.222-14.39a1.765,1.765,0,0,1,2.136-1.069,1.958,1.958,0,0,1,1.251,1.573q2.54,9.439,5.085,18.882h-3.479q-1.927-7.12-3.842-14.24-2.812,6.5-5.613,13a2.5,2.5,0,0,1-1.384,1.483H244a2.13,2.13,0,0,1-1.331-1.3q-2.841-6.586-5.668-13.182-1.927,7.116-3.842,14.24h-3.411v-.141c1.684-6.246,3.389-12.488,5.073-18.734A2.066,2.066,0,0,1,235.767,567.483Z" transform="translate(-229.745 -567.29)" fill="#fff"/>
      </g>
    </g>
    <g id="Group_4" data-name="Group 4" transform="translate(-1)">
      <g id="Layer_4" data-name="Layer 4" transform="translate(55.283 0.021)">
        <g id="Group_1" data-name="Group 1" transform="translate(0 0)">
          <path id="Path_7" data-name="Path 7" d="M513.4,348.949a7.413,7.413,0,0,1,8.576-1.11,9.1,9.1,0,0,1,2.279,1.86q15.071,15.165,30.146,30.325a9.5,9.5,0,1,1-13.439,13.436Q522.98,375.378,505,357.293,509.2,353.119,513.4,348.949Z" transform="translate(-505.005 -346.952)" fill="#fff"/>
        </g>
      </g>
      <g id="Layer_3" data-name="Layer 3" transform="translate(19.768)">
        <path id="Path_8" data-name="Path 8" d="M372.858,348.838a7.486,7.486,0,0,1,10.149.014c2.891,2.906,5.818,5.777,8.663,8.724-1.115,1.13-2.267,2.223-3.368,3.37-.539.4.283,1.294.719.748,1.161-1.094,2.264-2.247,3.406-3.363.636.641,1.275,1.28,1.911,1.923-2.047,2.042-4.11,4.072-6.15,6.123a.534.534,0,0,0,.155.922c.356.152.607-.21.842-.409,1.962-1.967,3.936-3.919,5.905-5.879q.958.958,1.911,1.923c-1.137,1.164-2.339,2.269-3.445,3.464-.36.4.3,1.074.709.723,1.2-1.1,2.318-2.3,3.491-3.43q.958.962,1.911,1.926c-2.039,2.037-4.1,4.057-6.13,6.1a.544.544,0,0,0,.133.948c.368.133.622-.215.856-.426q2.939-2.939,5.893-5.864.958.962,1.914,1.923c-1.142,1.156-2.327,2.269-3.44,3.45-.375.409.3,1.1.716.726,1.2-1.1,2.308-2.289,3.476-3.418.639.639,1.273,1.282,1.911,1.921-2.071,2.088-4.195,4.125-6.239,6.237-.472.52.477,1.183.847.622,2.059-2.02,4.093-4.069,6.145-6.1q4.13,4.148,8.252,8.3a9.5,9.5,0,1,1-13.548,13.325l-22.538-22.671q-3.324-3.346-6.646-6.689a9.7,9.7,0,0,0-10.028-2.068,20.962,20.962,0,0,0-3.039,1.606C363.056,358.607,367.964,353.73,372.858,348.838Z" transform="translate(-358.205 -346.863)" fill="#fff"/>
      </g>
      <g id="Layer_2" data-name="Layer 2" transform="translate(0 17.057)">
        <g id="Group_2" data-name="Group 2">
          <path id="Path_9" data-name="Path 9" d="M301.319,407.3a9.7,9.7,0,0,1,10.028,2.068q3.317,3.349,6.646,6.689-10.723,10.781-21.439,21.565a18.279,18.279,0,0,1-2.518,2.3,9.5,9.5,0,0,1-12.241-14.4c5.484-5.547,11.015-11.056,16.487-16.613A20.964,20.964,0,0,1,301.319,407.3Z" transform="translate(-279.156 -406.711)" fill="#fff"/>
        </g>
      </g>
    </g>
  </g>
</svg>
