<svg id="illustration" xmlns="http://www.w3.org/2000/svg" viewBox="0 0 512 512"><title>artwork</title><path d="M232,247.94l10.7.36c3.86,1.3,5.32,4.93,5.27,9.69.12,23.32-.06,46.65.06,70,2.1,0,4.19,0,6.29,0v0H288V296c0-5.34,0-10.67-.09-16-6.21,0-12.42.17-18.61-.29a7.82,7.82,0,0,1-5.13-9.42,25.64,25.64,0,0,1,6.05-6.07c5.84-.7,11.8,0,17.69-.22.13-26.67.07-53.34,0-80-7.94,0-15.88,0-23.81,0-.16,3.36-2.13,6.67-5.47,7.67-7.15.55-14.36,0-21.49.85-2.68,5.11-5.39,10.49-5.11,16.45C231.85,222,232.06,235,232,247.94Z" fill="#e7e7e7"/><path d="M498.67,193a18.82,18.82,0,0,1-3.68-3.67c-3.36-2.88-7.86-4-12.06-5.17C471.3,183.8,459.66,184,448,184c-.46,7.91.91,16.1-1.24,23.85-.75,3.77-10.31,16.12-19.84,16-14.32.29-28.64-.08-43,.11,0,13.25-.12,26.5.08,39.75,3.32,1.06,5.72,3.77,7.72,6.52,1.57,5.14-2.87,9.73-7.76,9.87-.06,8.79-.08,17.59,0,26.38h0v21.68h16.21v-.15c.57,0,1.13.05,1.69.05,4.3.77,7.12,5.61,6,9.86.15,7.33,0,14.66.05,22,19.23.14,38.47-.34,57.7.2a24.64,24.64,0,0,1,6.09,6.09c1.53,4.89-2.84,10.1-7.77,9.73-18.67,0-37.33-.07-56,0-.73,4.1,1.08,9-1.34,12.7A8.53,8.53,0,0,1,398,392c-55.33.11-110.65,0-166,.05q-.12,44.49,0,89a19.76,19.76,0,0,0,5.29,14,18.6,18.6,0,0,1,3.68,3.68A21.77,21.77,0,0,0,252,504q90.92,0,181.83,0c3.07-20.89,4.28-42.08,7.17-62.95a6.52,6.52,0,0,1,6-6c19.07.5,38,2.7,57,5.05.1-75.36,0-150.67.06-226C504.37,206.78,503.34,198.8,498.67,193ZM462,328c-15.35.11-30.69,0-46,.07-5.09.39-9.32-5.07-8-10-.1-15,0-30-.06-45-.43-4.07,3.65-6.44,6.3-8.78,16.88-.45,33.8-.16,50.69-.16,2.9,1.06,4.92,3.87,6.82,6.23.52,16.56.06,33.14.25,49.75C472.43,325.11,467,329.34,462,328ZM416.08,464.34v0c.13,4.08-3.92,8-8.17,7.92H272.24a8.26,8.26,0,0,1-4-1l-.35-.2a8,8,0,0,1-4-6.69v-.21a2,2,0,0,1,0-.25,8.36,8.36,0,0,1,8.35-8.34H407.73a8.35,8.35,0,0,1,8.36,8.34C416.09,464.07,416.09,464.19,416.08,464.34Zm55.64-42.57a8.28,8.28,0,0,1-5.9,2.44h-1.2a5.14,5.14,0,0,1-1.24,0H272.24a8.14,8.14,0,0,1-2.48-.37,8,8,0,0,1-5.83-7.13v0a7.94,7.94,0,0,1,0-.83,8.36,8.36,0,0,1,8.35-8.35H461.93a5.31,5.31,0,0,1,1.38,0h2.51a8.35,8.35,0,0,1,5.9,14.26Z" fill="#e7e7e7"/><path d="M344,264h23.93c.17-13.33.06-26.67,0-40-20.93-.59-42,1.23-62.83-1l-1-.12c-.21,13.69-.16,27.39-.05,41.08H328c0-6.23-.18-12.46.31-18.67,1.57-5.28,8.87-7.27,13-3.58C347.14,247.43,342.59,256.92,344,264Z" fill="#e7e7e7"/><path d="M344,280c-.79,4.26,1.32,9.64-1.79,13.26a8.28,8.28,0,0,1-12,.52c-3.71-3.52-1.52-9.35-2.26-13.78H304q-.15,16,0,32H368c.08-10.67.11-21.34,0-32Z" fill="#e7e7e7"/><path d="M424.05,280c-.15,10.64-.06,21.28,0,31.92,10.63.15,21.28.05,31.92,0,.15-10.64.05-21.28,0-31.92C445.33,279.9,434.68,280,424.05,280Z" fill="#e7e7e7"/><path d="M232,344.06V376q18.62.18,37.23,0l122.9.06V353.53H392c0-3.16,0-6.31-.06-9.46Q312,343.88,232,344.06Z" fill="#e7e7e7"/><path d="M495.79,455.19c-13.2-1.33-40-5.38-40.77-1.2-.57,3-3,26.67-4.08,40,0,1.32-.55,3.38.12,4s2.15-1.1,3-1.92c1.81-1.5,30.53-27.08,31.7-28.21,1.73-1.65,7.83-6.88,9-8C496.11,458.25,499.64,455.91,495.79,455.19Z" fill="#e7e7e7"/><path d="M308.7,208.36H427.93a5.07,5.07,0,0,0,5.07-5.07V165.07a5.07,5.07,0,0,0-5.07-5.07h-3.54a11.53,11.53,0,0,0-4.38,0c-10.13,0-20.26,0-30.39,0h-66c-3.84-.31-7.7-.67-11.29,0H308.7a5.07,5.07,0,0,0-5.07,5.07v38.22A5.07,5.07,0,0,0,308.7,208.36Z" fill="#e7e7e7"/><path d="M400,144.05V144h0v-.07a36.23,36.23,0,0,0-1.19-7.93c-5.11-22.5-34.81-20-34.81-20-9.57,0-23,7.24-26.24,18.1a36.7,36.7,0,0,0-1.71,7.59c0,.15,0,.3,0,.45,0,.55-.06,1.1-.06,1.65,0,.05,0,.11,0,.16h0v.11Z" fill="#e7e7e7"/><path d="M408,360c-.06-7.34.1-14.68-.05-22,1.08-4.25-1.74-9.09-6-9.85q-7.5-.25-15-.58c-1,.13-1.93.24-2.89.33q-.17-8.07,0-16.13c-.14-10.53-.11-21.06,0-31.58-.09-5.47,0-10.95,0-16.41-.2-13.25-.05-26.5-.08-39.75,0-5.35,0-10.71,0-16.06q0-24,0-47.94c0-5.35,0-10.7,0-16-.28-9.32.74-18.76-.95-28-1-2.61-5-3.85-9.05-4-23.31-.12-46.63.06-69.93-.06-.88-4.44,1.45-10.25-2.31-13.74-3.5-3.82-9.25-1.64-13.7-2.29-.29-6.21.21-12.44-.35-18.65-1.6-4.12-6-6.08-8.95-9.06-22.46-19.87-44.71-40-67.43-59.59-6.84-3.59-10.71,4.27-15.41,7.29C175,34.7,153.88,53.23,133,72c-8.82,4.78-3.58,16.25-5,23.94-4.44.86-10.25-1.45-13.74,2.31-3.82,3.51-1.63,9.25-2.3,13.73-23.32.14-46.63-.06-69.94.07A8.33,8.33,0,0,0,32,118c-.15,70,0,139.93-.08,209.9-6.22.27-12.46-.24-18.67.35A7.85,7.85,0,0,0,8,336c.07,15.34,0,30.68.06,46-1.23,4.57,2.27,9.74,7,10Q123.5,392,232,392c55.32-.06,110.64.06,166-.05a8.51,8.51,0,0,0,8.69-3.25c2.42-3.73.61-8.6,1.34-12.71C407.94,370.67,408,365.32,408,360ZM304,280c-.07-5.34-.18-10.67,0-16-.11-13.69-.1-124.28,0-136,12-.06,24.08-.14,36.12.06,9.26-.19,18.54-.18,27.81,0q.15,8,0,15.95c.05,5.32.18,10.67,0,16q.15,24,0,48c.06,5.32.19,10.67,0,16,.06,13.33.17,26.67,0,40,.07,5.32.2,10.67,0,16,.13,10.66.1,21.33,0,32q.17,8,0,16c-21.31,0-42.62.14-63.93,0q-.17-8,0-15.93Q303.89,296,304,280ZM144.11,83.15c21.4-18.19,42-37.34,63.17-55.86l.66-.35c21.55,18.47,42.35,37.84,63.87,56.3.16,4.24.35,8.49.12,12.73-42.64,0-85.29.1-127.92,0C144,91.68,143.68,87.4,144.11,83.15ZM128,112Q208,112,287.94,112q.09,36,0,72c.06,26.66.12,53.33,0,80,.08,5.32.2,10.67,0,16,.13,10.66.1,21.33,0,32q.17,8,0,16c-6.38-.4-13,1.11-19.27-.64l.54.6c-7.07.13-14.14.16-21.2,0-.12-23.32.06-46.65-.06-70,.16-4.8-.52-8.88-5.27-9.69l-10.7-.36c-19,.19-38,0-57,.06-4.43.21-7.11,5.11-7,10-.13,23.32.07,46.65-.07,70q-20,.12-39.92,0Q127.92,220,128,112ZM231.91,328c-16,0-31.94.13-47.9,0,0-21.3-.14-42.61,0-63.91,16,0,31.93-.13,47.9,0C232,285.36,232.08,306.67,231.91,328ZM48,128c21.31,0,42.62-.14,63.93,0Q112,228,111.94,328c-21.31,0-42.62.14-63.93,0Q47.94,228,48,128ZM391.94,376c-36.65.11-73.31,0-110,.06-4.41-.38-9,.79-13.31-.71l.54.61q-18.61.18-37.23,0-104,.12-208,0c0-10.64-.13-21.28,0-31.92q104-.06,208,0,80-.13,160,0,.15,7.95,0,15.93Q392.11,368,391.94,376Z" fill="#4380b4"/><path d="M152.06,185.93a8.25,8.25,0,0,0,9.91,6c25.06.46,50.16-.71,75.19.59,7.13-.86,14.34-.3,21.49-.85,3.34-1,5.31-4.31,5.47-7.67-.32-13.68,0-27.37-.15-41.05-.21-4.7-5.43-8.16-10-6.94-31.68-.09-63.35,0-95,0-4.7.21-8.16,5.42-6.94,10C152,159.3,151.85,172.62,152.06,185.93Zm64-33.9c10.63,0,21.26-.13,31.9,0,0,8,.22,15.95,0,23.92-10.63,0-21.27.13-31.9,0C216,168,215.79,160,216.05,152Zm-48,0c10.63,0,21.26-.13,31.9,0,0,8,.22,15.95,0,23.92-10.63,0-21.27.13-31.9,0C168,168,167.79,160,168.05,152Z" fill="#4380b4"/><path d="M72,206a8.35,8.35,0,0,0,5.23,9.71c4.47,1.75,9.62-1.29,10.69-5.76.12-13.32.07-26.65,0-40,1.68-6-4.77-12.07-10.67-9.72-4.22,1.45-6.53,6.4-5.32,10.72C72,182.66,71.9,194.33,72,206Z" fill="#4380b4"/><path d="M333.26,215.73c5.26,2.06,10.9-2.35,10.83-7.7-.43-14.23.35-28.48-.4-42.7-.73-2.43-2.89-3.89-4.84-5.29-1.92,0-3.83,0-5.74,0-2,1.39-4.11,2.85-4.84,5.28-.75,14.22,0,28.47-.4,42.71A8.26,8.26,0,0,0,333.26,215.73Z" fill="#4380b4"/><path d="M72,286a8.35,8.35,0,0,0,5.23,9.71c4.47,1.75,9.62-1.29,10.69-5.76.12-13.32.07-26.65,0-40,1.68-6-4.77-12.07-10.67-9.72-4.22,1.45-6.53,6.4-5.32,10.72C72,262.66,71.9,274.33,72,286Z" fill="#4380b4"/><path d="M341.24,241.75c-4.1-3.69-11.4-1.7-13,3.58-.49,6.21-.26,12.44-.31,18.67.06,5.34,0,10.66,0,16,.74,4.43-1.45,10.26,2.26,13.78a8.28,8.28,0,0,0,12-.52c3.11-3.62,1-9,1.79-13.26-.08-5.33-.07-10.68,0-16C342.57,256.92,347.12,247.43,341.24,241.75Z" fill="#4380b4"/></svg>