<svg id="illustration" xmlns="http://www.w3.org/2000/svg" viewBox="0 0 512 512"><title>artwork</title><path d="M499.58,256.84l-192-96a8,8,0,0,0-7.15,0l-192,96a8,8,0,0,0,0,14.32l192,96a8,8,0,0,0,7.15,0l82.14-41.07-89-55a8,8,0,1,1,8.42-13.61l97.36,60.23,93-46.52a8,8,0,0,0,0-14.32Z" fill="#e7e7e7"/><path d="M416,387.46a8,8,0,1,1-16,0V338.84l-85.27,42.63a24.06,24.06,0,0,1-21.47,0L160,314.84V416a8,8,0,0,0,4.25,7.07l136,72a8,8,0,0,0,7.49,0l136-72A8,8,0,0,0,448,416V314.84l-32,16Z" fill="#e7e7e7"/><path d="M320,16H32A24,24,0,0,0,8,40V256a24,24,0,0,0,24,24h93.75l-12,48H80a8,8,0,0,0,0,16H272a8,8,0,0,0,0-16H238.25l-12-48H320a24,24,0,0,0,24-24V40A24,24,0,0,0,320,16ZM32,32H320a8,8,0,0,1,8,8V216H24V40A8,8,0,0,1,32,32ZM221.75,328h-91.5l12-48h67.5ZM320,264H32a8,8,0,0,1-8-8V232H328v24A8,8,0,0,1,320,264Z" fill="#4380b4"/><path d="M82.53,195.48a144.74,144.74,0,0,1,90.94,0,8.59,8.59,0,0,0,5,0h0a144.74,144.74,0,0,1,90.94,0,8,8,0,0,0,10.12-5,8.14,8.14,0,0,0,.41-2.54v-120a8,8,0,0,0-5.47-7.59A160.81,160.81,0,0,0,176,59.58a160.81,160.81,0,0,0-98.53.72A8,8,0,0,0,72,67.89v120a8,8,0,0,0,10.53,7.59ZM264,73.78V177.2a161.25,161.25,0,0,0-80,0V73.78A145,145,0,0,1,264,73.78Zm-176,0a145,145,0,0,1,80,0V177.2a161.25,161.25,0,0,0-80,0Z" fill="#4380b4"/></svg>