<svg id="illustration" xmlns="http://www.w3.org/2000/svg" viewBox="0 0 512 512"><title>artwork</title><path d="M496,314.67V368a21.39,21.39,0,0,1-21.33,21.33H37.33A21.39,21.39,0,0,1,16,368V314.67Z" fill="#83b450"/><path d="M496,80V314.67H16V80A21.39,21.39,0,0,1,37.33,58.67H474.67A21.39,21.39,0,0,1,496,80Z" fill="#eee"/><path d="M324.91,453.33H186.67c26.66-26.66,31.57-64,31.57-64h75.09S298.45,426.88,324.91,453.33Z" fill="#eee"/><path d="M64,368V314.67H16V368a21.39,21.39,0,0,0,21.33,21.33h48A21.39,21.39,0,0,1,64,368Z" fill="#78a444"/><path d="M85.33,58.67h-48A21.39,21.39,0,0,0,16,80V314.67H64V80A21.39,21.39,0,0,1,85.33,58.67Z" fill="#d4dae0"/><path d="M218.24,389.33s-4.91,37.34-31.57,64h48c26.66-26.66,31.57-64,31.57-64Z" fill="#d4dae0"/><path d="M474.67,405.33H37.33A37.37,37.37,0,0,1,0,368V80A37.37,37.37,0,0,1,37.33,42.67H474.67A37.37,37.37,0,0,1,512,80V368A37.37,37.37,0,0,1,474.67,405.33ZM37.33,74.67A5.33,5.33,0,0,0,32,80V368a5.33,5.33,0,0,0,5.33,5.33H474.67A5.33,5.33,0,0,0,480,368V80a5.33,5.33,0,0,0-5.33-5.33Z"/><path d="M496,330.67H16a16,16,0,0,1,0-32H496a16,16,0,0,1,0,32Z"/><path d="M325.33,469.33H186.67A16,16,0,0,1,175.36,442c22.21-22.21,27-54.45,27-54.77a16,16,0,1,1,31.72,4.16,143.22,143.22,0,0,1-15.87,45.91H293.4a146.93,146.93,0,0,1-15.92-45.8,16,16,0,0,1,31.7-4.44c.15,1,4.95,31.34,25.26,53.08a16,16,0,0,1-9.11,29.16Z"/></svg>