<svg id="illustration" xmlns="http://www.w3.org/2000/svg" viewBox="0 0 512 512"><title>artwork</title><path d="M421.33,16v85.33H90.67a42.67,42.67,0,1,1,0-85.33Z" fill="#83b450"/><path d="M90.67,101.33A43,43,0,0,1,48,58.67V453.33A42.79,42.79,0,0,0,90.67,496H464V101.33Z" fill="#eee"/><path d="M96,58.67A42.79,42.79,0,0,1,138.67,16h-48a42.67,42.67,0,0,0,0,85.33h48A43,43,0,0,1,96,58.67Z" fill="#78a444"/><path d="M96,453.33v-352H90.67A43,43,0,0,1,48,58.67V453.33A42.79,42.79,0,0,0,90.67,496h48A42.79,42.79,0,0,1,96,453.33Z" fill="#d4dae0"/><path d="M464,512H90.67A58.71,58.71,0,0,1,32,453.33V58.67A58.71,58.71,0,0,1,90.67,0H421.33a16,16,0,0,1,16,16V85.33H464a16,16,0,0,1,16,16V496A16,16,0,0,1,464,512ZM64,110.91V453.33A26.71,26.71,0,0,0,90.67,480H448V117.33H90.67A58.07,58.07,0,0,1,64,110.91ZM90.67,32a26.67,26.67,0,1,0,0,53.33H405.33V32Z"/><path d="M490.89,191.45l-30.6-30.6a21.61,21.61,0,0,0-30.59,0L223.15,367.4l-23,84.14,84.14-23L490.89,222a21.61,21.61,0,0,0,0-30.59Z" fill="#83b450"/><path d="M271.84,367.4l197.5-197.5-9-9.05a21.61,21.61,0,0,0-30.59,0L223.15,367.4l-23,84.14,52.6-14.34Z" fill="#78a444"/><path d="M200.2,467.77a16.24,16.24,0,0,1-15.65-20.51l23-84.15,31.31,8.55-15.47,56.73,56.75-15.47,8.55,31.31-84.15,23a16.48,16.48,0,0,1-4.3.58Z"/><path d="M284.34,444.82a16.12,16.12,0,0,1-11.47-4.76l-61.21-61.19a16.2,16.2,0,0,1,0-22.94L418.21,149.39c14.3-14.26,39.25-14.33,53.55,0L502.36,180a37.93,37.93,0,0,1,0,53.55L295.81,440.08a16.16,16.16,0,0,1-11.47,4.74ZM246.09,367.4l38.25,38.25L479.42,210.57a5.44,5.44,0,0,0,0-7.66l-30.59-30.59c-2.77-2.75-4.89-2.75-7.64,0Z"/></svg>