<svg id="illustration" xmlns="http://www.w3.org/2000/svg" xmlns:xlink="http://www.w3.org/1999/xlink" viewBox="0 0 885.09 800"><defs><linearGradient id="linear-gradient" x1="434.56" y1="119.5" x2="434.56" y2="780.06" gradientUnits="userSpaceOnUse"><stop offset="0" stop-color="#4380b4"/><stop offset="1" stop-color="#fff"/></linearGradient><linearGradient id="linear-gradient-2" x1="156.07" y1="137.52" x2="156.07" y2="300.73" xlink:href="#linear-gradient"/></defs><title>artwork</title><g opacity="0.09"><path d="M487.84,119.5H501c4.28.67,8.55,1.88,12.84,1.92a429,429,0,0,1,86.94,10.3c41.22,9,80.66,22.69,115.49,47.1,48.42,33.94,82.21,79.84,105.72,133.55,28.83,65.87,38.4,134.79,29.94,206-5.31,44.83-20.54,86.51-42.54,125.87C779,698.66,738.25,741.2,677.58,761.45c-32.93,11-66.88,15.2-101.43,17.32-45.55,2.78-90.84,1.22-135.76-6a891.33,891.33,0,0,1-237.47-73.23C149.11,674.21,98.27,644.2,57.38,600c-19.38-21-34.78-44.35-40-73.18q-1.59-8.76-3.14-17.55v-14.8c.73-2.29,2-4.55,2.13-6.89a181.1,181.1,0,0,1,16.3-64c18.56-39.7,48.41-67.16,89.84-81.61,13.91-4.85,28.56-7.75,42.16-13.28,55.07-22.39,97.66-58.43,119.26-115.23,8.74-23,23.44-39.84,43.72-52.56,37.06-23.25,78.52-32.4,121.22-37.37C461.84,122,474.85,120.81,487.84,119.5Z" fill="url(#linear-gradient)"/><path d="M89.94,300.73c-7.39-1-14.66-1-21.32-3-11.85-3.6-15.81-13.38-8.09-22.93,8.84-10.92,19.49-20.56,30.32-29.59,7.05-5.87,15.5-10.4,23.9-14.24,20.6-9.41,35.66-24.57,49.08-42.41a297.94,297.94,0,0,1,34.29-38.35c9.64-9,22.23-14,36.15-12.35,12.77,1.52,20.2,10.11,21.13,23.07,1.52,21.25-6.64,39.87-16.84,57.38-26.05,44.69-65.94,69.55-116.38,78.22C111.45,298.36,100.57,299.36,89.94,300.73Z" fill="url(#linear-gradient-2)"/></g><path d="M121.47,598.09c9.52-4.91,20.73-5.55,31.29-3.8,5.68.94,11.6,2.63,15.47,6.9s4.59,11.77.15,15.43c-2.64,2.19-6.32,2.52-9.74,2.48-8.28-.1-17.46-1.56-24.07,3.42-3.77,2.84-6.28,7.56-10.79,9s-9.39-1.24-11.72-5.22-2.42-9-1.33-13.44A20.54,20.54,0,0,1,121.47,598.09Z" fill="#83b450"/><path d="M99.66,556c5.82,8.31,17.13,5.56,22.38.48S129.5,544,131.52,537c4.61-16,9.26-32.84,5.83-49.16-1-4.87-2.85-9.74-6.28-13.36s-8.7-5.77-13.52-4.5c-5.7,1.51-9.25,7.1-11.81,12.41a117.21,117.21,0,0,0-11.58,50.29c0,8.1.93,16.59,5.5,23.28" fill="#83b450"/><path d="M83.67,567.92c6.32-7.5,7.52-18.45,4.71-27.84s-9.17-17.39-16.49-23.92a88.77,88.77,0,0,0-29.53-17.42c-4.27-1.5-8.77-2.69-13.27-2.26s-9,2.74-11.15,6.75c-3.11,5.92-.13,13.11,3.1,19a223.65,223.65,0,0,0,19.39,29.54c5.81,7.49,12.47,14.88,21.33,18.27s18.06,3,22.76-3.16" fill="#83b450"/><path d="M99.26,681.4a17.73,17.73,0,0,0,.53-3.78c.27-2.75.6-6.2,1-10.31a150.55,150.55,0,0,1,2.32-15.12,116.21,116.21,0,0,1,5.5-17.85,66.14,66.14,0,0,1,9.11-16.15,34.13,34.13,0,0,1,11.53-9.58,32.48,32.48,0,0,1,9.7-3,19.24,19.24,0,0,0,3.76-.54,17.16,17.16,0,0,0-3.83-.06,29.31,29.31,0,0,0-10.12,2.63,34.08,34.08,0,0,0-12.15,9.66,64.5,64.5,0,0,0-9.45,16.48,108.94,108.94,0,0,0-5.46,18.14,130.29,130.29,0,0,0-2,15.31c-.32,4.38-.45,7.93-.51,10.38A18.53,18.53,0,0,0,99.26,681.4Z" fill="#263238"/><path d="M100,673.47a6.89,6.89,0,0,0,.1-1.76c0-1.31,0-3,0-5,0-4.35,0-10.64.22-18.42.39-15.54,1.73-32.28,4.31-55.87,2.45-22.18,5.74-48,9.21-64.78.74-3.82,1.49-7.26,2.19-10.26s1.25-5.62,1.81-7.72.86-3.59,1.17-4.87a7.41,7.41,0,0,0,.3-1.73,7.36,7.36,0,0,0-.61,1.64l-1.45,4.8c-.65,2.09-1.31,4.67-2.06,7.67s-1.62,6.43-2.43,10.24A568.88,568.88,0,0,0,103,587.51c-2.59,23.64-3.75,45.17-3.86,60.75-.09,7.8.08,14.1.27,18.46.13,2,.23,3.69.31,5A8.1,8.1,0,0,0,100,673.47Z" fill="#263238"/><path d="M100.08,632a32.68,32.68,0,0,0,0-5.23c-.19-3.37-.65-8.23-1.6-14.19a187.64,187.64,0,0,0-4.62-20.67,168.33,168.33,0,0,0-8.64-24.46c-7.17-17-16.91-30.91-25.38-39.52a63.48,63.48,0,0,0-6-5.55c-.91-.78-1.72-1.55-2.55-2.16L49,518.57a32.71,32.71,0,0,0-4.41-2.82c-.25.34,6.24,4.16,14.45,12.89S76.64,551.16,83.75,568a194.44,194.44,0,0,1,8.69,24.23,210.16,210.16,0,0,1,4.91,20.47c1.08,5.9,1.71,10.71,2.09,14A32.93,32.93,0,0,0,100.08,632Z" fill="#263238"/><polygon points="59.95 705.19 64.11 762.18 137.33 762.18 141.49 705.19 59.95 705.19" fill="#263238"/><rect x="52.88" y="682.72" width="97.34" height="22.46" fill="#263238"/><polygon points="52.88 760 52.88 766.23 57.45 766.23 148.61 766.23 148.61 760 52.88 760" fill="#455a64"/><polygon points="61.94 777.18 57.45 766.23 145.13 766.23 139.9 777.18 61.94 777.18" fill="#455a64"/><path d="M140.13,723.81a2.71,2.71,0,0,1-.34.53c-.3.38-.66.86-1.1,1.45l-4.26,5.46-.19.24-.19-.26-10.48-14.49h.61l-10.32,14.61-.32.46-.36-.43-12.24-14.56h.71l-.68.85C97.18,722.41,93.51,727,90,731.37l-.36.46-.34-.48L79,716.75l.6,0L66.9,731.26l-.23.26-.17-.29-4-6.69c-.42-.72-.75-1.31-1-1.78a2.59,2.59,0,0,1-.31-.63s.16.18.42.56l1.13,1.71L66.92,731l-.4,0L79,716.28l.32-.37.28.4c3.17,4.41,6.67,9.3,10.42,14.53h-.7c3.46-4.37,7.12-9,10.91-13.74l.67-.85.35-.43.36.42,12.2,14.59-.69,0c3.77-5.25,7.28-10.15,10.42-14.54l.31-.42.3.42c4.12,5.9,7.63,10.9,10.25,14.65h-.37l4.44-5.32,1.19-1.37A2.27,2.27,0,0,1,140.13,723.81Z" fill="#e1e1e1"/><path d="M142.51,704.81c0,.25-18.35.46-41,.46s-41-.21-41-.46,18.34-.46,41-.46S142.51,704.56,142.51,704.81Z" fill="#455a64"/><path d="M146.2,766.84c0,.25-19.93.45-44.52.45s-44.54-.2-44.54-.45,19.94-.46,44.54-.46S146.2,766.59,146.2,766.84Z" fill="#263238"/><path d="M646.88,536.75H817a27.51,27.51,0,0,1,27.51,27.51v214a0,0,0,0,1,0,0H619.36a0,0,0,0,1,0,0v-214A27.51,27.51,0,0,1,646.88,536.75Z" fill="#455a64"/><path d="M825.59,538c.26,0,.47,53.76.47,120s-.21,120.07-.47,120.07-.47-53.75-.47-120.07S825.33,538,825.59,538Z" fill="#263238"/><path d="M714.67,274.6a191.06,191.06,0,0,1,34.22,100.67c1.06,24.19-2.2,50,9.28,71.29,16.47,30.59,52.12,29.56,63,62.54,4.75,14.34-4,45.92-6.36,60.84-2.68,17,7.69,31.21,5,48.17-2.46,15.55-14.09,26.65-28.07,33.89-12.44,6.45-23.93,6.62-36.87,1.26-24.66-10.21-45.18-21-62.74-41.06C667.51,584,660.06,545,655.84,507.73a916.73,916.73,0,0,1,5.59-246.94" fill="#263238"/><path d="M767.39,656.73a8,8,0,0,1,.79-.2c.53-.13,1.32-.25,2.33-.55a38.6,38.6,0,0,0,8.52-3.41,37.78,37.78,0,0,0,11.25-9,23.71,23.71,0,0,0,4.4-7.8,42.38,42.38,0,0,0,1.54-10c.35-7.13-.74-14.93-2.36-23.18s-3.74-17.06-4.25-26.6a54.73,54.73,0,0,1,1-14.58,94.73,94.73,0,0,1,4.62-14.52c1.85-4.81,3.8-9.68,5.21-14.78s2.16-10.48,1.26-15.82a35.6,35.6,0,0,0-5.9-14.7,68.35,68.35,0,0,0-10.32-11.69c-7.51-7-15.65-12.81-22.59-19.31a127.86,127.86,0,0,1-29.43-40.63,124.44,124.44,0,0,1-6.78-18.15c-.87-2.71-1.37-5.33-2-7.69-.46-2.39-.89-4.58-1.28-6.55-.58-4-1-7.06-1.11-9.17-.08-1-.14-1.82-.19-2.4s0-.82,0-.82.06.28.13.81.16,1.37.28,2.39c.17,2.1.65,5.17,1.29,9.12q.62,3,1.35,6.52c.65,2.35,1.17,4.95,2.07,7.64a126.66,126.66,0,0,0,6.87,18,128.33,128.33,0,0,0,29.42,40.28c6.91,6.44,15,12.21,22.64,19.27A68.78,68.78,0,0,1,796.61,501a36.69,36.69,0,0,1,6.06,15.09c.92,5.5.07,11-1.29,16.21s-3.4,10.06-5.25,14.87a94.58,94.58,0,0,0-4.61,14.36,54.27,54.27,0,0,0-1,14.36c.48,9.42,2.6,18.21,4.15,26.49s2.66,16.15,2.26,23.37a43.35,43.35,0,0,1-1.63,10.14,24.29,24.29,0,0,1-4.57,8,37.87,37.87,0,0,1-11.49,9,36.91,36.91,0,0,1-8.64,3.26A22.29,22.29,0,0,1,767.39,656.73Z" fill="#455a64"/><path d="M428.71,721.73,516,680.27S550,515.2,556.43,502.8s33.3-23.11,33.3-23.11l-4.51,223.53-8,51.56L454.14,766.44Z" fill="#83b450"/><path d="M354.2,760.83c-.48,0-2.91,1.5-.87,5.34s16.81,16.5,21.16,12.09-2.29-9.8-2.29-9.8Z" fill="#ffbe9d"/><path d="M372.83,768.63s17.84,2.25,24.72,4.86c7.46,2.84,16.55.91,22.67-3.24a65,65,0,0,0,9.69-7.89l22.77-.36s10.93-11.33,4.44-28.22a30.51,30.51,0,0,0-5.22-8.89c-2.7-2.92-7-5.29-14.35-6.57l-27.06,5.85s-41.92-3-49.36.52c0,0-9.37,5.56-12.27,7.89-1.09.87-4.41,11.54,2.41,17.08,0,0-5.94,4.73-2.72,9l1.54,1.88s-4,5.16-1.95,7.41,20,12.76,26.4,10.26,1.11-8.45-1.71-9.54" fill="#ffbe9d"/><path d="M355.75,740.45a15.37,15.37,0,0,1,2.22.79c1.42.54,3.47,1.3,6,2.12,1.29.41,2.71.83,4.24,1.23s3.2.75,4.93,1.31a10.63,10.63,0,0,1,4.92,3,6.08,6.08,0,0,1,1.31,6,4.67,4.67,0,0,1-2.21,2.38,8.18,8.18,0,0,1-3,.83,24.58,24.58,0,0,1-5.69-.3,49.38,49.38,0,0,1-9.25-2.41c-2.57-.9-4.59-1.76-6-2.36a15.36,15.36,0,0,1-2.13-1,14.89,14.89,0,0,1,2.24.73c1.42.52,3.47,1.3,6,2.13a53.27,53.27,0,0,0,9.18,2.23,24.47,24.47,0,0,0,5.51.26,7.78,7.78,0,0,0,2.71-.76,4,4,0,0,0,1.87-2,5.37,5.37,0,0,0-1.18-5.23,10,10,0,0,0-4.57-2.79c-1.67-.56-3.35-.91-4.88-1.36s-3-.88-4.24-1.33c-2.57-.89-4.6-1.73-6-2.35A13,13,0,0,1,355.75,740.45Z" fill="#eb996e"/><path d="M357.36,727.54a17,17,0,0,1,2.2.8c1.41.55,3.45,1.33,6,2.18s5.62,1.77,9.08,2.6c1.7.44,3.67.79,5.29,2.14a4.56,4.56,0,0,1,1.56,2.74,5.75,5.75,0,0,1-.47,3.19,7.62,7.62,0,0,1-4.67,4,12.25,12.25,0,0,1-5.69.45,54,54,0,0,1-9.15-2.65l-6-2.11a13.27,13.27,0,0,1-2.18-.87,14.35,14.35,0,0,1,2.27.6l6.11,1.88a59.44,59.44,0,0,0,9.07,2.47,11.78,11.78,0,0,0,5.37-.46,7,7,0,0,0,4.22-3.59,4.21,4.21,0,0,0-.89-5.07c-1.39-1.19-3.27-1.58-5-2a93.13,93.13,0,0,1-9.09-2.77c-2.55-.92-4.56-1.78-5.94-2.41A12.11,12.11,0,0,1,357.36,727.54Z" fill="#eb996e"/><path d="M366,731.23c-.21,0-.33-1.64-.81-3.59s-1.1-3.46-.91-3.56,1.15,1.33,1.64,3.39S366.16,731.24,366,731.23Z" fill="#eb996e"/><path d="M429,731.77,413,725.63s-44.19-20.62-44.93-19.5-3.15,1-2.62,6.38,26.27,16.25,27.09,18.12-.55,11.3,9,18.06,16.38,6.9,16.38,6.9" fill="#ffbe9d"/><path d="M417.92,755.59s-.13,0-.38,0-.62,0-1.1-.11a25.2,25.2,0,0,1-4.14-1,37.53,37.53,0,0,1-6.16-2.69,36.29,36.29,0,0,1-7.33-5.08,19.11,19.11,0,0,1-5.42-9.3,41.09,41.09,0,0,1-.94-5.94,4.13,4.13,0,0,0-.16-.69c-.05-.14-.22-.26-.42-.42a13.65,13.65,0,0,0-1.29-.84c-.9-.53-1.85-1-2.8-1.55-3.83-2-7.91-4.11-12-6.47-2.05-1.19-4.12-2.44-6.13-3.87a22.57,22.57,0,0,1-2.88-2.41,7.4,7.4,0,0,1-1.22-1.53,3.25,3.25,0,0,1-.36-1,8.8,8.8,0,0,1-.1-1,7,7,0,0,1,.68-3.85,4.59,4.59,0,0,1,1.41-1.4,3,3,0,0,0,.61-.53c.05-.05,0,0,.15-.15a.44.44,0,0,1,.31-.1,1.33,1.33,0,0,1,.31,0c.17,0,.33.07.49.12,2.39.73,4.58,1.7,6.78,2.6,4.37,1.84,8.54,3.7,12.51,5.48,7.93,3.58,15,6.88,21,9.67,1.5.68,2.91,1.4,4.25,2l3.9,1.53,6.23,2.47,3.92,1.59,1,.43c.22.1.34.15.33.17l-.36-.1-1-.37-4-1.45-6.28-2.36L413.37,726c-1.39-.56-2.78-1.25-4.29-1.92L388,714.57c-4-1.76-8.15-3.61-12.51-5.44-2.18-.89-4.42-1.86-6.7-2.56l-.41-.1h-.14s0,0,0-.06,0-.12,0-.18a.08.08,0,0,0,0-.05c.5.33.13.11.24.19l0,0a3,3,0,0,1-.77.69,3.79,3.79,0,0,0-1.2,1.19,6.26,6.26,0,0,0-.57,3.42,3.24,3.24,0,0,0,.36,1.65,7.43,7.43,0,0,0,1.1,1.37,23,23,0,0,0,2.78,2.33c2,1.4,4,2.65,6.07,3.83,4.08,2.36,8.15,4.44,12,6.5,1,.52,1.91,1,2.82,1.59a14.29,14.29,0,0,1,1.36.88,1.76,1.76,0,0,1,.62.71,3.85,3.85,0,0,1,.19.82,45.36,45.36,0,0,0,.89,5.9,18.69,18.69,0,0,0,5.2,9.07,36.73,36.73,0,0,0,7.16,5.1,38.24,38.24,0,0,0,6.06,2.77,27.91,27.91,0,0,0,4.06,1.12c.47.09.84.14,1.08.18Z" fill="#eb996e"/><path d="M369.18,757.67a5.62,5.62,0,0,1,1.69.49,16.86,16.86,0,0,1,4.17,2.41,15,15,0,0,1,2.41,2.34,5,5,0,0,1,1.28,3.72,4.12,4.12,0,0,1-2.94,3.18,7.86,7.86,0,0,1-4.63-.15,84.29,84.29,0,0,1-14.65-5.88,46.37,46.37,0,0,1-4.12-2.43,7.64,7.64,0,0,1-1.41-1.06,8.07,8.07,0,0,1,1.56.81c1,.55,2.4,1.33,4.21,2.21a101,101,0,0,0,14.6,5.64,7.42,7.42,0,0,0,4.21.17,3.44,3.44,0,0,0,2.49-2.59,4.49,4.49,0,0,0-1.09-3.25,14.92,14.92,0,0,0-2.25-2.3A24.91,24.91,0,0,0,369.18,757.67Z" fill="#eb996e"/><g opacity="0.3"><path d="M576.62,754.83c-14.29-48.22-26.9-110.33-41.2-158.55-5.23,44.52,1.31,103.29,9.51,147.36,1,5.17,1.4,10.23,5.41,13.63l26.28-2.44"/></g><path d="M553.21,721.73c-.19,0-.8-3.15-2.74-8a54.29,54.29,0,0,0-4.1-8.12,56.31,56.31,0,0,0-15-16.21,55,55,0,0,0-7.79-4.69c-4.66-2.29-7.79-3.13-7.74-3.32A10.77,10.77,0,0,1,518,682a19.89,19.89,0,0,1,2.54.83,35.33,35.33,0,0,1,3.27,1.35,51.26,51.26,0,0,1,8,4.59,58.22,58.22,0,0,1,8.53,7.42,59.14,59.14,0,0,1,6.77,9.05,51.24,51.24,0,0,1,4,8.32c.5,1.22.79,2.37,1.1,3.37a19.92,19.92,0,0,1,.65,2.59A11.12,11.12,0,0,1,553.21,721.73Z" fill="#263238"/><path d="M580.47,477.44s-45.72,102.14-45.72,120.9,34.26,149,34.26,149c-.33,5.17-1.66,31.14-1.66,31.14l192.07.66h0l2.93-41.29-15-39.34,15-111.23s10.09-64.58,11-82.64c1.12-22.6-75.43-48.79-73.34-51.92l-13.22-17.69L611,496.56l-15-43.22-17.93,17Z" fill="#83b450"/><path d="M706.25,504.61c-20.78,35.18-58.83,99.28-58.83,99.28l-68.18,77.74s-4.46,39.5,4.46,51.61,24.21,20.39,24.21,20.39,18,0,40.86-19.12,85.94-98.12,85.94-98.12l21.67-26.13s25.82-63.45,21-95.75c-1.86-12.45-7.16-17.63-14.24-23.34C745.37,476.83,717.87,485,706.25,504.61Z" fill="#83b450"/><path d="M764.38,588.21a4,4,0,0,1-.31.72l-1,2.07c-.91,1.81-2.29,4.46-4.19,7.81-3.76,6.71-9.61,16.2-17.26,27.63-3.83,5.71-8.11,11.91-12.81,18.5s-10.07,13.37-14.47,21.3-8.4,16.59-13.23,25.26a158.35,158.35,0,0,1-17.33,25.3,101.42,101.42,0,0,1-23,20.3,72.51,72.51,0,0,1-26.59,10.3,59.84,59.84,0,0,1-25.77-1.09,54,54,0,0,1-19.87-10.5,40.85,40.85,0,0,1-6.77-7.16,40.19,40.19,0,0,1-4.48-7.56,47.31,47.31,0,0,1-3.66-13.54,60.09,60.09,0,0,1-.31-8.86c0-1,.1-1.74.13-2.3a4.67,4.67,0,0,1,.08-.78,6.54,6.54,0,0,1,0,.78c0,.57,0,1.33,0,2.3a66.54,66.54,0,0,0,.48,8.82,48,48,0,0,0,3.79,13.36,39.43,39.43,0,0,0,4.47,7.42,40.51,40.51,0,0,0,6.72,7,53.86,53.86,0,0,0,19.65,10.25,59.17,59.17,0,0,0,25.41,1,71.63,71.63,0,0,0,26.24-10.22,101.16,101.16,0,0,0,22.74-20.13,158.46,158.46,0,0,0,17.24-25.14c4.81-8.62,8.71-17.35,13.28-25.25s9.93-14.74,14.59-21.32,9-12.73,12.9-18.41c7.71-11.38,13.64-20.8,17.49-27.44,1.94-3.32,3.38-5.94,4.34-7.72l1.09-2A5,5,0,0,1,764.38,588.21Z" fill="#263238"/><path d="M575.83,678.12c.08.13-1,.73-2.22,2.12a11,11,0,0,0-1.24,13.4c1,1.6,1.9,2.38,1.79,2.5s-1.16-.52-2.35-2.12a10.77,10.77,0,0,1,1.32-14.25C574.59,678.42,575.79,678,575.83,678.12Z" fill="#263238"/><path d="M588.37,698.76a4,4,0,0,1,1.06.24c.35.09.77.23,1.27.35l1.77.32a25.22,25.22,0,0,0,11.24-1,41.66,41.66,0,0,0,14.48-8.51c4.78-4.22,9.07-9.86,13.56-15.75s9-11.46,14-15.62c2.47-2.08,4.9-3.92,6.92-5.89a19.62,19.62,0,0,0,4.55-6.27c1.71-4.48.56-8.69-1.05-10.74a8.35,8.35,0,0,0-3.28-2.45,4.12,4.12,0,0,1,1,.3,7.08,7.08,0,0,1,2.52,1.92c1.78,2.09,3.1,6.44,1.39,11.21a19.9,19.9,0,0,1-4.63,6.58c-2,2.05-4.47,3.93-6.9,6-4.88,4.13-9.32,9.63-13.8,15.53s-8.83,11.55-13.74,15.83a41.39,41.39,0,0,1-14.85,8.49,24.61,24.61,0,0,1-11.5.77l-1.78-.42c-.5-.14-.92-.32-1.25-.44A4.57,4.57,0,0,1,588.37,698.76Z" fill="#263238"/><path d="M715.5,493.81a6.11,6.11,0,0,1-.76,1.1l-2.33,3c-2.07,2.59-4.93,6.44-8.41,11.24a370.36,370.36,0,0,0-24.26,39.42c-8.57,15.94-15.68,30.73-21.11,41.28-2.7,5.29-4.92,9.55-6.52,12.46l-1.85,3.34a7.79,7.79,0,0,1-.71,1.14,8.14,8.14,0,0,1,.54-1.23c.43-.86,1-2,1.69-3.42,1.53-3.07,3.65-7.34,6.25-12.59,5.28-10.62,12.29-25.46,20.88-41.43a334.54,334.54,0,0,1,24.55-39.36c3.56-4.76,6.5-8.56,8.66-11.08l2.47-2.92A8.64,8.64,0,0,1,715.5,493.81Z" fill="#263238"/><g opacity="0.3"><path d="M573.57,695.61c8.87,4.81,18.6,4.29,28.5,2.35a44.23,44.23,0,0,0,25.46-15.23c-1.72,8.64-5.42,17.09-11.73,23.25s-15.43,9.73-24.1,8.15-17.42-9.74-18.13-18.52"/></g><g opacity="0.3"><path d="M657.43,643.11a39.11,39.11,0,0,1,5.4,29.33c7.52-11.51,9.28-26.07,7.26-39.65s-7.54-26.4-13.69-38.69c0,0-6.78,11.45-6.85,12.72-.32,6.61,2.11,19.06,3.39,25.56a14.23,14.23,0,0,1,4.13,12.84"/></g><g opacity="0.3"><path d="M603.63,743.2c18.07,14.09,44.9,14.75,64.68,3.17,19.05-11.15,30.77-31.22,41.66-50.43,16.85-29.72,37.42-66.48,49.45-98.45,0,0-33.74,46-43.92,65.89a328.11,328.11,0,0,1-23,38.76c-19,28-53.38,44.72-87.11,42.43"/></g><path d="M567.35,778.52a2.06,2.06,0,0,1,0-.57q0-.66,0-1.65c.06-1.55.13-3.66.23-6.31.25-5.53.61-13.29,1-22.62v.13c-3.27-10.92-7.09-24.15-11-38.45-5.24-18.95-9.67-36.2-12.64-48.73-1.49-6.27-2.64-11.36-3.37-14.88-.35-1.7-.62-3.05-.83-4.07a6.87,6.87,0,0,1-.22-1.43,8.62,8.62,0,0,1,.41,1.39l1,4c.89,3.59,2.13,8.63,3.66,14.81,3.14,12.49,7.66,29.69,12.9,48.64,4,14.29,7.72,27.54,10.88,38.47l0,.07v.06c-.57,9.33-1,17.09-1.37,22.62-.19,2.64-.34,4.75-.44,6.29l-.15,1.65A2.11,2.11,0,0,1,567.35,778.52Z" fill="#263238"/><path d="M759.51,490.08c-.06.14-2-.53-5.12-1.31a58.89,58.89,0,0,0-25.16-.76c-3.2.59-5.14,1.16-5.19,1a4.19,4.19,0,0,1,1.31-.58,33.57,33.57,0,0,1,3.74-1.08,49.7,49.7,0,0,1,25.47.76,34.56,34.56,0,0,1,3.67,1.3A4.37,4.37,0,0,1,759.51,490.08Z" fill="#263238"/><path d="M698.67,456.54a5,5,0,0,1-.49.95l-1.55,2.6c-1.36,2.25-3.39,5.48-6,9.43-5.15,7.89-12.51,18.63-21.22,30.07-7,9.22-13.79,17.49-19.35,24l-.39.45-.25-.53c-2.64-5.8-4.83-10.59-6.41-14.07l-1.72-3.91a7.22,7.22,0,0,1-.53-1.41,8,8,0,0,1,.74,1.31c.48,1,1.12,2.25,1.9,3.82l6.71,13.93-.63-.08c5.46-6.55,12.18-14.85,19.18-24.05,8.69-11.42,16.12-22.08,21.41-29.87,2.56-3.83,4.66-7,6.2-9.25l1.7-2.52A4.2,4.2,0,0,1,698.67,456.54Z" fill="#263238"/><path d="M742.88,749.86c-.26,0,.57-9.47,1.86-21.09s2.55-21,2.81-21-.58,9.47-1.87,21.09S743.14,749.89,742.88,749.86Z" fill="#263238"/><path d="M611.22,747.38c.26,0,1.23,7.07,2.17,15.85s1.49,15.92,1.23,15.95-1.23-7.07-2.17-15.85S611,747.41,611.22,747.38Z" fill="#263238"/><path d="M708.38,539.62a2.33,2.33,0,0,0-3.53-1.4l-.12.1a2.21,2.21,0,1,0,3.65,1.3Z" fill="#fff"/><path d="M689.41,493.39a2.32,2.32,0,0,0-3.52-1.4l-.13.1a2.21,2.21,0,1,0,3.65,1.3Z" fill="#fff"/><path d="M645.88,530.61a2.32,2.32,0,0,0-3.52-1.4l-.12.11a2.2,2.2,0,1,0,3.64,1.29Z" fill="#fff"/><path d="M598.83,511.92a2.33,2.33,0,0,0-3.53-1.4l-.12.1a2.21,2.21,0,1,0,3.65,1.3Z" fill="#fff"/><path d="M590.5,493.49a2.32,2.32,0,0,0-3.52-1.4l-.13.1a2.21,2.21,0,1,0,3.65,1.3Z" fill="#fff"/><path d="M594.12,472.2a2.33,2.33,0,0,0-3.53-1.4l-.12.1a2.21,2.21,0,1,0,3.65,1.3Z" fill="#fff"/><path d="M568.06,501.49a2.32,2.32,0,0,0-3.53-1.4l-.12.1a2.21,2.21,0,1,0,3.65,1.3Z" fill="#fff"/><path d="M628.42,509.93a2.32,2.32,0,0,0-3.52-1.4l-.12.1a2.21,2.21,0,1,0,3.64,1.3Z" fill="#fff"/><path d="M577.32,547.89a2.33,2.33,0,0,0-3.53-1.4l-.12.1a2.21,2.21,0,1,0,3.65,1.3Z" fill="#fff"/><path d="M530.53,657.07a2.32,2.32,0,0,0-3.52-1.4l-.12.1a2.21,2.21,0,1,0,3.64,1.3Z" fill="#fff"/><path d="M547.23,594.1a2.33,2.33,0,0,0-3.53-1.4l-.12.1a2.21,2.21,0,1,0,3.65,1.3Z" fill="#fff"/><path d="M670.26,483.53a2.32,2.32,0,0,0-3.52-1.4l-.12.1a2.21,2.21,0,1,0,3.64,1.3Z" fill="#fff"/><path d="M729,608.92a2.31,2.31,0,0,0-3.52-1.4l-.12.1a2.2,2.2,0,1,0,3.64,1.3Z" fill="#fff"/><path d="M751.86,501a2.32,2.32,0,0,0-3.52-1.4l-.12.1a2.21,2.21,0,1,0,3.64,1.3Z" fill="#fff"/><path d="M742.88,571.68a2.32,2.32,0,0,0-3.53-1.4l-.12.1a2.21,2.21,0,1,0,3.65,1.3Z" fill="#fff"/><path d="M691.57,622.7a2.33,2.33,0,0,0-3.53-1.4l-.12.1a2.21,2.21,0,1,0,3.65,1.3Z" fill="#fff"/><path d="M693.73,580.23a2.32,2.32,0,0,0-3.53-1.4l-.12.1a2.21,2.21,0,1,0,3.65,1.3Z" fill="#fff"/><path d="M724.69,501.38a2.33,2.33,0,0,0-3.53-1.4l-.12.1a2.21,2.21,0,1,0,3.65,1.3Z" fill="#fff"/><path d="M683,460.23a2.32,2.32,0,0,0-3.52-1.4l-.12.1a2.2,2.2,0,1,0,3.64,1.3Z" fill="#fff"/><path d="M681.5,526.57a2.32,2.32,0,0,0-3.52-1.4l-.13.1a2.21,2.21,0,1,0,3.65,1.3Z" fill="#fff"/><path d="M628.3,728.94a2.32,2.32,0,0,0-3.52-1.4l-.13.1a2.21,2.21,0,1,0,3.65,1.3Z" fill="#fff"/><path d="M567.28,695.66a2.33,2.33,0,0,0-3.53-1.4l-.12.1a2.21,2.21,0,1,0,3.65,1.3Z" fill="#fff"/><path d="M517.93,712a2.32,2.32,0,0,0-3.52-1.4l-.13.1a2.21,2.21,0,1,0,3.65,1.3Z" fill="#fff"/><path d="M512.65,740.08a2.33,2.33,0,0,0-3.53-1.41l-.12.11a2.21,2.21,0,1,0,3.65,1.3Z" fill="#fff"/><path d="M558.91,749.49a2.32,2.32,0,0,0-3.52-1.4l-.12.1a2.2,2.2,0,1,0,3.64,1.3Z" fill="#fff"/><path d="M543.44,686.55a2.32,2.32,0,0,0-3.52-1.4l-.12.1a2.21,2.21,0,1,0,3.64,1.3Z" fill="#fff"/><path d="M600.21,702.55a2.33,2.33,0,0,0-3.53-1.41l-.12.11a2.21,2.21,0,1,0,3.65,1.3Z" fill="#fff"/><path d="M735.13,686.45a2.32,2.32,0,0,0-3.53-1.4l-.12.1a2.21,2.21,0,1,0,3.65,1.3Z" fill="#fff"/><path d="M651.65,766.44a2.33,2.33,0,0,0-3.53-1.4l-.12.1a2.21,2.21,0,1,0,3.65,1.3Z" fill="#fff"/><path d="M687.25,721.91a2.32,2.32,0,0,0-3.52-1.4l-.13.1a2.21,2.21,0,1,0,3.65,1.3Z" fill="#fff"/><path d="M708.4,758.13a2.32,2.32,0,0,0-3.52-1.4l-.13.1a2.21,2.21,0,1,0,3.65,1.3Z" fill="#fff"/><path d="M649.56,568.47a2.33,2.33,0,0,0-3.53-1.4l-.12.1a2.21,2.21,0,1,0,3.65,1.3Z" fill="#fff"/><path d="M697.44,660.93a2.32,2.32,0,0,0-3.53-1.4l-.12.1a2.21,2.21,0,1,0,3.65,1.3Z" fill="#fff"/><path d="M681.91,696a2.32,2.32,0,0,0-3.53-1.4l-.12.1a2.21,2.21,0,1,0,3.65,1.3Z" fill="#fff"/><path d="M733,724.07a2.33,2.33,0,0,0-3.53-1.4l-.12.11a2.21,2.21,0,1,0,3.65,1.29Z" fill="#fff"/><path d="M593.25,764.68a2.32,2.32,0,0,0-3.52-1.4l-.13.1a2.21,2.21,0,1,0,3.65,1.3Z" fill="#fff"/><path d="M476.83,754.06a2.33,2.33,0,0,0-3.53-1.4l-.12.1a2.21,2.21,0,1,0,3.65,1.3Z" fill="#fff"/><path d="M579.35,734.94a2.31,2.31,0,0,0-3.52-1.4l-.12.1a2.2,2.2,0,1,0,3.64,1.3Z" fill="#fff"/><path d="M481.15,714.13a2.33,2.33,0,0,0-3.53-1.4l-.12.1a2.21,2.21,0,1,0,3.65,1.3Z" fill="#fff"/><path d="M645.24,648.11a2.32,2.32,0,0,0-3.53-1.4l-.12.1a2.21,2.21,0,1,0,3.65,1.3Z" fill="#fff"/><path d="M610.9,547.89a2.33,2.33,0,0,0-3.53-1.4l-.12.1a2.21,2.21,0,1,0,3.65,1.3Z" fill="#fff"/><path d="M602.32,634.8a2.33,2.33,0,0,0-3.53-1.4l-.12.1a2.21,2.21,0,1,0,3.65,1.3Z" fill="#fff"/><path d="M588.34,606.45a2.32,2.32,0,0,0-3.52-1.4l-.12.1a2.2,2.2,0,1,0,3.64,1.3Z" fill="#fff"/><path d="M650.13,695.56a2.33,2.33,0,0,0-3.53-1.41l-.12.11a2.21,2.21,0,1,0,3.65,1.3Z" fill="#fff"/><path d="M606.58,678.07a2.33,2.33,0,0,0-3.53-1.4l-.12.1a2.21,2.21,0,1,0,3.65,1.3Z" fill="#fff"/><path d="M625.22,582.11a2.32,2.32,0,0,0-3.52-1.4l-.13.1a2.21,2.21,0,1,0,3.65,1.3Z" fill="#fff"/><path d="M558.91,650.06a2.31,2.31,0,0,0-3.52-1.4l-.12.1a2.2,2.2,0,1,0,3.64,1.3Z" fill="#fff"/><path d="M661.26,618.87a2.33,2.33,0,0,0-3.53-1.4l-.12.1a2.21,2.21,0,1,0,3.65,1.3Z" fill="#fff"/><path d="M756.18,537.46a2.32,2.32,0,0,0-3.52-1.4l-.13.1a2.21,2.21,0,1,0,3.65,1.3Z" fill="#fff"/><path d="M717.64,475.81a2.33,2.33,0,0,0-3.53-1.4l-.12.1a2.21,2.21,0,1,0,3.65,1.3Z" fill="#fff"/><path d="M642.94,483.53a2.32,2.32,0,0,0-3.52-1.4l-.13.1a2.21,2.21,0,1,0,3.65,1.3Z" fill="#fff"/><path d="M566.75,262.25c-14.32,9.12-20,28.22-17.31,39.51,1.38,5.69,4,11.42,2.83,17.16-1,5-4.54,8.94-7.21,13.23-8.91,14.33-7.33,34.38,3.71,47.14s30.65,17.21,46.12,10.45" fill="#263238"/><path d="M558.27,336.81c-34.85-76.66,48.05-115.17,93.29-102.39,42.51,12,60.65,33.16,67.64,61.59s6.67,59.26-4.48,86.35c-5.5,13.36-15.4,26.93-29.75,28.6" fill="#263238"/><path d="M599.11,524c-.6-36.62-1-86.93-1-86.73,0,0-31.48-5.22-38-46.3-3.24-20.42-2.21-53.92-.49-81.29,1.56-24.65,17.88-54.88,42.43-52.28l76.67,19.38a14.45,14.45,0,0,1,12.93,14.65h0L686.6,450" fill="#ffbe9d"/><path d="M573.28,334.77a5.24,5.24,0,0,0,5,5.34,5,5,0,0,0,5.45-4.66,5.23,5.23,0,0,0-5-5.34A5,5,0,0,0,573.28,334.77Z" fill="#263238"/><path d="M627.71,334.77a5.23,5.23,0,0,0,5,5.34,5,5,0,0,0,5.46-4.66,5.25,5.25,0,0,0-5-5.34A5,5,0,0,0,627.71,334.77Z" fill="#263238"/><path d="M567.61,325.2c.63.71,4.72-2.11,10.38-1.91s9.72,3.18,10.36,2.51c.31-.3-.31-1.56-2.08-2.94A14.41,14.41,0,0,0,578,320a13.88,13.88,0,0,0-8.29,2.37C567.93,323.66,567.3,324.88,567.61,325.2Z" fill="#263238"/><path d="M621.41,326.55c.65.69,4.64-2.28,10.3-2.29s9.84,2.8,10.45,2.11c.3-.31-.37-1.55-2.19-2.86A14.51,14.51,0,0,0,631.6,321a13.88,13.88,0,0,0-8.19,2.69C621.67,325,621.09,326.25,621.41,326.55Z" fill="#263238"/><path d="M602,370.21c0-.33-3.49-.94-9.2-1.67-1.45-.15-2.82-.43-3.06-1.42s.26-2.61,1-4.29q2-5.25,4.28-11c5.95-15.7,10.25-28.6,9.62-28.83s-6,12.29-11.91,28c-1.43,3.87-2.8,7.55-4.11,11.08-.54,1.65-1.49,3.51-.75,5.68a3.64,3.64,0,0,0,2.38,2.12,9.88,9.88,0,0,0,2.46.34C598.4,370.5,602,370.53,602,370.21Z" fill="#263238"/><path d="M598.07,437.28s27.63,1.79,55-14.67c0,0-13.9,28.58-55,24.73Z" fill="#eb996e"/><path d="M620,318.49c.56,1.54,6.22.81,12.86,1.62,6.67.66,12,2.61,12.92,1.23.39-.66-.54-2.11-2.71-3.6a22.47,22.47,0,0,0-19.64-2.17C621,316.55,619.77,317.76,620,318.49Z" fill="#263238"/><path d="M568.92,311c1,1.29,4.9,0,9.6-.11s8.67.87,9.59-.48c.4-.65-.23-1.94-2-3.16a13.88,13.88,0,0,0-15.45.48C569,309,568.48,310.33,568.92,311Z" fill="#263238"/><path d="M684.55,345.51c.61-.29,22-9.75,22.24,14.85s-24.49,19.77-24.54,19.06S684.55,345.51,684.55,345.51Z" fill="#ffbe9d"/><path d="M689.67,370c.11-.08.43.29,1.16.62a4.27,4.27,0,0,0,3.2,0c2.59-1,4.73-5.13,4.81-9.56a14.16,14.16,0,0,0-1.26-6.12c-.77-1.79-2-3-3.26-3.26a2.21,2.21,0,0,0-2.52,1.2c-.32.7-.16,1.19-.29,1.23s-.53-.41-.34-1.43a2.74,2.74,0,0,1,1-1.55,3.26,3.26,0,0,1,2.36-.65c1.9.11,3.62,1.84,4.52,3.77a14.58,14.58,0,0,1,1.55,6.84c-.11,5-2.6,9.62-6.14,10.68a4.55,4.55,0,0,1-3.92-.61C689.72,370.62,689.58,370.07,689.67,370Z" fill="#eb996e"/><path d="M593.82,245.28c-13.68,7.07-19.32,35.06-13.66,49.38s20.92,21.32,36,24.61,29.79,3.69,44.63-.44c1,10,7,20.22,16.69,22.85,12.82,3.49,25.74-8.25,28.59-21.22s-1.42-26.33-5.65-38.92" fill="#263238"/><path d="M702.32,334.51c.06.08-.62.72-1.9,1.79a66.48,66.48,0,0,1-5.67,4.28,34.62,34.62,0,0,1-9.56,4.63,20.7,20.7,0,0,1-13.05-.19,20.31,20.31,0,0,1-9.88-8.54,27.37,27.37,0,0,1-3.54-10,36.31,36.31,0,0,1-.38-7.12,8.28,8.28,0,0,1,.32-2.6c.27,0,0,3.74,1.05,9.54a27.94,27.94,0,0,0,3.66,9.53,19.49,19.49,0,0,0,9.27,7.9,19.92,19.92,0,0,0,12.2.26,36.1,36.1,0,0,0,9.37-4.22C699.23,336.59,702.17,334.31,702.32,334.51Z" fill="#263238"/><path d="M603.66,386a24,24,0,0,0,3.05,6,8,8,0,0,0,5.66,3.28,7.16,7.16,0,0,0,6-3.29,11.42,11.42,0,0,0,1.68-6.87c-.1-2.16-1.09-4.75-3.24-5a5.33,5.33,0,0,0-2.61.58l-11.31,4.58" fill="#eb996e"/><path d="M608.18,395.3c.05-.35,2.54.66,6-.74a8.64,8.64,0,0,0,4.56-4.14,9.09,9.09,0,0,0,.15-7.4,8.25,8.25,0,0,0-1-1.69c-.45-.47-.37-.45-.85-.38s-1.21.47-1.82.71l-1.85.76c-2.42,1-4.62,1.83-6.47,2.52-3.7,1.39-6,2.12-6.15,1.86s2-1.45,5.59-3.17c1.78-.86,3.92-1.85,6.3-2.92l1.83-.82a20,20,0,0,1,2.06-.85,2.57,2.57,0,0,1,1.68,0,3.07,3.07,0,0,1,1.25,1,9.89,9.89,0,0,1,1.27,2.15,10.56,10.56,0,0,1-.35,9,9.65,9.65,0,0,1-5.74,4.64,9,9,0,0,1-4.9.19C608.66,395.8,608.13,395.42,608.18,395.3Z" fill="#263238"/><path d="M712.13,328.68c-2.52-.18-22.83,2.45-21.23,40.21,1.5,35.26,26.23,27.49,34.13,14.22C732.51,370.53,736.83,330.41,712.13,328.68Z" fill="#455a64"/><path d="M724.69,333.14a4.56,4.56,0,0,1-.1-1c0-.74-.07-1.69-.12-2.88-.07-2.6-.17-6.24-.3-10.75-.18-9.27-.44-22.15-.74-37l.46.45H713.41l.47-.48c.08,2.81.16,5.78.24,8.79.35,14.16.68,27.36,1,38.4V329l-.31.07A19,19,0,0,0,704,336a25.35,25.35,0,0,0-4.3,9.11,37.5,37.5,0,0,0-1.11,6.45c-.07.75-.11,1.33-.13,1.72a3,3,0,0,1-.05.6,2.08,2.08,0,0,1-.07-.6c0-.39,0-1,0-1.73a33,33,0,0,1,.9-6.55,25.41,25.41,0,0,1,4.24-9.39,19.64,19.64,0,0,1,11.11-7.32l-.3.39c-.32-11-.7-24.23-1.1-38.4-.08-3-.16-6-.24-8.78V281h.48l10.48,0h.45v.45c.17,14.87.31,27.76.41,37,0,4.52,0,8.15,0,10.76,0,1.19,0,2.14,0,2.87A5.13,5.13,0,0,1,724.69,333.14Z" fill="#455a64"/><path d="M712.13,281.48s-10.62-24.86-35.93-37.12a150.34,150.34,0,0,0-30.32-11.24s14.76-3.51,38.66,7.12c10.85,4.83,21.79,11.12,29,20.55,4.6,6,10.34,17.69,10.33,20.69Z" fill="#455a64"/><path d="M646.6,582.48a6.46,6.46,0,0,1,.46-.5c.3-.33.78-.78,1.37-1.42a64.79,64.79,0,0,0,4.91-5.82A95,95,0,0,0,660,564.56c2.38-4.13,4.84-9,7.52-14.44,5.37-10.87,11.58-24,18-39.15,3.22-7.55,6.49-15.58,9.75-24l2.45-6.41a36.78,36.78,0,0,1,2.92-6.45,13.36,13.36,0,0,1,5.28-5,7.38,7.38,0,0,1,3.7-.94,3.67,3.67,0,0,1,1.94.7,4.13,4.13,0,0,1,1.22,1.63l.06.12,0,.15a6.25,6.25,0,0,1-1,2.42,3.76,3.76,0,0,1-2.27,1.49,8.1,8.1,0,0,1-5.07-.93,8,8,0,0,1-4.49-8.82,7.12,7.12,0,0,1,2.95-4.44,8.3,8.3,0,0,1,5.17-1.47,5.7,5.7,0,0,1,4.77,2.63,2.74,2.74,0,0,1-.19,3,5.27,5.27,0,0,1-2.3,1.68,7.59,7.59,0,0,1-8.72-2.47,6.46,6.46,0,0,1-1.18-4.59,7.8,7.8,0,0,1,1.89-4.28,6.53,6.53,0,0,1,4.09-2.27,5.29,5.29,0,0,1,4.43,1.52,3.33,3.33,0,0,1,.87,2.32,3.19,3.19,0,0,1-1,2.25,5.15,5.15,0,0,1-4.45,1.19,5.61,5.61,0,0,1-3.54-2.84,11.91,11.91,0,0,1-1.33-4.2,14.93,14.93,0,0,1,1-8.48,6.42,6.42,0,0,1,3.1-3.07,5.84,5.84,0,0,1,4.33.14,4.1,4.1,0,0,1,2.66,3.37,3.76,3.76,0,0,1-2.31,3.55,4.63,4.63,0,0,1-4.18-.06,5.73,5.73,0,0,1-2.59-3.19,8,8,0,0,1-.25-4,17.66,17.66,0,0,1,.85-3.78,6.88,6.88,0,0,1,2.2-3.21,8.93,8.93,0,0,1,3.43-1.71,3.76,3.76,0,0,1,2,0,4.34,4.34,0,0,1,1.66,1.06,4.91,4.91,0,0,1,1.08,1.61,2.73,2.73,0,0,1,.06,2,3.28,3.28,0,0,1-3.26,1.8,6,6,0,0,1-3.41-1.14,9.27,9.27,0,0,1-3.65-5.73,9.69,9.69,0,0,1,.76-6.48,7.59,7.59,0,0,1,2-2.5,6.92,6.92,0,0,1,2.91-1.25,4.67,4.67,0,0,1,3.09.44,3.23,3.23,0,0,1,1.67,2.58,4.54,4.54,0,0,1-3.42,4.36,5,5,0,0,1-5-1.86,8,8,0,0,1-1.87-4.65c-.15-3.31,1.15-6.1,1.79-8.71s1.41-5,2-7.16c1.22-4.27,2.18-7.6,2.84-9.9.32-1.1.58-1.95.76-2.57a8.51,8.51,0,0,1,.29-.86s0,.3-.2.89-.38,1.48-.67,2.59c-.62,2.32-1.51,5.66-2.66,9.95q-.88,3.24-2,7.18c-.62,2.63-1.87,5.44-1.69,8.55a7.46,7.46,0,0,0,1.77,4.32,4.42,4.42,0,0,0,4.36,1.65,4,4,0,0,0,2.95-3.74,2.61,2.61,0,0,0-1.36-2.06,4.13,4.13,0,0,0-2.66-.34,6.07,6.07,0,0,0-2.6,1.14,6.86,6.86,0,0,0-1.84,2.28,8.93,8.93,0,0,0-.67,6,8.54,8.54,0,0,0,3.37,5.25,5.16,5.16,0,0,0,3,1,2.53,2.53,0,0,0,2.52-1.31,2.81,2.81,0,0,0-1-2.77,3.46,3.46,0,0,0-1.34-.86,3,3,0,0,0-1.58,0,6.89,6.89,0,0,0-5,4.41,17.1,17.1,0,0,0-.79,3.6,7.12,7.12,0,0,0,.22,3.59,4.83,4.83,0,0,0,2.19,2.72,3.77,3.77,0,0,0,3.4,0,2.86,2.86,0,0,0,1.8-2.72,3.22,3.22,0,0,0-2.14-2.59,4.81,4.81,0,0,0-3.63-.12,5.44,5.44,0,0,0-2.63,2.64,14.1,14.1,0,0,0-.86,7.94,10.75,10.75,0,0,0,1.22,3.87,4.78,4.78,0,0,0,2.93,2.4,4.27,4.27,0,0,0,3.62-1,2.26,2.26,0,0,0,.12-3.26,4.37,4.37,0,0,0-3.62-1.22,5.64,5.64,0,0,0-3.49,2c-1.84,2.06-2.37,5.43-.66,7.69a6.66,6.66,0,0,0,7.6,2.15A4.33,4.33,0,0,0,711.9,464a1.75,1.75,0,0,0,.12-2,4.8,4.8,0,0,0-4-2.13c-3.22-.22-6.58,2-7.14,5.16a7.05,7.05,0,0,0,4,7.79,7.21,7.21,0,0,0,4.47.86c1.47-.26,2.27-1.69,2.55-3.17l0,.26a2.71,2.71,0,0,0-2.37-1.78,6.51,6.51,0,0,0-3.22.84,12.41,12.41,0,0,0-4.93,4.68,36.43,36.43,0,0,0-2.86,6.29l-2.46,6.41c-3.29,8.45-6.59,16.48-9.84,24-6.48,15.1-12.76,28.26-18.2,39.11-2.72,5.42-5.22,10.28-7.64,14.4a92.07,92.07,0,0,1-6.79,10.14A48,48,0,0,1,646.6,582.48Z" fill="#fff"/><path d="M734.17,311a23.42,23.42,0,0,0-1.65-6.73,26.49,26.49,0,0,0-13.06-13.08,35,35,0,0,0-12.59-3.08A59.54,59.54,0,0,0,692,289.23c-10.43,1.92-21.38,6.42-33.64,8.27a68.26,68.26,0,0,1-18,0,72.45,72.45,0,0,1-16.2-4.39,71.4,71.4,0,0,1-23.57-15.57,63.08,63.08,0,0,1-11.42-15.28,20.22,20.22,0,0,1-1.34-2.68c-.34-.78-.64-1.45-.89-2l-.52-1.25a2.46,2.46,0,0,1-.15-.43s.1.13.24.4l.61,1.2,1,2a22.49,22.49,0,0,0,1.41,2.62A65.68,65.68,0,0,0,601,277a71.88,71.88,0,0,0,23.43,15.24,72.74,72.74,0,0,0,16,4.28,68,68,0,0,0,17.75,0c12.1-1.81,23.07-6.29,33.61-8.19a59.67,59.67,0,0,1,15.15-1.06,35.51,35.51,0,0,1,12.82,3.26,26.5,26.5,0,0,1,13.11,13.54,19.6,19.6,0,0,1,1.26,5.05c0,.55,0,1,.06,1.36A1.48,1.48,0,0,1,734.17,311Z" fill="#455a64"/><path d="M706.72,271.77a5.93,5.93,0,0,1-1.3.24c-.86.11-2.13.3-3.74.58-3.25.54-7.89,1.57-13.6,3a145,145,0,0,1-20.35,3.94,102.67,102.67,0,0,1-25.36-.55,107.42,107.42,0,0,1-24.51-6.6,104.29,104.29,0,0,1-18.4-9.55c-2.44-1.65-4.63-3.18-6.47-4.64s-3.43-2.7-4.63-3.84l-2.76-2.6a7,7,0,0,1-.92-.95,6.33,6.33,0,0,1,1.05.81l2.88,2.46c1.22,1.09,2.87,2.25,4.7,3.7s4.07,2.89,6.52,4.5A109.83,109.83,0,0,0,642.5,278a104.11,104.11,0,0,0,25.15.62,151.65,151.65,0,0,0,20.27-3.73c5.74-1.34,10.43-2.27,13.7-2.7,1.63-.23,2.91-.36,3.78-.41A7.72,7.72,0,0,1,706.72,271.77Z" fill="#455a64"/><path d="M709.43,393.65a2.21,2.21,0,0,1-.71-.2,12,12,0,0,1-1.89-1,16.48,16.48,0,0,1-5.32-5.68,27.2,27.2,0,0,1-3.27-11.07,80.89,80.89,0,0,1,0-14.11,85.94,85.94,0,0,1,2.34-13.91,40,40,0,0,1,4.06-10.8,16.74,16.74,0,0,1,5.35-5.65,11,11,0,0,1,1.9-.95,2,2,0,0,1,.72-.2c0,.08-.93.42-2.41,1.46a17.31,17.31,0,0,0-5,5.68,41.07,41.07,0,0,0-3.79,10.67,89.56,89.56,0,0,0-2.24,13.78,84.47,84.47,0,0,0-.06,13.94,27.38,27.38,0,0,0,3,10.83,17.32,17.32,0,0,0,4.95,5.71C708.5,393.23,709.47,393.57,709.43,393.65Z" fill="#263238"/><rect x="604.67" y="389.74" width="29.39" height="11.08" rx="5.19" transform="translate(-64.53 126.67) rotate(-11.1)" fill="#455a64"/><path d="M631.18,390.81l86.31-27.07a4.06,4.06,0,0,1,5.09,2.64h0a4.07,4.07,0,0,1-2.81,5.17l-88.26,23.84Z" fill="#455a64"/><path d="M695,378.91a18.76,18.76,0,0,1,2.85-1l7.9-2.4c3.31-1,7.37-2.1,11.67-3.51a7.8,7.8,0,0,0,2.83-1.74,4.3,4.3,0,0,0,1.21-3,2.6,2.6,0,0,0-1.78-2.47,6.66,6.66,0,0,0-3.61.11l-25.87,8.32-7.88,2.44a19.66,19.66,0,0,1-2.93.77,17.18,17.18,0,0,1,2.81-1.12l7.79-2.72c6.61-2.25,15.67-5.35,25.85-8.61a7.5,7.5,0,0,1,4.15-.08,3.55,3.55,0,0,1,2.4,3.34,5.22,5.22,0,0,1-1.49,3.65,8.65,8.65,0,0,1-3.16,1.92c-4.46,1.42-8.44,2.39-11.81,3.34l-8,2.12A18.93,18.93,0,0,1,695,378.91Z" fill="#263238"/><path d="M553.85,312.8c3,10.37-7.59,19.27-11.3,29.39C539,352,542,363,546.44,372.4s10.23,18.41,12.49,28.59c5.58,25.11-17.12,52.15-12.79,77.5,1.57,9.23,5.29,18.86,8.51,27.66s3,16.83,0,25.71c-4.9,14.52-13.23,21.36-19.1,35.52-3,7.24-2.76,15.35-2.61,23.18s.09,16-3.39,23S518.08,626,510.51,624c7.92,9.32,22.55,12.1,33.34,6.35,9.95-5.31,15.52-16.09,20.28-26.31,23.07-49.5,35.27-53.68,34.64-108.29,0-3.51-.7-58.2-.7-58.2s-8.64-2.31-13.62-5.74c-25.77-17.79-26.7-49.48-26.5-74" fill="#263238"/><path d="M605.41,478.49v20.6s-15.85,80.85-20.61,125.77-5.56,56.77-5.56,56.77,11.37,17.74,35.15-12.38,28-34.88,37.52-35.41c0,0-11.62-126.29-11.1-131s4.23-9,4.23-9Z" fill="#ffbe9d"/><path d="M636.59,432s-25.9,34.35-28,39.11-3.17,7.4-3.17,7.4L645,493.81l38.58-42.27L697.88,414l-4.22-44.39s-8.46-.53-10,6.87a55.89,55.89,0,0,0-1.06,14.27l-11.84-9.51-19.07-5.82s-4.49,7.4,2.9,11.1,9.51,3.7,9.51,3.7l6.66,11.62-2.91,13-13.49-12.65a7.72,7.72,0,0,0-9.83-.61L635.77,408l-8.17-3.64-15.85,13.93-6.34,5.81s4.23,7.92,12.68,4.23l8.46-3.7Z" fill="#ffbe9d"/><path d="M605.41,485.44s0-.37,0-1.1.09-1.81.26-3.22a38.18,38.18,0,0,1,1-5.18,23.3,23.3,0,0,1,2.78-6.66c5.92-9.1,15.26-21.76,26.89-37.49l.07.46-10.06-7.38.36,0-5.23,2.3a35.31,35.31,0,0,1-5.56,2.17,9.06,9.06,0,0,1-6.19-.7,11.45,11.45,0,0,1-4.65-4.43l-.16-.26.24-.22c6.82-6.4,14.39-12.87,22.18-19.78l.23-.21.27.16,7,4.16h-.46l8.23-5.42c1.42-.91,2.73-1.84,4.27-2.76a5.17,5.17,0,0,1,5.3.46l16,13.56-.75.25c.87-3.92,1.82-8.16,2.77-12.44l0,.34c-2.1-3.68-4.37-7.63-6.66-11.63l.41.24a14,14,0,0,1-3.28-.88c-1-.39-2.08-.82-3.11-1.28s-2.06-1-3.09-1.47c-.51-.25-1-.59-1.54-.88a9.2,9.2,0,0,1-1.37-1.2,6.72,6.72,0,0,1-1.83-4.86,10.71,10.71,0,0,1,1.4-4.94l.18-.32.36.11,19.08,5.82.08,0,.07.06,11.84,9.52-.75.39a55.72,55.72,0,0,1,1-14.06,8.49,8.49,0,0,1,3.85-5.86,12.18,12.18,0,0,1,6.72-1.69h.38l0,.4c1.49,15.78,2.89,30.64,4.18,44.39v.09l0,.09-14.34,37.49,0,.06,0,.05c-12.69,13.8-22.89,24.92-30,32.6l-8.13,8.78c-.92,1-1.62,1.72-2.12,2.26l-.75.75s.22-.29.68-.82,1.17-1.31,2-2.32l8-8.89,29.74-32.8-.07.1c4.21-11.14,9-23.69,14.2-37.54l0,.18c-1.33-13.75-2.76-28.61-4.28-44.39l.42.41a11.33,11.33,0,0,0-6.19,1.57,7.56,7.56,0,0,0-3.44,5.27,55.71,55.71,0,0,0-1,13.81l.06,1-.81-.65-11.84-9.51.15.09-19.07-5.81.54-.21a9.86,9.86,0,0,0-1.27,4.47,5.82,5.82,0,0,0,1.58,4.2,8.29,8.29,0,0,0,1.22,1.06c.48.27.92.56,1.43.81,1,.51,2,1,3,1.45a26.38,26.38,0,0,0,6,2.09l.31,0,.11.19c2.28,4,4.54,8,6.65,11.63l.09.16,0,.18c-1,4.28-1.91,8.52-2.78,12.43l-.17.75-.59-.49-16-13.53a4.23,4.23,0,0,0-4.36-.39c-1.35.8-2.8,1.81-4.18,2.7l-8.24,5.41-.23.15-.24-.14-7-4.17.51-.05c-7.79,6.89-15.39,13.34-22.21,19.71l.08-.48a10.71,10.71,0,0,0,4.3,4.12,8.29,8.29,0,0,0,5.68.65,35,35,0,0,0,5.43-2.1l5.23-2.28.19-.08.17.12,10,7.42.27.2-.2.26c-11.69,15.68-21.12,28.29-27.11,37.3a23,23,0,0,0-2.82,6.53,39.5,39.5,0,0,0-1.07,5.13c-.21,1.41-.3,2.48-.35,3.21Z" fill="#eb996e"/><path d="M654.45,439.94c-.19,0,.51-2.8.8-7.31A16.33,16.33,0,0,0,654,425c-1.2-2.67-3.59-5-6.31-7.09a156.55,156.55,0,0,0-14.67-10q-2.73-1.6-4.64-2.74a8.38,8.38,0,0,1-1.67-1.07,7.35,7.35,0,0,1,1.84.75c1.16.54,2.81,1.38,4.81,2.48a119.82,119.82,0,0,1,14.91,9.82c2.76,2.13,5.27,4.58,6.53,7.48a16.52,16.52,0,0,1,1.12,8A35.29,35.29,0,0,1,655,438,7.54,7.54,0,0,1,654.45,439.94Z" fill="#eb996e"/><path d="M682.19,423.45c-.15,0,.24-1.83.67-4.75a75.45,75.45,0,0,0,.81-11.48,74.4,74.4,0,0,0-1-11.46,37.65,37.65,0,0,1-.75-4.74,17.66,17.66,0,0,1,1.41,4.61,56.57,56.57,0,0,1,.2,23.18A18.3,18.3,0,0,1,682.19,423.45Z" fill="#eb996e"/><path d="M863.25,778.74c0,.26-184.93.47-413,.47s-413-.21-413-.47,184.89-.47,413-.47S863.25,778.48,863.25,778.74Z" fill="#263238"/><path d="M629.52,779.18s12.33-21.07,38.9-22,39.86,22,39.86,22Z" fill="#455a64"/><path d="M680.43,778.52c-.19,0-.24-1.55-.77-4a25.59,25.59,0,0,0-10.54-15.5c-2-1.39-3.47-2-3.4-2.19s1.6.23,3.84,1.49a22.57,22.57,0,0,1,10.9,16C680.81,777,680.56,778.53,680.43,778.52Z" fill="#263238"/><path d="M613.07,778.22v-.17a10.21,10.21,0,0,0-10.2-10H376.68a10.2,10.2,0,0,0-10.21,10.2h246.6Z" fill="#455a64"/><path d="M180.06,382c0,4.76,3.56,288.83,3.56,288.83l211,50.76h17.45L401,325H385.09Z" fill="#263238"/><path d="M224.68,658.94,159.29,778.8h59.77c-10.69-1.07,94.64,0,94.64,0l-94.64-25.1,29.59-67.22-2.53-27.54Z" fill="#263238"/><polygon points="226.14 681.07 219.06 457.7 283.3 451.54 291.22 690.04 268.27 691.2 226.14 681.07" fill="#263238"/><path d="M300.2,698.89s0-.35,0-1,0-1.73,0-3.07c0-2.72,0-6.7-.07-11.86,0-10.39-.08-25.48-.13-44.43,0-38-.1-91.4-.17-153.36l.45.46-75.8,0,.47-.48v10.31c0,60.42-.06,116.65-.08,163.5v.11l0,.08-47.41,86.94c-5.72,10.43-10.21,18.61-13.28,24.22l-3.52,6.35c-.8,1.43-1.24,2.16-1.24,2.16s.37-.77,1.13-2.22,1.93-3.62,3.42-6.41c3-5.63,7.45-13.84,13.08-24.32l47.13-87.09-.05.18c0-46.85-.05-103.08-.08-163.5V484.66h.48l75.8,0h.46v.45c-.07,62-.13,115.39-.17,153.36-.06,19-.1,34-.13,44.43,0,5.16-.06,9.14-.08,11.86,0,1.34,0,2.35,0,3.07S300.2,698.89,300.2,698.89Z" fill="#455a64"/><path d="M248.65,686.48c.24.11-8.86,21.14-20.32,47s-21,46.71-21.19,46.6,8.86-21.13,20.32-47S248.41,686.38,248.65,686.48Z" fill="#455a64"/><path d="M394.61,721.6s0-.35-.05-1,0-1.71-.06-3c0-2.67-.08-6.55-.14-11.53-.08-10-.3-24.49-.66-42.39-.68-35.8-2.29-85.23-4.27-139.82s-3.5-104.06-4-139.86c-.26-17.9-.39-32.39-.35-42.4,0-5,0-8.86,0-11.53,0-1.29,0-2.29,0-3s0-1,0-1,0,.35.05,1,0,1.71.06,3c0,2.67.08,6.55.14,11.53.08,10,.3,24.49.65,42.39.68,35.79,2.3,85.23,4.28,139.84s3.49,104,4,139.84c.27,17.9.39,32.39.36,42.4,0,5,0,8.86,0,11.53,0,1.29,0,2.29,0,3S394.61,721.6,394.61,721.6Z" fill="#455a64"/><path d="M288.69,483.48c.27,0,.48,47.51.48,106.1s-.21,106.11-.48,106.11-.47-47.49-.47-106.11S288.43,483.48,288.69,483.48Z" fill="#455a64"/><path d="M175,760.09a9.14,9.14,0,0,1-.91-1.27c-.3-.44-.64-1-1-1.57a17.56,17.56,0,0,1-1.31-2.23A55.47,55.47,0,0,1,166,739.65a75.56,75.56,0,0,1-1.13-24.31,96.79,96.79,0,0,1,7.89-28.75A59.59,59.59,0,0,1,181,673.47a33.38,33.38,0,0,1,2.41-2.84c.84-.91,1.64-1.82,2.48-2.69,1.76-1.65,3.4-3.35,5.2-4.78a84.74,84.74,0,0,1,10.57-7.66c1.8-1,3.48-2,5.19-2.85s3.33-1.68,5-2.27a57,57,0,0,1,15.86-4.22,32,32,0,0,1,4.46-.28,9.79,9.79,0,0,1,1.56,0,10.27,10.27,0,0,1-1.55.17,40.54,40.54,0,0,0-4.42.45A59.6,59.6,0,0,0,212.06,651c-1.62.6-3.19,1.51-4.9,2.3s-3.34,1.88-5.11,2.87a84.73,84.73,0,0,0-10.41,7.65c-1.78,1.43-3.39,3.12-5.12,4.76-.83.85-1.62,1.76-2.44,2.66a33.82,33.82,0,0,0-2.37,2.81A59.25,59.25,0,0,0,173.6,687a97.35,97.35,0,0,0-7.88,28.45,76.73,76.73,0,0,0,.91,24.08,58.87,58.87,0,0,0,5.44,15.34,18.84,18.84,0,0,0,1.23,2.25l1,1.62A10.24,10.24,0,0,1,175,760.09Z" fill="#455a64"/></svg>