<svg id="illustration" xmlns="http://www.w3.org/2000/svg" viewBox="0 0 512 512"><title>artwork</title><path d="M440,188.83V304a72,72,0,0,1-144,0V188.83a136,136,0,1,0,144,0Z" fill="#e7e7e7"/><path d="M441.8,436.77a151.23,151.23,0,0,1-147.6,0l-21.67,56.35A8,8,0,0,0,280,504H456a8,8,0,0,0,7.47-10.88Z" fill="#e7e7e7"/><path d="M368,360a56.07,56.07,0,0,0,56-56V180.21a134.52,134.52,0,0,0-112,0V304A56.07,56.07,0,0,0,368,360Zm0-80a24,24,0,1,1-24,24A24,24,0,0,1,368,280Z" fill="#e7e7e7"/><path d="M320,8H32A24,24,0,0,0,8,32V296a24,24,0,0,0,24,24H134.94l-6,48H104a8,8,0,0,0,0,16H248a8,8,0,0,0,0-16H223.06l-6-48H320a24,24,0,0,0,24-24V32A24,24,0,0,0,320,8ZM24,32a8,8,0,0,1,8-8H168V205.55a87.8,87.8,0,0,0-144,0ZM168,256H24a72,72,0,0,1,144,0Zm38.94,112H145.06l6-48h49.88ZM320,304H32a8,8,0,0,1-8-8V272H328v24A8,8,0,0,1,320,304ZM184,256a72,72,0,0,1,144,0Zm72-88a87.91,87.91,0,0,0-72,37.55V24H320a8,8,0,0,1,8,8V205.56A87.9,87.9,0,0,0,256,168Z" fill="#4380b4"/><path d="M96,152A56,56,0,1,0,40,96,56,56,0,0,0,96,152Zm0-96A40,40,0,1,1,56,96,40,40,0,0,1,96,56Z" fill="#4380b4"/><path d="M256,40a56,56,0,1,0,56,56A56,56,0,0,0,256,40Zm0,96a40,40,0,1,1,40-40A40,40,0,0,1,256,136Z" fill="#4380b4"/></svg>