<svg id="illustration" xmlns="http://www.w3.org/2000/svg" viewBox="0 0 512 512"><title>artwork</title><g id="color"><path d="M453.33,496H58.67A42.65,42.65,0,0,1,16,453.33V58.67A42.65,42.65,0,0,1,58.67,16H453.33A42.65,42.65,0,0,1,496,58.67V453.33A42.65,42.65,0,0,1,453.33,496Z" fill="#f2f2f0"/></g><g id="shadow"><path d="M64,453.33V58.67A42.65,42.65,0,0,1,106.67,16h-48A42.65,42.65,0,0,0,16,58.67V453.33A42.65,42.65,0,0,0,58.67,496h48A42.65,42.65,0,0,1,64,453.33Z" fill="#d4dae0"/></g><g id="_1.5" data-name="1.5"><path d="M453.33,512H58.67A58.71,58.71,0,0,1,0,453.33V58.67A58.71,58.71,0,0,1,58.67,0H453.33A58.71,58.71,0,0,1,512,58.67V453.33A58.71,58.71,0,0,1,453.33,512ZM58.67,32A26.71,26.71,0,0,0,32,58.67V453.33A26.71,26.71,0,0,0,58.67,480H453.33A26.71,26.71,0,0,0,480,453.33V58.67A26.71,26.71,0,0,0,453.33,32Z"/><path d="M293.33,106.67H432v32H293.33Z"/><path d="M293.33,192H432v32H293.33Z"/><path d="M119.62,439.82a16,16,0,0,1-12.23-5.7L67.78,387.19l24.44-20.63L119.62,399l86.8-102.83,24.45,20.63L131.82,434.14a15.94,15.94,0,0,1-12.2,5.68Z"/><path d="M293.33,320H432v32H293.33Z"/><path d="M293.33,405.33H432v32H293.33Z"/></g><path d="M163.69,189.39a10.06,10.06,0,0,0,8.92-3.62L175.7,182l1.23-1.5,6.39-2.12a10.05,10.05,0,0,0,7.35-6.89l2-6.52,5.73-5a10,10,0,0,0,3.49-8.62l-.68-6.78L204.5,138a10,10,0,0,0,0-9.46l-3.19-6,.53-7.33a10,10,0,0,0-3.62-8.91L193,102l-2.12-6.38A10,10,0,0,0,184,88.27l-6.52-2-5-5.72a10,10,0,0,0-8.63-3.49l-6.77.67-6.62-3.32a10,10,0,0,0-9.46,0l-6,3.19-7.33-.53a10.06,10.06,0,0,0-8.92,3.62L114.47,86l-6.39,2.12A10.05,10.05,0,0,0,100.73,95l-2,6.53L93,106.46a10,10,0,0,0-3.49,8.63l.67,6.77-3.32,6.63a10,10,0,0,0,0,9.46l3.19,5.94-.53,7.34a10.05,10.05,0,0,0,3.62,8.91l5.28,4.32,2.12,6.39a10.05,10.05,0,0,0,6.89,7.35l6.53,2,1.72,2,3.23,3.73a10,10,0,0,0,8.63,3.49l6.77-.68L141,192a10,10,0,0,0,9.47,0l5.94-3.18Z" fill="#83b450" fill-rule="evenodd"/><path d="M172.61,185.78a10.06,10.06,0,0,1-8.92,3.62l-7.33-.53-5.94,3.19a10,10,0,0,1-9.47,0l-6.62-3.32-6.77.67a10,10,0,0,1-8.63-3.49l-3.23-3.73V246l30-14.5,30,14.5V182Z" fill="#78a444" fill-rule="evenodd"/><path d="M79.89,146.07l-.31,4.27a20,20,0,0,0,7.25,17.54l3,2.49L91,173.64a20.13,20.13,0,0,0,13.61,14.13l1.14.35V246a10,10,0,0,0,14.35,9l25.65-12.39L171.35,255a10,10,0,0,0,14.35-9V188.12l.41-.14a20.1,20.1,0,0,0,14.13-13.6l1.13-3.75,3.47-3a20,20,0,0,0,7-17.23l-.39-3.89,2-3.93a20,20,0,0,0,0-18.77l-1.82-3.4.31-4.27a20,20,0,0,0-7.25-17.54l-3-2.49-1.09-3.27A20.1,20.1,0,0,0,186.84,78.7l-3.75-1.14-3-3.47a20,20,0,0,0-17.24-7l-3.88.39-3.93-2a20,20,0,0,0-18.78.06l-3.39,1.82-4.27-.31a20,20,0,0,0-17.54,7.25l-2.49,3-3.27,1.09a20.13,20.13,0,0,0-14.14,13.6L90,95.84l-3.47,3a20,20,0,0,0-7,17.23L80,120l-2,3.93a20,20,0,0,0,.06,18.78Zm70.16,76.43a10,10,0,0,0-8.7,0l-15.65,7.56V199.41a20.87,20.87,0,0,0,2.85-.07l3.89-.39,3.93,2a20,20,0,0,0,18.77-.06l3.39-1.82,4.28.31a20,20,0,0,0,2.89.08v30.62ZM95.84,133l3.32-6.62a10,10,0,0,0,1-5.48l-.67-6.76,5.81-5a10,10,0,0,0,3-4.67l2-6.56c.29-.07.59-.15.88-.25l6.38-2.12a10,10,0,0,0,4.59-3.15L126.59,87l.4,0,7.33.53a10.06,10.06,0,0,0,5.44-1.16l5.93-3.18h0l.24.12,6.63,3.33a10,10,0,0,0,5.47,1l6.77-.68,5,5.81a10,10,0,0,0,4.67,3l6.57,2a8.84,8.84,0,0,0,.25.88l2.12,6.39a10,10,0,0,0,3.15,4.58l5.31,4.39c0,.13,0,.26,0,.39l-.53,7.34a9.92,9.92,0,0,0,1.16,5.44l3.17,6a2,2,0,0,1-.13.25l-3.32,6.63a10,10,0,0,0-1,5.47l.68,6.77-5.81,5a9.9,9.9,0,0,0-3,4.67l-2,6.57a8.84,8.84,0,0,0-.88.25L173.78,171a10,10,0,0,0-4.58,3.16l-4.39,5.3-.39,0-7.34-.53a9.92,9.92,0,0,0-5.44,1.16l-5.95,3.17-.25-.13-6.63-3.32a10,10,0,0,0-4.48-1.06,8.21,8.21,0,0,0-1,.05l-6.77.67-5-5.81a10,10,0,0,0-4.67-3l-6.57-2c-.06-.29-.15-.59-.24-.88l-2.12-6.38a10,10,0,0,0-3.16-4.59l-5.3-4.38,0-.4.53-7.33a9.9,9.9,0,0,0-1.16-5.44l-3.17-6Z"/></svg>