<svg id="illustration" xmlns="http://www.w3.org/2000/svg" viewBox="0 0 512 512"><title>artwork</title><path d="M261.1,112H143a21.69,21.69,0,0,0-17.26,8.7C54.93,215.87,16,290.65,16,364c0,65.69,34.77,132,112.45,132h132C326.81,496,368,445.44,368,364c0-72.55-38.29-160.26-88.62-241.86A21.51,21.51,0,0,0,261.1,112Z" fill="#f2f2f0"/><path d="M313.62,10.67H92.44A21.32,21.32,0,0,0,76.16,45.78L143,112H263.1l66.8-66.22a21.33,21.33,0,0,0-16.28-35.11Z" fill="#83b450"/><circle cx="469.33" cy="42.67" r="26.67" fill="#2fde83"/><circle cx="384" cy="149.33" r="26.67" fill="#2fde83"/><circle cx="256" cy="85.33" r="26.67" fill="#2fde83"/><path d="M64,364c0-73.37,38.93-148.14,109.76-243.31A21.66,21.66,0,0,1,191,112H143a21.66,21.66,0,0,0-17.26,8.7C54.93,215.85,16,290.62,16,364c0,65.68,34.77,132,112.45,132h48C98.77,496,64,429.7,64,364Z" fill="#d4dae0"/><path d="M119.1,32a21.34,21.34,0,0,1,21.34-21.33h-48A21.32,21.32,0,0,0,76.16,45.78L143,112h48L124.16,45.78A21.19,21.19,0,0,1,119.1,32Z" fill="#78a444"/><path d="M490.67,42.67a26.06,26.06,0,0,1,2.66-11.22,26.66,26.66,0,1,0,0,22.44A26.13,26.13,0,0,1,490.67,42.67Z" fill="#83b450"/><path d="M405.33,149.33A26.14,26.14,0,0,1,408,138.11a26.67,26.67,0,1,0,0,22.44A26.07,26.07,0,0,1,405.33,149.33Z" fill="#83b450"/><path d="M277.33,85.33A26.14,26.14,0,0,1,280,74.11a26.67,26.67,0,1,0,0,22.44A26.07,26.07,0,0,1,277.33,85.33Z" fill="#83b450"/><path d="M469.33,85.33A42.67,42.67,0,1,1,512,42.67,42.7,42.7,0,0,1,469.33,85.33Zm0-53.33A10.67,10.67,0,1,0,480,42.67,10.7,10.7,0,0,0,469.33,32Z"/><path d="M384,192a42.67,42.67,0,1,1,42.67-42.67A42.72,42.72,0,0,1,384,192Zm0-53.33a10.67,10.67,0,1,0,10.67,10.66A10.7,10.7,0,0,0,384,138.67Z"/><path d="M256,128a42.67,42.67,0,1,1,42.67-42.67A42.72,42.72,0,0,1,256,128Zm0-53.33a10.67,10.67,0,1,0,10.67,10.66A10.7,10.7,0,0,0,256,74.67Z"/><path d="M391.5,114.37l45.66-57.22,25,20-45.66,57.22Z"/><path d="M277.32,113.7,291.57,85l71.29,35.41-14.25,28.69Z"/><path d="M142.1,124.5l-72.51-58A36.89,36.89,0,0,1,57.64,25,36.85,36.85,0,0,1,92.8,0h81.07a16,16,0,0,1,16,16h0a16,16,0,0,1-16,16H92.8a4.89,4.89,0,0,0-4.93,3.56,5,5,0,0,0,1.71,5.89L162.11,99.5Z"/><path d="M80,96h74.67a16,16,0,0,1,16,16h0a16,16,0,0,1-16,16H80a16,16,0,0,1-16-16h0A16,16,0,0,1,80,96Z"/><path d="M200.11,394.67H138.67v-32h61.44a13.34,13.34,0,0,0,0-26.67H183.89a45.34,45.34,0,0,1,0-90.67h61.44v32H183.89a13.34,13.34,0,0,0,0,26.67h16.22a45.34,45.34,0,0,1,0,90.67Z"/><path d="M176,213.33h32v64H176Z"/><path d="M176,362.67h32v64H176Z"/><path d="M266.67,512h-144C37.93,512,0,439.66,0,368,0,268.42,66,142.36,141.23,98.22l16.21,27.58C91.8,164.31,32,279.77,32,368c0,51.67,23.74,112,90.67,112h144c77,0,85.33-78.34,85.33-112,0-34.83-9.95-76.73-27.57-116.9a16,16,0,0,1,7.64-20.77h0a16,16,0,0,1,21.7,8C373.08,282.46,384,328.94,384,368c0,88.81-44.95,144-117.33,144Z"/></svg>