<svg id="illustration" xmlns="http://www.w3.org/2000/svg" viewBox="0 0 1200 800"><title>artwork</title><rect x="388.78" y="144.24" width="555.12" height="431.95" fill="#fff"/><path d="M943.9,576.19c0-3.23-.16-171.21-.39-431.95l.39.39-555.07.08h-.05l.47-.47c0,155.7,0,303-.05,432l-.42-.42,555.12.42-555.12.42h-.42v-.42c0-129,0-276.25-.05-431.95v-.47h.52l555.07.08h.39v.39C944.05,405,943.9,573,943.9,576.19Z" fill="#263238"/><path d="M541.42,539.91c-.26,0-.47-46.95-.47-104.86s.21-104.87.47-104.87.47,46.94.47,104.87S541.68,539.91,541.42,539.91Z" fill="#263238"/><path d="M782.33,539.91c-.26,0-.47-46.95-.47-104.86s.21-104.87.47-104.87.47,46.94.47,104.87S782.59,539.91,782.33,539.91Z" fill="#263238"/><path d="M623.66,539.91c-.26,0-.47-60-.47-134s.21-134.07.47-134.07.47,60,.47,134.07S623.92,539.91,623.66,539.91Z" fill="#263238"/><path d="M457,539.91c-.26,0-.47-60-.47-134s.21-134.07.47-134.07.47,60,.47,134.07S457.21,539.91,457,539.91Z" fill="#263238"/><path d="M876.89,539.91c-.26,0-.47-60-.47-134s.21-134.07.47-134.07.47,60,.47,134.07S877.15,539.91,876.89,539.91Z" fill="#263238"/><path d="M695.78,539.91c-.26,0-.47-69.31-.47-154.78s.21-154.8.47-154.8.47,69.29.47,154.8S696,539.91,695.78,539.91Z" fill="#263238"/><path d="M543.39,330.18a2,2,0,1,1-2-2A2,2,0,0,1,543.39,330.18Z" fill="#263238"/><circle cx="623.66" cy="271.79" r="1.97" fill="#263238"/><path d="M623.66,278.69a6.9,6.9,0,1,1,6.9-6.9A6.91,6.91,0,0,1,623.66,278.69Zm0-13.35a6.45,6.45,0,1,0,6.45,6.45A6.46,6.46,0,0,0,623.66,265.34Z" fill="#263238"/><circle cx="695.78" cy="230.33" r="1.97" fill="#263238"/><circle cx="782.33" cy="332.15" r="1.97" fill="#263238"/><circle cx="876.93" cy="271.79" r="1.97" fill="#263238"/><path d="M458.92,273.76a2,2,0,1,1-2-2A2,2,0,0,1,458.92,273.76Z" fill="#263238"/><path d="M895.51,366.68a6.51,6.51,0,0,1-1.54.5,35.08,35.08,0,0,0-4.47,1.53c-3.81,1.63-9,5-14.33,10.88s-10.74,13.91-17.49,23a112.54,112.54,0,0,1-11.88,13.79,66.13,66.13,0,0,1-7.72,6.38,53.8,53.8,0,0,1-9.29,5.08,52.36,52.36,0,0,1-22.26,3.74,60,60,0,0,1-12-1.5A31.14,31.14,0,0,1,783,425a37.46,37.46,0,0,1-9.05-9.44c-2.5-3.61-4.74-7.44-6.91-11.33-4.32-7.82-8.81-15.69-13.92-23.59s-9.65-16.45-14.84-24.76-10.9-16.53-18.18-23.45a52.83,52.83,0,0,0-12.21-8.74,40.48,40.48,0,0,0-14.51-4.25,51.77,51.77,0,0,0-15.43.87,52.53,52.53,0,0,0-14.65,5.56c-9.22,5.24-16.69,13-22.9,21.36S629,364.63,624,373.54a270.18,270.18,0,0,1-15.85,25.75c-5.77,8-12,15.6-19.2,21.88a71.15,71.15,0,0,1-5.57,4.43,65,65,0,0,1-5.9,3.86,51.59,51.59,0,0,1-12.79,5.26A41.45,41.45,0,0,1,558,436a22.15,22.15,0,0,1-3.35.2c-1.12,0-2.24.09-3.34,0a50.74,50.74,0,0,1-12.81-2.37c-8.14-2.66-15.2-6.94-21.65-11.31s-12.31-9-18.06-13.15A96.23,96.23,0,0,0,481.65,399a56.86,56.86,0,0,0-17.07-4.85,42.07,42.07,0,0,0-15.34,1,26.82,26.82,0,0,0-3.32,1.07,21.26,21.26,0,0,0-3.1,1.22,39.77,39.77,0,0,0-5.42,3,57.72,57.72,0,0,0-8.15,6.52l-2.83,3.11a24.22,24.22,0,0,0-2.28,2.64l-2.87,3.78a6.71,6.71,0,0,1-1.06,1.24,7.36,7.36,0,0,1,.82-1.4l2.66-4a24.08,24.08,0,0,1,2.19-2.75l2.77-3.24a56.73,56.73,0,0,1,8.15-6.85,40.09,40.09,0,0,1,5.51-3.2,20.45,20.45,0,0,1,3.17-1.31,26.3,26.3,0,0,1,3.41-1.17,43.28,43.28,0,0,1,15.85-1.26,57.92,57.92,0,0,1,17.63,4.78A97.18,97.18,0,0,1,500,407.74c5.83,4.12,11.73,8.65,18.12,13s13.33,8.39,21.14,10.88a48.65,48.65,0,0,0,12.2,2.19c1,0,2.1,0,3.16-.06a21.09,21.09,0,0,0,3.17-.2,40.49,40.49,0,0,0,6.32-1.21c8.43-2.13,16.23-7,23.18-13.1A124.83,124.83,0,0,0,606,397.73a268.22,268.22,0,0,0,15.64-25.54c5-8.93,10.14-18.08,16.53-26.65s14-16.61,23.76-22.13a53.81,53.81,0,0,1,31.76-6.77,43.22,43.22,0,0,1,15.48,4.55A55.74,55.74,0,0,1,722,330.41c7.56,7.22,13.34,15.67,18.57,24s9.83,16.86,14.76,24.8,9.63,16,13.88,23.76,8.55,15.4,15.15,20.08a29,29,0,0,0,10.77,4.81,58.8,58.8,0,0,0,11.52,1.52A50.51,50.51,0,0,0,828,426a51.29,51.29,0,0,0,9-4.8,64.5,64.5,0,0,0,7.55-6.11,111.23,111.23,0,0,0,11.86-13.45c6.82-8.94,12.37-17,17.94-22.79s11-9.18,14.92-10.66a25.86,25.86,0,0,1,4.62-1.29A7,7,0,0,1,895.51,366.68Z" fill="#1f3d73"/><rect x="454.98" y="192.73" width="96.79" height="5.39" rx="2.69" fill="#263238"/><rect x="454.98" y="205.33" width="47.83" height="5.39" rx="2.69" fill="#263238"/><path d="M396.25,109h539.5a8.14,8.14,0,0,1,8.14,8.14v27.1a0,0,0,0,1,0,0H388.12a0,0,0,0,1,0,0v-27.1A8.14,8.14,0,0,1,396.25,109Z" fill="#4380b4"/><path d="M416.92,127.3a3.79,3.79,0,1,1-3.79-3.79A3.79,3.79,0,0,1,416.92,127.3Z" fill="#fff"/><path d="M433.47,127.3a3.79,3.79,0,1,1-3.79-3.79A3.79,3.79,0,0,1,433.47,127.3Z" fill="#fff"/><path d="M450,127.3a3.79,3.79,0,1,1-3.79-3.79A3.79,3.79,0,0,1,450,127.3Z" fill="#fff"/><path d="M504,161.6a1.25,1.25,0,0,1,1.7.68q2,4.59,4,9.2c1.34-3.09,2.66-6.19,4-9.27a1.14,1.14,0,0,1,1.38-.69,1.24,1.24,0,0,1,.8,1q1.63,6.09,3.28,12.16h-2.24c-.83-3.05-1.65-6.11-2.48-9.17l-3.61,8.37a1.62,1.62,0,0,1-.89,1h-.62a1.39,1.39,0,0,1-.85-.84l-3.65-8.49c-.83,3.06-1.65,6.12-2.48,9.17h-2.19v-.09c1.08-4,2.18-8,3.26-12.06A1.34,1.34,0,0,1,504,161.6Z" fill="#4380b4"/><path d="M558.17,162a1.13,1.13,0,0,1,2,0c2.54,4.21,5,8.44,7.57,12.66H565L563,171.41h-6.12l1.06-1.85h4l-2.88-4.88q-2.94,5-5.87,10h-2.58C553.13,170.47,555.63,166.23,558.17,162Z" fill="#4380b4"/><path d="M520.77,161.64H523v13.05h-2.26Z" fill="#4380b4"/><path d="M526.59,162.39a4.45,4.45,0,0,1,2.65-.75h9.25v2.28h-9.25a1.71,1.71,0,0,0-1.28.45,1.85,1.85,0,0,0-.3,1.79,1.44,1.44,0,0,0,1.43.93c2.12,0,4.25,0,6.38,0a3.79,3.79,0,0,1,2.93,1.25,4.34,4.34,0,0,1,.69,3,3.44,3.44,0,0,1-1.66,2.75,4.78,4.78,0,0,1-2.43.54h-9.59v-2.28H535a2.16,2.16,0,0,0,1.4-.38,1.86,1.86,0,0,0,.38-2.23,1.8,1.8,0,0,0-1.64-.78c-2,0-4,0-6.07,0a3.86,3.86,0,0,1-3.3-1.65A3.82,3.82,0,0,1,526.59,162.39Z" fill="#4380b4"/><path d="M540.33,161.64h12.08v2.28H547.5v10.77h-2.26V163.92h-4.91Z" fill="#4380b4"/><path d="M569.11,161.64h9.37a4.6,4.6,0,0,1,3.58,1.52,5.54,5.54,0,0,1,.88,4.66,4.07,4.07,0,0,1-2.51,2.91l3.89,4h-3.2c-1.09-1.2-2.18-2.42-3.28-3.62H573q0-1,0-2h5.47a2.22,2.22,0,0,0,2-1.06,3.68,3.68,0,0,0,.17-2.69,2.21,2.21,0,0,0-2.22-1.38h-7.13v10.77h-2.24Z" fill="#4380b4"/><path d="M448.13,153.54a4.82,4.82,0,0,1,6.54,0c1.86,1.87,3.75,3.72,5.58,5.61-.72.73-1.46,1.44-2.17,2.18-.35.26.18.83.46.48.75-.71,1.46-1.45,2.2-2.17l1.23,1.24c-1.32,1.31-2.65,2.62-4,3.94a.35.35,0,0,0,.1.6c.23.09.39-.14.54-.27l3.8-3.78,1.23,1.24c-.73.75-1.5,1.46-2.22,2.23-.23.26.2.69.46.46.77-.71,1.49-1.48,2.25-2.21l1.23,1.24c-1.31,1.32-2.64,2.62-3.95,3.93a.35.35,0,0,0,.09.61c.23.09.4-.14.55-.27l3.79-3.78c.42.41.83.83,1.24,1.24-.74.74-1.5,1.46-2.22,2.22-.24.26.19.71.46.47.77-.71,1.49-1.47,2.24-2.2l1.23,1.23c-1.33,1.35-2.7,2.66-4,4-.3.34.31.76.55.4l4-3.93,5.31,5.35a6.12,6.12,0,1,1-8.72,8.58l-14.52-14.6-4.28-4.31a6.25,6.25,0,0,0-6.46-1.33,13.52,13.52,0,0,0-1.95,1C441.82,159.83,445,156.69,448.13,153.54Z" fill="#4380b4"/><path d="M467,153.57a4.77,4.77,0,0,1,5.52-.72,5.65,5.65,0,0,1,1.47,1.2l19.41,19.53A6.12,6.12,0,0,1,488.62,184a6.06,6.06,0,0,1-3.89-1.81l-23.16-23.29C463.37,157.15,465.17,155.35,467,153.57Z" fill="#83b450"/><path d="M440.65,162a6.25,6.25,0,0,1,6.46,1.33l4.28,4.31L437.58,181.5A12,12,0,0,1,436,183a6.12,6.12,0,0,1-7.88-9.28c3.53-3.57,7.09-7.12,10.62-10.69A13.52,13.52,0,0,1,440.65,162Z" fill="#1f3d73"/><rect x="174.71" y="398.42" width="227.94" height="63.91" rx="5.83" fill="#e7e7e7"/><path d="M222.75,441a13.89,13.89,0,1,1-2.14-19.52A13.88,13.88,0,0,1,222.75,441Z" fill="#fff"/><path d="M219.73,427.63c.18.19-3.19,3.76-7.52,8l-1.83,1.77-.33.31-.32-.32c-3.38-3.45-5.78-6.11-5.62-6.26s2.82,2.24,6.27,5.62h-.64l1.81-1.79C215.89,430.72,219.54,427.44,219.73,427.63Z" fill="#263238"/><path d="M380.4,425.69c0,.26-29,.47-64.71.47S251,426,251,425.69s29-.47,64.71-.47S380.4,425.43,380.4,425.69Z" fill="#263238"/><path d="M327.32,438.33c0,.26-16.75.47-37.41.47s-37.42-.21-37.42-.47,16.75-.47,37.42-.47S327.32,438.07,327.32,438.33Z" fill="#263238"/><rect x="241.99" y="244.44" width="224.72" height="93.32" rx="4.72" fill="#e1e1e1"/><path d="M288.68,273.93a10.48,10.48,0,1,1-10.48-10.47A10.48,10.48,0,0,1,288.68,273.93Z" fill="#4380b4"/><rect x="299.15" y="266.7" width="73" height="4.05" rx="2.03" fill="#4380b4"/><rect x="299.15" y="275.91" width="142" height="4.05" rx="2.03" fill="#fff"/><path d="M288.68,306.14a10.48,10.48,0,1,1-10.48-10.48A10.48,10.48,0,0,1,288.68,306.14Z" fill="#4380b4"/><rect x="299.15" y="298.9" width="37.28" height="4.05" rx="2.03" fill="#4380b4"/><rect x="299.15" y="308.11" width="142" height="4.05" rx="2.03" fill="#fff"/><rect x="199.7" y="489.86" width="289.94" height="123.24" rx="7.15" fill="#e1e1e1"/><path d="M252.74,549.42l-.16-25a31.91,31.91,0,0,0-20.62,8A29.55,29.55,0,0,0,222,558.35c.13,1.19.32,2.4.58,3.63,0,0,0,.06,0,.09h0l30.12-6.78Z" fill="#83b450"/><path d="M283.78,541.72a29.66,29.66,0,0,0-24.31-17l-1-.08-.61,0c-.59,0-1.2-.05-1.81-.05h-.16l.16,25,0,5.87L286.27,562h0a29.92,29.92,0,0,0,.67-6.49A32.35,32.35,0,0,0,283.78,541.72Z" fill="#4380b4"/><path d="M254.36,558.41l-30.13,6.78a30.88,30.88,0,0,0,60.29-.2l-30.13-6.58" fill="#1f3d73"/><rect x="307.15" y="531.9" width="153.03" height="6.93" fill="#fff"/><rect x="307.15" y="550.17" width="153.03" height="6.93" fill="#fff"/><rect x="307.15" y="570.38" width="82.71" height="6.93" fill="#fff"/><rect x="619.56" y="402.48" width="302.32" height="291.08" rx="15.19" fill="#e7e7e7"/><rect x="640.69" y="601.88" width="9.92" height="2.86" fill="#263238"/><rect x="663.14" y="617.17" width="12.69" height="2.86" fill="#263238"/><rect x="707.31" y="617.17" width="12.69" height="2.86" fill="#263238"/><rect x="751.48" y="617.17" width="12.69" height="2.86" fill="#263238"/><rect x="795.65" y="617.17" width="12.69" height="2.86" fill="#263238"/><rect x="839.82" y="617.17" width="12.69" height="2.86" fill="#263238"/><rect x="883.99" y="617.17" width="12.69" height="2.86" fill="#263238"/><rect x="640.69" y="563.69" width="9.92" height="2.86" fill="#263238"/><rect x="640.69" y="491.82" width="9.92" height="2.86" fill="#263238"/><rect x="640.69" y="455.71" width="9.92" height="2.86" fill="#263238"/><rect x="641.19" y="527.76" width="9.92" height="2.86" fill="#263238"/><path d="M896.32,604.74s-.36,0-1.06,0l-3.12.05-12,.08-44.15.15-145.67.14h-35v-.46c.07-48.71.12-91.58.16-122.3.06-15.33.11-27.62.14-36.12,0-4.21.06-7.47.08-9.72,0-1.08,0-1.92,0-2.52s0-.85,0-.85,0,.28,0,.85,0,1.44,0,2.52c0,2.25,0,5.51.08,9.72,0,8.5.08,20.79.14,36.12,0,30.72.1,73.59.16,122.3l-.46-.46h34.52l145.67.14,44.15.15,12,.09,3.12,0C896,604.71,896.32,604.74,896.32,604.74Z" fill="#263238"/><path d="M899.12,529.19c0,.26-52.33.47-116.86.47s-116.88-.21-116.88-.47,52.32-.47,116.88-.47S899.12,528.93,899.12,529.19Z" fill="#263238"/><path d="M899.12,493.25c0,.26-52.33.47-116.86.47s-116.88-.21-116.88-.47,52.32-.47,116.88-.47S899.12,493,899.12,493.25Z" fill="#263238"/><path d="M899.12,457.13c0,.26-52.33.48-116.86.48s-116.88-.22-116.88-.48,52.32-.47,116.88-.47S899.12,456.88,899.12,457.13Z" fill="#263238"/><path d="M899.12,565.12c0,.26-52.33.47-116.86.47s-116.88-.21-116.88-.47,52.32-.47,116.88-.47S899.12,564.86,899.12,565.12Z" fill="#263238"/><path d="M667.79,597V565.12l19.88-30.85,13.48,10.35,27.68-43,16.32,11.49,22.71-39.66,18.46,15L814,435.88l29.8,58.8,24.14-29.42,28.38-8.12V597Z" fill="#4380b4"/><path d="M716.89,524a2.25,2.25,0,1,1-2.25-2.16A2.21,2.21,0,0,1,716.89,524Z" fill="#263238"/><path d="M784.3,485.67a2.24,2.24,0,1,1-2.24-2.15A2.19,2.19,0,0,1,784.3,485.67Z" fill="#263238"/><path d="M836.71,476.26a2.25,2.25,0,1,1-2.24-2.16A2.21,2.21,0,0,1,836.71,476.26Z" fill="#263238"/><ellipse cx="677.64" cy="655.37" rx="14.5" ry="13.96" fill="#fff"/><rect x="713.65" y="646.02" width="170.34" height="5.23" rx="2.61" fill="#fff"/><rect x="713.65" y="659.07" width="70.73" height="5.23" rx="2.61" fill="#fff"/><rect x="824.56" y="176.39" width="200.73" height="166.48" rx="8.92" fill="#e7e7e7"/><rect x="859.59" y="243.05" width="10.82" height="81.69" fill="#83b450"/><rect x="908.77" y="236.42" width="10.82" height="88.32" fill="#83b450"/><rect x="959.71" y="225.2" width="10.82" height="99.53" fill="#83b450"/><rect x="935.79" y="284.96" width="10.82" height="39.78" fill="#1f3d73"/><rect x="872.21" y="234.29" width="10.82" height="90.44" fill="#4380b4"/><rect x="922.27" y="215.35" width="10.82" height="109.39" fill="#4380b4"/><rect x="987.62" y="215.35" width="10.82" height="109.39" fill="#1f3d73"/><rect x="973.5" y="193.74" width="10.82" height="130.99" fill="#4380b4"/><rect x="885.44" y="267.33" width="10.82" height="57.4" fill="#1f3d73"/><path d="M1013.92,329.69c0,.26-38.61.47-86.22.47s-86.24-.21-86.24-.47,38.6-.47,86.24-.47S1013.92,329.43,1013.92,329.69Z" fill="#263238"/><rect x="836.45" y="310.2" width="6.6" height="2.18" fill="#263238"/><rect x="836.45" y="281.13" width="6.6" height="2.18" fill="#263238"/><rect x="836.45" y="226.42" width="6.6" height="2.18" fill="#263238"/><rect x="836.45" y="198.93" width="6.6" height="2.18" fill="#263238"/><rect x="836.78" y="253.78" width="6.6" height="2.18" fill="#263238"/><rect x="605.02" y="157.89" width="205.89" height="57.73" rx="5.83" fill="#4380b4"/><path d="M648.42,196.38a12.55,12.55,0,1,1-1.94-17.63A12.54,12.54,0,0,1,648.42,196.38Z" fill="#fff"/><path d="M645.68,184.28c.18.18-2.84,3.43-6.75,7.24l-1.66,1.6-.33.32-.32-.32c-3-3.12-5.2-5.54-5-5.7s2.57,2,5.69,5.05h-.64l1.64-1.62C642.18,187,645.5,184.09,645.68,184.28Z" fill="#4380b4"/><path d="M790.81,182.53c0,.26-26.17.47-58.45.47s-58.45-.21-58.45-.47,26.16-.47,58.45-.47S790.81,182.27,790.81,182.53Z" fill="#fff"/><path d="M742.86,193.94c0,.26-15.13.47-33.79.47s-33.79-.21-33.79-.47,15.13-.47,33.79-.47S742.86,193.68,742.86,193.94Z" fill="#fff"/><path d="M348.26,753.31l-.46-18.95-35.5.63.38,27.73,2.2.1c9.81.37,49.89,1.19,56.4-.91C378.55,759.57,348.26,753.31,348.26,753.31Z" fill="#1f3d73"/><path d="M325.39,762.27a12.24,12.24,0,0,0-4.66-7.49,12,12,0,0,0-8.35-2.44l.17,9.93Z" fill="#263238"/><path d="M363.07,756.89s10.62,2.86,9.34,4.63-41.83,2.46-59.73,1.2l0-.79,47.29-.41S361,757,363.07,756.89Z" fill="#263238"/><path d="M312.16,761.92a2.69,2.69,0,0,1,.62,0h1.75l6.46,0c5.45,0,13,0,21.3-.12s15.85-.38,21.3-.58L370,761l1.75-.05a2.65,2.65,0,0,1,.62,0,3.73,3.73,0,0,1-.61.07l-1.75.14-6.45.37c-5.45.29-13,.57-21.3.71s-15.86.1-21.31,0l-6.46-.16-1.76-.08A4.19,4.19,0,0,1,312.16,761.92Z" fill="#4380b4"/><path d="M360,762.07a4.75,4.75,0,0,1,.78-3.32,4.81,4.81,0,0,1,2.53-2.29,14.33,14.33,0,0,0-2.16,2.51A14,14,0,0,0,360,762.07Z" fill="#4380b4"/><path d="M349.44,756.94c-.1-.07.23-.78.73-1.61s1-1.44,1.1-1.38-.23.78-.73,1.61S349.54,757,349.44,756.94Z" fill="#4380b4"/><path d="M346.54,755.47c-.08-.09.34-.62.94-1.18s1.16-.94,1.24-.85-.34.61-.94,1.17S346.62,755.55,346.54,755.47Z" fill="#4380b4"/><path d="M344.67,752.15a4.19,4.19,0,0,1,1.85-.23,4.34,4.34,0,0,1,1.86.2,4.22,4.22,0,0,1-1.86.23A4.28,4.28,0,0,1,344.67,752.15Z" fill="#4380b4"/><path d="M344,749.79a11.73,11.73,0,0,1,2.1.14,11.52,11.52,0,0,1,2.11.11,3.67,3.67,0,0,1-2.13.32A3.57,3.57,0,0,1,344,749.79Z" fill="#4380b4"/><path d="M350.59,753.82c0-.07.87-.09,2.23-.35a15.79,15.79,0,0,0,2.34-.66,6.32,6.32,0,0,0,1.27-.57c.4-.24.54-.67.17-.93a3.52,3.52,0,0,0-2.72-.14,4.15,4.15,0,0,0-1.93,1.3,6.21,6.21,0,0,0-1,2s0-.22,0-.62a4.24,4.24,0,0,1,.72-1.53,4.18,4.18,0,0,1,5.16-1.31.91.91,0,0,1,.36.9,1.23,1.23,0,0,1-.56.72,6.28,6.28,0,0,1-1.38.6,13.5,13.5,0,0,1-2.42.58A6.58,6.58,0,0,1,350.59,753.82Z" fill="#4380b4"/><path d="M351.19,753.92a9.3,9.3,0,0,0-.07-1.54,3.68,3.68,0,0,0-.67-1.47c-.36-.45-.95-1-1.52-.94s-.34,1,0,1.45a7.37,7.37,0,0,0,1,1.35c.64.72,1.14,1.06,1.1,1.12a3.47,3.47,0,0,1-1.32-.9,7.06,7.06,0,0,1-1.1-1.37,2.36,2.36,0,0,1-.4-1,.9.9,0,0,1,.68-1.06,2.28,2.28,0,0,1,1.92,1.13,3.71,3.71,0,0,1,.65,1.65A2.23,2.23,0,0,1,351.19,753.92Z" fill="#4380b4"/><path d="M312.72,752.19a1.94,1.94,0,0,1,.7-.17,9.08,9.08,0,0,1,1.95-.09,10.82,10.82,0,0,1,9.69,7.46,10.07,10.07,0,0,1,.42,1.91,2.44,2.44,0,0,1,0,.71c-.08,0-.15-1-.72-2.52a11.11,11.11,0,0,0-9.43-7.25C313.74,752.08,312.73,752.27,312.72,752.19Z" fill="#4380b4"/><path d="M316.15,737.35a60.91,60.91,0,0,1,.24,7.3,61.77,61.77,0,0,1-.18,7.3,62.06,62.06,0,0,1-.25-7.3A62.82,62.82,0,0,1,316.15,737.35Z" fill="#4380b4"/><path d="M330,758.68c0-.13,2.33,0,5.19,0s5.18-.2,5.19-.07a20.52,20.52,0,0,1-5.19.5A20.21,20.21,0,0,1,330,758.68Z" fill="#4380b4"/><path d="M323,758.79c.07-.09.54.22.83.83s.23,1.17.11,1.17-.25-.46-.5-1S322.91,758.87,323,758.79Z" fill="#4380b4"/><path d="M320.32,755.57c.08-.09.45.14.82.51s.61.73.53.81-.45-.14-.83-.51S320.23,755.65,320.32,755.57Z" fill="#4380b4"/><path d="M316.54,754.14c0-.11.5-.34,1.15-.13s1,.71.87.78-.47-.2-1-.37S316.57,754.26,316.54,754.14Z" fill="#4380b4"/><path d="M313.86,753.48c0-.11.31-.11.61,0s.5.29.46.4-.32.11-.61,0S313.81,753.59,313.86,753.48Z" fill="#4380b4"/><path d="M472.61,221.64s30.3-31.3,33.05-29.9-11.11,14.12-9.27,15.77,16.43,12.76-7.07,30.35Z" fill="#f4bbac"/><path d="M498.69,212.57a4.15,4.15,0,0,1-.49.92l-1.46,2.43-2.22,3.56a5.2,5.2,0,0,1-1.78,1.84,2.27,2.27,0,0,1-2.72-.39,2.43,2.43,0,0,1,.18-2.73c.46-.76.91-1.43,1.34-2.1l2.3-3.52,1.58-2.35a4.81,4.81,0,0,1,.63-.83,4.42,4.42,0,0,1-.49.92c-.47.79-1,1.59-1.46,2.42l-2.22,3.57-1.31,2.09c-.41.7-.73,1.62-.21,2.26a1.85,1.85,0,0,0,2.18.28,4.88,4.88,0,0,0,1.65-1.67l2.29-3.52c.55-.81,1.07-1.58,1.58-2.35A5.41,5.41,0,0,1,498.69,212.57Z" fill="#ef8876"/><path d="M500.23,216a2.65,2.65,0,0,1-.11.9,12.54,12.54,0,0,1-.78,2.33,13.43,13.43,0,0,1-1.95,3.08,5.59,5.59,0,0,1-1.67,1.43,1.91,1.91,0,0,1-2.37-.22,2.36,2.36,0,0,1-.31-2.38,8.77,8.77,0,0,1,1.14-1.86c.78-1.11,1.4-2.16,1.95-3s1-1.58,1.34-2a3.13,3.13,0,0,1,.57-.69,3.85,3.85,0,0,1-.43.78l-1.22,2.1c-.51.89-1.11,2-1.88,3.1a8.5,8.5,0,0,0-1.07,1.78,1.94,1.94,0,0,0,.23,1.95,1.5,1.5,0,0,0,1.86.13,5.08,5.08,0,0,0,1.56-1.31,14.35,14.35,0,0,0,2-3A27,27,0,0,0,500.23,216Z" fill="#ef8876"/><path d="M482,215.19l11.09-.75a1.76,1.76,0,0,1,.61,0c.59.21.68,1,.55,1.63a6.18,6.18,0,0,1-3.86,4,18.35,18.35,0,0,1-5.71,1l-5.32.32" fill="#f4bbac"/><path d="M479.34,221.45a7,7,0,0,1,1.19-.16l3.27-.26a37.71,37.71,0,0,0,4.79-.54,7.44,7.44,0,0,0,4.79-3c.52-.81.95-1.93.5-2.64-.21-.33-.69-.23-1.18-.21l-1.4.09-4.85.28-3.27.15a6.17,6.17,0,0,1-1.2,0,7,7,0,0,1,1.19-.16l3.26-.29,4.84-.37,1.4-.11c.25,0,.47,0,.75,0a1,1,0,0,1,.8.4,2,2,0,0,1,.18,1.64,5,5,0,0,1-.66,1.49,7.73,7.73,0,0,1-5.07,3.11,32,32,0,0,1-4.85.46l-3.28.13A6.56,6.56,0,0,1,479.34,221.45Z" fill="#ef8876"/><path d="M502.11,219.06a3.32,3.32,0,0,1-.26.66c-.16.42-.35,1.05-.56,1.84a9.67,9.67,0,0,1-1,2.71,3.72,3.72,0,0,1-1.23,1.27,1.49,1.49,0,0,1-1,.24,1.3,1.3,0,0,1-.89-.6,2.17,2.17,0,0,1-.12-1.93c.21-.58.46-1.07.68-1.57l1.18-2.61a16.85,16.85,0,0,1,1.2-2.36,15,15,0,0,1-.92,2.48l-1.1,2.65c-.35,1-1.17,2.14-.56,3.11a.89.89,0,0,0,1.3.23,3.52,3.52,0,0,0,1.12-1.12,10.78,10.78,0,0,0,1.08-2.59A6,6,0,0,1,502.11,219.06Z" fill="#ef8876"/><path d="M488.06,230.32c-.13,0,.46-2.1.61-4.72s-.14-4.74,0-4.76a12.28,12.28,0,0,1,.44,4.79A12.13,12.13,0,0,1,488.06,230.32Z" fill="#ef8876"/><path d="M344,211.21a23.6,23.6,0,0,0,11.24,20.07,50,50,0,0,1,5.56,3.31,7,7,0,0,1,3,5.48c-.14,3.37-3.55,5.52-6.56,7.06a8.36,8.36,0,1,1-12.05,11.57C345,265,340,270.64,333.88,272.37s-12.83,0-18-3.69-8.85-9.1-11.45-14.87" fill="#263238"/><path d="M328.67,270.28c-.55-3.19.75-16.62.75-16.62s12.26-1.3,13-13.45,0-40.18,0-40.18L320.1,189.11l-24.56,18.61,3.72,60.77Z" fill="#f4bbac"/><path d="M340,220.46a1.56,1.56,0,0,1-3.11,0,1.56,1.56,0,1,1,3.11,0Z" fill="#263238"/><path d="M341.49,218.76c-.2.2-1.35-.77-3-.86s-2.93.71-3.1.49.12-.47.67-.85a4.14,4.14,0,0,1,4.89.3C341.42,218.28,341.59,218.67,341.49,218.76Z" fill="#263238"/><path d="M322,220.46a1.56,1.56,0,1,1-1.56-1.56A1.55,1.55,0,0,1,322,220.46Z" fill="#263238"/><path d="M322.92,218.76c-.2.2-1.35-.77-3-.86s-2.93.71-3.11.49.12-.47.67-.85a4.16,4.16,0,0,1,4.9.3C322.86,218.28,323,218.67,322.92,218.76Z" fill="#263238"/><path d="M329,232.8a11.55,11.55,0,0,1,2.73-.33c.42,0,.86-.07,1-.39a2.28,2.28,0,0,0-.23-1.34c-.38-1.14-.75-2.27-1.15-3.45-.79-2.46-1.48-4.69-1.95-6.32a11.7,11.7,0,0,1-.63-2.67,11.09,11.09,0,0,1,1.07,2.53c.57,1.59,1.33,3.8,2.13,6.26.37,1.18.73,2.32,1.1,3.46a2.62,2.62,0,0,1,.15,1.74c-.33.69-1.07.63-1.43.64A11.87,11.87,0,0,1,329,232.8Z" fill="#263238"/><path d="M323.43,234.49c-1.69-1.12,4.68,2.79,8.1,2.79a4.64,4.64,0,0,1-5.55,1.58C322.4,237.35,323.43,234.49,323.43,234.49Z" fill="#fff"/><path d="M329.42,253.66a30.35,30.35,0,0,1-16.1-5.44s3.65,8.93,15.84,8.42Z" fill="#ef8876"/><path d="M337.3,191.1c-12.05-12.52-20.32-9.92-25-9.92-3.36,0-17.05,2.74-26.33,15.22h0c-3.37,3.5-8.16,14.88-8.71,18.9s.14,8.11.11,12.16-1,8.43-4,11.13c-1.92,1.7-4.62,2.68-5.78,5-1.35,2.68.17,6.13,2.67,7.79s5.68,1.91,8.68,1.78a12.26,12.26,0,0,0,9.91,13.05,11.82,11.82,0,0,0,8.71-2.29,66.71,66.71,0,0,0,6.47,5.57q.75-26.53-1.12-53c8.11-1.44,22.66-5.81,25.19-18.81,3.24,7.4,8.16,11.43,14.69,17C342.75,214.64,349.35,203.62,337.3,191.1Z" fill="#263238"/><path d="M303.77,211.71c0-.16,1.92-.15,5,0s7.34.44,11.53-1.34a10.84,10.84,0,0,0,4.81-3.91,13.42,13.42,0,0,0,1.93-4.78c.56-2.95.28-4.87.48-4.88s.66,1.87.27,5a13.24,13.24,0,0,1-1.85,5.21,11.42,11.42,0,0,1-5.21,4.34c-4.54,1.92-9,1.42-12,1.12S303.76,211.85,303.77,211.71Z" fill="#263238"/><path d="M272.12,241.47a7.39,7.39,0,0,0,2-.29,5.36,5.36,0,0,0,3.3-3.94c.52-2.24-.22-5-1.48-7.86a32,32,0,0,1-1.73-4.74,16.33,16.33,0,0,1-.34-5.47,22.43,22.43,0,0,1,3.63-9.79,37.61,37.61,0,0,1,5.49-6.47c1.73-1.66,3.23-2.9,4.27-3.75a7.09,7.09,0,0,1,1.7-1.21c.12.13-2.11,2.1-5.44,5.5a41.44,41.44,0,0,0-5.19,6.47,22.36,22.36,0,0,0-3.39,9.36,15.56,15.56,0,0,0,.3,5.12,33.26,33.26,0,0,0,1.61,4.6c1.23,2.9,2,5.94,1.31,8.42a5.7,5.7,0,0,1-3.91,4.16,3.43,3.43,0,0,1-1.59.08C272.28,241.59,272.11,241.5,272.12,241.47Z" fill="#263238"/><path d="M360.4,224.1c.05,0,.4.45.39,1.46a4.59,4.59,0,0,1-2.08,3.56,6.24,6.24,0,0,1-6.09.08,12.92,12.92,0,0,1-5.14-5.38,32.93,32.93,0,0,1-4.26-12.56c-.42-3.39-.2-5.49-.08-5.49s.23,2.09.83,5.37a37.14,37.14,0,0,0,4.43,12.14,12.55,12.55,0,0,0,4.66,5,5.54,5.54,0,0,0,5.25.16,4.33,4.33,0,0,0,2.06-2.95C360.51,224.63,360.31,224.12,360.4,224.1Z" fill="#263238"/><path d="M341.6,415.24S383,549.67,380.41,593.09,347.47,744.3,347.47,744.3Z" fill="#263238"/><path d="M283.11,392.35c-.92-.25-19.08,26.43-19.69,49.38a56.9,56.9,0,0,0,.26,6.74,84,84,0,0,0,5.71,23.4c15.36,38.78,31.2,84.77,31.46,95.24.8,32.28,7.1,180.66,7.1,180.66l44.64-3.15-1.47-177.5L340.24,390.88Z" fill="#263238"/><path d="M307.49,391.58c.28-.07.39,5,.39,13.95s-.42,22.05.17,38.13c.18,4,.31,8.24.67,12.62s.69,8.93,1.16,13.64c1,9.41,2.33,19.44,4,29.95s3.57,21.52,5.18,33,2.88,23.42,3.54,35.69.58,24.29.8,35.87.44,22.76.75,33.4c.63,21.29,1.38,40.45,2,56.54s1.07,29.06,1.4,38.11c.14,4.46.25,7.94.32,10.37s.08,3.61.08,3.61c-.12-2.91-.83-20.5-2.1-52.08-.66-16.09-1.44-35.25-2.09-56.54-.32-10.64-.6-21.81-.78-33.4s-.07-23.59-.81-35.85-1.92-24.19-3.53-35.66-3.49-22.48-5.15-33-3-20.55-4-30c-.47-4.72-.88-9.27-1.14-13.66s-.47-8.6-.64-12.63c-.56-16.1,0-29.13,0-38.14,0-4.5,0-8,0-10.37A14.58,14.58,0,0,0,307.49,391.58Z" fill="#455a64"/><rect x="307.71" y="741.38" width="44.87" height="6.76" fill="#455a64"/><path d="M310.53,392.94c-.12,0-.23-.45-.24-1s.06-1,.18-1,.23.46.25,1S310.65,392.94,310.53,392.94Z" fill="#455a64"/><path d="M310.65,397.07c-.12,0-.23-.45-.24-1s.06-1,.18-1,.23.45.25,1S310.77,397.07,310.65,397.07Z" fill="#455a64"/><path d="M310.77,401.2c-.12,0-.23-.45-.24-1s.06-1,.18-1,.23.45.25,1S310.89,401.2,310.77,401.2Z" fill="#455a64"/><path d="M310.89,405.33c-.12,0-.23-.45-.24-1s.06-1,.18-1,.23.45.25,1S311,405.33,310.89,405.33Z" fill="#455a64"/><path d="M311,409.46c-.12,0-.23-.45-.24-1s.06-1,.18-1,.23.45.25,1S311.13,409.46,311,409.46Z" fill="#455a64"/><path d="M311.13,413.59c-.11,0-.22-.45-.24-1s.07-1,.18-1,.23.45.25,1S311.25,413.59,311.13,413.59Z" fill="#455a64"/><path d="M311.25,417.72c-.11,0-.22-.45-.24-1s.07-1,.18-1,.23.45.25,1S311.37,417.72,311.25,417.72Z" fill="#455a64"/><path d="M311.38,421.85c-.12,0-.23-.45-.25-1s.07-1,.19-1,.22.45.24,1S311.49,421.85,311.38,421.85Z" fill="#455a64"/><path d="M311.5,426c-.12,0-.23-.45-.25-1s.07-1,.19-1,.22.45.24,1S311.62,426,311.5,426Z" fill="#455a64"/><path d="M311.62,430.11c-.12,0-.23-.45-.25-1s.07-1,.19-1,.23.45.24,1S311.74,430.11,311.62,430.11Z" fill="#455a64"/><path d="M311.74,434.24c-.12,0-.23-.45-.25-1s.07-1,.19-1,.23.45.24,1S311.86,434.24,311.74,434.24Z" fill="#455a64"/><path d="M311.76,438.38c-.12,0-.22-.46-.22-1s.09-1,.21-1,.21.46.22,1S311.88,438.38,311.76,438.38Z" fill="#455a64"/><path d="M311.81,442.52c-.11,0-.22-.46-.23-1s.08-1,.2-1,.22.46.23,1S311.93,442.52,311.81,442.52Z" fill="#455a64"/><path d="M311.91,446.66c-.12,0-.23-.46-.24-1s.07-1,.19-1,.22.46.24,1S312,446.66,311.91,446.66Z" fill="#455a64"/><path d="M312,450.79c-.12,0-.23-.45-.25-1s.06-1,.18-1,.23.45.25,1S312.16,450.79,312,450.79Z" fill="#455a64"/><path d="M312.22,454.93c-.12,0-.24-.45-.26-1s.05-1,.17-1,.23.45.26,1S312.34,454.92,312.22,454.93Z" fill="#455a64"/><path d="M312.44,459.06c-.12,0-.24-.45-.27-1s0-1,.16-1.05.24.45.27,1S312.56,459.05,312.44,459.06Z" fill="#455a64"/><path d="M312.71,463.18c-.12,0-.25-.44-.29-1s0-1,.15-1.05.25.45.28,1S312.83,463.18,312.71,463.18Z" fill="#455a64"/><path d="M313,467.31c-.12,0-.25-.45-.29-1s0-1,.13-1,.25.44.29,1S313.14,467.3,313,467.31Z" fill="#455a64"/><path d="M313.38,471.43c-.12,0-.26-.45-.31-1s0-1,.12-1.05.26.44.31,1S313.5,471.41,313.38,471.43Z" fill="#455a64"/><path d="M313.78,475.54c-.11,0-.26-.44-.31-1s0-1,.11-1,.26.44.31,1S313.9,475.53,313.78,475.54Z" fill="#455a64"/><path d="M314.24,479.65c-.12,0-.27-.44-.33-1s0-1,.09-1.05.27.44.33,1S314.35,479.63,314.24,479.65Z" fill="#455a64"/><path d="M314.73,483.74c-.12,0-.27-.43-.34-1s0-1,.09-1.05.27.44.34,1S314.85,483.73,314.73,483.74Z" fill="#455a64"/><path d="M315.27,487.84c-.12,0-.28-.43-.35-1s0-1,.07-1,.28.43.35,1S315.38,487.82,315.27,487.84Z" fill="#455a64"/><path d="M315.84,491.91c-.12,0-.28-.42-.36-1s-.05-1,.07-1.05.28.42.36,1S316,491.9,315.84,491.91Z" fill="#455a64"/><path d="M316.45,496c-.12,0-.28-.43-.37-1s-.06-1,.06-1.05.28.42.37,1S316.57,496,316.45,496Z" fill="#455a64"/><path d="M317.09,500.07c-.12,0-.28-.43-.37-1s-.07-1,0-1.05.28.42.37,1S317.21,500.05,317.09,500.07Z" fill="#455a64"/><path d="M317.76,504.14c-.12,0-.29-.42-.38-1s-.08-1,0-1.06.29.42.38,1S317.87,504.12,317.76,504.14Z" fill="#455a64"/><path d="M318.44,508.21c-.12,0-.29-.42-.39-1s-.07-1,0-1.06.29.42.39,1S318.55,508.19,318.44,508.21Z" fill="#455a64"/><path d="M319.13,512.27c-.12,0-.29-.42-.39-1s-.08-1,0-1.05.29.42.38,1S319.24,512.25,319.13,512.27Z" fill="#455a64"/><path d="M319.82,516.33c-.12,0-.29-.42-.39-1s-.08-1,0-1.05.29.42.39,1S319.93,516.31,319.82,516.33Z" fill="#455a64"/><path d="M320.5,520.39c-.12,0-.29-.42-.38-1s-.08-1,0-1,.29.42.38,1S320.62,520.37,320.5,520.39Z" fill="#455a64"/><path d="M321.17,524.46c-.12,0-.29-.42-.38-1s-.07-1,0-1.06.29.42.38,1S321.29,524.44,321.17,524.46Z" fill="#455a64"/><path d="M321.82,528.52c-.12,0-.28-.42-.37-1s-.07-1,.05-1,.28.42.37,1S321.94,528.5,321.82,528.52Z" fill="#455a64"/><path d="M322.44,532.59c-.12,0-.28-.42-.36-1s-.06-1,.06-1.05.28.42.36,1S322.56,532.58,322.44,532.59Z" fill="#455a64"/><path d="M323,536.67c-.12,0-.28-.43-.36-1s-.05-1,.07-1,.28.43.36,1S323.15,536.65,323,536.67Z" fill="#455a64"/><path d="M323.58,540.75c-.12,0-.27-.43-.35-1s0-1,.08-1,.27.43.35,1S323.7,540.74,323.58,540.75Z" fill="#455a64"/><path d="M324.09,544.84c-.12,0-.27-.43-.34-1s0-1,.09-1.05.27.43.34,1S324.21,544.83,324.09,544.84Z" fill="#455a64"/><path d="M324.56,548.94c-.12,0-.27-.43-.33-1s0-1,.1-1.05.26.44.33,1S324.67,548.93,324.56,548.94Z" fill="#455a64"/><path d="M325,553c-.12,0-.26-.43-.32-1s0-1,.11-1,.26.44.32,1S325.09,553,325,553Z" fill="#455a64"/><path d="M325.35,557.15c-.12,0-.26-.44-.31-1s0-1,.13-1,.25.44.3,1S325.47,557.14,325.35,557.15Z" fill="#455a64"/><path d="M325.67,561.27c-.11,0-.25-.44-.29-1s0-1,.14-1,.25.45.29,1S325.79,561.26,325.67,561.27Z" fill="#455a64"/><path d="M326,565.39c-.12,0-.24-.45-.28-1s0-1,.15-1,.24.45.28,1S326.07,565.38,326,565.39Z" fill="#455a64"/><path d="M326.18,569.5c-.11,0-.23-.45-.27-1s0-1,.16-1,.24.45.27,1S326.3,569.49,326.18,569.5Z" fill="#455a64"/><path d="M326.37,573.61c-.12,0-.23-.45-.26-1s.05-1,.17-1,.24.46.26,1S326.49,573.61,326.37,573.61Z" fill="#455a64"/><path d="M326.52,577.74c-.12,0-.23-.46-.25-1s.06-1,.18-1,.23.46.25,1S326.63,577.73,326.52,577.74Z" fill="#455a64"/><path d="M326.62,581.86c-.12,0-.23-.45-.24-1s.07-1,.19-1,.23.46.24,1S326.74,581.86,326.62,581.86Z" fill="#455a64"/><path d="M326.68,586c-.12,0-.22-.46-.23-1s.08-1,.2-1,.22.46.23,1S326.8,586,326.68,586Z" fill="#455a64"/><path d="M326.71,590.13c-.12,0-.22-.46-.22-1s.08-1,.2-1,.22.47.23,1S326.83,590.13,326.71,590.13Z" fill="#455a64"/><path d="M326.74,594.26c-.11,0-.22-.46-.22-1s.09-1,.2-1,.22.46.23,1S326.86,594.26,326.74,594.26Z" fill="#455a64"/><path d="M326.79,598.39c-.12,0-.22-.46-.23-1s.09-1,.21-1,.22.46.22,1S326.91,598.39,326.79,598.39Z" fill="#455a64"/><path d="M326.85,602.52c-.12,0-.23-.46-.23-1s.08-1,.2-1,.22.46.23,1S327,602.52,326.85,602.52Z" fill="#455a64"/><path d="M326.91,606.66c-.12,0-.22-.46-.23-1s.08-1,.2-1,.22.46.23,1S327,606.65,326.91,606.66Z" fill="#455a64"/><path d="M327,610.79c-.11,0-.22-.46-.23-1s.08-1,.2-1,.22.46.23,1S327.1,610.78,327,610.79Z" fill="#455a64"/><path d="M327.07,614.92c-.12,0-.23-.46-.24-1s.08-1,.19-1,.23.46.24,1S327.18,614.91,327.07,614.92Z" fill="#455a64"/><path d="M327.16,619.05c-.12,0-.23-.46-.24-1s.07-1,.19-1,.23.46.24,1S327.27,619,327.16,619.05Z" fill="#455a64"/><path d="M327.25,623.18c-.12,0-.22-.46-.24-1s.07-1,.19-1,.23.46.24,1S327.37,623.18,327.25,623.18Z" fill="#455a64"/><path d="M327.36,627.31c-.12,0-.23-.46-.24-1s.06-1,.18-1,.23.46.25,1S327.48,627.3,327.36,627.31Z" fill="#455a64"/><path d="M327.47,631.44c-.12,0-.23-.46-.25-1s.07-1,.19-1,.23.46.24,1S327.59,631.43,327.47,631.44Z" fill="#455a64"/><path d="M327.58,635.57c-.11,0-.22-.46-.24-1s.07-1,.19-1,.22.46.24,1S327.7,635.56,327.58,635.57Z" fill="#455a64"/><path d="M327.71,639.7c-.12,0-.23-.46-.25-1s.07-1,.19-1,.22.46.24,1S327.83,639.69,327.71,639.7Z" fill="#455a64"/><path d="M327.84,643.83c-.12,0-.23-.46-.25-1s.06-1,.18-1,.23.46.25,1S328,643.82,327.84,643.83Z" fill="#455a64"/><path d="M328,648c-.12,0-.23-.46-.25-1s.06-1,.18-1,.23.46.25,1S328.09,648,328,648Z" fill="#455a64"/><path d="M328.11,652.09c-.12,0-.23-.46-.25-1s.06-1,.18-1,.23.46.25,1S328.23,652.08,328.11,652.09Z" fill="#455a64"/><path d="M328.25,656.21c-.12,0-.23-.45-.25-1s.06-1,.18-1,.23.46.25,1S328.37,656.21,328.25,656.21Z" fill="#455a64"/><path d="M328.4,660.34c-.12,0-.23-.45-.26-1s.06-1,.18-1,.23.45.25,1S328.52,660.34,328.4,660.34Z" fill="#455a64"/><path d="M328.55,664.47c-.12,0-.24-.45-.26-1s.06-1,.18-1,.23.45.25,1S328.67,664.47,328.55,664.47Z" fill="#455a64"/><path d="M328.7,668.6c-.12,0-.23-.45-.25-1s.05-1,.17-1,.24.45.26,1S328.82,668.6,328.7,668.6Z" fill="#455a64"/><path d="M328.86,672.73c-.12,0-.24-.45-.26-1s.06-1,.18-1,.23.45.25,1S329,672.73,328.86,672.73Z" fill="#455a64"/><path d="M329,676.86c-.11,0-.23-.46-.25-1s.06-1,.17-1,.24.46.26,1S329.13,676.85,329,676.86Z" fill="#455a64"/><path d="M329.17,681c-.11,0-.23-.46-.25-1s.06-1,.17-1,.24.46.26,1S329.29,681,329.17,681Z" fill="#455a64"/><path d="M329.34,685.12c-.12,0-.24-.46-.26-1s.06-1,.18-1,.23.45.25,1S329.46,685.11,329.34,685.12Z" fill="#455a64"/><path d="M329.5,689.24c-.12,0-.23-.45-.26-1s.06-1,.18-1,.23.45.25,1S329.62,689.24,329.5,689.24Z" fill="#455a64"/><path d="M329.66,693.37c-.12,0-.23-.45-.25-1s0-1,.17-1,.23.45.26,1S329.78,693.37,329.66,693.37Z" fill="#455a64"/><path d="M329.83,697.5c-.12,0-.24-.45-.26-1s.06-1,.18-1,.23.45.25,1S330,697.5,329.83,697.5Z" fill="#455a64"/><path d="M330,701.63c-.12,0-.23-.45-.25-1s.05-1,.17-1.05.23.46.26,1S330.11,701.62,330,701.63Z" fill="#455a64"/><path d="M330.16,705.76c-.12,0-.24-.46-.26-1s.06-1,.17-1,.24.46.26,1S330.27,705.75,330.16,705.76Z" fill="#455a64"/><path d="M330.32,709.89c-.12,0-.23-.46-.26-1s.06-1,.18-1,.23.45.25,1S330.44,709.88,330.32,709.89Z" fill="#455a64"/><path d="M330.48,714c-.12,0-.23-.45-.26-1s.06-1,.18-1,.23.45.25,1S330.6,714,330.48,714Z" fill="#455a64"/><path d="M330.64,718.14c-.12,0-.23-.45-.26-1s.06-1,.18-1,.23.45.25,1S330.76,718.14,330.64,718.14Z" fill="#455a64"/><path d="M330.8,722.27c-.12,0-.24-.45-.26-1s.06-1,.18-1,.23.45.25,1S330.92,722.27,330.8,722.27Z" fill="#455a64"/><path d="M331,726.4c-.12,0-.23-.45-.25-1s.06-1,.17-1,.24.45.26,1S331.07,726.4,331,726.4Z" fill="#455a64"/><path d="M331.1,730.53c-.12,0-.23-.46-.25-1s.06-1,.18-1,.23.46.25,1S331.22,730.52,331.1,730.53Z" fill="#455a64"/><path d="M331.25,734.66c-.12,0-.23-.46-.25-1s.06-1,.18-1,.23.46.25,1S331.37,734.65,331.25,734.66Z" fill="#455a64"/><path d="M331.4,738.8c-.12,0-.24-.45-.26-1s.06-1,.18-1,.23.46.25,1S331.51,738.8,331.4,738.8Z" fill="#455a64"/><path d="M331.53,742.94c-.11,0-.23-.45-.25-1s.07-1,.19-1,.23.46.24,1S331.65,742.94,331.53,742.94Z" fill="#455a64"/><path d="M331.63,745.93c-.12,0-.22-.2-.23-.45s.08-.47.2-.47.22.2.23.45S331.75,745.93,331.63,745.93Z" fill="#455a64"/><path d="M343.42,438.11a2.14,2.14,0,0,1-1.9.11,3.7,3.7,0,0,1-1.81-1.39,6.46,6.46,0,0,1-1-2.86c-.36-4.43-.66-10.53-1-17.27-.34-6.59-.64-12.55-.88-17.27-.08-2-.15-3.76-.21-5.24,0-.51,0-1,0-1.43a1.86,1.86,0,0,1,0-.49,3.26,3.26,0,0,1,.07.49c0,.44.07.91.11,1.42.1,1.48.22,3.22.36,5.23.27,4.72.62,10.67,1,17.27s.66,12.54.91,17.25a6.25,6.25,0,0,0,.87,2.77,3.6,3.6,0,0,0,1.67,1.36A2.74,2.74,0,0,0,343.42,438.11Z" fill="#455a64"/><path d="M269.11,469.86a7.32,7.32,0,0,0,1.64-.49,6.43,6.43,0,0,0,3-3.36,16,16,0,0,0,.74-6.83,71.09,71.09,0,0,0-.85-8.49,73,73,0,0,0-4-14.67l.17.09-4.87.8-1.33.2a2.27,2.27,0,0,1-.46,0s.15-.06.45-.13l1.31-.27,4.84-.94.13,0,0,.12a67.44,67.44,0,0,1,4.94,23.27,15.92,15.92,0,0,1-.86,6.95,6.47,6.47,0,0,1-3.24,3.4A3.52,3.52,0,0,1,269.11,469.86Z" fill="#455a64"/><path d="M271.42,442.22a19.87,19.87,0,0,1-3.94,1.1,19.4,19.4,0,0,1-4,.68,19.61,19.61,0,0,1,3.94-1.1A19.3,19.3,0,0,1,271.42,442.22Z" fill="#455a64"/><path d="M495.16,238.72l-23.14-19c-62.88,56.74-144,50.29-144,50.29v.14c-3.62-.59-22.73-3.66-29-3.78-4.94-.09-16.36-1-24.44,6.64h0c-.2.18-.4.38-.59.57-7.32,7.15-80.52,79.29-72.75,97.17,8.18,18.82,77.75,59.69,77.75,59.69l16.86-30.61s-5.25-3.44-12.43-8.3l56.81-1.46,2.51-42.53s9.7-10.84,9.7-18.62c0-5.41-3-14.34-6.83-23.62C435.19,297.85,495.16,238.72,495.16,238.72ZM243.38,360.57c.66-2.23,15.22-18.15,28.36-32.2,4.56,27.78,10.71,59.81,11.32,63C267.26,380.63,242.54,363.36,243.38,360.57Z" fill="#4380b4"/><path d="M349.09,338.31s-.72.07-2.1.07a22.07,22.07,0,0,1-6-.72,11.07,11.07,0,0,1-7.3-5.81,6.71,6.71,0,0,1,0-5.9,6,6,0,0,1,5.48-3.52c2.52.13,4.59,2.34,5.21,4.86a9.17,9.17,0,0,1-2,7.63c-3.4,4.46-9.55,7-15.78,6.49a18.75,18.75,0,0,1-9-3.07,14.14,14.14,0,0,1-5.95-7.88,8.09,8.09,0,0,1,.28-5.18,7,7,0,0,1,3.84-3.61,5.15,5.15,0,0,1,5.26.67,5.72,5.72,0,0,1,1.85,5.05,11.32,11.32,0,0,1-1.8,5.1,17,17,0,0,1-3.67,3.85,20,20,0,0,1-9.5,3.9c-6.73,1-13.74-1.47-17.63-6.49a10.1,10.1,0,0,1-1.95-4.23,7.56,7.56,0,0,1,.57-4.51,5.51,5.51,0,0,1,3.27-3,6,6,0,0,1,4.26.38,7.47,7.47,0,0,1,4.41,6.44A9.69,9.69,0,0,1,298,335.6,14.79,14.79,0,0,1,286.5,340a18,18,0,0,1-9-2.9,15.48,15.48,0,0,1-4.34-4.13,11.63,11.63,0,0,1-1.08-1.8s.36.63,1.18,1.72a15.82,15.82,0,0,0,4.38,4,17.78,17.78,0,0,0,8.89,2.75,14.45,14.45,0,0,0,11.19-4.37,9.25,9.25,0,0,0,2.66-6.42,7,7,0,0,0-4.13-6,5.36,5.36,0,0,0-3.87-.34,4.91,4.91,0,0,0-2.92,2.68,6.88,6.88,0,0,0-.51,4.16,9.36,9.36,0,0,0,1.85,4c3.74,4.8,10.53,7.21,17.06,6.22a19.35,19.35,0,0,0,9.2-3.78,16.23,16.23,0,0,0,3.52-3.69,10.75,10.75,0,0,0,1.7-4.8,5.08,5.08,0,0,0-1.63-4.51,4.46,4.46,0,0,0-4.6-.56,6.38,6.38,0,0,0-3.5,3.27,7.46,7.46,0,0,0-.25,4.76,13.55,13.55,0,0,0,5.69,7.53,18,18,0,0,0,8.7,3c6.05.54,12-1.93,15.31-6.22a8.65,8.65,0,0,0,2-7.18c-.57-2.36-2.5-4.4-4.76-4.53a5.54,5.54,0,0,0-5.08,3.26,6.35,6.35,0,0,0-.06,5.56,10.87,10.87,0,0,0,7,5.72,23.34,23.34,0,0,0,5.9.83l1.56,0A3.06,3.06,0,0,1,349.09,338.31Z" fill="#fff"/><path d="M341,377.53s-.35.26-1,.7-1.68,1.1-3,1.91a25.35,25.35,0,0,1-5.06,2.49,16.73,16.73,0,0,1-7.45.66c-2.71-.32-5.92-1-8.38-3.33a7.77,7.77,0,0,1-2.32-4.57,5.39,5.39,0,0,1,2.09-4.95,4.79,4.79,0,0,1,2.72-1,4.08,4.08,0,0,1,2.82,1,5.88,5.88,0,0,1,1.77,5.63,9.7,9.7,0,0,1-3.39,5.13,19,19,0,0,1-5.47,3.16,20.89,20.89,0,0,1-12.28.77c-3.86-1-7.57-2.95-9.55-6.23a5.84,5.84,0,0,1-.51-5.37,5.39,5.39,0,0,1,4.12-3,3.31,3.31,0,0,1,2.42.7,3.84,3.84,0,0,1,1.29,2.06,5.3,5.3,0,0,1-.88,4.31,12.71,12.71,0,0,1-6.13,4.25,15.7,15.7,0,0,1-5.58.86,14.07,14.07,0,0,1-3.53-.54,8.33,8.33,0,0,1-1.17-.42,18.39,18.39,0,0,0,4.7.71,15.72,15.72,0,0,0,5.46-1,12.34,12.34,0,0,0,5.87-4.17,4.79,4.79,0,0,0,.77-3.93,3,3,0,0,0-3.17-2.34,4.83,4.83,0,0,0-3.66,2.71,5.27,5.27,0,0,0,.52,4.83c1.84,3.06,5.43,5,9.18,5.91a20.35,20.35,0,0,0,11.9-.75,18.45,18.45,0,0,0,5.28-3.05,9.11,9.11,0,0,0,3.19-4.78,5.28,5.28,0,0,0-1.55-5,3.72,3.72,0,0,0-4.78,0,4.84,4.84,0,0,0-1.89,4.42,7.28,7.28,0,0,0,2.13,4.25c2.29,2.22,5.4,2.92,8.06,3.26a16.64,16.64,0,0,0,7.28-.55,26.12,26.12,0,0,0,5.05-2.36l3.07-1.81C340.6,377.71,341,377.53,341,377.53Z" fill="#fff"/><path d="M372.09,267.34a8.53,8.53,0,0,1,2.3,1.59,10.92,10.92,0,0,1,3.4,6.73,11.27,11.27,0,0,1-.64,5.26,11.84,11.84,0,0,1-3.59,4.91,12.77,12.77,0,0,1-6.15,2.71,10.89,10.89,0,0,1-3.6,0,5,5,0,0,1-3.29-1.83,2.41,2.41,0,0,1-.36-2,3.11,3.11,0,0,1,1.16-1.6,5.86,5.86,0,0,1,3.51-1,8.61,8.61,0,0,1,6.12,2.73,9.11,9.11,0,0,1,2.37,5.6,10.88,10.88,0,0,1-.92,5.22,12.76,12.76,0,0,1-5.08,5.61,13.42,13.42,0,0,1-1.84.94,2.52,2.52,0,0,1-.69.23c0-.06.91-.4,2.4-1.38a13,13,0,0,0,4.8-5.59,10.6,10.6,0,0,0,.8-5,8.69,8.69,0,0,0-2.27-5.23,8,8,0,0,0-5.69-2.5,5.17,5.17,0,0,0-3.12.91,1.94,1.94,0,0,0-.66,2.72,4.46,4.46,0,0,0,2.88,1.56,10.43,10.43,0,0,0,3.39.05,12.23,12.23,0,0,0,5.86-2.55,10.85,10.85,0,0,0,1-16.26A24.44,24.44,0,0,0,372.09,267.34Z" fill="#fff"/><path d="M402.27,260a3.55,3.55,0,0,1,1,1.25,3.4,3.4,0,0,1,.35,1.89,6.73,6.73,0,0,1-.84,2.39,23,23,0,0,1-3.77,5.26,39.26,39.26,0,0,0-5.08,5.92,22.39,22.39,0,0,0-3.4,13.46,34,34,0,0,0,1.07,5.78,6.49,6.49,0,0,1-.63-1.48,19.68,19.68,0,0,1-.89-4.27,22,22,0,0,1,3.3-13.84,37.91,37.91,0,0,1,5.19-6,23.91,23.91,0,0,0,3.81-5.08,6.78,6.78,0,0,0,.88-2.21,3.13,3.13,0,0,0-.22-1.75C402.64,260.45,402.22,260,402.27,260Z" fill="#fff"/><path d="M425.06,284.39A6.72,6.72,0,0,1,422,285a9,9,0,0,1-7.42-3.95c-2.08-3.11-2.39-8-.42-12.46a14.94,14.94,0,0,1,4.57-6.05A9,9,0,0,1,426.6,261a6.25,6.25,0,0,1,4.62,6.36,4.92,4.92,0,0,1-1.73,3.57,5.74,5.74,0,0,1-3.57,1.31,8.89,8.89,0,0,1-6.37-2.47,11.52,11.52,0,0,1-3.1-5.11,12.35,12.35,0,0,1,.52-8.51,8.14,8.14,0,0,1,1.77-2.61,18.35,18.35,0,0,0-1.54,2.71,12.28,12.28,0,0,0-.31,8.27,11.15,11.15,0,0,0,3,4.86,8.34,8.34,0,0,0,6,2.26,5.06,5.06,0,0,0,3.19-1.18,4.28,4.28,0,0,0,1.49-3.14,5.64,5.64,0,0,0-4.16-5.7,8.32,8.32,0,0,0-7.33,1.51,14.38,14.38,0,0,0-4.4,5.78c-1.94,4.29-1.67,9,.25,12a8.79,8.79,0,0,0,7,3.95A12.31,12.31,0,0,0,425.06,284.39Z" fill="#fff"/><path d="M441.4,242.64a5.07,5.07,0,0,1,1.26.52,16.19,16.19,0,0,1,3.11,2.05,15.63,15.63,0,0,1,3.55,4.25,21.17,21.17,0,0,1,2.34,6.35,20.27,20.27,0,0,1-1.38,12.09,17.35,17.35,0,0,1-1.86,3.22,4.21,4.21,0,0,1-.89,1,37.79,37.79,0,0,0,2.33-4.43A20.83,20.83,0,0,0,451,255.94a21.67,21.67,0,0,0-2.23-6.19,16.23,16.23,0,0,0-3.33-4.2A37.2,37.2,0,0,0,441.4,242.64Z" fill="#fff"/><path d="M475.25,255.11a8,8,0,0,1-2.63.62,9.25,9.25,0,0,1-3.18-.29,7.76,7.76,0,0,1-3.57-2.27,12.67,12.67,0,0,1-3.16-10.29,8,8,0,0,1,3.33-5.56,6.54,6.54,0,0,1,3.35-1.12,5.22,5.22,0,0,1,3.45,1.18,4.93,4.93,0,0,1,1.83,3.17,4.5,4.5,0,0,1-1,3.39,6.81,6.81,0,0,1-6.06,2.22,12.25,12.25,0,0,1-9.11-5.7,6.72,6.72,0,0,1-1.22-4.05,9.28,9.28,0,0,1,.86-3.08c.36-.79.66-1.39.86-1.8a2.85,2.85,0,0,1,.35-.61,3,3,0,0,1-.23.67c-.22.54-.46,1.14-.75,1.84a9.42,9.42,0,0,0-.73,3,6.44,6.44,0,0,0,1.24,3.79,11.87,11.87,0,0,0,8.78,5.34,6.21,6.21,0,0,0,5.51-2,3.91,3.91,0,0,0,.91-2.93,4.28,4.28,0,0,0-1.61-2.73,5,5,0,0,0-6,0,7.43,7.43,0,0,0-3.11,5.12,12.34,12.34,0,0,0,2.91,9.89,7.8,7.8,0,0,0,6.41,2.62A23.55,23.55,0,0,0,475.25,255.11Z" fill="#fff"/><path d="M341.26,357.34a9.9,9.9,0,0,1-1.93,1.72,18.36,18.36,0,0,1-6.42,2.89,31.77,31.77,0,0,1-10.43.6A87.7,87.7,0,0,1,310,360.06a64.92,64.92,0,0,0-12.48-2.14,26.62,26.62,0,0,0-10.13,1.43,18,18,0,0,0-6,3.48c-1.21,1.12-1.75,1.87-1.81,1.82a11,11,0,0,1,1.63-2,17.31,17.31,0,0,1,6-3.73,26.39,26.39,0,0,1,10.32-1.6,63.13,63.13,0,0,1,12.61,2.11A91.79,91.79,0,0,0,322.54,362a31.88,31.88,0,0,0,10.26-.46A20.14,20.14,0,0,0,341.26,357.34Z" fill="#fff"/><path d="M253.78,294.18a5,5,0,0,1,3.85-.75,10.49,10.49,0,0,1,4.24,2c1.5,1.07,3,2.46,4.82,3.86s3.48,3.31,5.57,4.94a17.92,17.92,0,0,0,7.63,3.4c5.88,1.14,12.6-.19,19-2.74s12.37-5.69,18.26-7.27a29.5,29.5,0,0,1,8.53-1.22,24.43,24.43,0,0,1,7.39,1.32A16.58,16.58,0,0,1,341.7,304a8.86,8.86,0,0,1,.84,1.49,5.58,5.58,0,0,1,.47,1.15,6.22,6.22,0,0,1,.29,1,19.94,19.94,0,0,0-1.81-3.49,16.64,16.64,0,0,0-8.58-6.06,24.27,24.27,0,0,0-7.25-1.22,29.62,29.62,0,0,0-8.36,1.26c-5.8,1.59-11.69,4.71-18.18,7.3s-13.3,3.93-19.34,2.72a18.43,18.43,0,0,1-7.85-3.56c-2.13-1.69-3.82-3.54-5.54-5s-3.29-2.86-4.73-3.91a10.34,10.34,0,0,0-4.08-2A6.22,6.22,0,0,0,253.78,294.18Z" fill="#fff"/><path d="M347.64,270a10.65,10.65,0,0,1,.3,1.66,14.36,14.36,0,0,1-.3,4.85,16.92,16.92,0,0,1-3.42,6.86,14.68,14.68,0,0,1-8.73,5.07,16.45,16.45,0,0,1-11.9-2.64,12.76,12.76,0,0,1-4.58-5.2,3.7,3.7,0,0,1,.38-3.68,4.83,4.83,0,0,1,3.4-1.73,4.56,4.56,0,0,1,3.71,1.23,5.73,5.73,0,0,1,1.6,3.66,8.4,8.4,0,0,1-3.37,7.18,21,21,0,0,1-7.58,3.47,25.37,25.37,0,0,1-8.5,1.07,14.19,14.19,0,0,1-8-3,9.56,9.56,0,0,1-3.74-7.36,7.51,7.51,0,0,1,3.76-6.94,6.85,6.85,0,0,1,7.5.83c2.05,1.82,2.14,4.86,1.19,7.05a9.53,9.53,0,0,1-4.93,4.82,22.46,22.46,0,0,1-12.19,1.58,26.08,26.08,0,0,1-15.58-8.18,22.54,22.54,0,0,1-2.86-3.92c-.52-1-.77-1.5-.77-1.5a29.71,29.71,0,0,0,3.82,5.25,26.09,26.09,0,0,0,15.46,7.9,22,22,0,0,0,11.89-1.61,9,9,0,0,0,4.63-4.56c.89-2.05.75-4.8-1.06-6.39a6.25,6.25,0,0,0-6.82-.72,6.91,6.91,0,0,0-3.41,6.38,8.94,8.94,0,0,0,3.51,6.87,13.64,13.64,0,0,0,7.67,2.85,25.07,25.07,0,0,0,8.28-1.05,20.62,20.62,0,0,0,7.35-3.34,7.76,7.76,0,0,0,3.15-6.65,5.12,5.12,0,0,0-1.41-3.28,4,4,0,0,0-3.22-1.06,4.23,4.23,0,0,0-3,1.49,3.11,3.11,0,0,0-.32,3.12,12.34,12.34,0,0,0,4.35,5A16,16,0,0,0,335.42,288a14.29,14.29,0,0,0,8.52-4.85,16.78,16.78,0,0,0,3.46-6.69A16.44,16.44,0,0,0,347.64,270Z" fill="#fff"/><path d="M242.23,306.12a4.13,4.13,0,0,1,.82-.34c.54-.19,1.35-.47,2.42-.75a14.31,14.31,0,0,1,9.25.37,13.64,13.64,0,0,1,5.32,3.71,10.88,10.88,0,0,1,2.81,6.87,10.13,10.13,0,0,1-11.42,10.3,7.35,7.35,0,0,1-4.17-1.87,4.37,4.37,0,0,1-1.34-4.22,6.34,6.34,0,0,1,2.51-3.48,10,10,0,0,1,3.71-1.69,14.07,14.07,0,0,1,17.44,11.48,10.18,10.18,0,0,1,.05,3.43,23.66,23.66,0,0,0-.29-3.38,14.49,14.49,0,0,0-4.4-7.89,14,14,0,0,0-12.65-3.06,9.46,9.46,0,0,0-3.49,1.6,5.82,5.82,0,0,0-2.27,3.14A3.75,3.75,0,0,0,247.7,324a6.72,6.72,0,0,0,3.81,1.69A9.55,9.55,0,0,0,262.26,316a10.39,10.39,0,0,0-2.62-6.53,13.3,13.3,0,0,0-5.09-3.64,14.41,14.41,0,0,0-9-.55c-1.07.24-1.88.48-2.44.63A5.27,5.27,0,0,1,242.23,306.12Z" fill="#fff"/><path d="M251.08,350.93a3.53,3.53,0,0,0,.2-1.78,11.07,11.07,0,0,0-2-4.52c-1.1-1.86-3.65-2.77-6.41-2.57s-5.77,1.34-9.16,1.08a11.69,11.69,0,0,1-8.18-4.22,11.83,11.83,0,0,1-2.36-7.18,8.77,8.77,0,0,1,1.3-4.93,4.24,4.24,0,0,1,1.32-1.33,14.32,14.32,0,0,0-1.1,1.47,8.83,8.83,0,0,0-1.06,4.78,11.48,11.48,0,0,0,2.36,6.82,11.28,11.28,0,0,0,7.77,3.95c3.18.25,6.19-.93,9.08-1a9.66,9.66,0,0,1,4.06.6,5.74,5.74,0,0,1,2.75,2.29,10.62,10.62,0,0,1,1.86,4.76A2.21,2.21,0,0,1,251.08,350.93Z" fill="#fff"/><path d="M228.27,397.07a8,8,0,0,0,2.83-.74,5.19,5.19,0,0,0,2.33-2.39,8.59,8.59,0,0,0,.44-4.44,31.09,31.09,0,0,0-1.35-5.4,16.22,16.22,0,0,0-2.76-5.65,6.15,6.15,0,0,0-6-2.23,3.76,3.76,0,0,0-2.49,2.24,5.15,5.15,0,0,0,0,3.57c.76,2.44,3.38,3.67,5.72,3.67a9.91,9.91,0,0,0,6.35-2.35,29.67,29.67,0,0,0,7.23-9.4,23.15,23.15,0,0,0,2.32-7.68c.19-1.9.08-3,.15-3a12.46,12.46,0,0,1,.1,3,22.11,22.11,0,0,1-2.16,7.86,29.58,29.58,0,0,1-7.27,9.67,10.46,10.46,0,0,1-6.73,2.51,7.55,7.55,0,0,1-3.76-1,5.52,5.52,0,0,1-2.56-3.1,5.73,5.73,0,0,1,.06-4,4.36,4.36,0,0,1,2.91-2.61,6.72,6.72,0,0,1,6.65,2.45,16.39,16.39,0,0,1,2.82,5.88,30.77,30.77,0,0,1,1.29,5.5,8.8,8.8,0,0,1-.57,4.66,5.37,5.37,0,0,1-2.54,2.46,6.1,6.1,0,0,1-2.16.54A3.13,3.13,0,0,1,228.27,397.07Z" fill="#fff"/><path d="M255.42,413a8.82,8.82,0,0,0,1.6-.4,5.73,5.73,0,0,0,2.92-3.21,8.81,8.81,0,0,0-.3-6.46c-.84-2.38-2.38-4.78-3.31-7.66a10.88,10.88,0,0,1-.56-4.39,7.88,7.88,0,0,1,1.5-3.85,9.91,9.91,0,0,1,5.74-3.74,13.42,13.42,0,0,1,4.63-.28,5.68,5.68,0,0,1,1.66.34,19.18,19.18,0,0,0-6.17.38,9.64,9.64,0,0,0-5.38,3.65,7.35,7.35,0,0,0-1.35,3.57,10.4,10.4,0,0,0,.54,4.12c.89,2.77,2.42,5.19,3.26,7.66s1,5,.16,6.83a5.82,5.82,0,0,1-3.25,3.28A3,3,0,0,1,255.42,413Z" fill="#fff"/><path d="M268.17,332.19a17.65,17.65,0,0,1,1.95-2.6c1.32-1.63,3.28-3.93,5.73-6.75s5.39-6.14,8.54-9.93c1.57-1.89,3.19-3.9,4.81-6a40.21,40.21,0,0,0,4.48-6.87c2.48-5,4.11-10.29,4.07-15.12a17,17,0,0,0-4.29-11.72A13.71,13.71,0,0,0,286,269a26.87,26.87,0,0,0-3.19-.24s.27-.1.83-.19a9.84,9.84,0,0,1,2.43,0,13.66,13.66,0,0,1,7.9,4c2.76,2.67,4.67,7.19,4.73,12.23s-1.55,10.48-4.1,15.63a40.52,40.52,0,0,1-4.6,7c-1.65,2.13-3.3,4.14-4.9,6-3.19,3.77-6.21,7.05-8.72,9.8l-6,6.51A19.09,19.09,0,0,1,268.17,332.19Z" fill="#263238"/><path d="M245.11,360.59c.09.28-3.11,1.5-7.14,2.71s-7.38,2-7.46,1.67,3.11-1.49,7.15-2.7S245,360.3,245.11,360.59Z" fill="#263238"/><path d="M244.19,360.32c.15.28-2.31,1.79-4.66,4.37s-3.7,5.13-4,5,.67-3,3.2-5.73S244.08,360.07,244.19,360.32Z" fill="#263238"/><path d="M348.26,311.32c-.13.06-1.08-1.55-2.4-4.27a110,110,0,0,1-7.81-22.23c-.68-2.94-.94-4.79-.8-4.82s.68,1.75,1.53,4.63,2.08,6.84,3.59,11.16,3.05,8.17,4.19,10.95S348.4,311.25,348.26,311.32Z" fill="#263238"/><path d="M326.43,331.12c.09.05-.7,1.83-2.72,4.21A27.5,27.5,0,0,1,302,344.7c-3.12-.16-5-.8-4.93-.9s1.91.18,4.94.14a30.16,30.16,0,0,0,21.1-9.12C325.25,332.64,326.26,331,326.43,331.12Z" fill="#263238"/><path d="M312,433.2s-14.28,3.1-16.16,1.53,2.73-3.25,2.73-3.25-4.1.48-4.23-1,1.5-2.54,1.5-2.54Z" fill="#f4bbac"/><path d="M292.75,405.51s20.07,9,20.32,9.73.86,15-1.05,18-28.21-11.45-28.21-11.45Z" fill="#f4bbac"/><path d="M307.59,429.86a4.27,4.27,0,0,1-1-.06l-2.73-.35a60.26,60.26,0,0,1-8.89-1.91,26.86,26.86,0,0,1-8.18-4L284.5,422a5.31,5.31,0,0,1-.8-.61,3.86,3.86,0,0,1,.9.47l2.34,1.44a29.11,29.11,0,0,0,8.14,3.8,75.27,75.27,0,0,0,8.81,2l2.71.48A4.68,4.68,0,0,1,307.59,429.86Z" fill="#ef8876"/><path d="M307.49,430.22a16.69,16.69,0,0,1-4.6,1.16,17.26,17.26,0,0,1-4.74.25c0-.13,2.1-.29,4.68-.68S307.46,430.1,307.49,430.22Z" fill="#ef8876"/><rect x="172.77" y="761.97" width="691.37" height="1.98" rx="0.99" fill="#333"/></svg>