<svg id="illustration" xmlns="http://www.w3.org/2000/svg" viewBox="0 0 512 512"><title>artwork</title><circle cx="369.78" cy="298.67" r="17.78" fill="#f2f2f0"/><circle cx="142.22" cy="298.67" r="17.78" fill="#f2f2f0"/><circle cx="256" cy="291.56" r="32" fill="#f2f2f0"/><path d="M323.56,426.67v-32a28.44,28.44,0,0,0-28.45-28.45H216.89a28.44,28.44,0,0,0-28.45,28.45v32Z" fill="#f2f2f0"/><path d="M188.44,398.22V380.44A28.43,28.43,0,0,0,160,352H124.44A28.44,28.44,0,0,0,96,380.44v17.78Z" fill="#f2f2f0"/><path d="M416,398.22V380.44A28.44,28.44,0,0,0,387.56,352H352a28.43,28.43,0,0,0-28.44,28.44v17.78Z" fill="#f2f2f0"/><path d="M344.89,245.33a28.53,28.53,0,0,0,28.44-28.44V96H138.67V216.89a28.53,28.53,0,0,0,28.44,28.44Z" fill="#83b450"/><path d="M384,298.67a17.38,17.38,0,0,1,1.78-7.48,17.77,17.77,0,1,0,0,15A17.41,17.41,0,0,1,384,298.67Z" fill="#d4dae0"/><path d="M156.44,298.67a17.38,17.38,0,0,1,1.78-7.48,17.77,17.77,0,1,0,0,15A17.41,17.41,0,0,1,156.44,298.67Z" fill="#d4dae0"/><path d="M256,291.56A31.87,31.87,0,0,1,272,264a32,32,0,1,0,0,55.13A31.86,31.86,0,0,1,256,291.56Z" fill="#d4dae0"/><path d="M248.89,366.22h-32a28.44,28.44,0,0,0-28.45,28.45v32h32v-32A28.44,28.44,0,0,1,248.89,366.22Z" fill="#d4dae0"/><path d="M156.44,352h-32A28.44,28.44,0,0,0,96,380.44v17.78h32V380.44A28.44,28.44,0,0,1,156.44,352Z" fill="#d4dae0"/><path d="M384,352H352a28.43,28.43,0,0,0-28.44,28.44v17.78h32V380.44A28.43,28.43,0,0,1,384,352Z" fill="#d4dae0"/><path d="M170.67,216.89V96h-32V216.89a28.53,28.53,0,0,0,28.44,28.44h32A28.53,28.53,0,0,1,170.67,216.89Z" fill="#78a444"/><path d="M120.89,85.33H391.11A10.67,10.67,0,0,1,401.78,96h0a10.67,10.67,0,0,1-10.67,10.67H120.89A10.67,10.67,0,0,1,110.22,96h0A10.67,10.67,0,0,1,120.89,85.33Z"/><path d="M334.22,256H323.56a10.67,10.67,0,0,1-10.67-10.67h0a10.66,10.66,0,0,1,10.67-10.66h10.66a28.45,28.45,0,0,0,28.45-28.45V106.67H149.33v99.55a28.45,28.45,0,0,0,28.45,28.45h10.66a10.66,10.66,0,0,1,10.67,10.66h0A10.67,10.67,0,0,1,188.44,256H177.78A49.78,49.78,0,0,1,128,206.22V106.67a21.33,21.33,0,0,1,21.33-21.34H362.67A21.33,21.33,0,0,1,384,106.67v99.55A49.78,49.78,0,0,1,334.22,256Z"/><path d="M202.67,202.67h0a10.65,10.65,0,0,1,0-15.08l28-28a10.65,10.65,0,0,1,12.83-1.72l11.32,6.48a10.68,10.68,0,0,0,12.53-1.42l26.9-24.83a10.66,10.66,0,0,1,15.07.6v0a10.66,10.66,0,0,1-.6,15.06L270.35,189.2a10.64,10.64,0,0,1-12.53,1.42l-10.74-6.14a10.66,10.66,0,0,0-12.83,1.71l-16.51,16.48A10.66,10.66,0,0,1,202.67,202.67Z"/><path d="M309.34,184.89h0a10.66,10.66,0,0,1-10.66-10.66V160A10.67,10.67,0,0,0,288,149.33H273.77a10.66,10.66,0,0,1-10.66-10.66h0A10.66,10.66,0,0,1,273.77,128h24.9A21.33,21.33,0,0,1,320,149.33v24.9A10.66,10.66,0,0,1,309.34,184.89Z"/><path d="M369.78,327.11a28.45,28.45,0,1,1,28.44-28.44A28.48,28.48,0,0,1,369.78,327.11Zm0-35.55a7.11,7.11,0,1,0,7.11,7.11A7.11,7.11,0,0,0,369.78,291.56Z"/><path d="M416,398.22h0a10.67,10.67,0,0,1-10.67-10.66v-7.12a17.78,17.78,0,0,0-17.77-17.77H352A10.67,10.67,0,0,1,341.33,352h0A10.67,10.67,0,0,1,352,341.33h35.56a39.11,39.11,0,0,1,39.11,39.11v7.12A10.67,10.67,0,0,1,416,398.22Z"/><path d="M142.22,327.11a28.45,28.45,0,1,1,28.45-28.44A28.47,28.47,0,0,1,142.22,327.11Zm0-35.55a7.11,7.11,0,1,0,7.11,7.11A7.11,7.11,0,0,0,142.22,291.56Z"/><path d="M96,398.22h0a10.67,10.67,0,0,1-10.67-10.66v-7.12a39.11,39.11,0,0,1,39.11-39.11H160A10.67,10.67,0,0,1,170.67,352h0A10.67,10.67,0,0,1,160,362.67H124.44a17.78,17.78,0,0,0-17.77,17.77v7.12A10.67,10.67,0,0,1,96,398.22Z"/><path d="M256,334.22a42.67,42.67,0,1,1,42.67-42.66A42.72,42.72,0,0,1,256,334.22Zm0-64a21.34,21.34,0,1,0,21.33,21.34A21.36,21.36,0,0,0,256,270.22Z"/><path d="M334.22,426.67H312.89v-32a17.81,17.81,0,0,0-17.78-17.78H216.89a17.81,17.81,0,0,0-17.78,17.78v32H177.78v-32a39.14,39.14,0,0,1,39.11-39.11h78.22a39.14,39.14,0,0,1,39.11,39.11Z"/><path d="M39.11,405.33H472.89A10.67,10.67,0,0,1,483.56,416h0a10.67,10.67,0,0,1-10.67,10.67H39.11A10.67,10.67,0,0,1,28.44,416h0A10.67,10.67,0,0,1,39.11,405.33Z"/></svg>