<svg id="illustration" xmlns="http://www.w3.org/2000/svg" viewBox="0 0 885.09 800"><title>image</title><path d="M460.49,110.1c3.18,8.21-2.28,17.19-8.4,23.53s-13.53,12.37-15.45,21c-1.61,7.22,1.06,14.73.41,22.1-.66,7.53-4.72,14.29-7,21.5-4.18,13-2.5,27.29,1.23,40.47,3.06,10.81,7.59,21.44,15.07,29.82s18.24,14.31,29.47,14.1c3.18-.06,6.63-.74,8.71-3.15,1.8-2.08,2.21-5,2.52-7.73a753.57,753.57,0,0,0,0-170.3" fill="#263238"/><path d="M466.42,292.48c-24.45-1.07-47.05,22.34-45.11,46.73-24.77,6-42.26,33.28-37.42,58.29,1.6,8.26,5.27,16.12,5.78,24.52.55,9.15-2.7,18.05-4.46,27.06a85.18,85.18,0,0,0,4.88,48.78c3.87,9.3,11.05,18.91,21.12,19.19,6.84.2,13.17-4.23,17-9.91s5.49-12.5,6.82-19.2c4.36-22,5.67-44.54,11.7-66.1s17.73-42.8,37.24-53.79c10.78-6.07,23.72-8.93,32.27-17.86,9-9.35,11-24.18,6.34-36.26S507.17,292.64,495,288.21" fill="#263238"/><path d="M635.73,130.23c.3-10.44-9.36-18.52-19.09-22.34s-20.54-5.27-29.22-11.11c-7.67-5.17-12.84-13.22-19.34-19.81-15.94-16.16-40.84-22.86-62.75-16.89a65.69,65.69,0,0,0-45.48,46.4c-3.74,14.88-1.19,32.47,10.55,42.36,13.61,11.48,33.8,8.93,51.25,5.36s37.19-7.09,51.76,3.15c8.78,6.18,13.82,16.22,19.19,25.52s12.11,18.8,22.26,22.29,23.95-2.54,24.34-13.27" fill="#263238"/><path d="M594.52,132.38a17.48,17.48,0,0,1,15.61,17.76h0L599.7,386.24c-.44,27.89-41.21,43.55-71.08,42.86h0c-30.16-.7-31.13-15.49-31.5-42-.64-44.32-.58-60.95-.6-60.7,0,0-38.09-6.41-45.88-56.13-3.87-24.73-2.54-65.26-.38-98.38,1.95-29.81,21.79-66.36,51.51-63.15Z" fill="#ffbe9d"/><path d="M458.84,203.08a6.37,6.37,0,0,0,6.13,6.44,6.1,6.1,0,0,0,6.59-5.73,6.39,6.39,0,0,0-6.13-6.45A6.1,6.1,0,0,0,458.84,203.08Z" fill="#263238"/><path d="M459,193c.79.84,5.63-2.73,12.49-2.69s11.88,3.47,12.63,2.63c.37-.37-.44-1.87-2.63-3.47a17.49,17.49,0,0,0-10.1-3.14,16.82,16.82,0,0,0-9.95,3.18C459.34,191.1,458.62,192.6,459,193Z" fill="#263238"/><path d="M524.77,203.08a6.36,6.36,0,0,0,6.13,6.44,6.1,6.1,0,0,0,6.59-5.73,6.38,6.38,0,0,0-6.13-6.45A6.11,6.11,0,0,0,524.77,203.08Z" fill="#263238"/><path d="M526.46,194.4c.79.84,5.63-2.73,12.49-2.69s11.88,3.47,12.63,2.63c.36-.37-.43-1.87-2.63-3.47a17.45,17.45,0,0,0-10.11-3.14,16.82,16.82,0,0,0-9.94,3.18C526.79,192.53,526.07,194,526.46,194.4Z" fill="#263238"/><path d="M501.44,245.22c0-.39-4.23-1.14-11.14-2-1.75-.18-3.41-.53-3.7-1.73s.33-3.15,1.18-5.19q2.49-6.34,5.21-13.32c7.24-19,12.48-34.58,11.72-34.87s-7.26,14.87-14.5,33.84q-2.61,7-5,13.41c-.67,2-1.81,4.24-.93,6.87a4.43,4.43,0,0,0,2.88,2.57,12.43,12.43,0,0,0,3,.42C497.1,245.57,501.41,245.61,501.44,245.22Z" fill="#263238"/><path d="M496.52,326.38s33.45,2.23,66.63-17.61c0,0-16.23,34.11-66,29.35Z" fill="#eb996e"/><path d="M504.31,261.76a12.35,12.35,0,0,1,11.09-4.57,11.31,11.31,0,0,1,7.79,4.2c1.8,2.42,2.17,5.87.52,8.17-1.86,2.6-5.73,3.2-9,2.26s-6.08-3.1-8.76-5.25a7.56,7.56,0,0,1-1.95-2,2.29,2.29,0,0,1,0-2.55" fill="#eb996e"/><path d="M521.62,250c-1.11-.07-1.14,7.38-7.53,12.65s-14.31,4.43-14.37,5.47c-.11.47,1.76,1.45,5.11,1.55a18.52,18.52,0,0,0,12-4.15,16.12,16.12,0,0,0,5.84-10.61C523,251.81,522.13,250,521.62,250Z" fill="#263238"/><path d="M523.4,182.39c.67,1.86,7.52,1,15.57,2,8.07.83,14.55,3.2,15.63,1.53.47-.8-.65-2.56-3.27-4.37a27.32,27.32,0,0,0-23.77-2.68C524.6,180,523.11,181.5,523.4,182.39Z" fill="#263238"/><path d="M461.58,173.13c1.2,1.56,5.93,0,11.62-.11,5.68-.26,10.49,1.07,11.6-.56.49-.79-.26-2.35-2.36-3.83a16.8,16.8,0,0,0-18.72.54C461.71,170.76,461.05,172.37,461.58,173.13Z" fill="#263238"/><path d="M629.24,295.91a44.14,44.14,0,0,1-52.52-48.81c1.54-12.21,8.13-24.63,3.89-36.18-5.6-15.28-27-20-32.7-35.22-3.3-8.86-.34-19.23-4.08-27.91-3.52-8.17-12.12-12.87-20.48-15.89S506,126.79,499,121.33s-11.4-15.75-6.87-23.4a471,471,0,0,1,108.65,26.39c8.11,3,16.64,6.67,21.43,13.88,5.08,7.63,4.84,17.48,4.41,26.64-2.08,44.63,4.71,86.44,2.63,131.07" fill="#263238"/><path d="M641.09,281.9a4.34,4.34,0,0,0,.82-.27,11.11,11.11,0,0,0,2.26-1.1,16.53,16.53,0,0,0,6.2-7.33A24.56,24.56,0,0,0,652,258.11c-1.19-5.94-4.62-12-9-18.06s-9.87-12.22-13.64-20.06A30.88,30.88,0,0,1,626,207.18c-.09-4.58,1.37-9.17,2.93-13.83s3.1-9.69,2.93-15a33.56,33.56,0,0,0-16.16-27.14c-4.88-3-10.74-4.08-16.38-4.67s-11.32-1-16.4-2.87a21.27,21.27,0,0,1-11.53-10.37c-2.51-4.64-3.93-9.73-5.46-14.66a79.2,79.2,0,0,0-5.61-14.2c-4.57-8.84-11-16.25-18.64-20.94a40.32,40.32,0,0,0-23.6-6.12A30.21,30.21,0,0,0,499.53,85a29.47,29.47,0,0,0-8.31,12.75,23.84,23.84,0,0,0-1.16,9.56,15.18,15.18,0,0,0,.59,3.31c.09,0-.2-1.15-.29-3.33a24.6,24.6,0,0,1,1.4-9.36,29.19,29.19,0,0,1,8.31-12.32,29.48,29.48,0,0,1,18.09-7.2,39.39,39.39,0,0,1,22.9,6.12c7.35,4.6,13.63,11.85,18.08,20.53a77.48,77.48,0,0,1,5.47,14c1.52,4.92,2.93,10.09,5.54,14.93a25.77,25.77,0,0,0,5,6.64,21.89,21.89,0,0,0,7.24,4.42c5.38,2,11.14,2.31,16.76,3s11.16,1.61,15.8,4.47a32.23,32.23,0,0,1,15.5,25.94c.18,5.06-1.24,9.89-2.82,14.56s-3,9.42-2.93,14.27a32.11,32.11,0,0,0,3.49,13.31c3.92,8,9.53,14.17,13.9,20.16s7.84,11.86,9.07,17.61A24.12,24.12,0,0,1,649.85,273a16.65,16.65,0,0,1-5.84,7.31C642.2,281.5,641,281.79,641.09,281.9Z" fill="#455a64"/><path d="M496.58,65.18c0-.09-.73.08-1.93.58A20.74,20.74,0,0,0,490,68.6,24.11,24.11,0,0,0,485,101.51a20.86,20.86,0,0,0,3.67,4.09c1,.83,1.62,1.19,1.68,1.12s-2.12-2-4.48-5.78a24.25,24.25,0,0,1,4.71-31.54C494,66.42,496.7,65.42,496.58,65.18Z" fill="#455a64"/><path d="M386.44,406.28A35.9,35.9,0,0,1,385,401a24.27,24.27,0,0,1,2.43-14.31c2.66-5.64,8.26-11,15.7-14.62a63.47,63.47,0,0,1,12.21-4.35c4.39-1.13,9-2.07,13.69-3.57s9.16-3.52,12.55-6.85,5.21-7.8,5.93-11.94,1-8.14,1.94-11.68a23.27,23.27,0,0,1,4.53-8.95,25.78,25.78,0,0,1,12-8.18c3.36-1,5.35-1,5.33-1.16a5.22,5.22,0,0,0-1.43,0,22,22,0,0,0-4.06.64,25.6,25.6,0,0,0-12.67,8.07,24,24,0,0,0-4.9,9.3c-1,3.67-1.31,7.69-2.1,11.73s-2.31,8.17-5.6,11.17-7.47,5-12,6.49-9.17,2.41-13.6,3.57a62.65,62.65,0,0,0-12.45,4.54c-7.62,3.74-13.39,9.45-16,15.38a23.93,23.93,0,0,0-2.06,14.85,18,18,0,0,0,1.26,3.92A4.82,4.82,0,0,0,386.44,406.28Z" fill="#455a64"/><path d="M602.7,318.27c25.18-6.74,46.94-31.41,55.77-55.93S667.31,211,665,185.06c-1.64-18.82-4.94-38.72-17.44-52.88-18.84-21.36-39.23-32.26-67.71-31.37" fill="#263238"/><path d="M455.66,373.08l23.47-5.9c-5.51-4.37-7.05-10-4.65-16.37,2.8-7.47,10-12.4,17.94-13.3l107.07-12.08a8.59,8.59,0,0,1,9,5.28q7.13,18.09.49,29.8h.51l20.62,4.1L665,673,435.89,662.33Z" fill="#f5f5f5"/><path d="M489.35,368.36a24.26,24.26,0,0,0,4.3.82c2.78.46,6.82,1,11.84,1.44a278.71,278.71,0,0,0,39.34.85,277.52,277.52,0,0,0,39.07-4.75c4.94-1,8.91-1.88,11.63-2.6a24.69,24.69,0,0,0,4.2-1.25,24.59,24.59,0,0,0-4.32.69c-2.75.56-6.75,1.3-11.7,2.14a336.17,336.17,0,0,1-39,4.31,336.53,336.53,0,0,1-39.18-.42c-5-.35-9.06-.69-11.86-1A24.06,24.06,0,0,0,489.35,368.36Z" fill="#263238"/><path d="M333,560.66,226.43,373.55,213.59,341.1s-33.22-71.4-35.54-78.67c-2.68-8.4-7.37-9.13-10.4-7.93-4.72,1.87-6.23,8.9-4.15,16.18.71,2.51,13.63,41.73,13.63,41.73s-2.84-2.68-11-8.17-23.18-5.33-37.06-.39-17.32,7.55-15.65,13a7.26,7.26,0,0,0,4.45,4.41,14.4,14.4,0,0,0,10.26.23c22.33-7.61,32.22,2.45,32.22,2.45l1.68,4.25s-16.78-5.37-26.33,2.22a14.06,14.06,0,0,0-3.48,4.07,18.44,18.44,0,0,0-6.82,31.07c2.28,2.12,5.74,3.67,8.47,2.15a10,10,0,0,0,3.2-3.69,14.93,14.93,0,0,1,1.52-2.12l6.37,11.24s15.67,24.47,21.28,35.9l73.34,195.39a51.77,51.77,0,0,0,67.5,29.94h0A51.74,51.74,0,0,0,333,560.66Z" fill="#ffbe9d"/><path d="M219.1,372.92c-3.76,2.45-9,.78-12.35-2.15s-5.7-6.93-8.87-10.11c-9.49-9.48-25.38-10.37-34.4-20.3-1.26-1.38-2.38-3.48-1.29-5s3.12-1.22,4.82-.88l43.6,8.63" fill="#ffbe9d"/><path d="M210.61,343.1c0-.17-1.61-.67-4.62-1.42s-7.37-1.75-12.78-2.94l-19-4-5.5-1.14c-1.77-.22-4-1.3-6.66.23a3.72,3.72,0,0,0-1.42,3.95,7.58,7.58,0,0,0,1.71,3.21,28.92,28.92,0,0,0,4.91,4.34c7.26,5,15.22,7.08,21.56,10.41a33.68,33.68,0,0,1,8.28,5.64c2.24,2.18,4,4.65,5.87,6.76,3.55,4.44,8.29,6.62,11.55,6.48s4.71-1.63,4.61-1.66c-.1-.24-1.59.92-4.56.68s-7-2.27-10.23-6.65a91.24,91.24,0,0,0-5.76-7.1,34.66,34.66,0,0,0-8.68-6.22c-6.56-3.55-14.48-5.74-21.18-10.41a27.1,27.1,0,0,1-4.45-3.9c-1.22-1.38-1.65-3.05-.77-3.51.88-.65,2.89-.26,4.75.13l5.52,1.05,19.12,3.51c5.45,1,9.87,1.7,12.94,2.15S210.58,343.27,210.61,343.1Z" fill="#eb996e"/><path d="M162.6,328.25c-.29.17-.87-3.48-5-6.74a14.17,14.17,0,0,0-8.43-2.77,36.13,36.13,0,0,0-11.11,1.87,58.45,58.45,0,0,1-11.42,2.59,18.7,18.7,0,0,1-9.58-1.48,7.3,7.3,0,0,1-4.08-5.1,4.39,4.39,0,0,1,0-2.4c.16,0,.15.85.57,2.24a6.89,6.89,0,0,0,4,4.22,18.5,18.5,0,0,0,9,1A63.82,63.82,0,0,0,137.6,319a35.33,35.33,0,0,1,11.63-1.81,14.79,14.79,0,0,1,9.09,3.38,13.12,13.12,0,0,1,3.8,5.3A4.54,4.54,0,0,1,162.6,328.25Z" fill="#eb996e"/><path d="M162.74,267.86c.23-.06,1.15,2.94,2.62,7.78,1.66,5.38,3.64,11.79,5.82,18.88s4.37,13.43,6.11,18.79c1.59,4.8,2.56,7.78,2.34,7.87s-1.55-2.76-3.42-7.48S172,302.39,169.62,295s-4.2-14.13-5.38-19.07S162.53,267.91,162.74,267.86Z" fill="#eb996e"/><path d="M156.57,340a10.17,10.17,0,0,1-2.57-.16c-1.55-.11-4.17-.25-6.14,1.65a4.1,4.1,0,0,0-1,3.92,21.82,21.82,0,0,0,2,5c.83,1.75,1.72,4,1,6.45a7.82,7.82,0,0,1-5,5,8.92,8.92,0,0,1-7-.69,11.16,11.16,0,0,1-4.66-4.54,36,36,0,0,1-3.06-10.11,21.2,21.2,0,0,1-.08-7.11,4.71,4.71,0,0,1,1-2.42c.13.06-.21.91-.36,2.51a25.52,25.52,0,0,0,.58,6.82,39.2,39.2,0,0,0,3.26,9.6c1.69,3,5.91,5.71,9.8,4.39a6.27,6.27,0,0,0,4-3.93c.53-1.76-.09-3.65-.87-5.38a21.46,21.46,0,0,1-2-5.36,5.29,5.29,0,0,1,1.52-5,8,8,0,0,1,7-1.44A6.74,6.74,0,0,1,156.57,340Z" fill="#eb996e"/><path d="M138.17,359.71c.07,0,.56.73.5,2.29a7.17,7.17,0,0,1-3.27,5.5,9.56,9.56,0,0,1-9.47.09,15.58,15.58,0,0,1-7.15-9.11,18.87,18.87,0,0,1,0-11.57A18,18,0,0,1,124,339a17,17,0,0,1,5.42-3.27c1.41-.5,2.24-.58,2.27-.48.13.29-3.22,1-6.9,4.59a17.8,17.8,0,0,0-4.57,7.48,18,18,0,0,0,.12,10.62,14.51,14.51,0,0,0,6.32,8.29,8.49,8.49,0,0,0,8.15.24,6.77,6.77,0,0,0,3.23-4.58C138.28,360.55,138,359.74,138.17,359.71Z" fill="#eb996e"/><path d="M173.67,377.31c0-.13,1.27-.87,3.77-1.15a15.54,15.54,0,0,1,9.78,2.33l-1.2.81a44.31,44.31,0,0,1-.81-5.52c-1-10.85,2.5-19.22,2.85-19s-2.16,8.42-1.22,18.87c.16,1.88.41,3.69.72,5.35l.33,1.83-1.53-1a16.21,16.21,0,0,0-8.87-2.65C175.13,377.13,173.73,377.52,173.67,377.31Z" fill="#eb996e"/><path d="M151.49,310.65c.43.06-.18,3.37-3.17,6S142,319.38,142,319s2.69-1.29,5.25-3.58S151,310.49,151.49,310.65Z" fill="#eb996e"/><path d="M484.21,715.91,372.76,717l18.75-80.86-6.27,15.25A76.81,76.81,0,0,1,314.17,699h0c-35.24,0-59.61-26.22-74.52-58.15C204.78,566.25,171.18,446,171.18,446l68-59.7c49.18,93,95.41,173.81,95.41,173.81s13.35-40.57,23.66-76.75,10.25-55.21,26.09-73.26c24.35-27.75,59.08-34.66,91.32-43l1.2,150.19,7.37,198.54" fill="#e8505b"/><path d="M611.7,604l-203,39.53-9.89,77.95H710.07A61.31,61.31,0,0,0,772,655.4c-4.48-56.82-9.34-126.82-13-156.4-2.88-23.08-12.09-46.94-23-67.47C720.28,402,667.91,364,622,362.1l-8.69,193.29" fill="#e8505b"/><path d="M484.21,715.91,372.76,717l18.75-80.86-6.27,15.25A76.81,76.81,0,0,1,314.17,699h0c-35.24,0-59.61-26.22-74.52-58.15C204.78,566.25,171.18,446,171.18,446l68-59.7c49.18,93,95.41,173.81,95.41,173.81s13.35-40.57,23.66-76.75,10.25-55.21,26.09-73.26c24.35-27.75,59.08-34.66,91.32-43l1.2,150.19,7.37,198.54" fill="#83b450"/><path d="M611.7,604,428.61,637.62a19.1,19.1,0,0,0-15.25,14.86l-14.53,69H710.07A61.31,61.31,0,0,0,772,655.4c-4.48-56.82-9.34-126.82-13-156.4-2.88-23.08-12.09-46.94-23-67.47C720.28,402,667.91,364,622,362.1l-8.69,193.29" fill="#83b450"/><path d="M650.35,598.4a9.09,9.09,0,0,0,.09-1.86c0-1.37,0-3.13,0-5.32,0-4.8-.06-11.43-.11-19.55,0-16.5.29-39.31,1.57-64.45.64-12.58,1.46-24.55,2.33-35.42s1.77-20.66,4.08-28.55,5.78-13.67,9-17,5.47-4.54,5.36-4.7a21.8,21.8,0,0,0-5.77,4.3c-3.36,3.23-7.16,9.07-9.53,17.07s-3.54,17.86-4.43,28.72-1.82,22.87-2.45,35.46c-1.28,25.19-1.43,48-1.14,64.54.14,8.26.37,14.94.58,19.55.12,2.19.21,3.95.29,5.32A8.82,8.82,0,0,0,650.35,598.4Z" fill="#263238"/><path d="M412.65,649.07c.15.18,2-2.91,7.39-6A46.48,46.48,0,0,1,430.41,639c4.2-1.2,9.12-2.13,14.54-3.24,21.69-4.42,51.64-10.57,84.83-16.77s63.37-11.2,85.22-14.71l25.88-4.15,7-1.18a15.73,15.73,0,0,0,2.44-.5,15.23,15.23,0,0,0-2.48.21l-7.07.91c-6.14.81-15,2.06-26,3.69-21.89,3.24-52.11,8.08-85.33,14.29S466.38,630,444.74,634.7c-5.4,1.17-10.33,2.18-14.56,3.46a45.11,45.11,0,0,0-10.43,4.44,24.11,24.11,0,0,0-5.57,4.5,13.61,13.61,0,0,0-1.18,1.44A2.33,2.33,0,0,0,412.65,649.07Z" fill="#263238"/><path d="M649.75,598.4c-.07.26,3.74,1.14,9.53,3.49a80,80,0,0,1,9.82,4.84,78.18,78.18,0,0,1,20.43,17.16,79.89,79.89,0,0,1,6.46,8.84c3.32,5.29,4.84,8.89,5.09,8.78a10.35,10.35,0,0,0-.88-2.6,52.39,52.39,0,0,0-3.32-6.72,69.46,69.46,0,0,0-6.31-9.16,72.6,72.6,0,0,0-20.8-17.47,68.12,68.12,0,0,0-10.12-4.63,53,53,0,0,0-7.18-2.12A9.81,9.81,0,0,0,649.75,598.4Z" fill="#263238"/><path d="M387.61,647A9.37,9.37,0,0,0,388,645c.24-1.42.54-3.28.92-5.59.78-4.85,1.81-11.88,3-20.58,2.37-17.41,5.24-41.52,7.65-68.22s3.87-50.94,4.65-68.49c.38-8.78.63-15.88.73-20.79,0-2.34.07-4.22.09-5.66a10.56,10.56,0,0,0-.07-2,10,10,0,0,0-.23,2c-.09,1.44-.21,3.31-.36,5.64-.29,5.07-.7,12.12-1.2,20.76-1,17.53-2.67,41.73-5.07,68.42s-5.11,50.78-7.22,68.21c-1.05,8.59-1.9,15.6-2.52,20.65-.27,2.32-.48,4.18-.65,5.62A10.37,10.37,0,0,0,387.61,647Z" fill="#263238"/><path d="M320.31,616.74c.08.06.65-.6,1.63-1.85a53.15,53.15,0,0,0,3.74-5.58,73.73,73.73,0,0,0,10-42.62,51.82,51.82,0,0,0-.87-6.66,8.05,8.05,0,0,0-.64-2.38c-.25,0,.3,3.49.48,9.09a83.47,83.47,0,0,1-9.84,42.07C322.13,613.75,320.1,616.59,320.31,616.74Z" fill="#263238"/><path d="M651.17,494a3.22,3.22,0,0,0,1.05.22,25.84,25.84,0,0,0,3.06.29,46.64,46.64,0,0,0,11.27-.88,81.33,81.33,0,0,0,16-5c5.83-2.42,12-5.52,18.49-8.74A138.4,138.4,0,0,1,719.74,472a63.49,63.49,0,0,1,16.16-3.16c9.44-.48,15,2.08,15.08,1.7a3.53,3.53,0,0,0-1-.46,24.18,24.18,0,0,0-2.92-1,38.16,38.16,0,0,0-11.23-1.29,61.4,61.4,0,0,0-16.53,2.9,129.91,129.91,0,0,0-19,7.81c-6.49,3.22-12.62,6.35-18.36,8.8a86.13,86.13,0,0,1-15.68,5.24C657.11,494.63,651.17,493.63,651.17,494Z" fill="#fafafa"/><path d="M616.42,487.12c-.07.39,7.34,2,16.54,3.56s16.72,2.51,16.79,2.11-7.34-2-16.54-3.56S616.49,486.72,616.42,487.12Z" fill="#fafafa"/><path d="M652.43,547.45a25.46,25.46,0,0,0,4.09,1.77c2.67,1,6.57,2.44,11.44,4a294.37,294.37,0,0,0,38.85,9.6c7.71,1.35,15.1,2.33,21.84,3a87,87,0,0,0,18.05.49A30.72,30.72,0,0,0,758.42,563a17.65,17.65,0,0,0,2.78-1.81c.59-.48.88-.74.85-.78s-1.33.87-3.89,2.08a32.62,32.62,0,0,1-11.56,2.82,93,93,0,0,1-17.8-.8c-6.71-.74-14.06-1.76-21.73-3.1a357.33,357.33,0,0,1-38.8-9.15c-4.9-1.45-8.84-2.71-11.56-3.57A26.58,26.58,0,0,0,652.43,547.45Z" fill="#fafafa"/><path d="M617.21,562.25c0,.41,6.85.85,15.31,1s15.33-.07,15.34-.48-6.85-.84-15.31-1S617.22,561.85,617.21,562.25Z" fill="#fafafa"/><path d="M761.89,690.29a6.18,6.18,0,0,0-.3-1.49c-.3-1.12-.67-2.52-1.13-4.22l-.85-3c-.35-1.1-.83-2.26-1.29-3.53a84.58,84.58,0,0,0-3.48-8.47c-.74-1.54-1.5-3.14-2.29-4.82s-1.86-3.29-2.83-5A122.26,122.26,0,0,0,742.81,649,128.44,128.44,0,0,0,699,610.88a123.41,123.41,0,0,0-11.59-5.36c-1.86-.72-3.62-1.52-5.38-2.1l-5.09-1.6a83.17,83.17,0,0,0-8.88-2.27c-1.32-.28-2.53-.59-3.67-.79l-3.13-.42-4.34-.53a5.83,5.83,0,0,0-1.52-.09,6.28,6.28,0,0,0,1.49.38l4.27.8,3.09.55c1.13.23,2.33.58,3.63.9a90.82,90.82,0,0,1,8.75,2.46l5,1.68c1.74.59,3.47,1.42,5.31,2.15,3.71,1.41,7.43,3.43,11.41,5.43a131.7,131.7,0,0,1,43.34,37.68,124.54,124.54,0,0,1,6.95,10.55c1,1.71,2,3.31,2.88,5L753.9,670a88.07,88.07,0,0,1,3.65,8.33c.5,1.24,1,2.38,1.4,3.46s.67,2.07,1,3l1.39,4.13A5.58,5.58,0,0,0,761.89,690.29Z" fill="#fafafa"/><path d="M620.88,604c-.3.25,6.16,4.22,11.55,14.51a70.4,70.4,0,0,1,6.46,19.08c1.5,7.47,2.09,15.88,2.67,24.71s1.24,17.31,2.88,24.88a67.87,67.87,0,0,0,7,19.24,43.17,43.17,0,0,0,8.57,10.84,27.84,27.84,0,0,0,3,2.32,4.37,4.37,0,0,0,1.12.68c.3-.25-6.23-4.11-11.74-14.34a69.22,69.22,0,0,1-6.63-19c-1.55-7.46-2.16-15.87-2.74-24.7s-1.21-17.3-2.8-24.88a69.05,69.05,0,0,0-6.88-19.3,43.23,43.23,0,0,0-8.43-11,29.06,29.06,0,0,0-2.92-2.37A4.43,4.43,0,0,0,620.88,604Z" fill="#fafafa"/><path d="M572.9,722c.41,0-.06-24.23-1-54.09s-2.1-54-2.5-54,.06,24.23,1,54.09S572.5,722,572.9,722Z" fill="#fafafa"/><path d="M496.59,717.83a17.52,17.52,0,0,0,1.25-3.51A40.16,40.16,0,0,0,499,710.1c.38-1.66.88-3.54,1.19-5.67a100.47,100.47,0,0,0,1.49-15A104.85,104.85,0,0,0,496.08,653a101.88,101.88,0,0,0-5.93-13.87c-.92-1.93-2-3.58-2.82-5a41.62,41.62,0,0,0-2.36-3.68,18.43,18.43,0,0,0-2.24-3c-.24.15,2.78,4.51,6.5,12.17a112.4,112.4,0,0,1,5.57,13.83,111.56,111.56,0,0,1,5.51,35.94,110.48,110.48,0,0,1-1.17,14.87C497.9,712.68,496.31,717.75,496.59,717.83Z" fill="#fafafa"/><path d="M626.18,407.18c.1.24,4.45-1.71,11.74-4.06A133.16,133.16,0,0,1,697,397.9c7.59,1,12.21,2.2,12.27,2a14,14,0,0,0-3.19-1,83.1,83.1,0,0,0-8.93-1.93,119.46,119.46,0,0,0-59.55,5.25c-3.63,1.32-6.52,2.52-8.46,3.47A14.45,14.45,0,0,0,626.18,407.18Z" fill="#fafafa"/><path d="M404.08,525.36c0,.2,4,.08,10.43-.17s15.32-.59,25.13-.83,18.7-.34,25.13-.42,10.42-.14,10.43-.35a10.33,10.33,0,0,0-2.79-.34c-1.8-.13-4.41-.24-7.63-.34-6.44-.19-15.34-.26-25.18,0s-18.72.76-25.15,1.27c-3.21.26-5.81.5-7.6.72A10.39,10.39,0,0,0,404.08,525.36Z" fill="#fafafa"/><path d="M348.57,514.85c-.08.25,3.53,1.46,9,4.16a88.25,88.25,0,0,1,35.13,31.31c3.31,5.13,4.92,8.58,5.16,8.47a9.52,9.52,0,0,0-.92-2.53,57.71,57.71,0,0,0-3.36-6.49A79.3,79.3,0,0,0,358,518.08a55.89,55.89,0,0,0-6.84-2.6A9.64,9.64,0,0,0,348.57,514.85Z" fill="#fafafa"/><path d="M376,424.75c0,.36,5.72-.89,14.29,2a98.1,98.1,0,0,1,14.41,6.41c5.31,2.7,11.16,5.88,17.83,8a72.62,72.62,0,0,0,35.23,2.3,67.12,67.12,0,0,0,10.39-2.81,19.24,19.24,0,0,0,3.61-1.59c-.1-.28-5.29,1.95-14.18,3.38a75.47,75.47,0,0,1-34.6-2.67c-6.51-2.07-12.31-5.17-17.67-7.82a90.65,90.65,0,0,0-14.72-6.19,33.11,33.11,0,0,0-10.67-1.53,17.93,17.93,0,0,0-2.93.28C376.28,424.62,375.94,424.7,376,424.75Z" fill="#fafafa"/><path d="M390,613.14a17.63,17.63,0,0,0,3.28,1.52,41.44,41.44,0,0,0,4,1.5c1.57.51,3.34,1.18,5.35,1.68a104.61,104.61,0,0,0,14.32,3,108.73,108.73,0,0,0,35.69-1.07,104.84,104.84,0,0,0,14.11-3.83c2-.63,3.71-1.39,5.25-2s2.82-1.21,3.86-1.73a17.22,17.22,0,0,0,3.18-1.72c-.12-.26-4.75,2-12.61,4.47a118.92,118.92,0,0,1-14,3.48,115.92,115.92,0,0,1-35.27,1.06,119.38,119.38,0,0,1-14.22-2.64C394.83,614.82,390.07,612.87,390,613.14Z" fill="#fafafa"/><path d="M325.38,696.31a4.94,4.94,0,0,0,1.09-.9,39.16,39.16,0,0,0,2.89-2.83,66.81,66.81,0,0,0,8.9-11.93c6.57-10.73,12.16-27.8,12.52-47.06s-3.42-36.4-6.37-48.53c-1.51-6.08-2.88-11-3.86-14.32l-1.18-3.86a5.1,5.1,0,0,0-.5-1.32,5.25,5.25,0,0,0,.22,1.4c.24,1.06.54,2.36.91,3.92.85,3.63,2,8.5,3.4,14.42,2.69,12.16,6.27,29.21,5.92,48.26s-5.71,35.85-12,46.58a75.12,75.12,0,0,1-8.42,12.06C326.66,694.84,325.29,696.21,325.38,696.31Z" fill="#fafafa"/><path d="M223.06,600.88c.21.33,4.84-4.74,14.87-8.36a120.27,120.27,0,0,1,18-4.68c6.88-1.39,14.57-2.66,22.4-5.16A92.3,92.3,0,0,0,314,561.27a85.46,85.46,0,0,0,8.41-9.46c.92-1.19,1.54-2.17,2-2.81a3.94,3.94,0,0,0,.6-1,33.81,33.81,0,0,0-3,3.5,105.9,105.9,0,0,1-8.69,9.06,95.62,95.62,0,0,1-35.36,20.78c-7.69,2.46-15.32,3.76-22.22,5.23a111.76,111.76,0,0,0-18.11,5,43.46,43.46,0,0,0-11.08,6.18,23.69,23.69,0,0,0-2.6,2.26C223.3,600.54,223,600.84,223.06,600.88Z" fill="#fafafa"/><path d="M190.9,507.08a20.37,20.37,0,0,0,3-2.61c.92-.88,2.06-2,3.46-3.11s2.89-2.58,4.72-3.95a130.94,130.94,0,0,1,13-9.24A129.9,129.9,0,0,1,251,472.82a132.61,132.61,0,0,1,15.7-3.06c2.25-.37,4.31-.49,6.12-.69s3.36-.29,4.64-.35a20.63,20.63,0,0,0,4-.37,20.48,20.48,0,0,0-4-.2c-1.29,0-2.86,0-4.68.11s-3.9.16-6.18.47a118.09,118.09,0,0,0-15.91,2.79A121.72,121.72,0,0,0,214.43,487a117.13,117.13,0,0,0-13,9.58c-1.8,1.43-3.27,2.91-4.61,4.14s-2.44,2.36-3.31,3.31A21.16,21.16,0,0,0,190.9,507.08Z" fill="#fafafa"/><path d="M436.9,378.07c-.07.17,1.94,1.22,5.34,2.57A101,101,0,0,0,470,387.11c3.65.29,5.92.24,5.93.05,0-.44-8.94-1.19-19.7-3.73S437.07,377.66,436.9,378.07Z" fill="#fafafa"/><path d="M337.19,773.93a7.83,7.83,0,0,0,8.59,9.92h0a7.84,7.84,0,0,0,6.43-5.5l2.37-8.85-.35.12c-1.48,5.3,3.63,10.17,9.12,9.64h0c3.7-.09,6.88-5.38,7.92-8.2h0a15.31,15.31,0,0,0,14.29-6.86l16.5-25.74,30.56-22.35-18.48-66-65.78,42.56c-2.58,2-3,2.85-7.08,6.65l-42.45,39c4.82,2.89,8.89,2.67,15.57,0s36-22.45,36-22.45l-13.22,58" fill="#ffbe9d"/><path d="M393.45,719.62c-.06-.08-.76.33-2,1.15l-2.17,1.51a13.23,13.23,0,0,0-2.71,2.37,12.22,12.22,0,0,0-2.24,3.81c-.51,1.47-1.05,3-1.6,4.6-1.13,3.3-2.33,6.85-3.6,10.57-2.51,7.51-4.71,14.34-6.22,19.3s-2.37,8.06-2.17,8.12,1.38-2.93,3.15-7.81,4.12-11.64,6.63-19.15c1.23-3.73,2.39-7.28,3.48-10.59.51-1.61,1-3.16,1.48-4.64a11.81,11.81,0,0,1,1.89-3.56,13.75,13.75,0,0,1,2.41-2.37l2-1.71C392.94,720.26,393.51,719.7,393.45,719.62Z" fill="#eb996e"/><path d="M353.88,770.91a11.41,11.41,0,0,0,.94-2.73q.89-3.13,2.11-7.52c1.78-6.36,4.19-15.15,7.25-24.72s6.27-18.15,10.11-23.43a19.94,19.94,0,0,1,5.39-5.37c1.53-1,2.53-1.25,2.48-1.39s-.27,0-.74.12a9.26,9.26,0,0,0-2,.77,18.47,18.47,0,0,0-5.94,5.25c-4.2,5.33-7.58,14-10.68,23.6s-5.33,18.48-6.85,24.91c-.75,3.22-1.32,5.83-1.67,7.65A10.76,10.76,0,0,0,353.88,770.91Z" fill="#eb996e"/><path d="M336.91,774.9a13.23,13.23,0,0,0,1.15-2.95q1.06-3.36,2.6-8.2c2.14-6.93,5-16.55,8.06-27.19,3-10.47,5.65-19.94,7.71-27.25a13.38,13.38,0,0,1,4.5-6.87,17.18,17.18,0,0,1,2.73-1.45s-.3-.06-.83.06a6.78,6.78,0,0,0-2.21.92,13.17,13.17,0,0,0-5.16,7c-2.32,6.95-5,16.55-8.15,27.2s-5.76,20.3-7.65,27.31c-.84,3.27-1.56,6-2.15,8.32A12.85,12.85,0,0,0,336.91,774.9Z" fill="#eb996e"/></svg>