<svg id="illustration" xmlns="http://www.w3.org/2000/svg" viewBox="0 0 512 512"><title>artwork</title><path d="M415.7,167.11V373.33a28.53,28.53,0,0,1-28.44,28.45H124.15A28.53,28.53,0,0,1,95.7,373.33V167.11Z" fill="#f2f2f0"/><path d="M415.7,138.67v28.44H95.7V138.67a28.53,28.53,0,0,1,28.45-28.45H387.26A28.53,28.53,0,0,1,415.7,138.67Z" fill="#83b450"/><path d="M127.7,373.33V167.11h-32V373.33a28.53,28.53,0,0,0,28.45,28.45h32A28.54,28.54,0,0,1,127.7,373.33Z" fill="#d4dae0"/><path d="M156.15,110.22h-32A28.53,28.53,0,0,0,95.7,138.67v28.44h32V138.67A28.54,28.54,0,0,1,156.15,110.22Z" fill="#78a444"/><path d="M387.56,412.44H124.44a39.14,39.14,0,0,1-39.11-39.11V138.67a39.14,39.14,0,0,1,39.11-39.11H387.56a39.14,39.14,0,0,1,39.11,39.11V373.33A39.14,39.14,0,0,1,387.56,412.44ZM124.44,120.89a17.8,17.8,0,0,0-17.77,17.78V373.33a17.8,17.8,0,0,0,17.77,17.78H387.56a17.8,17.8,0,0,0,17.77-17.78V138.67a17.8,17.8,0,0,0-17.77-17.78Z"/><path d="M96,156.44H416v21.34H96Z"/><path d="M152.89,263.11h21.33V320H152.89Z"/><path d="M133.58,296.55l49.27-28.45,10.67,18.48L144.24,315Z"/><path d="M133.58,286.61l10.66-18.47,49.28,28.45-10.67,18.47Z"/><path d="M245.33,263.11h21.34V320H245.33Z"/><path d="M226,296.55,275.3,268.1,286,286.58,236.69,315Z"/><path d="M226,286.61l10.67-18.47L286,296.59l-10.67,18.47Z"/><path d="M344.89,263.11h21.33V320H344.89Z"/><path d="M325.58,296.57l49.27-28.45,10.67,18.47L336.24,315Z"/><path d="M325.59,286.61l10.67-18.47,49.27,28.45-10.66,18.47Z"/><path d="M39.11,391.11H472.89a10.67,10.67,0,0,1,10.67,10.67h0a10.67,10.67,0,0,1-10.67,10.66H39.11a10.67,10.67,0,0,1-10.67-10.66h0A10.67,10.67,0,0,1,39.11,391.11Z"/></svg>