<svg id="Group_3269" data-name="Group 3269" xmlns="http://www.w3.org/2000/svg" xmlns:xlink="http://www.w3.org/1999/xlink" width="221.848" height="72.57" viewBox="0 0 221.848 72.57">
  <defs>
    <clipPath id="clip-path">
      <path id="Path_1576" data-name="Path 1576" d="M166.443,347.255l-10-5.776-19.3-11.141c-1.071-.619-2.138-.244-2.138,1.049v45.391c0,.969.763,1.387,1.694.85l19.74-11.4,10-5.775,9.616-5.551c1.128-.652,1.02-1.546.068-2.059S166.443,347.255,166.443,347.255Z" transform="translate(-135.006 -330.047)" fill="none"/>
    </clipPath>
    <linearGradient id="linear-gradient" x1="0.5" x2="0.5" y2="1" gradientUnits="objectBoundingBox">
      <stop offset="0" stop-color="#006aa2"/>
      <stop offset="0.345" stop-color="#2f8da6"/>
      <stop offset="0.786" stop-color="#66b6ac"/>
      <stop offset="1" stop-color="#7cc6af"/>
    </linearGradient>
    <linearGradient id="linear-gradient-2" y1="0.5" x2="1" y2="0.5" gradientUnits="objectBoundingBox">
      <stop offset="0" stop-color="#4ab59d"/>
      <stop offset="1" stop-color="#dfe385"/>
    </linearGradient>
    <linearGradient id="linear-gradient-3" x1="0.5" x2="0.5" y2="1" gradientUnits="objectBoundingBox">
      <stop offset="0" stop-color="#e4282d"/>
      <stop offset="0.316" stop-color="#ba2d4e"/>
      <stop offset="0.777" stop-color="#83357b"/>
      <stop offset="1" stop-color="#6e388d"/>
    </linearGradient>
    <linearGradient id="linear-gradient-4" x1="0.5" x2="0.5" y2="1" gradientUnits="objectBoundingBox">
      <stop offset="0" stop-color="#f07165"/>
      <stop offset="0.659" stop-color="#faa460"/>
      <stop offset="1" stop-color="#ffba5e"/>
    </linearGradient>
  </defs>
  <path id="Path_1571" data-name="Path 1571" d="M318.489,358.835a9.807,9.807,0,0,1-9.8,9.808H106.448a9.809,9.809,0,0,1-9.807-9.808V305.881a9.808,9.808,0,0,1,9.807-9.807H308.684a9.806,9.806,0,0,1,9.8,9.807Z" transform="translate(-96.641 -296.074)" fill="#1a1818"/>
  <g id="PLAY" transform="translate(16.64 14.736)">
    <g id="Group_3258" data-name="Group 3258" transform="translate(0 0)" clip-path="url(#clip-path)">
      <path id="Path_1572" data-name="Path 1572" d="M135.006,328.285v49.144l24.781-24.571Z" transform="translate(-135.006 -329.05)" fill="url(#linear-gradient)"/>
      <path id="Path_1573" data-name="Path 1573" d="M166.443,346.024l-10-5.775-21.434-12.376v.179l24.781,24.572Z" transform="translate(-135.006 -328.816)" fill="url(#linear-gradient-2)"/>
      <path id="Path_1574" data-name="Path 1574" d="M135.006,409.509v.179l21.434-12.376,10-5.775-6.656-6.6Z" transform="translate(-135.006 -361.13)" fill="url(#linear-gradient-3)"/>
      <path id="Path_1575" data-name="Path 1575" d="M198.8,369.721l-6.656,6.6,6.656,6.6,11.432-6.6Z" transform="translate(-167.359 -352.513)" fill="url(#linear-gradient-4)"/>
    </g>
  </g>
  <g id="Group_3259" data-name="Group 3259" transform="translate(166.003 27.598)">
    <path id="Path_1577" data-name="Path 1577" d="M486.018,387.745a6.18,6.18,0,0,1-2.549-.515,4.8,4.8,0,0,1-1.937-1.584h-.156a19.215,19.215,0,0,1,.156,2.373V393.9h-2.163V373.193h1.76l.3,1.956h.1a5.032,5.032,0,0,1,1.944-1.7,5.9,5.9,0,0,1,2.542-.522,5.282,5.282,0,0,1,4.388,1.943,10.349,10.349,0,0,1-.025,10.922A5.3,5.3,0,0,1,486.018,387.745Zm-.313-12.975a3.836,3.836,0,0,0-3.168,1.213,6.245,6.245,0,0,0-1,3.86v.482a7.15,7.15,0,0,0,1,4.31,3.819,3.819,0,0,0,3.221,1.3,3.35,3.35,0,0,0,2.9-1.5,7.116,7.116,0,0,0,1.049-4.134,6.849,6.849,0,0,0-1.049-4.1A3.455,3.455,0,0,0,485.7,374.771Z" transform="translate(-479.368 -367.194)" fill="#f9f9f9"/>
    <path id="Path_1578" data-name="Path 1578" d="M517.109,379.993h-2.165V359.7h2.165Z" transform="translate(-499.513 -359.703)" fill="#f9f9f9"/>
    <path id="Path_1579" data-name="Path 1579" d="M535.756,387.518l-.431-2.034h-.1a6,6,0,0,1-2.133,1.819,6.477,6.477,0,0,1-2.653.476,4.775,4.775,0,0,1-3.332-1.1,3.994,3.994,0,0,1-1.207-3.116q0-4.329,6.924-4.538l2.426-.079v-.886a3.62,3.62,0,0,0-.724-2.484,2.974,2.974,0,0,0-2.314-.8,9.426,9.426,0,0,0-4.042,1.1l-.665-1.656a10.171,10.171,0,0,1,2.315-.9,10.02,10.02,0,0,1,2.523-.326,5.445,5.445,0,0,1,3.788,1.134,4.739,4.739,0,0,1,1.232,3.639v9.753Zm-4.89-1.525a4.4,4.4,0,0,0,3.175-1.108,4.1,4.1,0,0,0,1.154-3.1V380.49l-2.166.091a7.875,7.875,0,0,0-3.723.8,2.418,2.418,0,0,0-1.141,2.21,2.227,2.227,0,0,0,.711,1.786A2.946,2.946,0,0,0,530.866,385.993Z" transform="translate(-505.716 -367.228)" fill="#f9f9f9"/>
    <path id="Path_1580" data-name="Path 1580" d="M555.222,373.533h2.32l3.13,8.15a31.13,31.13,0,0,1,1.279,4.03h.1q.169-.666.71-2.277t3.54-9.9h2.322l-6.143,16.274a8.118,8.118,0,0,1-2.133,3.424,4.534,4.534,0,0,1-2.992,1.009,8.754,8.754,0,0,1-1.957-.221v-1.734a7.558,7.558,0,0,0,1.6.157,3.307,3.307,0,0,0,3.182-2.5l.795-2.034Z" transform="translate(-522.321 -367.534)" fill="#f9f9f9"/>
  </g>
  <g id="Group_3261" data-name="Group 3261" transform="translate(67.323 26)">
    <path id="Path_1581" data-name="Path 1581" d="M387.693,375.19a5.039,5.039,0,0,1,2.122,4.036c0,2.211-1.256,3.259-2.511,4.244a2.1,2.1,0,0,0-.837,1.466,1.639,1.639,0,0,0,.778,1.285l1.077.835c1.315,1.106,2.51,2.124,2.51,4.187,0,2.81-2.72,5.649-7.861,5.649-4.335,0-6.427-2.062-6.427-4.276a4.3,4.3,0,0,1,2.3-3.647,12.885,12.885,0,0,1,5.709-1.376,3.128,3.128,0,0,1-.9-2.03,2.7,2.7,0,0,1,.3-1.168c-.33.031-.658.06-.958.06a4.726,4.726,0,0,1-4.962-4.692,5.378,5.378,0,0,1,1.912-4.006,8.152,8.152,0,0,1,5.353-1.645h6.157l-1.914,1.077Zm-2.123,13.273a4.633,4.633,0,0,0-.687-.031,11.962,11.962,0,0,0-3.139.481,3.358,3.358,0,0,0-2.571,3.078c0,2.121,2.064,3.648,5.263,3.648,2.868,0,4.394-1.378,4.394-3.23C388.829,390.881,387.843,390.078,385.57,388.463Zm.867-5.68a3.024,3.024,0,0,0,.746-2.183c0-2.152-1.285-5.5-3.765-5.5a2.792,2.792,0,0,0-2.093.987,3.453,3.453,0,0,0-.658,2.212c0,2,1.166,5.321,3.738,5.321A3.061,3.061,0,0,0,386.437,382.783Z" transform="translate(-322.462 -366.265)" fill="#f9f9f9"/>
    <path id="Path_1582" data-name="Path 1582" d="M349.355,387.431a7.043,7.043,0,0,1-7.282-7.045,7.4,7.4,0,0,1,7.731-7.251,6.977,6.977,0,0,1,7.131,7.043A7.292,7.292,0,0,1,349.355,387.431Zm3.73-2.417a5.4,5.4,0,0,0,.9-3.314c0-2.627-1.253-7.64-4.955-7.64a4.158,4.158,0,0,0-2.685,1.016,4.516,4.516,0,0,0-1.374,3.642c0,2.952,1.463,7.815,5.075,7.815A3.812,3.812,0,0,0,353.085,385.013Z" transform="translate(-302.942 -365.711)" fill="#f9f9f9"/>
    <path id="Path_1583" data-name="Path 1583" d="M312.058,387.431a7.043,7.043,0,0,1-7.282-7.045,7.4,7.4,0,0,1,7.731-7.251,6.977,6.977,0,0,1,7.132,7.043A7.293,7.293,0,0,1,312.058,387.431Zm3.731-2.417a5.407,5.407,0,0,0,.9-3.314c0-2.627-1.254-7.64-4.955-7.64a4.158,4.158,0,0,0-2.686,1.016,4.516,4.516,0,0,0-1.373,3.642c0,2.952,1.462,7.815,5.074,7.815A3.815,3.815,0,0,0,315.789,385.013Z" transform="translate(-281.823 -365.711)" fill="#f9f9f9"/>
    <path id="Path_1584" data-name="Path 1584" d="M272.529,378.143l-4.291.99a31.8,31.8,0,0,1-4.95.509c-8.283,0-11.432-6.091-11.432-10.863,0-5.82,4.47-11.22,12.123-11.22a17.275,17.275,0,0,1,4.59.63,11.7,11.7,0,0,1,3.961,1.86l-2.491,2.37-1.05.239.75-1.2a8.575,8.575,0,0,0-6.421-2.819c-4.741,0-8.313,3.6-8.313,8.853,0,5.639,4.081,10.951,10.621,10.951a8.936,8.936,0,0,0,3.811-.75v-4.83l-4.53.24,2.4-1.292h6.362l-.779.75a.7.7,0,0,0-.3.479c-.031.271-.059,1.142-.059,1.441Z" transform="translate(-251.856 -356.892)" fill="#f9f9f9"/>
    <path id="Path_1585" data-name="Path 1585" d="M415.794,376.406c-.991-.09-1.2-.269-1.2-1.441V357.983c.006-.065.01-.131.016-.193.121-1.05.42-1.23,1.352-1.771h-4.293l-2.251,1.08h2.294v.013l0-.011v18.525c0,.6-.118.69-.809,1.589h5.312l1.11-.658C416.816,376.5,416.305,376.466,415.794,376.406Z" transform="translate(-341.079 -356.019)" fill="#f9f9f9"/>
    <path id="Path_1586" data-name="Path 1586" d="M438.066,386.386c-.327.179-.655.389-.981.536a6.94,6.94,0,0,1-2.893.566,6.368,6.368,0,0,1-3.964-1.163,7.712,7.712,0,0,1-3.038-6.288,6.754,6.754,0,0,1,6.824-6.883,5.792,5.792,0,0,1,3.071.835,4.933,4.933,0,0,1,2.083,2.949l-7,2.832-2.295.179c.744,3.784,3.306,5.988,6.138,5.988a7.7,7.7,0,0,0,3.635-1.041Zm-2.8-8.881c.565-.208.863-.387.863-.8a2.957,2.957,0,0,0-2.951-2.562c-1.193,0-3.427.924-3.427,4.142,0,.507.059,1.043.091,1.58Z" transform="translate(-351.141 -365.723)" fill="#f9f9f9"/>
    <g id="Group_3260" data-name="Group 3260" transform="translate(88.912 7.433)">
      <path id="Path_1587" data-name="Path 1587" d="M457.735,373.36v1.966H457.5V373.36h-.651v-.2h1.539v.2Z" transform="translate(-456.846 -373.156)" fill="#f9f9f9"/>
      <path id="Path_1588" data-name="Path 1588" d="M462.937,375.326v-1.984h-.011l-.606,1.984h-.186l-.611-1.984h-.007v1.984H461.3v-2.17h.372l.553,1.754h.007l.544-1.754h.377v2.17Z" transform="translate(-459.367 -373.156)" fill="#f9f9f9"/>
    </g>
  </g>
  <g id="Group_3262" data-name="Group 3262" transform="translate(67.374 14.62)">
    <path id="Path_1589" data-name="Path 1589" d="M257.882,336.169h-1.491a9.891,9.891,0,0,0-.424-1.743h-2.153a9.006,9.006,0,0,0-.438,1.743h-1.4q0-.182,1.088-2.982a23.443,23.443,0,0,0,1.088-3.084h1.761a25.757,25.757,0,0,0,.985,3.04A26.624,26.624,0,0,1,257.882,336.169Zm-2.153-2.632a26.362,26.362,0,0,1-.8-2.6h-.075q0,.182-.825,2.6Z" transform="translate(-251.974 -329.963)" fill="#f7f8f8"/>
    <path id="Path_1590" data-name="Path 1590" d="M272.92,336.169h-1.151a11.345,11.345,0,0,0-1.281-2.017,11.113,11.113,0,0,1-1.528-2.633h-.075a16.425,16.425,0,0,1,.117,1.845q0,1.151.065,2.8H267.92q.07-1.444.07-3.173,0-1.7-.07-2.893H269.3a8.766,8.766,0,0,0,1.151,1.97,11.6,11.6,0,0,1,1.407,2.484h.07a17.674,17.674,0,0,1-.112-1.864q0-1.262-.065-2.59h1.165q-.066,1.155-.065,2.893T272.92,336.169Z" transform="translate(-261.004 -329.963)" fill="#f7f8f8"/>
    <path id="Path_1591" data-name="Path 1591" d="M288.326,332.889a3.436,3.436,0,0,1-.848,2.311,2.962,2.962,0,0,1-2.376.988q-.69,0-1.9-.056.061-1.407.061-3.173,0-1.7-.061-2.893h.815q.2,0,.6-.014t.517-.014a3.141,3.141,0,0,1,2.439.839A2.9,2.9,0,0,1,288.326,332.889Zm-1.272.2a2.245,2.245,0,0,0-.522-1.507,1.978,1.978,0,0,0-1.594-.612,4.943,4.943,0,0,0-.55.042q.047.932.047,1.947,0,1.114.046,2.209a3.087,3.087,0,0,0,.606.061,1.76,1.76,0,0,0,1.484-.622A2.4,2.4,0,0,0,287.053,333.09Z" transform="translate(-269.656 -329.926)" fill="#f7f8f8"/>
    <path id="Path_1592" data-name="Path 1592" d="M302.962,336.132h-1.379a9.151,9.151,0,0,0-.829-2.036,1.086,1.086,0,0,0-.932-.387c-.18,0-.353,0-.517,0q0,1.2.042,2.418h-1.3q.061-1.407.06-3.173,0-1.7-.06-2.893h.806q.14,0,.585-.014t.822-.014q2.138,0,2.139,1.463a1.641,1.641,0,0,1-1.221,1.617v.07a1.456,1.456,0,0,1,.825.733A16.219,16.219,0,0,1,302.962,336.132Zm-1.747-4.287q0-.927-1.193-.927a4.059,4.059,0,0,0-.774.065q.051.722.052,1.882.256.009.433.009Q301.214,332.875,301.215,331.846Z" transform="translate(-278.066 -329.926)" fill="#f7f8f8"/>
    <path id="Path_1593" data-name="Path 1593" d="M317.028,332.841a3.347,3.347,0,0,1-.876,2.372,2.843,2.843,0,0,1-2.167.941,2.737,2.737,0,0,1-2.059-.865,3.042,3.042,0,0,1-.829-2.2,3.344,3.344,0,0,1,.876-2.372,2.842,2.842,0,0,1,2.167-.941,2.741,2.741,0,0,1,2.059.862A3.041,3.041,0,0,1,317.028,332.841Zm-1.286.135a2.4,2.4,0,0,0-.5-1.579,1.535,1.535,0,0,0-1.23-.606,1.421,1.421,0,0,0-1.155.611,2.436,2.436,0,0,0-.475,1.542,2.4,2.4,0,0,0,.5,1.577,1.535,1.535,0,0,0,1.228.608,1.419,1.419,0,0,0,1.156-.613A2.438,2.438,0,0,0,315.742,332.976Z" transform="translate(-285.453 -329.78)" fill="#f7f8f8"/>
    <path id="Path_1594" data-name="Path 1594" d="M329.124,336.169H327.8q.061-1.444.061-3.173,0-1.7-.061-2.893h1.319q-.061,1.174-.06,2.893Q329.063,334.753,329.124,336.169Z" transform="translate(-294.914 -329.963)" fill="#f7f8f8"/>
    <path id="Path_1595" data-name="Path 1595" d="M339.724,332.889a3.436,3.436,0,0,1-.848,2.311,2.961,2.961,0,0,1-2.376.988q-.69,0-1.9-.056.06-1.407.061-3.173,0-1.7-.061-2.893h.815q.2,0,.6-.014t.517-.014a3.141,3.141,0,0,1,2.439.839A2.9,2.9,0,0,1,339.724,332.889Zm-1.272.2a2.247,2.247,0,0,0-.522-1.507,1.978,1.978,0,0,0-1.594-.612,4.936,4.936,0,0,0-.55.042q.047.932.047,1.947,0,1.114.046,2.209a3.087,3.087,0,0,0,.606.061,1.76,1.76,0,0,0,1.484-.622A2.4,2.4,0,0,0,338.452,333.09Z" transform="translate(-298.761 -329.926)" fill="#f7f8f8"/>
    <path id="Path_1596" data-name="Path 1596" d="M359.358,336.169h-1.491a9.828,9.828,0,0,0-.425-1.743H355.29a8.99,8.99,0,0,0-.438,1.743h-1.4q0-.182,1.088-2.982a23.4,23.4,0,0,0,1.088-3.084h1.761a25.712,25.712,0,0,0,.986,3.04A26.729,26.729,0,0,1,359.358,336.169Zm-2.153-2.632a26.446,26.446,0,0,1-.8-2.6h-.074a27.278,27.278,0,0,1-.825,2.6Z" transform="translate(-309.436 -329.963)" fill="#f7f8f8"/>
    <path id="Path_1597" data-name="Path 1597" d="M373.823,331.655A1.817,1.817,0,0,1,373,333.3a3.678,3.678,0,0,1-2.029.531q-.219,0-.312-.009,0,.876.051,2.311H369.4q.061-1.346.061-3.173,0-1.677-.061-2.893h.811q.172,0,.661-.014t.848-.014a2.666,2.666,0,0,1,1.5.4A1.355,1.355,0,0,1,373.823,331.655Zm-1.2.256q0-1-1.323-1a3.724,3.724,0,0,0-.7.07q.051.88.051,1.994.116.01.27.01Q372.62,332.987,372.62,331.911Z" transform="translate(-318.466 -329.926)" fill="#f7f8f8"/>
    <path id="Path_1598" data-name="Path 1598" d="M386.706,331.655a1.817,1.817,0,0,1-.827,1.645,3.681,3.681,0,0,1-2.029.531c-.146,0-.25,0-.312-.009q0,.876.051,2.311H382.28q.06-1.346.061-3.173,0-1.677-.061-2.893h.811q.172,0,.662-.014t.848-.014a2.666,2.666,0,0,1,1.5.4A1.355,1.355,0,0,1,386.706,331.655Zm-1.2.256q0-1-1.323-1a3.724,3.724,0,0,0-.7.07q.051.88.051,1.994c.078.007.168.01.27.01Q385.5,332.987,385.5,331.911Z" transform="translate(-325.761 -329.926)" fill="#f7f8f8"/>
    <path id="Path_1599" data-name="Path 1599" d="M405.806,332.841a3.345,3.345,0,0,1-.876,2.372,2.842,2.842,0,0,1-2.167.941,2.738,2.738,0,0,1-2.059-.865,3.044,3.044,0,0,1-.829-2.2,3.346,3.346,0,0,1,.876-2.372,2.843,2.843,0,0,1,2.167-.941,2.741,2.741,0,0,1,2.059.862A3.043,3.043,0,0,1,405.806,332.841Zm-1.286.135a2.4,2.4,0,0,0-.5-1.579,1.534,1.534,0,0,0-1.23-.606,1.421,1.421,0,0,0-1.156.611,2.435,2.435,0,0,0-.475,1.542,2.4,2.4,0,0,0,.5,1.577,1.534,1.534,0,0,0,1.227.608,1.418,1.418,0,0,0,1.156-.613A2.435,2.435,0,0,0,404.52,332.976Z" transform="translate(-335.725 -329.78)" fill="#f7f8f8"/>
    <path id="Path_1600" data-name="Path 1600" d="M421.583,336.169h-1.151a11.345,11.345,0,0,0-1.281-2.017,11.119,11.119,0,0,1-1.528-2.633h-.074a16.512,16.512,0,0,1,.116,1.845q0,1.151.065,2.8h-1.146q.07-1.444.07-3.173,0-1.7-.07-2.893h1.384a8.78,8.78,0,0,0,1.151,1.97,11.6,11.6,0,0,1,1.407,2.484h.07a17.585,17.585,0,0,1-.112-1.864q0-1.262-.065-2.59h1.165q-.065,1.155-.065,2.893T421.583,336.169Z" transform="translate(-345.186 -329.963)" fill="#f7f8f8"/>
  </g>
</svg>
