<svg xmlns="http://www.w3.org/2000/svg" xmlns:xlink="http://www.w3.org/1999/xlink" width="1725.898" height="926.939" viewBox="0 0 1725.898 926.939">
  <defs>
    <linearGradient id="linear-gradient" x1="0.5" x2="0.5" y2="1" gradientUnits="objectBoundingBox">
      <stop offset="0" stop-color="#4380b9"/>
      <stop offset="1" stop-color="#fff"/>
    </linearGradient>
    <linearGradient id="linear-gradient-2" x1="0" y1="0.5" x2="1" y2="0.5" xlink:href="#linear-gradient"/>
  </defs>
  <g id="Group_4303" data-name="Group 4303" transform="translate(-195)">
    <path id="Path_10" data-name="Path 10" d="M730.564,0S537.445,61.709,562.3,212.6,977.086,397.129,924.128,553.64s74.228,364.972,357.84,372.995,533.94-145.281,697.547-147.019S2285.992,833.5,2285.992,833.5V0Z" transform="translate(-365.095)" fill="#4380b9" opacity="0.08"/>
    <path id="Path_351" data-name="Path 351" d="M289.669,697.714H978.406s114.638-44.482,106.658-172.321C1077.283,400.76,953.871,395.748,948.386,289.2S896.379,40.32,695.044,46.267c-160.714,4.746-149.365,138.365-280.1,181.139S181.918,287.874,164.426,446.857C144.407,628.809,289.669,697.714,289.669,697.714Z" transform="translate(735.091 109.109)" opacity="0.09" fill="url(#linear-gradient)"/>
    <path id="Path_350" data-name="Path 350" d="M392.161,203.331c62.395-42.769,42.934-108.256,11.7-123.853-24.541-12.254-36.124,8.064-98.871,5.4S175.411,38.027,162.443,101.171C141.646,202.434,329.765,246.1,392.161,203.331Z" transform="translate(735.18 107.983)" opacity="0.09" fill="url(#linear-gradient-2)"/>
  </g>
</svg>
