<svg id="illustration" xmlns="http://www.w3.org/2000/svg" viewBox="0 0 1200 800"><title>artwork</title><rect x="22.35" y="0.65" width="1155.43" height="798.75" fill="#fafafa"/><path d="M1177.78,799.4c0-4.32-.21-312.82-.53-798.75l.53.53L22.44,1.31h-.09L23,.65C23,286,23,557,22.94,799.4l-.59-.59,1155.43.59L22.35,800h-.6v-.6C21.73,557,21.71,286,21.69.65V0h.75L1177.78.13h.53V.65C1178,486.58,1177.78,795.09,1177.78,799.4Z" fill="#4380b4"/><rect x="22.35" y="0.65" width="1155.43" height="46.35" fill="#4380b4"/><path d="M55.32,23a7.12,7.12,0,1,1-7.12-7.12A7.12,7.12,0,0,1,55.32,23Z" fill="#fff"/><path d="M81,23a7.12,7.12,0,1,1-7.12-7.12A7.12,7.12,0,0,1,81,23Z" fill="#fff"/><path d="M106.66,23a7.12,7.12,0,1,1-7.12-7.12A7.12,7.12,0,0,1,106.66,23Z" fill="#fff"/><path d="M1136.45,749.2c0-2.89-.15-95.36-.39-259.45l.39.39-1066.67.27h-.06l.65-.66c0,88.88,0,175.71,0,259.45l-.64-.64,1066.73.64-1066.73.64h-.64v-.64c0-83.74,0-170.57,0-259.45v-.65h.72l1066.67.27h.38v.38C1136.59,653.84,1136.45,746.31,1136.45,749.2Z" fill="#e1e1e1"/><path d="M587.85,468s0-2.26-.06-6.61,0-10.79-.06-19.2c0-16.83-.08-41.55-.14-73.17-.06-63.18-.16-153.91-.27-264.21l.53.53-515.72.13h0l.65-.66c0,129.93,0,253.26-.06,363.19l-.59-.59,372,.29,105.94.16,28.13.07,7.26,0,2.48,0s-.8,0-2.41,0l-7.19,0-28,.07-105.81.16-372.34.3h-.6V468c0-109.93,0-233.26-.06-363.19v-.65h.7l515.72.12h.53v.53c-.11,110.44-.21,201.28-.27,264.54-.06,31.57-.11,56.25-.14,73.05,0,8.37,0,14.77-.06,19.11S587.85,468,587.85,468Z" fill="#e1e1e1"/><path d="M127.85,399.28,165,345.55a23.8,23.8,0,0,1,33.41-5.82l5.22,3.73A23.79,23.79,0,0,0,240,331.81L258,279c7.33-21.46,37.68-21.46,45,0l8.73,25.54c7,20.48,35.49,21.73,44.26,1.94l7.57-17.08A23.79,23.79,0,0,1,405,285.65h0c11,16.17,35.81,12.8,42.15-5.73l8.43-24.69c7.76-22.68,40.39-21,45.71,2.41l32.28,141.64S129,398.15,127.85,399.28Z" fill="#e8505b"/><path d="M127.85,399.28,165,345.55a23.8,23.8,0,0,1,33.41-5.82l5.22,3.73A23.79,23.79,0,0,0,240,331.81L258,279c7.33-21.46,37.68-21.46,45,0l8.73,25.54c7,20.48,35.49,21.73,44.26,1.94l7.57-17.08A23.79,23.79,0,0,1,405,285.65h0c11,16.17,35.81,12.8,42.15-5.73l8.43-24.69c7.76-22.68,40.39-21,45.71,2.41l32.28,141.64S129,398.15,127.85,399.28Z" fill="#1f3d73"/><path d="M126.81,400.68,157,312.38c7.07-20.69,36.2-21.05,43.78-.54L215.23,351a23.23,23.23,0,0,0,39.9,6.51l11.72-14.56a23.22,23.22,0,0,1,31.82-4.19L326,358.66a23.16,23.16,0,0,0,13.71,4.48h34.71a23.2,23.2,0,0,1,13.72,4.49l25.83,18.88a23.23,23.23,0,0,0,32.9-5.64l24.24-35.45c.31-.46.63-.89,1-1.32,9.73-12.31,29.22-9.71,36.29,4.31l25.93,51.43S126.81,399,126.81,400.68Z" fill="#4380b4"/><path d="M534.1,399.84l-31.53-25.67c-43.26-31.82-63.77,28.74-97.77-16.7l-11.71-14.56a23.23,23.23,0,0,0-31.83-4.19l-13.55,9.91a75.29,75.29,0,0,1-44.44,14.51H285.56a23.22,23.22,0,0,0-13.72,4.49L246,386.51c-10.59,7.75-18,8.8-34.94-5.44,0,0-18.4-15-18.83-15.49-9-11-27.87-11-36,0a93.33,93.33,0,0,1-6.2,7.42l-24.36,26.84S534.1,398.17,534.1,399.84Z" fill="#83b450"/><path d="M238.83,196c0,.36-14.43.65-32.23.65s-32.23-.29-32.23-.65,14.42-.66,32.23-.66S238.83,195.59,238.83,196Z" fill="#263238"/><rect x="156.3" y="190.44" width="11.03" height="11.03" fill="#e8505b"/><path d="M360.43,196c0,.36-14.43.65-32.23.65S296,196.32,296,196s14.43-.66,32.23-.66S360.43,195.59,360.43,196Z" fill="#263238"/><rect x="277.9" y="190.44" width="11.03" height="11.03" fill="#e8505b"/><path d="M482,196c0,.36-14.43.65-32.23.65s-32.24-.29-32.24-.65,14.43-.66,32.24-.66S482,195.59,482,196Z" fill="#263238"/><rect x="399.5" y="190.44" width="11.03" height="11.03" fill="#e8505b"/><path d="M483.64,704.84,510.18,667a9.51,9.51,0,0,1,13.52-2.13l14,10.54a9.51,9.51,0,0,0,14-2.84l40.29-69.77a9.51,9.51,0,0,1,15.7-1.13l25.15,31.89a9.52,9.52,0,0,0,15.5-.78l18.38-28.89a9.51,9.51,0,0,1,16.26.35l15.17,26.28a9.51,9.51,0,0,0,16.26.36l51.89-81.33a9.51,9.51,0,0,1,15.92-.17l85.73,128.24a9.51,9.51,0,0,0,15,1.11l52.08-57.33a9.51,9.51,0,0,1,13.78-.32l41.43,41.58a9.52,9.52,0,0,0,15-2l74.11-128.37c4.87-8.43,17.75-5,17.75,4.75V704.84Z" fill="#1f3d73"/><path d="M1095.4,725.81a5,5,0,0,1,0-.73c0-.54,0-1.28,0-2.26,0-2.07,0-5.15-.08-9.36l.17.17c-35.42.28-158.64.48-305,.48s-269.59-.2-305-.48l.17-.17c0,4.21-.07,7.29-.09,9.36,0,1,0,1.72,0,2.26a5,5,0,0,1,0,.73,4,4,0,0,1-.05-.73c0-.54,0-1.28,0-2.26,0-2.07,0-5.15-.09-9.36v-.17h.18c35.41-.27,158.62-.48,305-.48s269.55.21,305,.48h.17v.17c0,4.21-.06,7.29-.08,9.36,0,1,0,1.72,0,2.26A4,4,0,0,1,1095.4,725.81Z" fill="#263238"/><path d="M553.2,724.83c-.36,0-.65-1.16-.65-2.6s.29-2.6.65-2.6.66,1.17.66,2.6S553.56,724.83,553.2,724.83Z" fill="#263238"/><path d="M621,724.83c-.36,0-.66-1.16-.66-2.6s.3-2.6.66-2.6.65,1.17.65,2.6S621.34,724.83,621,724.83Z" fill="#263238"/><path d="M688.75,724.83c-.36,0-.65-1.16-.65-2.6s.29-2.6.65-2.6.66,1.17.66,2.6S689.11,724.83,688.75,724.83Z" fill="#263238"/><path d="M756.53,724.83c-.37,0-.66-1.16-.66-2.6s.29-2.6.66-2.6.65,1.17.65,2.6S756.89,724.83,756.53,724.83Z" fill="#263238"/><path d="M824.3,724.83c-.36,0-.65-1.16-.65-2.6s.29-2.6.65-2.6.66,1.17.66,2.6S824.66,724.83,824.3,724.83Z" fill="#263238"/><path d="M892.08,724.83c-.37,0-.66-1.16-.66-2.6s.29-2.6.66-2.6.65,1.17.65,2.6S892.44,724.83,892.08,724.83Z" fill="#263238"/><path d="M959.85,724.83c-.36,0-.65-1.16-.65-2.6s.29-2.6.65-2.6.65,1.17.65,2.6S960.21,724.83,959.85,724.83Z" fill="#263238"/><path d="M1027.63,724.83c-.37,0-.66-1.16-.66-2.6s.29-2.6.66-2.6.65,1.17.65,2.6S1028,724.83,1027.63,724.83Z" fill="#263238"/><path d="M1139.81,384.77s0-1.51,0-4.4,0-7.2,0-12.82c0-11.25-.07-27.82-.12-49.13-.06-42.6-.15-104.19-.26-180.21l.48.48-515.72.17h0l.66-.65c0,86.81,0,170.22,0,246.56l-.62-.62,370.44.29,106.88.17,28.54.08,7.37,0c1.66,0,2.53,0,2.53,0l-2.45,0-7.31,0-28.4.08-106.74.17-370.86.3h-.62v-.62c0-76.34,0-159.75,0-246.56v-.66h.69l515.72.18h.48v.48c-.11,76.15-.2,137.83-.26,180.5,0,21.27-.09,37.8-.12,49,0,5.58,0,9.84-.05,12.72S1139.81,384.77,1139.81,384.77Z" fill="#e1e1e1"/><path d="M1023.08,245.72H667.79a5.92,5.92,0,1,1,0-11.84h355.29a5.92,5.92,0,0,1,0,11.84Z" fill="#e1e1e1"/><path d="M1023.08,198.83H667.79a5.92,5.92,0,1,1,0-11.84h355.29a5.92,5.92,0,0,1,0,11.84Z" fill="#e1e1e1"/><path d="M828.33,245.72H667.79a5.92,5.92,0,1,1,0-11.84H828.33a5.92,5.92,0,0,1,0,11.84Z" fill="#83b450"/><path d="M1068.12,242.33h-2.63v3.39h-1.91v-3.39h-7.68v-1.39l7.07-9h2.13l-6.77,8.73h5.31v-3h1.85v3h2.63Z" fill="#263238"/><path d="M1078.93,241.57c0,2.39-1.69,4.31-5.23,4.31a7.9,7.9,0,0,1-5.07-1.68l.91-1.56a6.21,6.21,0,0,0,4.15,1.48c2.09,0,3.27-1,3.27-2.47s-1-2.52-4.18-2.52h-3.14l.73-7.23h7.79v1.72H1072l-.38,3.79h1.54C1077.32,237.41,1078.93,239.13,1078.93,241.57Z" fill="#263238"/><path d="M1080.16,235.56c0-2.26,1.3-3.77,3.21-3.77s3.2,1.5,3.2,3.77-1.28,3.77-3.2,3.77S1080.16,237.8,1080.16,235.56Zm5.15,0c0-1.66-.73-2.65-1.94-2.65s-1.93,1-1.93,2.65.75,2.64,1.93,2.64S1085.31,237.21,1085.31,235.56Zm6.39-3.66h1.52l-9.43,13.82h-1.52Zm-2.78,10.17c0-2.25,1.28-3.77,3.2-3.77s3.22,1.52,3.22,3.77-1.31,3.77-3.22,3.77S1088.92,244.32,1088.92,242.07Zm5.13,0c0-1.64-.75-2.65-1.93-2.65s-1.94,1-1.94,2.65.73,2.64,1.94,2.64S1094.05,243.71,1094.05,242.07Z" fill="#263238"/><path d="M1023.08,289.14H667.79a5.92,5.92,0,1,1,0-11.84h355.29a5.92,5.92,0,0,1,0,11.84Z" fill="#e1e1e1"/><path d="M880.63,289.14H668.16c-4.42,0-6.29-2.65-6.29-5.92s1.87-5.92,4.18-5.92H878.53c4.16,0,6.8,2.65,6.8,5.92A6,6,0,0,1,880.63,289.14Z" fill="#83b450"/><path d="M1066.16,275.33v1.34l-5.58,12.47h-2.09l5.46-12.09h-6.31v2.46h-1.9v-4.18Z" fill="#263238"/><path d="M1067.5,282.24c0-4.5,2.41-7.07,5.65-7.07s5.62,2.57,5.62,7.07-2.4,7.06-5.62,7.06S1067.5,286.74,1067.5,282.24Zm9.3,0c0-3.54-1.5-5.31-3.65-5.31s-3.67,1.77-3.67,5.31,1.5,5.3,3.67,5.3S1076.8,285.77,1076.8,282.24Z" fill="#263238"/><path d="M1080.45,279c0-2.25,1.31-3.77,3.22-3.77s3.2,1.5,3.2,3.77-1.28,3.77-3.2,3.77S1080.45,281.23,1080.45,279Zm5.16,0c0-1.66-.74-2.65-1.94-2.65s-1.93,1-1.93,2.65.75,2.64,1.93,2.64S1085.61,280.64,1085.61,279Zm6.39-3.65h1.52l-9.44,13.81h-1.51Zm-2.78,10.16c0-2.25,1.28-3.77,3.19-3.77s3.22,1.52,3.22,3.77-1.3,3.77-3.22,3.77S1089.22,287.74,1089.22,285.49Zm5.13,0c0-1.64-.75-2.64-1.94-2.64s-1.93,1-1.93,2.64.73,2.65,1.93,2.65S1094.35,287.13,1094.35,285.49Z" fill="#263238"/><path d="M1023.08,331.54H667.79a5.93,5.93,0,0,1,0-11.85h355.29a5.93,5.93,0,0,1,0,11.85Z" fill="#e1e1e1"/><path d="M799.76,331.54h-132a5.93,5.93,0,0,1,0-11.85h132a5.93,5.93,0,0,1,0,11.85Z" fill="#83b450"/><path d="M1065.79,327.39c0,2.39-1.7,4.31-5.23,4.31a7.92,7.92,0,0,1-5.07-1.68l.9-1.56a6.21,6.21,0,0,0,4.15,1.48c2.09,0,3.28-1,3.28-2.47s-1-2.52-4.19-2.52h-3.14l.73-7.23h7.8v1.72h-6.14l-.37,3.79h1.54C1064.17,323.23,1065.79,325,1065.79,327.39Z" fill="#263238"/><path d="M1067.43,324.63c0-4.5,2.4-7.07,5.64-7.07s5.63,2.57,5.63,7.07-2.41,7.07-5.63,7.07S1067.43,329.13,1067.43,324.63Zm9.29,0c0-3.53-1.5-5.31-3.65-5.31s-3.67,1.78-3.67,5.31,1.5,5.31,3.67,5.31S1076.72,328.16,1076.72,324.63Z" fill="#263238"/><path d="M1080.38,321.37c0-2.25,1.3-3.77,3.21-3.77s3.2,1.5,3.2,3.77-1.28,3.77-3.2,3.77S1080.38,323.62,1080.38,321.37Zm5.15,0c0-1.66-.73-2.64-1.94-2.64s-1.93,1-1.93,2.64.75,2.65,1.93,2.65S1085.53,323,1085.53,321.37Zm6.39-3.65h1.52L1084,331.54h-1.52Zm-2.78,10.17c0-2.25,1.28-3.77,3.2-3.77s3.21,1.52,3.21,3.77-1.3,3.77-3.21,3.77S1089.14,330.14,1089.14,327.89Zm5.13,0c0-1.64-.75-2.65-1.93-2.65s-1.94,1-1.94,2.65.73,2.64,1.94,2.64S1094.27,329.52,1094.27,327.89Z" fill="#263238"/><path d="M903,198.83H667.79a5.92,5.92,0,1,1,0-11.84H903a5.92,5.92,0,0,1,0,11.84Z" fill="#83b450"/><path d="M1066.8,194.62c0,2.67-2.16,4.37-4.9,4.37-3.71,0-5.8-2.49-5.8-6.89,0-4.72,2.66-7.25,6.53-7.25a6.65,6.65,0,0,1,3.43.81l-.75,1.54a4.8,4.8,0,0,0-2.64-.65c-2.8,0-4.6,1.76-4.6,5.21a4.35,4.35,0,0,0,0,.5,4.59,4.59,0,0,1,4-1.82C1064.8,190.44,1066.8,192.08,1066.8,194.62Zm-1.92.08c0-1.61-1.22-2.66-3.16-2.66s-3.18,1.16-3.18,2.68,1.15,2.67,3.28,2.67C1063.62,197.39,1064.88,196.34,1064.88,194.7Z" fill="#263238"/><path d="M1068.27,191.92c0-4.5,2.41-7.07,5.65-7.07s5.62,2.57,5.62,7.07-2.4,7.07-5.62,7.07S1068.27,196.42,1068.27,191.92Zm9.3,0c0-3.53-1.5-5.31-3.65-5.31s-3.67,1.78-3.67,5.31,1.5,5.31,3.67,5.31S1077.57,195.45,1077.57,191.92Z" fill="#263238"/><path d="M1081.22,188.66c0-2.25,1.31-3.77,3.22-3.77s3.2,1.5,3.2,3.77-1.28,3.77-3.2,3.77S1081.22,190.91,1081.22,188.66Zm5.16,0c0-1.65-.74-2.64-1.94-2.64s-1.93,1-1.93,2.64.75,2.65,1.93,2.65S1086.38,190.32,1086.38,188.66Zm6.39-3.65h1.52l-9.44,13.82h-1.51ZM1090,195.18c0-2.25,1.28-3.77,3.19-3.77s3.22,1.52,3.22,3.77-1.3,3.77-3.22,3.77S1090,197.43,1090,195.18Zm5.13,0c0-1.64-.75-2.65-1.94-2.65s-1.93,1-1.93,2.65.73,2.64,1.93,2.64S1095.12,196.81,1095.12,195.18Z" fill="#263238"/><path d="M1014.79,410c0,.36-87,.65-194.2.65s-194.23-.29-194.23-.65,86.94-.65,194.23-.65S1014.79,409.67,1014.79,410Z" fill="#e1e1e1"/><path d="M1014.79,433.06c0,.36-87,.65-194.2.65s-194.23-.29-194.23-.65,86.94-.65,194.23-.65S1014.79,432.7,1014.79,433.06Z" fill="#e1e1e1"/><path d="M1014.79,453.89c0,.36-87,.65-194.2.65s-194.23-.29-194.23-.65,86.94-.65,194.23-.65S1014.79,453.53,1014.79,453.89Z" fill="#e1e1e1"/><path d="M140.71,689.8h0a7,7,0,0,1-7-7v-131a7,7,0,0,1,7-7h0a7,7,0,0,1,7,7v131A7,7,0,0,1,140.71,689.8Z" fill="#e1e1e1"/><path d="M140.71,690.42h0a7,7,0,0,1-7-7V599a7,7,0,0,1,7-7h0a7,7,0,0,1,7,7v84.44A7,7,0,0,1,140.71,690.42Z" fill="#4380b4"/><path d="M168.62,689.8h0a7,7,0,0,1-7-7v-131a7,7,0,0,1,7-7h0a7,7,0,0,1,7,7v131A7,7,0,0,1,168.62,689.8Z" fill="#e1e1e1"/><path d="M168.62,690.42h0a7,7,0,0,1-7-7v-111a7,7,0,0,1,7-7h0a7,7,0,0,1,7,7v111A7,7,0,0,1,168.62,690.42Z" fill="#4380b4"/><path d="M196.53,689.8h0a7,7,0,0,1-7-7v-131a7,7,0,0,1,7-7h0a7,7,0,0,1,7,7v131A7,7,0,0,1,196.53,689.8Z" fill="#e1e1e1"/><path d="M196.53,690.42h0a7,7,0,0,1-7-7v-64.5a7,7,0,0,1,7-7h0a7,7,0,0,1,7,7v64.5A7,7,0,0,1,196.53,690.42Z" fill="#4380b4"/><path d="M224.44,689.8h0a7,7,0,0,1-7-7v-131a7,7,0,0,1,7-7h0a7,7,0,0,1,7,7v131A7,7,0,0,1,224.44,689.8Z" fill="#e1e1e1"/><path d="M224.44,690.42h0a7,7,0,0,1-7-7v-111a7,7,0,0,1,7-7h0a7,7,0,0,1,7,7v111A7,7,0,0,1,224.44,690.42Z" fill="#4380b4"/><path d="M252.34,689.8h0a7,7,0,0,1-7-7v-131a7,7,0,0,1,7-7h0a7,7,0,0,1,7,7v131A7,7,0,0,1,252.34,689.8Z" fill="#e1e1e1"/><path d="M252.34,690.42h0a7,7,0,0,1-7-7V593.68a7,7,0,0,1,7-7h0a7,7,0,0,1,7,7v89.76A7,7,0,0,1,252.34,690.42Z" fill="#4380b4"/><path d="M280.25,689.8h0a7,7,0,0,1-7-7v-131a7,7,0,0,1,7-7h0a7,7,0,0,1,7,7v131A7,7,0,0,1,280.25,689.8Z" fill="#e1e1e1"/><path d="M280.25,689.8h0c-3.85,0-7-3.13-7-6.36v-64.5c0-4.47,3.13-7.59,7-7.59h0a7,7,0,0,1,7,7v64.49A7,7,0,0,1,280.25,689.8Z" fill="#4380b4"/><path d="M308.16,689.8h0a7,7,0,0,1-7-7v-131a7,7,0,0,1,7-7h0a7,7,0,0,1,7,7v131A7,7,0,0,1,308.16,689.8Z" fill="#e1e1e1"/><path d="M308.16,690.42h0a7,7,0,0,1-7-7V565.76a7,7,0,0,1,7-7h0a7,7,0,0,1,7,7V683.44A7,7,0,0,1,308.16,690.42Z" fill="#4380b4"/><path d="M336.07,689.8h0a7,7,0,0,1-7-7v-131a7,7,0,0,1,7-7h0a7,7,0,0,1,7,7v131A7,7,0,0,1,336.07,689.8Z" fill="#e1e1e1"/><path d="M336.07,690.42h0a7,7,0,0,1-7-7v-51.2a7,7,0,0,1,7-7h0a7,7,0,0,1,7,7v51.2A7,7,0,0,1,336.07,690.42Z" fill="#4380b4"/><path d="M364,689.8h0a7,7,0,0,1-7-7v-131a7,7,0,0,1,7-7h0a7,7,0,0,1,7,7v131A7,7,0,0,1,364,689.8Z" fill="#e1e1e1"/><path d="M364,689.8h0c-3.85,0-7-3.13-7-6.36v-18c0-4.47,3.13-7.59,7-7.59h0a7,7,0,0,1,7,7v18A7,7,0,0,1,364,689.8Z" fill="#4380b4"/><path d="M391.88,689.8h0a7,7,0,0,1-7-7v-131a7,7,0,0,1,7-7h0a7,7,0,0,1,7,7v131A7,7,0,0,1,391.88,689.8Z" fill="#e1e1e1"/><path d="M391.88,689.8h0c-3.86,0-7-3.13-7-6.36v-64.5c0-4.47,3.12-7.59,7-7.59h0a7,7,0,0,1,7,7v64.49A7,7,0,0,1,391.88,689.8Z" fill="#4380b4"/><path d="M449.71,717.18c-.36,0-.66-43.11-.66-96.27s.3-96.28.66-96.28.65,43.1.65,96.28S450.07,717.18,449.71,717.18Z" fill="#e1e1e1"/></svg>