<svg id="illustration" xmlns="http://www.w3.org/2000/svg" viewBox="0 0 1200 800"><title>artwork</title><path d="M1059.27,610.79H707V406.86h352.32ZM709.1,608.64h348V409h-348Z" fill="#e1e1e1"/><rect x="754.09" y="515.59" width="232.5" height="6.82" fill="#f0f0f0"/><rect x="754.09" y="541.01" width="248.51" height="7.44" fill="#f0f0f0"/><rect x="754.09" y="566.72" width="248.51" height="7.44" fill="#f0f0f0"/><rect x="754.09" y="478.68" width="81.26" height="17.69" fill="#f0f0f0"/><rect x="708.02" y="407.93" width="350.17" height="32.46" fill="#e1e1e1"/><path d="M1031.25,435.55c-.45-.43,4.07-5.87,10.08-12.16s11.25-11,11.69-10.6-4.06,5.86-10.07,12.15S1031.7,436,1031.25,435.55Z" fill="#fff"/><path d="M1053,435.55c-.44.42-5.68-4.33-11.69-10.61s-10.53-11.73-10.08-12.15,5.68,4.32,11.7,10.6S1053.47,435.12,1053,435.55Z" fill="#fff"/><rect x="275.5" y="4.14" width="350.17" height="201.78" fill="#e7e7e7"/><rect x="321.58" y="111.8" width="232.5" height="6.82" fill="#f0f0f0"/><rect x="321.58" y="137.21" width="248.51" height="7.44" fill="#f0f0f0"/><rect x="321.58" y="162.93" width="248.51" height="7.44" fill="#f0f0f0"/><rect x="321.58" y="74.88" width="81.26" height="17.69" fill="#f0f0f0"/><rect x="275.5" y="4.14" width="350.17" height="32.46" fill="#e1e1e1"/><path d="M597.53,31.6c-.45-.43,4.07-5.87,10.08-12.16s11.25-11,11.69-10.61S615.24,14.7,609.23,21,598,32,597.53,31.6Z" fill="#fff"/><path d="M619.3,31.6c-.44.42-5.68-4.33-11.69-10.61S597.08,9.26,597.53,8.83s5.68,4.33,11.7,10.61S619.75,31.17,619.3,31.6Z" fill="#fff"/><path d="M493.05,379H140.73V175.05H493.05Zm-350.17-2.15h348V177.2h-348Z" fill="#e1e1e1"/><rect x="187.88" y="283.78" width="232.5" height="6.82" fill="#f0f0f0"/><rect x="187.88" y="309.2" width="248.51" height="7.44" fill="#f0f0f0"/><rect x="187.88" y="334.92" width="248.51" height="7.44" fill="#f0f0f0"/><rect x="187.88" y="246.87" width="81.26" height="17.7" fill="#f0f0f0"/><rect x="141.8" y="176.13" width="350.17" height="32.46" fill="#e1e1e1"/><rect x="486.19" y="425.71" width="413.47" height="370.15" fill="#e7e7e7"/><rect x="183.09" y="309.1" width="323.89" height="336.51" fill="#f0f0f0"/><rect x="183.09" y="309.1" width="323.89" height="36.67" fill="#e1e1e1"/><path d="M209.83,327.06A6.81,6.81,0,1,1,203,320,7,7,0,0,1,209.83,327.06Z" fill="#fff"/><path d="M237.42,327.06a6.81,6.81,0,1,1-6.8-7.11A7,7,0,0,1,237.42,327.06Z" fill="#fff"/><path d="M265,327.06a6.81,6.81,0,1,1-6.8-7.11A7,7,0,0,1,265,327.06Z" fill="#fff"/><rect x="599.56" y="77.74" width="413.47" height="412.09" fill="#f0f0f0"/><rect x="599.56" y="77.74" width="413.47" height="48.27" fill="#e1e1e1"/><path d="M634.77,101.38A9,9,0,1,1,625.82,92,9.16,9.16,0,0,1,634.77,101.38Z" fill="#fff"/><path d="M668.46,95.05a9,9,0,1,1-12.94-.29A9.14,9.14,0,0,1,668.46,95.05Z" fill="#fff"/><path d="M707.4,101.38A9,9,0,1,1,698.45,92,9.16,9.16,0,0,1,707.4,101.38Z" fill="#fff"/><path d="M778.23,642c-33.21-23.2-40.75-66.28-39.44-105,.22-6.46-.49-13.27,2.59-18.94s10.25-9.55,16-6.82c4.8,2.25,6.89,7.84,9.58,12.45a37.72,37.72,0,0,0,15.16,14.48c4.11,2.14,9.2,3.44,13.27,1.2,5.57-3.07,6.23-10.77,6.19-17.2q-.12-18-.23-35.94c0-6.43,0-13,1.94-19.1s6.42-11.76,12.54-13.48,13.67,1.82,15,8.11c.54,2.62,0,5.33.19,8s1.42,5.62,4,6.37,5.14-1.07,7.06-2.95c6.64-6.49,11.14-14.86,15.35-23.17s8.29-16.83,14.31-23.91S886,413.4,895.23,412.87s19,5.16,21.34,14.2-3,18.26-8.71,25.59A143.28,143.28,0,0,1,878,481.14c-2,1.44-4.22,3-5,5.37-1.39,4.29,2.67,8.55,6.9,9.95,4.79,1.6,10,1.1,15,1.69s10.44,2.8,12.34,7.54c2.63,6.57-2.86,13.46-8.27,18a123,123,0,0,1-36.38,21c-4.73,1.73-9.7,3.25-13.52,6.57s-6.11,9.1-3.81,13.62,8.22,6,13.18,5.07,9.38-3.61,14.1-5.39c8.83-3.34,20.24-2.73,25.9,4.91,3.72,5,4.05,12,2.17,18s-5.7,11.13-9.75,15.88c-14.16,16.61-32.28,30-52.78,37.09s-39.47,9-59.84,1.58" fill="#83b450"/><path d="M907.29,418.25a4.44,4.44,0,0,1-.63.62l-1.91,1.7c-1.68,1.49-4.16,3.68-7.28,6.6a239.9,239.9,0,0,0-24.55,26.5c-4.79,5.95-9.76,12.7-15,20S847.27,489,841.8,497.46a289.22,289.22,0,0,0-15.86,27.47c-2.48,4.91-4.69,10.05-7,15.3s-4.51,10.56-6.82,15.94C803,577.72,795,598.56,789.27,618a287.15,287.15,0,0,0-10.72,52.74,210.8,210.8,0,0,0-.6,36.31c.34,4.28.67,7.6,1,9.84.12,1.07.22,1.92.29,2.55a5.81,5.81,0,0,1,.07.88,4.4,4.4,0,0,1-.19-.86c-.1-.63-.24-1.47-.41-2.54-.38-2.23-.78-5.55-1.19-9.84a201.38,201.38,0,0,1,.23-36.42,282.66,282.66,0,0,1,10.51-53c5.69-19.54,13.72-40.44,22.86-62q3.45-8.09,6.83-16c2.25-5.23,4.48-10.41,7-15.35a288.32,288.32,0,0,1,16-27.55c5.5-8.51,11-16.39,16.27-23.72s10.27-14.06,15.11-20a228.64,228.64,0,0,1,24.89-26.31c3.17-2.87,5.7-5,7.44-6.44.84-.67,1.49-1.21,2-1.61A5.11,5.11,0,0,1,907.29,418.25Z" fill="#263238"/><path d="M825.24,524.35a12.7,12.7,0,0,1-.63-2.74c-.33-1.78-.74-4.36-1.19-7.56-.91-6.4-1.86-15.28-2.88-25.08s-2.09-18.64-3.09-25c-.49-3.19-.92-5.76-1.24-7.54a12.91,12.91,0,0,1-.35-2.79,12.69,12.69,0,0,1,.8,2.7c.46,1.75,1,4.31,1.61,7.48,1.22,6.36,2.43,15.22,3.45,25s1.86,18.42,2.53,25.1c.32,3,.6,5.56.82,7.6A12.64,12.64,0,0,1,825.24,524.35Z" fill="#263238"/><path d="M907.89,508.91a17.87,17.87,0,0,1-3.3.39c-2.12.19-5.19.45-9,.89-7.57.81-18,2.31-29.41,4.46s-21.67,4.58-29,6.53c-3.7,1-6.66,1.81-8.71,2.38a16.68,16.68,0,0,1-3.23.79,18.25,18.25,0,0,1,3.09-1.23c2-.72,4.95-1.69,8.63-2.75,7.32-2.17,17.58-4.72,29-6.9a295.8,295.8,0,0,1,29.55-4.13c3.8-.33,6.89-.46,9-.5A16.29,16.29,0,0,1,907.89,508.91Z" fill="#263238"/><path d="M789.24,616.19a4,4,0,0,1-.56-1c-.39-.81-.85-1.79-1.42-3-1.21-2.6-2.87-6.41-4.87-11.15-4-9.46-9.08-22.71-14.5-37.41s-10.4-28-14.18-37.52l-4.52-11.29L748,511.74a4.31,4.31,0,0,1-.35-1.1,4.14,4.14,0,0,1,.57,1c.38.81.85,1.79,1.41,3,1.22,2.6,2.88,6.41,4.87,11.14,4,9.47,9.08,22.72,14.51,37.43s10.39,28,14.18,37.51c1.85,4.64,3.38,8.45,4.51,11.29.49,1.23.89,2.24,1.21,3.07A4,4,0,0,1,789.24,616.19Z" fill="#263238"/><path d="M899.06,580.8a4.29,4.29,0,0,1-1.09.44l-3.19,1.07L883,586.12c-9.93,3.23-23.59,7.83-38.68,12.94s-28.81,9.59-38.81,12.61c-5,1.51-9.06,2.69-11.88,3.45l-3.25.85a4.55,4.55,0,0,1-1.16.22,4.75,4.75,0,0,1,1.09-.45l3.19-1.07,11.76-3.81c9.93-3.22,23.59-7.82,38.69-12.94s28.81-9.59,38.81-12.6c5-1.51,9.05-2.69,11.87-3.45l3.26-.86A4.11,4.11,0,0,1,899.06,580.8Z" fill="#263238"/><path d="M854.26,59.23l-11.08,4-4.74-14.47c-8.73-26.69-36.62-41-62.13-31.84s-39.16,38.26-30.43,65l4.74,14.47-11.12,4c-8.64,3.1-13.32,13.06-10.36,22.11L760,216.54c3,9.18,12.55,14.08,21.19,11l114.76-41.05c8.78-3.15,13.46-13.13,10.46-22.31L875.55,70A16.59,16.59,0,0,0,854.26,59.23ZM766.79,74.36c-4.78-14.63,2.69-30.6,16.68-35.6s29.26,2.83,34,17.45l4.74,14.47L771.53,88.83Zm64.53,83.54,7.87,24a1.94,1.94,0,0,1-1.23,2.41l-11,3.94a1.79,1.79,0,0,1-2.25-1.16l-7.87-24A21.48,21.48,0,0,1,797.41,148c-3.81-11.63,2.15-24.34,13.31-28.34s23.31,2.25,27.12,13.88A23,23,0,0,1,831.32,157.9Z" fill="#4380b4"/><path d="M741.06,742.19l-214.75-1a46.79,46.79,0,0,1-46.57-47L482,155.83a46.78,46.78,0,0,1,47-46.59l214.76,1a46.76,46.76,0,0,1,46.56,47l-2.27,538.4A46.79,46.79,0,0,1,741.06,742.19Z" fill="#1f3d73"/><path d="M743.46,128.82l-41.64-.2a10.35,10.35,0,0,0-10.15,10.53l0,7.55a10.34,10.34,0,0,1-10.16,10.52l-81.16-.37a10.35,10.35,0,0,1-10.06-10.62l0-7.55a10.36,10.36,0,0,0-10.07-10.62L565.58,128l-36.44-.16a32.76,32.76,0,0,0-32.92,32.62L494,686a32.76,32.76,0,0,0,32.61,32.9l214.33,1a32.75,32.75,0,0,0,32.91-32.62l2.22-525.51A32.76,32.76,0,0,0,743.46,128.82Z" fill="#fff"/><path d="M615.67,378.75a7.28,7.28,0,0,1,9.87,0c2.81,2.83,5.65,5.62,8.42,8.48-1.09,1.1-2.21,2.16-3.28,3.28-.52.39.28,1.26.7.72,1.13-1.06,2.2-2.18,3.31-3.27l1.86,1.87c-2,2-4,4-6,6a.52.52,0,0,0,.15.89c.35.15.59-.2.82-.39,1.91-1.92,3.83-3.81,5.74-5.72.62.62,1.25,1.24,1.86,1.87-1.1,1.13-2.27,2.21-3.35,3.37-.35.39.29,1,.69.7,1.17-1.07,2.25-2.23,3.39-3.33.63.62,1.24,1.24,1.86,1.87-2,2-4,3.94-6,5.93a.53.53,0,0,0,.13.92c.36.13.61-.21.84-.42l5.72-5.7,1.86,1.87c-1.11,1.13-2.26,2.21-3.34,3.36-.36.39.29,1.07.7.7,1.16-1.06,2.24-2.22,3.38-3.32l1.85,1.87c-2,2-4.07,4-6.06,6.06-.46.51.46,1.15.82.6,2-2,4-3.95,6-5.92l8,8.06a9.24,9.24,0,1,1-13.17,13l-21.91-22-6.46-6.5a9.42,9.42,0,0,0-9.75-2,19.81,19.81,0,0,0-3,1.56C606.14,388.24,610.91,383.5,615.67,378.75Z" fill="#4380b4"/><path d="M577.07,428.85a1.89,1.89,0,0,1,2.55,1c2,4.62,4,9.26,6,13.88,2-4.66,4-9.33,6-14a1.73,1.73,0,0,1,2.08-1,1.92,1.92,0,0,1,1.21,1.53q2.47,9.18,4.94,18.36h-3.38c-1.25-4.62-2.48-9.23-3.73-13.84l-5.46,12.63a2.41,2.41,0,0,1-1.34,1.44h-.93a2,2,0,0,1-1.29-1.26l-5.51-12.81q-1.87,6.92-3.74,13.84h-3.31v-.14c1.63-6.07,3.29-12.14,4.93-18.21A2,2,0,0,1,577.07,428.85Z" fill="#4380b4"/><path d="M658.85,429.49a1.72,1.72,0,0,1,3,0c3.83,6.35,7.61,12.74,11.42,19.11h-4.11q-1.46-2.49-2.93-5H657c.53-.93,1.08-1.85,1.6-2.78,2,0,4,0,6,0-1.44-2.46-2.89-4.91-4.34-7.37l-8.87,15.12h-3.89C651.25,442.24,655,435.85,658.85,429.49Z" fill="#4380b4"/><path d="M602.41,428.92h3.41v19.7h-3.41Z" fill="#4380b4"/><path d="M611.19,430.05a6.7,6.7,0,0,1,4-1.13h13.95v3.44h-14a2.53,2.53,0,0,0-1.92.67,2.77,2.77,0,0,0-.47,2.7,2.2,2.2,0,0,0,2.16,1.42c3.21,0,6.42,0,9.63,0a5.75,5.75,0,0,1,4.43,1.89,6.57,6.57,0,0,1,1.05,4.59,5.23,5.23,0,0,1-2.52,4.14,7.1,7.1,0,0,1-3.67.83H609.41v-3.44H623.9a3.29,3.29,0,0,0,2.11-.58,2.81,2.81,0,0,0,.58-3.36,2.66,2.66,0,0,0-2.47-1.18c-3.06,0-6.12,0-9.18,0a5.79,5.79,0,0,1-5-2.48C608.51,435.24,608.86,431.7,611.19,430.05Z" fill="#4380b4"/><path d="M631.93,428.92h18.23v3.44h-7.41v16.26h-3.41V432.36h-7.41C631.93,431.21,631.92,430.06,631.93,428.92Z" fill="#4380b4"/><path d="M675.37,428.92h14.15a6.91,6.91,0,0,1,5.4,2.29,8.39,8.39,0,0,1,1.32,7,6.12,6.12,0,0,1-3.78,4.4q2.94,3,5.87,6H693.5c-1.65-1.82-3.29-3.65-5-5.47h-7.3v-3h8.26a3.38,3.38,0,0,0,3.09-1.6,5.51,5.51,0,0,0,.26-4.07,3.34,3.34,0,0,0-3.34-2.08H678.75v16.26h-3.38Z" fill="#4380b4"/><path d="M644.11,378.79a7.21,7.21,0,0,1,8.34-1.08,8.73,8.73,0,0,1,2.21,1.81L684,409a9.24,9.24,0,0,1-7.18,15.78,9.16,9.16,0,0,1-5.88-2.72L636,386.9C638.67,384.2,641.38,381.48,644.11,378.79Z" fill="#83b450"/><path d="M604.38,391.48a9.42,9.42,0,0,1,9.75,2l6.46,6.5-20.84,21a17.89,17.89,0,0,1-2.45,2.24,9.24,9.24,0,0,1-11.9-14c5.33-5.4,10.71-10.75,16-16.15A19.81,19.81,0,0,1,604.38,391.48Z" fill="#1f3d73"/></svg>