<svg id="illustration" xmlns="http://www.w3.org/2000/svg" viewBox="0 0 512 512"><title>artwork</title><path d="M100.75,256,256,100.81,411.14,256,256,411.19Z" fill="#cbdfb0"/><path d="M411.21,256,256,100.79V411.21Z" fill="#aacd7e"/><g id="Gem"><path d="M512,256a14.07,14.07,0,0,1-4.5,10.5l-241,241A14.07,14.07,0,0,1,256,512l-30-83.5,30-59.7L368.8,256l55.3-30Z" fill="#83b450"/><path d="M256,0l30,83.5-30,59.7L143.2,256,73.77,286,0,256a14.07,14.07,0,0,1,4.5-10.5l241-241A14.07,14.07,0,0,1,256,0Z" fill="#afd085"/></g><path d="M256,368.8V512a14.07,14.07,0,0,1-10.5-4.5l-241-241A14.07,14.07,0,0,1,0,256H143.2Z" fill="#9bc06c"/><path d="M512,256H368.8L256,143.2V0a14.07,14.07,0,0,1,10.5,4.5l241,241A14.07,14.07,0,0,1,512,256Z" fill="#9bc06c"/></svg>