<svg id="illustration" xmlns="http://www.w3.org/2000/svg" viewBox="0 0 512 512"><title>artwork</title><path d="M352,416H160a21.34,21.34,0,0,1-21.33-21.33V245.33A21.34,21.34,0,0,1,160,224H352a21.34,21.34,0,0,1,21.33,21.33V394.67A21.34,21.34,0,0,1,352,416Z" fill="#83b450"/><path d="M170.67,394.67V245.33A21.34,21.34,0,0,1,192,224H160a21.34,21.34,0,0,0-21.33,21.33V394.67A21.34,21.34,0,0,0,160,416h32A21.34,21.34,0,0,1,170.67,394.67Z" fill="#78a444"/><path d="M352,426.67H160a32,32,0,0,1-32-32V245.33a32,32,0,0,1,32-32H352a32,32,0,0,1,32,32V394.67A32,32,0,0,1,352,426.67Zm-192-192a10.67,10.67,0,0,0-10.67,10.66V394.67A10.67,10.67,0,0,0,160,405.33H352a10.67,10.67,0,0,0,10.67-10.66V245.33A10.67,10.67,0,0,0,352,234.67Z"/><path d="M341.33,224H320V170.67a64,64,0,0,0-128,0V224H170.67V170.67a85.33,85.33,0,1,1,170.66,0Z"/></svg>