<svg id="illustration" xmlns="http://www.w3.org/2000/svg" viewBox="0 0 512 512"><title>artwork</title><path d="M416,124.44v192a28.53,28.53,0,0,1-28.44,28.45H224L152.89,416V344.89H124.44A28.53,28.53,0,0,1,96,316.44v-192A28.53,28.53,0,0,1,124.44,96H387.56A28.53,28.53,0,0,1,416,124.44Z" fill="#f2f2f0"/><path d="M303.5,195.41H268s6.68-9.95,6.68-26.59c0-19.91-9.95-30-16.64-30s-13.51,6.83-13.51,23.47c0,18.51-23.27,32.78-31.39,37.86a14,14,0,0,0-10.42-4.73h-7.11a14.23,14.23,0,0,0-14.23,14.23v64a14.23,14.23,0,0,0,14.23,14.22h7.11a14.12,14.12,0,0,0,13.92-12.77c10.85,4.9,37.11,12.77,71.27,12.77h7.25c13.37,0,25.46-9.67,27.59-22.76.14,0,8-38.68,8-42.52A27.26,27.26,0,0,0,303.5,195.41Z" fill="#83b450"/><path d="M213.33,273.64v-64a14.23,14.23,0,0,1,14.23-14.23h7.11a14,14,0,0,1,10.42,4.73c6.76-4.21,23.82-14.87,29.43-29,0-.8.11-1.52.11-2.36,0-19.91-9.95-30-16.64-30s-13.51,6.83-13.51,23.47c0,18.51-23.27,32.78-31.39,37.86a14,14,0,0,0-10.42-4.73h-7.11a14.23,14.23,0,0,0-14.23,14.23v64a14.23,14.23,0,0,0,14.23,14.22h7.11a13.94,13.94,0,0,0,12.43-7.74,13.74,13.74,0,0,1-1.77-6.48Z" fill="#78a444"/><path d="M128,316.44v-192A28.53,28.53,0,0,1,156.44,96h-32A28.53,28.53,0,0,0,96,124.44v192a28.53,28.53,0,0,0,28.44,28.45h28.45S128,332.09,128,316.44Z" fill="#d4dae0"/><path d="M152.89,426.67A10.67,10.67,0,0,1,142.22,416V355.56H124.44a39.15,39.15,0,0,1-39.11-39.12v-192a39.15,39.15,0,0,1,39.11-39.11H387.56a39.15,39.15,0,0,1,39.11,39.11v192a39.15,39.15,0,0,1-39.11,39.12H228.42l-68,68A10.67,10.67,0,0,1,152.89,426.67Zm-28.45-320a17.8,17.8,0,0,0-17.77,17.77v192a17.8,17.8,0,0,0,17.77,17.78h28.45a10.67,10.67,0,0,1,10.67,10.67v45.35l52.9-52.9a10.64,10.64,0,0,1,7.54-3.13H387.56a17.8,17.8,0,0,0,17.77-17.78v-192a17.8,17.8,0,0,0-17.77-17.77Z"/><path d="M202.67,298.52h-7.11a24.91,24.91,0,0,1-24.89-24.88v-64a24.91,24.91,0,0,1,24.89-24.89h7.11a24.92,24.92,0,0,1,24.89,24.89v64A24.92,24.92,0,0,1,202.67,298.52Zm-7.11-92.44a3.56,3.56,0,0,0-3.56,3.56v64a3.55,3.55,0,0,0,3.56,3.55h7.11a3.59,3.59,0,0,0,3.55-3.55v-64a3.55,3.55,0,0,0-3.55-3.56Z"/><path d="M295.11,298.52h-7.25c-39.26,0-62.41-9.88-72.71-15.77l10.59-18.53c6.81,3.9,26.52,13,62.12,13h7.25c8.31,0,15.8-6.07,17.07-13.81a9.19,9.19,0,0,1,.27-1.18c1-4.41,7.24-35.8,7.56-40a16.46,16.46,0,0,0-16.51-16.11H268a10.66,10.66,0,0,1-8.86-16.61c2.19-3.27,4.87-7.84,4.87-20.65s-5-18.73-6.82-19.47c.61.41-2,3.7-2,12.93,0,23.8-23.11,40.81-33,47l-11.3-18.09c11.12-6.94,23-18.19,23-28.92,0-23.58,12.14-34.14,24.16-34.14,13.41,0,27.31,15.22,27.31,40.68a69.58,69.58,0,0,1-1.82,15.93h20a37.86,37.86,0,0,1,37.83,37.83c0,1.31,0,3.51-4.12,24.73-1.76,9.07-3,15.26-4.13,19.48l.16,0c-3,18.08-19.36,31.7-38.13,31.7Z"/></svg>