<svg xmlns="http://www.w3.org/2000/svg" width="305.815" height="647.1" viewBox="0 0 305.815 647.1">
  <g id="Group_2451" data-name="Group 2451" transform="translate(-1194.151 -1226.25)">
    <path id="Path_1064" data-name="Path 1064" d="M1217.726,1289.512c-1.929-.421-17.686,73.573-15.63,102.349s15.63,128.8,15.63,128.8h161.818s20.237-97.288,16.627-126.749-22.824-106.951-22.824-106.951Z" transform="translate(70.779 352.685)" fill="#333"/>
    <g id="Group_2204" data-name="Group 2204" transform="translate(1194.151 1333.25)">
      <g id="Group_2203" data-name="Group 2203" transform="translate(0)">
        <g id="Group_2162" data-name="Group 2162" transform="translate(0.89)">
          <g id="Group_2161" data-name="Group 2161">
            <g id="Group_2160" data-name="Group 2160">
              <g id="Group_2159" data-name="Group 2159">
                <path id="Path_1065" data-name="Path 1065" d="M1371.081,1304.771l-23.122-104.109-1.337-17.234s-5.294-38.645-5.33-42.421c-.042-4.366-2.155-5.4-3.764-5.269-2.5.194-4.248,3.3-4.327,7.048-.028,1.295.359,21.743.359,21.743a48.1,48.1,0,0,0-4.019-5.476c-3.067-3.795-10.193-5.9-17.478-5.589s-9.3,1.045-9.307,3.88a3.605,3.605,0,0,0,1.459,2.737,7.14,7.14,0,0,0,4.823,1.6c11.676-.342,14.887,5.861,14.887,5.861l.174,2.255s-7.153-4.99-12.779-2.788a6.834,6.834,0,0,0-2.239,1.416,9.135,9.135,0,0,0-7.768,13.712c.774,1.337,2.186,2.573,3.7,2.251a4.875,4.875,0,0,0,2.052-1.276,7.205,7.205,0,0,1,1.029-.78l1.376,6.248s3.839,13.87,4.825,20.093l6.185,103.188a25.631,25.631,0,0,0,27.569,24.019h0A25.631,25.631,0,0,0,1371.081,1304.771Z" transform="translate(-1300.115 -1135.726)" fill="#ffbd9c"/>
              </g>
            </g>
          </g>
        </g>
        <g id="Group_2172" data-name="Group 2172" transform="translate(22.812 36.639)">
          <g id="Group_2166" data-name="Group 2166" transform="translate(0.618 0.593)">
            <g id="Group_2165" data-name="Group 2165">
              <g id="Group_2164" data-name="Group 2164">
                <g id="Group_2163" data-name="Group 2163">
                  <path id="Path_1066" data-name="Path 1066" d="M1335.26,1180.435c-2.135.612-4.35-.934-5.529-2.818s-1.681-4.112-2.721-6.078c-3.106-5.873-10.494-8.612-13.314-14.627-.393-.839-.616-2,.12-2.559.683-.523,1.655-.126,2.41.281l19.372,10.448" transform="translate(-1313.332 -1154.104)" fill="#ffbd9c"/>
                </g>
              </g>
            </g>
          </g>
          <g id="Group_2171" data-name="Group 2171">
            <g id="Group_2170" data-name="Group 2170">
              <g id="Group_2169" data-name="Group 2169">
                <g id="Group_2168" data-name="Group 2168">
                  <g id="Group_2167" data-name="Group 2167">
                    <path id="Path_1067" data-name="Path 1067" d="M1336.216,1165.383a8.72,8.72,0,0,0-1.979-1.345c-1.313-.794-3.231-1.906-5.618-3.256-2.49-1.39-5.32-2.966-8.408-4.688q-1.194-.657-2.439-1.339c-.806-.367-1.693-1.2-3.183-.867a1.854,1.854,0,0,0-1.25,1.665,3.811,3.811,0,0,0,.338,1.769,14.4,14.4,0,0,0,1.692,2.77c2.7,3.434,6.167,5.573,8.683,8.073a16.554,16.554,0,0,1,3.092,3.88c.746,1.355,1.22,2.781,1.793,4.054,1.035,2.619,2.958,4.344,4.522,4.755a2.773,2.773,0,0,0,2.419-.118,6.4,6.4,0,0,1-2.255-.344,7.5,7.5,0,0,1-3.867-4.637c-.5-1.246-.926-2.7-1.692-4.2a17.093,17.093,0,0,0-3.2-4.212c-2.585-2.64-6.013-4.83-8.5-8.017a13.572,13.572,0,0,1-1.538-2.5c-.375-.833-.337-1.684.148-1.775.512-.178,1.4.3,2.228.756l2.46,1.3c3.136,1.635,6.007,3.135,8.537,4.451,2.437,1.252,4.423,2.245,5.806,2.905A8.759,8.759,0,0,0,1336.216,1165.383Z" transform="translate(-1313.331 -1153.811)" fill="#ea986e"/>
                  </g>
                </g>
              </g>
            </g>
          </g>
        </g>
        <g id="Group_2177" data-name="Group 2177" transform="translate(3.344 20.306)">
          <g id="Group_2176" data-name="Group 2176">
            <g id="Group_2175" data-name="Group 2175">
              <g id="Group_2174" data-name="Group 2174">
                <g id="Group_2173" data-name="Group 2173">
                  <path id="Path_1068" data-name="Path 1068" d="M1345.218,1159.62a9.02,9.02,0,0,0-1.384-3.92,7,7,0,0,0-3.582-2.541,17.937,17.937,0,0,0-5.533-.735,28.717,28.717,0,0,1-5.778-.441,9.238,9.238,0,0,1-4.317-2.1,3.6,3.6,0,0,1-1.185-3.01,2.142,2.142,0,0,1,.373-1.126c.077.022-.052.425-.058,1.143a3.4,3.4,0,0,0,1.26,2.573,9.15,9.15,0,0,0,4.082,1.787,31.487,31.487,0,0,0,5.638.363,17.415,17.415,0,0,1,5.766.843,7.346,7.346,0,0,1,3.811,2.923,6.543,6.543,0,0,1,1.021,3.065A2.24,2.24,0,0,1,1345.218,1159.62Z" transform="translate(-1323.414 -1145.749)" fill="#ea986e"/>
                </g>
              </g>
            </g>
          </g>
        </g>
        <g id="Group_2182" data-name="Group 2182" transform="translate(33.318 5.614)">
          <g id="Group_2181" data-name="Group 2181">
            <g id="Group_2180" data-name="Group 2180">
              <g id="Group_2179" data-name="Group 2179">
                <g id="Group_2178" data-name="Group 2178">
                  <path id="Path_1069" data-name="Path 1069" d="M1319.656,1138.5a22.817,22.817,0,0,1,.1,4.066c0,2.788,0,6.112,0,9.785.055,3.673.105,7,.148,9.785a22.852,22.852,0,0,1-.043,4.066,18.22,18.22,0,0,1-.529-4.038c-.2-2.5-.357-5.975-.387-9.807s.075-7.3.237-9.812A18.334,18.334,0,0,1,1319.656,1138.5Z" transform="translate(-1318.947 -1138.497)" fill="#ea986e"/>
                </g>
              </g>
            </g>
          </g>
        </g>
        <g id="Group_2187" data-name="Group 2187" transform="translate(6.945 33.687)">
          <g id="Group_2186" data-name="Group 2186">
            <g id="Group_2185" data-name="Group 2185">
              <g id="Group_2184" data-name="Group 2184">
                <g id="Group_2183" data-name="Group 2183">
                  <path id="Path_1070" data-name="Path 1070" d="M1339.367,1157.5a4.987,4.987,0,0,1-1.193-.448,3.774,3.774,0,0,0-3.142-.115,2.017,2.017,0,0,0-1.04,1.71,10.727,10.727,0,0,0,.221,2.64,4.551,4.551,0,0,1-.452,3.2,3.868,3.868,0,0,1-3.1,1.651,4.408,4.408,0,0,1-3.215-1.349,5.513,5.513,0,0,1-1.542-2.828,17.923,17.923,0,0,1,.024-5.231,10.516,10.516,0,0,1,1-3.377c.411-.739.8-1.031.821-1,.055.049-.231.4-.535,1.139a12.409,12.409,0,0,0-.719,3.31,19.167,19.167,0,0,0,.139,5.018c.355,1.686,1.963,3.566,4,3.513a3.122,3.122,0,0,0,2.461-1.278,3.881,3.881,0,0,0,.373-2.674,10.669,10.669,0,0,1-.146-2.824,2.62,2.62,0,0,1,1.448-2.133,3.94,3.94,0,0,1,3.533.342C1339.035,1157.174,1339.39,1157.457,1339.367,1157.5Z" transform="translate(-1325.726 -1152.354)" fill="#ea986e"/>
                </g>
              </g>
            </g>
          </g>
        </g>
        <g id="Group_2192" data-name="Group 2192" transform="translate(0 32.889)">
          <g id="Group_2191" data-name="Group 2191">
            <g id="Group_2190" data-name="Group 2190">
              <g id="Group_2189" data-name="Group 2189">
                <g id="Group_2188" data-name="Group 2188">
                  <path id="Path_1071" data-name="Path 1071" d="M1340.2,1164.575c.041-.008.156.425-.1,1.155a3.541,3.541,0,0,1-2.35,2.125,4.721,4.721,0,0,1-4.492-1.333,7.711,7.711,0,0,1-2.056-5.358,9.322,9.322,0,0,1,1.687-5.476,8.921,8.921,0,0,1,3.617-2.966,8.468,8.468,0,0,1,3.043-.756,2.447,2.447,0,0,1,1.143.1,14.784,14.784,0,0,0-3.936,1.169,8.81,8.81,0,0,0-3.252,2.875,8.9,8.9,0,0,0-1.491,5.043,7.175,7.175,0,0,0,1.777,4.844,4.186,4.186,0,0,0,3.821,1.3,3.35,3.35,0,0,0,2.2-1.7C1340.131,1164.987,1340.133,1164.571,1340.2,1164.575Z" transform="translate(-1331.204 -1151.96)" fill="#ea986e"/>
                </g>
              </g>
            </g>
          </g>
        </g>
        <g id="Group_2197" data-name="Group 2197" transform="translate(23.226 50.447)">
          <g id="Group_2196" data-name="Group 2196">
            <g id="Group_2195" data-name="Group 2195">
              <g id="Group_2194" data-name="Group 2194">
                <g id="Group_2193" data-name="Group 2193">
                  <path id="Path_1072" data-name="Path 1072" d="M1319.434,1169.2a3.3,3.3,0,0,1,1.953,0,7.673,7.673,0,0,1,4.283,2.531l-.685.207a22.89,22.89,0,0,1,.423-2.729c1.127-5.278,3.987-8.734,4.121-8.578.215.123-2.251,3.671-3.33,8.75-.2.914-.343,1.807-.442,2.638l-.109.916-.575-.709a8.056,8.056,0,0,0-3.807-2.553C1320.151,1169.325,1319.432,1169.3,1319.434,1169.2Z" transform="translate(-1319.434 -1160.626)" fill="#ea986e"/>
                </g>
              </g>
            </g>
          </g>
        </g>
        <g id="Group_2202" data-name="Group 2202" transform="translate(16.757 24.213)">
          <g id="Group_2201" data-name="Group 2201">
            <g id="Group_2200" data-name="Group 2200">
              <g id="Group_2199" data-name="Group 2199">
                <g id="Group_2198" data-name="Group 2198">
                  <path id="Path_1073" data-name="Path 1073" d="M1330.491,1147.69c.192.093-.58,1.566-2.368,2.356s-3.4.4-3.335.188c.022-.235,1.459-.219,3-.93C1329.353,1148.628,1330.3,1147.549,1330.491,1147.69Z" transform="translate(-1324.787 -1147.677)" fill="#ea986e"/>
                </g>
              </g>
            </g>
          </g>
        </g>
      </g>
    </g>
    <path id="Path_1074" data-name="Path 1074" d="M1312.222,1175.527c8.469,0,28.825,24.05,32.377,60.61,1.625,16.734,10.012,85.3,14.068,118.256a32.889,32.889,0,0,1-13.385,30.634c-21.915,15.912-65.768,40.941-124.1,40.246l-35.351-29.65,114.737-48.355.063-2.616,5-5.478-14.319-87.8S1277.935,1175.529,1312.222,1175.527Z" transform="translate(141.053 238.357)" fill="#4380b7"/>
    <g id="Group_2311" data-name="Group 2311" transform="translate(1309.789 1226.25)">
      <g id="Group_2205" data-name="Group 2205" transform="translate(72.226 33.179)">
        <path id="Path_1075" data-name="Path 1075" d="M1256.545,1099.288c.431,11.874,16.262,19.07,16.06,30.953-.087,5.1-3.25,9.678-3.872,14.739-.833,6.805,2.968,13.228,4.374,19.937,2.893,13.825-5.146,28.406-17.071,35.975s-26.9,9.011-40.889,7.1" transform="translate(-1215.147 -1099.288)" fill="#1a2e35"/>
      </g>
      <g id="Group_2299" data-name="Group 2299">
        <g id="Group_2206" data-name="Group 2206" transform="translate(0 30.267)">
          <path id="Path_1076" data-name="Path 1076" d="M1265.146,1097.851c.47,6.374-3.74,12.068-7.982,16.85s-8.961,9.767-9.879,16.094c-1.625,11.211,9.352,21.621,7.089,32.721-1.213,5.948-6.086,10.728-6.953,16.737-.84,5.812,2.275,11.5,6.137,15.926s8.333,3.779,11.748,8.556a48,48,0,0,0,14.816,13.167c12.3,6.736,27.065-3.009,33-4.759" transform="translate(-1247.121 -1097.851)" fill="#1a2e35"/>
        </g>
        <g id="Group_2207" data-name="Group 2207" transform="translate(17.822)">
          <path id="Path_1077" data-name="Path 1077" d="M1319.675,1122.925c.166-5.78-5.181-10.247-10.563-12.366s-11.364-2.915-16.163-6.144c-4.246-2.859-7.1-7.32-10.7-10.964a35.6,35.6,0,0,0-59.877,16.335c-2.066,8.234-.654,17.968,5.834,23.44,7.535,6.349,18.7,4.939,28.353,2.964s20.575-3.924,28.635,1.744c4.86,3.418,7.646,8.979,10.616,14.123s6.7,10.4,12.318,12.336,13.247-1.406,13.467-7.344" transform="translate(-1221.49 -1082.911)" fill="#1a2e35"/>
        </g>
        <g id="Group_2297" data-name="Group 2297" transform="translate(12.247 28.003)">
          <g id="Group_2296" data-name="Group 2296">
            <g id="Group_2295" data-name="Group 2295">
              <g id="Group_2294" data-name="Group 2294">
                <g id="Group_2279" data-name="Group 2279">
                  <g id="Group_2278" data-name="Group 2278">
                    <g id="Group_2277" data-name="Group 2277">
                      <g id="Group_2214" data-name="Group 2214">
                        <g id="Group_2213" data-name="Group 2213">
                          <g id="Group_2212" data-name="Group 2212">
                            <g id="Group_2211" data-name="Group 2211">
                              <g id="Group_2210" data-name="Group 2210">
                                <g id="Group_2209" data-name="Group 2209">
                                  <g id="Group_2208" data-name="Group 2208">
                                    <path id="Path_1078" data-name="Path 1078" d="M1256.336,1243.417c-.079-13.266-.158-26.193-.162-26.125,0,0-21.074-3.547-25.381-31.064-2.141-13.683-1.406-36.11-.211-54.441,1.078-16.5,12.054-36.72,28.493-34.945l51.313,13.09a9.676,9.676,0,0,1,8.635,9.832h0l-4.7,124.575a29,29,0,0,1-29.558,27.905h0A29,29,0,0,1,1256.336,1243.417Z" transform="translate(-1229.429 -1096.733)" fill="#ffbd9c"/>
                                  </g>
                                </g>
                              </g>
                            </g>
                          </g>
                        </g>
                      </g>
                      <g id="Group_2230" data-name="Group 2230" transform="translate(5.938 43.041)">
                        <g id="Group_2221" data-name="Group 2221" transform="translate(3.947 4.552)">
                          <g id="Group_2220" data-name="Group 2220">
                            <g id="Group_2219" data-name="Group 2219">
                              <g id="Group_2218" data-name="Group 2218">
                                <g id="Group_2217" data-name="Group 2217">
                                  <g id="Group_2216" data-name="Group 2216">
                                    <g id="Group_2215" data-name="Group 2215">
                                      <path id="Path_1079" data-name="Path 1079" d="M1265.3,1123.406a3.53,3.53,0,0,0,3.4,3.567,3.376,3.376,0,0,0,3.643-3.173,3.531,3.531,0,0,0-3.39-3.57A3.378,3.378,0,0,0,1265.3,1123.406Z" transform="translate(-1265.297 -1120.225)" fill="#1a2e35"/>
                                    </g>
                                  </g>
                                </g>
                              </g>
                            </g>
                          </g>
                        </g>
                        <g id="Group_2229" data-name="Group 2229">
                          <g id="Group_2228" data-name="Group 2228">
                            <g id="Group_2227" data-name="Group 2227">
                              <g id="Group_2226" data-name="Group 2226">
                                <g id="Group_2225" data-name="Group 2225">
                                  <g id="Group_2224" data-name="Group 2224">
                                    <g id="Group_2223" data-name="Group 2223">
                                      <g id="Group_2222" data-name="Group 2222">
                                        <path id="Path_1080" data-name="Path 1080" d="M1263.869,1121.669c.436.461,3.114-1.51,6.911-1.492,3.791-.036,6.572,1.923,6.985,1.459.2-.2-.241-1.037-1.452-1.923a9.668,9.668,0,0,0-5.592-1.736,9.291,9.291,0,0,0-5.5,1.761C1264.051,1120.632,1263.653,1121.462,1263.869,1121.669Z" transform="translate(-1263.813 -1117.978)" fill="#1a2e35"/>
                                      </g>
                                    </g>
                                  </g>
                                </g>
                              </g>
                            </g>
                          </g>
                        </g>
                      </g>
                      <g id="Group_2246" data-name="Group 2246" transform="translate(43.25 43.831)">
                        <g id="Group_2237" data-name="Group 2237" transform="translate(3.49 4.714)">
                          <g id="Group_2236" data-name="Group 2236">
                            <g id="Group_2235" data-name="Group 2235">
                              <g id="Group_2234" data-name="Group 2234">
                                <g id="Group_2233" data-name="Group 2233">
                                  <g id="Group_2232" data-name="Group 2232">
                                    <g id="Group_2231" data-name="Group 2231">
                                      <path id="Path_1081" data-name="Path 1081" d="M1247.108,1123.876a3.53,3.53,0,0,0,3.394,3.568,3.377,3.377,0,0,0,3.645-3.173,3.531,3.531,0,0,0-3.391-3.57A3.378,3.378,0,0,0,1247.108,1123.876Z" transform="translate(-1247.106 -1120.695)" fill="#1a2e35"/>
                                    </g>
                                  </g>
                                </g>
                              </g>
                            </g>
                          </g>
                        </g>
                        <g id="Group_2245" data-name="Group 2245">
                          <g id="Group_2244" data-name="Group 2244">
                            <g id="Group_2243" data-name="Group 2243">
                              <g id="Group_2242" data-name="Group 2242">
                                <g id="Group_2241" data-name="Group 2241">
                                  <g id="Group_2240" data-name="Group 2240">
                                    <g id="Group_2239" data-name="Group 2239">
                                      <g id="Group_2238" data-name="Group 2238">
                                        <path id="Path_1082" data-name="Path 1082" d="M1245.45,1122.061c.437.46,3.116-1.511,6.91-1.493,3.791-.036,6.574,1.923,6.986,1.459.2-.2-.235-1.035-1.453-1.921a9.666,9.666,0,0,0-5.59-1.738,9.3,9.3,0,0,0-5.5,1.763C1245.636,1121.024,1245.237,1121.854,1245.45,1122.061Z" transform="translate(-1245.395 -1118.368)" fill="#1a2e35"/>
                                      </g>
                                    </g>
                                  </g>
                                </g>
                              </g>
                            </g>
                          </g>
                        </g>
                      </g>
                      <g id="Group_2254" data-name="Group 2254" transform="translate(19.801 44.019)">
                        <g id="Group_2253" data-name="Group 2253">
                          <g id="Group_2252" data-name="Group 2252">
                            <g id="Group_2251" data-name="Group 2251">
                              <g id="Group_2250" data-name="Group 2250">
                                <g id="Group_2249" data-name="Group 2249">
                                  <g id="Group_2248" data-name="Group 2248">
                                    <g id="Group_2247" data-name="Group 2247">
                                      <path id="Path_1083" data-name="Path 1083" d="M1267.863,1150.086c.018-.215-2.34-.628-6.163-1.127-.969-.1-1.886-.3-2.048-.958a4.93,4.93,0,0,1,.654-2.871q1.374-3.516,2.883-7.374c4-10.5,6.9-19.135,6.481-19.293s-4.015,8.225-8.019,18.726q-1.446,3.884-2.763,7.419c-.369,1.1-1,2.348-.511,3.8a2.431,2.431,0,0,0,1.59,1.42,6.537,6.537,0,0,0,1.647.233C1265.462,1150.28,1267.848,1150.3,1267.863,1150.086Z" transform="translate(-1258.197 -1118.461)" fill="#1a2e35"/>
                                    </g>
                                  </g>
                                </g>
                              </g>
                            </g>
                          </g>
                        </g>
                      </g>
                      <g id="Group_2261" data-name="Group 2261" transform="translate(26.745 110.815)">
                        <g id="Group_2260" data-name="Group 2260">
                          <g id="Group_2259" data-name="Group 2259">
                            <g id="Group_2258" data-name="Group 2258">
                              <g id="Group_2257" data-name="Group 2257">
                                <g id="Group_2256" data-name="Group 2256">
                                  <g id="Group_2255" data-name="Group 2255">
                                    <path id="Path_1084" data-name="Path 1084" d="M1242.259,1161.176a69.975,69.975,0,0,0,36.858-9.745c-.308.065-10.142,19.121-36.5,16.24Z" transform="translate(-1242.259 -1151.431)" fill="#ea986e"/>
                                  </g>
                                </g>
                              </g>
                            </g>
                          </g>
                        </g>
                      </g>
                      <g id="Group_2268" data-name="Group 2268" transform="translate(30.67 82.228)">
                        <g id="Group_2267" data-name="Group 2267">
                          <g id="Group_2266" data-name="Group 2266">
                            <g id="Group_2265" data-name="Group 2265">
                              <g id="Group_2264" data-name="Group 2264">
                                <g id="Group_2263" data-name="Group 2263">
                                  <g id="Group_2262" data-name="Group 2262">
                                    <path id="Path_1085" data-name="Path 1085" d="M1253.121,1139.89a6.842,6.842,0,0,1,6.137-2.529,6.242,6.242,0,0,1,4.307,2.324,3.954,3.954,0,0,1,.292,4.524c-1.029,1.438-3.171,1.767-4.98,1.248a14.363,14.363,0,0,1-4.846-2.905,4.225,4.225,0,0,1-1.082-1.126,1.268,1.268,0,0,1,.01-1.412" transform="translate(-1252.739 -1137.32)" fill="#ff4f5b"/>
                                  </g>
                                </g>
                              </g>
                            </g>
                          </g>
                        </g>
                      </g>
                      <g id="Group_2276" data-name="Group 2276" transform="translate(28.511 78.294)">
                        <g id="Group_2275" data-name="Group 2275">
                          <g id="Group_2274" data-name="Group 2274">
                            <g id="Group_2273" data-name="Group 2273">
                              <g id="Group_2272" data-name="Group 2272">
                                <g id="Group_2271" data-name="Group 2271">
                                  <g id="Group_2270" data-name="Group 2270">
                                    <g id="Group_2269" data-name="Group 2269">
                                      <path id="Path_1086" data-name="Path 1086" d="M1265.417,1135.379c-.618-.037-.634,4.084-4.169,7s-7.917,2.455-7.95,3.031c-.059.259.976.8,2.828.857a10.27,10.27,0,0,0,6.639-2.3,8.931,8.931,0,0,0,3.229-5.871C1266.154,1136.378,1265.7,1135.357,1265.417,1135.379Z" transform="translate(-1253.296 -1135.379)" fill="#1a2e35"/>
                                    </g>
                                  </g>
                                </g>
                              </g>
                            </g>
                          </g>
                        </g>
                      </g>
                    </g>
                  </g>
                </g>
                <g id="Group_2286" data-name="Group 2286" transform="translate(41.592 38.045)">
                  <g id="Group_2285" data-name="Group 2285">
                    <g id="Group_2284" data-name="Group 2284">
                      <g id="Group_2283" data-name="Group 2283">
                        <g id="Group_2282" data-name="Group 2282">
                          <g id="Group_2281" data-name="Group 2281">
                            <g id="Group_2280" data-name="Group 2280">
                              <path id="Path_1087" data-name="Path 1087" d="M1244.584,1118.342c.372,1.031,4.163.551,8.616,1.1,4.463.456,8.051,1.768,8.645.845.266-.444-.359-1.416-1.809-2.417a15.091,15.091,0,0,0-13.15-1.481C1245.251,1117.042,1244.424,1117.85,1244.584,1118.342Z" transform="translate(-1244.565 -1115.512)" fill="#1a2e35"/>
                            </g>
                          </g>
                        </g>
                      </g>
                    </g>
                  </g>
                </g>
                <g id="Group_2293" data-name="Group 2293" transform="translate(7.316 31.832)">
                  <g id="Group_2292" data-name="Group 2292">
                    <g id="Group_2291" data-name="Group 2291">
                      <g id="Group_2290" data-name="Group 2290">
                        <g id="Group_2289" data-name="Group 2289">
                          <g id="Group_2288" data-name="Group 2288">
                            <g id="Group_2287" data-name="Group 2287">
                              <path id="Path_1088" data-name="Path 1088" d="M1263.71,1116.363c.667.863,3.282-.024,6.428-.061,3.142-.144,5.8.594,6.421-.308.269-.437-.148-1.3-1.309-2.121a9.306,9.306,0,0,0-10.353.3C1263.783,1115.054,1263.416,1115.941,1263.71,1116.363Z" transform="translate(-1263.613 -1112.445)" fill="#1a2e35"/>
                            </g>
                          </g>
                        </g>
                      </g>
                    </g>
                  </g>
                </g>
              </g>
            </g>
          </g>
        </g>
        <g id="Group_2298" data-name="Group 2298" transform="translate(35.537 22.137)">
          <path id="Path_1089" data-name="Path 1089" d="M1294.185,1204.922c-7.565,1.526-8.24-2.324-13.892-7.577a24.851,24.851,0,0,1-7.6-20.958c.855-6.754,4.5-13.628,2.155-20.022-3.1-8.452-14.947-11.054-18.091-19.49-1.827-4.9-.186-10.638-2.259-15.444-1.947-4.518-6.7-7.121-11.329-8.792s-9.587-2.828-13.473-5.849-6.307-8.718-3.8-12.952a260.674,260.674,0,0,1,60.1,14.6c4.489,1.678,9.206,3.693,11.86,7.682,2.807,4.222,2.672,9.676,2.437,14.743q-1.729,37.044-3.458,74.093" transform="translate(-1224.873 -1093.838)" fill="#1a2e35"/>
        </g>
      </g>
      <g id="Group_2300" data-name="Group 2300" transform="translate(115.841 58.045)">
        <path id="Path_1090" data-name="Path 1090" d="M1204.855,1130.626a21.107,21.107,0,0,1,39.949-7.308c3.825,7.768,2.5,17.221-1.067,25.11-4.242,9.374-12.93,17.94-23.207,17.474-9.672-.437-17.456-8.932-20.244-18.2s-1.661-19.208-.51-28.821" transform="translate(-1198.546 -1111.562)" fill="#1a2e35"/>
      </g>
      <g id="Group_2302" data-name="Group 2302" transform="translate(126.283 62.739)">
        <g id="Group_2301" data-name="Group 2301">
          <path id="Path_1091" data-name="Path 1091" d="M1216.152,1165.922a4.853,4.853,0,0,0,1.44-1.6,13.522,13.522,0,0,0,2.052-5.5,26.336,26.336,0,0,0-.249-8.689c-.559-3.239-1.651-6.629-2.445-10.229a25.587,25.587,0,0,1-.6-10.178c.563-3.063,2-5.664,2.638-8.084a10.446,10.446,0,0,0,.164-5.883c-.433-1.355-1.027-1.917-1.07-1.876-.093.055.348.693.614,1.994a10.867,10.867,0,0,1-.527,5.517c-.695,2.281-2.226,4.818-2.913,8.122a25.594,25.594,0,0,0,.513,10.651c.813,3.673,1.935,7.05,2.53,10.17a27.435,27.435,0,0,1,.5,8.371C1218.283,1163.531,1215.915,1165.8,1216.152,1165.922Z" transform="translate(-1214.897 -1113.879)" fill="#375a64"/>
        </g>
      </g>
      <g id="Group_2304" data-name="Group 2304" transform="translate(127.932 81.741)">
        <g id="Group_2303" data-name="Group 2303">
          <path id="Path_1092" data-name="Path 1092" d="M1198.9,1123.268c-.1.069,1.209,1.983,4.218,4.129a24.136,24.136,0,0,0,27.186.476c3.082-2.038,4.453-3.906,4.36-3.979-.146-.154-1.72,1.469-4.808,3.25a25.136,25.136,0,0,1-26.266-.46C1200.566,1124.795,1199.051,1123.118,1198.9,1123.268Z" transform="translate(-1198.894 -1123.258)" fill="#375a64"/>
        </g>
      </g>
      <g id="Group_2306" data-name="Group 2306" transform="translate(129.288 86.058)">
        <g id="Group_2305" data-name="Group 2305">
          <path id="Path_1093" data-name="Path 1093" d="M1202.478,1125.393c-.116.055.559,1.832,2.33,4.319a30.1,30.1,0,0,0,19.931,11.985c3.029.4,4.913.162,4.907.032,0-.2-1.858-.273-4.761-.875a34.231,34.231,0,0,1-19.4-11.667C1203.592,1126.906,1202.656,1125.294,1202.478,1125.393Z" transform="translate(-1202.466 -1125.389)" fill="#375a64"/>
        </g>
      </g>
      <g id="Group_2308" data-name="Group 2308" transform="translate(35.947 12.851)">
        <g id="Group_2307" data-name="Group 2307">
          <path id="Path_1094" data-name="Path 1094" d="M1304.156,1200.4c.018.012.12-.1.3-.343a9.745,9.745,0,0,0,.758-1.1,14.574,14.574,0,0,0,1.813-4.809,16.943,16.943,0,0,0-.442-8.122,15.531,15.531,0,0,0-6.4-8.61c-3.264-2.3-7.512-3.9-10.213-7.565a8.266,8.266,0,0,1-1.493-6.459,36.9,36.9,0,0,1,2.393-7.137,20.53,20.53,0,0,0-.353-16.424,18.027,18.027,0,0,0-5.581-6.933,21.818,21.818,0,0,0-8.438-3.5c-2.978-.681-5.95-1.074-8.707-1.906a16.973,16.973,0,0,1-7.293-3.989,12.112,12.112,0,0,1-3.165-7.216,61.907,61.907,0,0,0-1.294-8,27.582,27.582,0,0,0-7.423-13.013,21.739,21.739,0,0,0-11.686-5.8,17.369,17.369,0,0,0-10.634,1.609,16.837,16.837,0,0,0-6.151,5.324,14.267,14.267,0,0,0-2.151,4.668,7.423,7.423,0,0,0-.267,1.771,17.51,17.51,0,0,1,2.8-6.163,16.581,16.581,0,0,1,16.268-6.366,20.973,20.973,0,0,1,11.125,5.677,26.684,26.684,0,0,1,7.04,12.571,61.88,61.88,0,0,1,1.232,7.887,13.25,13.25,0,0,0,3.46,7.877,18.081,18.081,0,0,0,7.792,4.309c2.889.873,5.871,1.266,8.786,1.935a20.652,20.652,0,0,1,7.993,3.288,16.852,16.852,0,0,1,5.221,6.463,19.438,19.438,0,0,1,.385,15.529,37.168,37.168,0,0,0-2.4,7.372,9.3,9.3,0,0,0,1.734,7.208c3,3.947,7.374,5.483,10.543,7.682a14.876,14.876,0,0,1,6.236,8.106,16.741,16.741,0,0,1,.624,7.838A18.438,18.438,0,0,1,1304.156,1200.4Z" transform="translate(-1217.728 -1089.254)" fill="#375a64"/>
        </g>
      </g>
      <g id="Group_2310" data-name="Group 2310" transform="translate(33.178 3.72)">
        <g id="Group_2309" data-name="Group 2309">
          <path id="Path_1095" data-name="Path 1095" d="M1307.381,1128.221a3.028,3.028,0,0,0,.338-1.268,5.929,5.929,0,0,0-.912-3.653,9.357,9.357,0,0,0-4.6-3.8,14.475,14.475,0,0,0-7.9-.262c-2.885.545-5.871,1.7-9.145,2.33-3.213.619-7.048.709-9.948-1.565-2.925-2.222-4.39-6.073-5.892-9.9a41.065,41.065,0,0,0-6.355-11.327,38.056,38.056,0,0,0-20.816-13.464,21.821,21.821,0,0,0-10.991.289,17.076,17.076,0,0,0-8.049,5.2,12.7,12.7,0,0,0-3.045,7.287,12.529,12.529,0,0,0,.91,5.9,9.515,9.515,0,0,0,2.07,3.14,3.871,3.871,0,0,0,1.015.827,13.328,13.328,0,0,1-2.648-4.141,12.392,12.392,0,0,1-.675-5.659,12.093,12.093,0,0,1,3.023-6.8,16.334,16.334,0,0,1,7.688-4.8,20.961,20.961,0,0,1,10.464-.158,37.329,37.329,0,0,1,20.108,13.128,40.313,40.313,0,0,1,6.2,11.011c1.521,3.792,3.027,7.86,6.321,10.352a10.451,10.451,0,0,0,5.43,2.038,18.6,18.6,0,0,0,5.383-.379c3.4-.707,6.335-1.9,9.127-2.478a13.982,13.982,0,0,1,7.49.057,9.014,9.014,0,0,1,4.437,3.422,5.978,5.978,0,0,1,1.068,3.389C1307.476,1127.774,1307.306,1128.2,1307.381,1128.221Z" transform="translate(-1220.023 -1084.747)" fill="#375a64"/>
        </g>
      </g>
    </g>
    <path id="Path_1096" data-name="Path 1096" d="M1457.98,1182.01l-49.116-12.419h-58.572s-30.363,1.734-47.265,16.548c-.461.405-5.711,5.136-9.211,14.959l-26.03,59.158-13.362-74.18-46.744,6.594,7.544,127.647a62.843,62.843,0,0,0,49.771,55.065l26.593-29.688c3.069,24.214,5.791,44.984,6.065,44.71.655-.65,145.6-9.376,145.6-9.376l-14.674-49.247Z" transform="translate(-2.287 232.267)" fill="#4380b7"/>
    <g id="Group_2433" data-name="Group 2433" transform="translate(1289.673 1471.615)">
      <path id="Path_1186" data-name="Path 1186" d="M1287.608,1259.561a7.891,7.891,0,0,1-1.465-1.8,20.056,20.056,0,0,1-2.6-5.79c-1.548-5.186-1.354-12.909,1.232-20.683,2.616-7.749,6.035-14.267,7.94-19.2.986-2.455,1.7-4.473,2.157-5.883a11.353,11.353,0,0,1,.778-2.176,9.172,9.172,0,0,1-.4,2.284,56.285,56.285,0,0,1-1.868,6.033c-1.75,5.041-5.073,11.633-7.644,19.261-2.532,7.626-2.828,15.109-1.5,20.184C1285.5,1256.908,1287.824,1259.441,1287.608,1259.561Z" transform="translate(-1282.561 -1204.023)" fill="#1a2e35"/>
    </g>
    <g id="Group_2434" data-name="Group 2434" transform="translate(1430.352 1476.765)">
      <path id="Path_1187" data-name="Path 1187" d="M1212.132,1206.565a4.081,4.081,0,0,1,.276,1c.158.78.355,1.745.592,2.916.5,2.686,1.165,6.325,1.981,10.754,1.623,9.09,3.78,21.661,6.046,35.566s4.192,26.519,5.446,35.671c.632,4.575,1.082,8.286,1.359,10.855.105,1.191.19,2.172.261,2.964a4.008,4.008,0,0,1,.022,1.039,4.09,4.09,0,0,1-.227-1.017c-.12-.784-.27-1.754-.45-2.938-.42-2.7-.987-6.349-1.677-10.8-1.489-9.248-3.507-21.77-5.737-35.614s-4.256-26.359-5.75-35.608c-.687-4.451-1.248-8.108-1.663-10.806-.162-1.186-.3-2.16-.405-2.948A4.063,4.063,0,0,1,1212.132,1206.565Z" transform="translate(-1212.118 -1206.565)" fill="#1a2e35"/>
    </g>
    <g id="Group_2435" data-name="Group 2435" transform="translate(1264.156 1492.009)">
      <path id="Path_1188" data-name="Path 1188" d="M1300.507,1251.135c-.148-.02.051-2.093.334-5.436s.614-7.96.752-13.071.042-9.743-.065-13.1-.2-5.43-.051-5.444c.132-.014.476,2.044.768,5.4a122.436,122.436,0,0,1-.691,26.289C1301.088,1249.118,1300.637,1251.155,1300.507,1251.135Z" transform="translate(-1300.457 -1214.089)" fill="#1a2e35"/>
    </g>
    <g id="Group_2436" data-name="Group 2436" transform="translate(1446.375 1577.153)">
      <path id="Path_1189" data-name="Path 1189" d="M1221.128,1269.446c-.162.034-.452-1.283-1.38-3.189a16.726,16.726,0,0,0-12.684-9.39c-2.095-.33-3.438-.221-3.452-.387-.018-.112,1.319-.482,3.535-.326a15.53,15.53,0,0,1,13.26,9.814C1221.2,1268.042,1221.239,1269.432,1221.128,1269.446Z" transform="translate(-1203.611 -1256.116)" fill="#1a2e35"/>
    </g>
    <g id="Group_2437" data-name="Group 2437" transform="translate(1441.37 1585.306)">
      <path id="Path_1190" data-name="Path 1190" d="M1220.71,1271.078c-.281.134-1.742-3.324-5.067-6.347-3.28-3.073-6.844-4.252-6.732-4.546.016-.255,3.933.543,7.421,3.8C1219.854,1267.2,1220.963,1271.041,1220.71,1271.078Z" transform="translate(-1208.908 -1260.14)" fill="#1a2e35"/>
    </g>
    <g id="Group_2438" data-name="Group 2438" transform="translate(1416.859 1585.439)">
      <path id="Path_1191" data-name="Path 1191" d="M1214.593,1271.041c-.1-.273,5.44-2.533,12.176-5.519s12.141-5.555,12.277-5.3c.125.239-5.087,3.235-11.866,6.225S1214.684,1271.294,1214.593,1271.041Z" transform="translate(-1214.592 -1260.206)" fill="#1a2e35"/>
    </g>
    <g id="Group_2445" data-name="Group 2445" transform="translate(1225.667 1514.002)">
      <g id="Group_2444" data-name="Group 2444" transform="translate(0)">
        <g id="Group_2443" data-name="Group 2443">
          <path id="Path_1192" data-name="Path 1192" d="M1201.911,1224.945s28.223,133.461,28.223,131.715c0-1.592,142.47,6.064,167.97,7.176l5.305-1.28,40.217-36.751-46.267-3.7-16.545-93.9Z" transform="translate(-1201.911 -1224.945)" fill="#dfdfdf"/>
          <g id="Group_2439" data-name="Group 2439" transform="translate(179.029 3.254)">
            <path id="Path_1193" data-name="Path 1193" d="M1221.62,1226.551c.277-.047,5.521,30,11.714,67.091s10.989,67.219,10.713,67.265-5.523-29.99-11.716-67.1S1221.342,1226.6,1221.62,1226.551Z" transform="translate(-1221.608 -1226.551)" fill="#375a64"/>
          </g>
          <g id="Group_2440" data-name="Group 2440" transform="translate(174.217 3.319)">
            <path id="Path_1194" data-name="Path 1194" d="M1229.5,1226.584a5.46,5.46,0,0,1-1.011,1,26.36,26.36,0,0,0-2.918,2.774c-.49.654-1.15,1.542-.806,2.48.277,1.074.421,2.208.66,3.446.438,2.488.932,5.3,1.475,8.387,2.133,12.541,5.047,29.678,8.266,48.611,3.106,18.959,5.916,36.115,7.972,48.667.958,6.151,1.74,11.167,2.3,14.767.239,1.667.429,3,.575,4.023a7.479,7.479,0,0,1,.132,1.414,7.556,7.556,0,0,1-.334-1.38c-.193-1.011-.448-2.338-.764-3.993-.638-3.586-1.528-8.584-2.62-14.712-2.131-12.541-5.044-29.68-8.266-48.618-3.1-18.953-5.913-36.107-7.972-48.659-.488-3.1-.934-5.918-1.327-8.412-.209-1.228-.336-2.417-.569-3.428a3.131,3.131,0,0,1,.972-2.847,21.805,21.805,0,0,1,3.091-2.68A11.637,11.637,0,0,1,1229.5,1226.584Z" transform="translate(-1224.207 -1226.583)" fill="#375a64"/>
          </g>
          <g id="Group_2441" data-name="Group 2441" transform="translate(1.495 5.165)">
            <path id="Path_1195" data-name="Path 1195" d="M1406.4,1230.521a11.369,11.369,0,0,1-1.742.061l-5-.024c-4.433-.061-10.685-.148-18.371-.255l-60.6-1.068-60.608-1.013-18.367-.278-4.994-.107a11.3,11.3,0,0,1-1.742-.107,10.885,10.885,0,0,1,1.742-.1q1.845-.027,4.994-.081c4.34-.059,10.616-.061,18.373-.047,15.515.047,36.947.292,60.62.715s45.089.93,60.6,1.366l18.363.579q3.148.133,4.992.214A10.651,10.651,0,0,1,1406.4,1230.521Z" transform="translate(-1234.982 -1227.494)" fill="#375a64"/>
          </g>
          <g id="Group_2442" data-name="Group 2442" transform="translate(195.679 100.901)">
            <path id="Path_1196" data-name="Path 1196" d="M1206.808,1274.806a14.466,14.466,0,0,1,2.717-.024l7.419.3c6.28.294,14.99.766,24.721,1.353l1.258.077-.96.816-1.8,1.525c-7.841,6.66-14.976,12.646-20.174,16.939l-6.189,5.045a16.08,16.08,0,0,1-2.358,1.742,16.115,16.115,0,0,1,2.1-2.044c1.552-1.374,3.562-3.152,5.981-5.29,5.077-4.435,12.139-10.506,19.982-17.166l1.8-1.526.3.893c-9.729-.6-18.432-1.2-24.7-1.671l-7.4-.61A14.485,14.485,0,0,1,1206.808,1274.806Z" transform="translate(-1206.808 -1274.749)" fill="#375a64"/>
          </g>
        </g>
        <path id="Path_1197" data-name="Path 1197" d="M1253.588,1306.318h0l-1.811-21.732s7.242-1.036,7.761,6.985v-13.454s8.278-1.811,10.089,9.056,4.4,16.738,4.4,16.738l4.4,2.407-4.139-25.1s8.8.776,10.348,9.054a81.111,81.111,0,0,0,3.91,14.094l13.9,3.886s-7.976-7.113-7.2-9.441.257-2.184,1.811-2.514,5.035.684,7.415,1.951c2.529,1.344,17.162,10,17.162,10v10.732s-34.07,2.465-41.763,1.033l-14.9-3.45A15.79,15.79,0,0,1,1253.588,1306.318Z" transform="translate(-1182.01 -1170.509)" fill="#ffbd9c"/>
      </g>
      <path id="Path_1198" data-name="Path 1198" d="M1287.926,1261.264c.948,5.715-2.435,11.035-7.558,11.886s-10.047-3.092-10.995-8.807,2.435-11.036,7.559-11.886S1286.978,1255.549,1287.926,1261.264Z" transform="translate(-1183.832 -1196.837)" fill="#f9f9f9"/>
    </g>
    <g id="Group_2446" data-name="Group 2446" transform="translate(1446.063 1575.621)" opacity="0.4">
      <path id="Path_1199" data-name="Path 1199" d="M1198.539,1256.705a25.275,25.275,0,0,1,17.746.535c5.531,2.454,9.961,7.634,10.782,13.629a8.671,8.671,0,0,1-.3,4.145,4.629,4.629,0,0,1-2.836,2.891c-2.164.66-4.473-.819-5.7-2.719s-1.694-4.175-2.52-6.278a19.8,19.8,0,0,0-17.658-12.249l.924.249" transform="translate(-1198.058 -1255.36)"/>
    </g>
    <path id="Path_1200" data-name="Path 1200" d="M1228.388,1187.314c1.161-3.669.116-7.616-.529-11.408s-.731-8.134,1.85-10.987c2.567-2.836,6.817-3.195,10.638-3.361l47.239-2.05c3.221-.14,6.955-.063,8.971,2.453,1.281,1.594,2.194,3.829,1.661,5.8-2.427,9-1.667,16.57,1.862,22.907" transform="translate(114.85 221.88)" fill="#4380b7"/>
    <g id="Group_2447" data-name="Group 2447" transform="translate(1344.737 1404.679)">
      <path id="Path_1201" data-name="Path 1201" d="M1293.743,1170.991a13.62,13.62,0,0,1-2.064,1.738,54.907,54.907,0,0,1-6.222,3.932,60.949,60.949,0,0,1-23.14,7.062,54.645,54.645,0,0,1-13.4-.259,31.6,31.6,0,0,1-10.424-3.369,19.19,19.19,0,0,1-5.743-4.644,11.238,11.238,0,0,1-1.159-1.643c-.235-.4-.344-.61-.314-.628.178-.194,2.038,3.479,7.553,6.28a32.377,32.377,0,0,0,10.227,3.077,56.417,56.417,0,0,0,13.16.172,64.554,64.554,0,0,0,22.9-6.686C1290.621,1173.24,1293.627,1170.826,1293.743,1170.991Z" transform="translate(-1231.274 -1170.983)" fill="#1a2e35"/>
    </g>
    <g id="Group_2448" data-name="Group 2448" transform="translate(1370.05 1383.2)">
      <path id="Path_1202" data-name="Path 1202" d="M1252.019,1194.755c-.137.022-.6-1.968-1.225-5.2s-1.43-7.715-2.253-12.674c-.393-2.464-.768-4.812-1.118-7a12.5,12.5,0,0,1,.194-5.916,5.774,5.774,0,0,1,2.48-3.156c.855-.468,1.412-.446,1.416-.4.022.083-.488.2-1.2.725a5.812,5.812,0,0,0-2.01,3.045,12.569,12.569,0,0,0,.044,5.551c.375,2.186.776,4.526,1.2,6.983.82,4.959,1.509,9.459,1.959,12.723S1252.157,1194.732,1252.019,1194.755Z" transform="translate(-1247.17 -1160.381)" fill="#1a2e35"/>
    </g>
    <g id="Group_2449" data-name="Group 2449" transform="translate(1393.6 1381.85)">
      <path id="Path_1203" data-name="Path 1203" d="M1241.035,1187.963c-.14.016-.468-1.623-.887-4.289s-.928-6.357-1.428-10.442c-.533-4.06-.824-7.849-1.206-10.419a3.943,3.943,0,0,0-1.473-2.51c-.579-.409-1.013-.442-1-.525-.01-.053.464-.172,1.205.184a4.1,4.1,0,0,1,1.968,2.672c.6,2.729.976,6.375,1.517,10.474.5,4.084.9,7.79,1.133,10.478S1241.174,1187.944,1241.035,1187.963Z" transform="translate(-1235.038 -1159.715)" fill="#1a2e35"/>
    </g>
    <g id="Group_2450" data-name="Group 2450" transform="translate(1348.195 1383.453)">
      <path id="Path_1204" data-name="Path 1204" d="M1263.441,1160.53a10.492,10.492,0,0,0-3.179,2.66,10.163,10.163,0,0,0-1.734,4.082,21,21,0,0,0-.166,5.557c.365,4.011.7,7.684.871,10.332s.213,4.3.073,4.313-.43-1.609-.788-4.242-.8-6.264-1.169-10.327a19.883,19.883,0,0,1,.261-5.825,10.121,10.121,0,0,1,2.089-4.338C1261.54,1160.578,1263.477,1160.427,1263.441,1160.53Z" transform="translate(-1257.255 -1160.506)" fill="#1a2e35"/>
    </g>
  </g>
</svg>
